<?xml version="1.0" encoding="UTF-8" standalone="no"?>
<!DOCTYPE svg PUBLIC "-//W3C//DTD SVG 1.1//EN"
 "http://www.w3.org/Graphics/SVG/1.1/DTD/svg11.dtd">
<!-- Generated by graphviz version 13.0.0 (20250608.1624)
 -->
<!-- Title: sfml_ui/src/core/message/ActiveKeyBinding.cpp Pages: 1 -->
<svg width="288pt" height="152pt"
 viewBox="0.00 0.00 288.00 152.00" xmlns="http://www.w3.org/2000/svg" xmlns:xlink="http://www.w3.org/1999/xlink">
<g id="graph0" class="graph" transform="scale(1 1) rotate(0) translate(4 148)">
<title>sfml_ui/src/core/message/ActiveKeyBinding.cpp</title>
<!-- Node1 -->
<g id="Node000001" class="node">
<title>Node1</title>
<g id="a_Node000001"><a xlink:title=" ">
<polygon fill="#999999" stroke="#666666" points="214.75,-144 86.25,-144 86.25,-112 214.75,-112 214.75,-144"/>
<text xml:space="preserve" text-anchor="start" x="94.25" y="-130.5" font-family="Helvetica,sans-Serif" font-size="10.00">sfml_ui/src/core/message</text>
<text xml:space="preserve" text-anchor="middle" x="150.5" y="-118.5" font-family="Helvetica,sans-Serif" font-size="10.00">/ActiveKeyBinding.cpp</text>
</a>
</g>
</g>
<!-- Node2 -->
<g id="Node000002" class="node">
<title>Node2</title>
<g id="a_Node000002"><a xlink:href="_active_key_binding_8hpp.html" target="_top" xlink:title=" ">
<polygon fill="white" stroke="#666666" points="206.5,-76 94.5,-76 94.5,-56 206.5,-56 206.5,-76"/>
<text xml:space="preserve" text-anchor="middle" x="150.5" y="-62.5" font-family="Helvetica,sans-Serif" font-size="10.00">ActiveKeyBinding.hpp</text>
</a>
</g>
</g>
<!-- Node1&#45;&gt;Node2 -->
<g id="edge1_Node000001_Node000002" class="edge">
<title>Node1&#45;&gt;Node2</title>
<g id="a_edge1_Node000001_Node000002"><a xlink:title=" ">
<path fill="none" stroke="#63b8ff" d="M150.5,-111.55C150.5,-104.34 150.5,-95.66 150.5,-87.88"/>
<polygon fill="#63b8ff" stroke="#63b8ff" points="154,-87.92 150.5,-77.92 147,-87.92 154,-87.92"/>
</a>
</g>
</g>
<!-- Node3 -->
<g id="Node000003" class="node">
<title>Node3</title>
<g id="a_Node000003"><a xlink:title=" ">
<polygon fill="#e0e0e0" stroke="#999999" points="103,-20 0,-20 0,0 103,0 103,-20"/>
<text xml:space="preserve" text-anchor="middle" x="51.5" y="-6.5" font-family="Helvetica,sans-Serif" font-size="10.00">SFML/Graphics.hpp</text>
</a>
</g>
</g>
<!-- Node2&#45;&gt;Node3 -->
<g id="edge2_Node000002_Node000003" class="edge">
<title>Node2&#45;&gt;Node3</title>
<g id="a_edge2_Node000002_Node000003"><a xlink:title=" ">
<path fill="none" stroke="#63b8ff" d="M133.26,-55.59C118.16,-47.36 95.97,-35.26 78.52,-25.74"/>
<polygon fill="#63b8ff" stroke="#63b8ff" points="80.66,-22.92 70.21,-21.2 77.31,-29.07 80.66,-22.92"/>
</a>
</g>
</g>
<!-- Node4 -->
<g id="Node000004" class="node">
<title>Node4</title>
<g id="a_Node000004"><a xlink:title=" ">
<polygon fill="#e0e0e0" stroke="#999999" points="179.5,-20 121.5,-20 121.5,0 179.5,0 179.5,-20"/>
<text xml:space="preserve" text-anchor="middle" x="150.5" y="-6.5" font-family="Helvetica,sans-Serif" font-size="10.00">functional</text>
</a>
</g>
</g>
<!-- Node2&#45;&gt;Node4 -->
<g id="edge3_Node000002_Node000004" class="edge">
<title>Node2&#45;&gt;Node4</title>
<g id="a_edge3_Node000002_Node000004"><a xlink:title=" ">
<path fill="none" stroke="#63b8ff" d="M150.5,-55.59C150.5,-49.01 150.5,-39.96 150.5,-31.73"/>
<polygon fill="#63b8ff" stroke="#63b8ff" points="154,-31.81 150.5,-21.81 147,-31.81 154,-31.81"/>
</a>
</g>
</g>
<!-- Node5 -->
<g id="Node000005" class="node">
<title>Node5</title>
<g id="a_Node000005"><a xlink:title=" ">
<polygon fill="#e0e0e0" stroke="#999999" points="279.88,-20 197.12,-20 197.12,0 279.88,0 279.88,-20"/>
<text xml:space="preserve" text-anchor="middle" x="238.5" y="-6.5" font-family="Helvetica,sans-Serif" font-size="10.00">unordered_map</text>
</a>
</g>
</g>
<!-- Node2&#45;&gt;Node5 -->
<g id="edge4_Node000002_Node000005" class="edge">
<title>Node2&#45;&gt;Node5</title>
<g id="a_edge4_Node000002_Node000005"><a xlink:title=" ">
<path fill="none" stroke="#63b8ff" d="M165.83,-55.59C179,-47.51 198.23,-35.71 213.61,-26.27"/>
<polygon fill="#63b8ff" stroke="#63b8ff" points="215.07,-29.48 221.76,-21.27 211.41,-23.52 215.07,-29.48"/>
</a>
</g>
</g>
</g>
</svg>
