<?xml version="1.0" encoding="UTF-8" standalone="no"?>
<!DOCTYPE svg PUBLIC "-//W3C//DTD SVG 1.1//EN"
 "http://www.w3.org/Graphics/SVG/1.1/DTD/svg11.dtd">
<!-- Generated by graphviz version 13.0.0 (20250608.1624)
 -->
<!-- Title: sfml_ui/include/customizable/controls/Area.hpp Pages: 1 -->
<svg width="646pt" height="572pt"
 viewBox="0.00 0.00 646.00 572.00" xmlns="http://www.w3.org/2000/svg" xmlns:xlink="http://www.w3.org/1999/xlink">
<g id="graph0" class="graph" transform="scale(1 1) rotate(0) translate(4 568)">
<title>sfml_ui/include/customizable/controls/Area.hpp</title>
<!-- Node1 -->
<g id="Node000001" class="node">
<title>Node1</title>
<g id="a_Node000001"><a xlink:title=" ">
<polygon fill="#999999" stroke="#666666" points="447.5,-564 305.5,-564 305.5,-532 447.5,-532 447.5,-564"/>
<text xml:space="preserve" text-anchor="start" x="313.5" y="-550.5" font-family="Helvetica,sans-Serif" font-size="10.00">sfml_ui/include/customizable</text>
<text xml:space="preserve" text-anchor="middle" x="376.5" y="-538.5" font-family="Helvetica,sans-Serif" font-size="10.00">/controls/Area.hpp</text>
</a>
</g>
</g>
<!-- Node2 -->
<g id="Node000002" class="node">
<title>Node2</title>
<g id="a_Node000002"><a xlink:href="inputbox_8hpp.html" target="_top" xlink:title=" ">
<polygon fill="white" stroke="#666666" points="368.5,-428 226.5,-428 226.5,-396 368.5,-396 368.5,-428"/>
<text xml:space="preserve" text-anchor="start" x="234.5" y="-414.5" font-family="Helvetica,sans-Serif" font-size="10.00">sfml_ui/include/customizable</text>
<text xml:space="preserve" text-anchor="middle" x="297.5" y="-402.5" font-family="Helvetica,sans-Serif" font-size="10.00">/components/inputbox.hpp</text>
</a>
</g>
</g>
<!-- Node1&#45;&gt;Node2 -->
<g id="edge1_Node000001_Node000002" class="edge">
<title>Node1&#45;&gt;Node2</title>
<g id="a_edge1_Node000001_Node000002"><a xlink:title=" ">
<path fill="none" stroke="#63b8ff" d="M361.71,-521.92C345.47,-494.37 319.91,-451.01 306.46,-428.19"/>
<polygon fill="#63b8ff" stroke="#63b8ff" points="358.58,-523.49 366.67,-530.32 364.61,-519.93 358.58,-523.49"/>
</a>
</g>
</g>
<!-- Node15 -->
<g id="Node000015" class="node">
<title>Node15</title>
<g id="a_Node000015"><a xlink:href="button_8hpp.html" target="_top" xlink:title=" ">
<polygon fill="white" stroke="#666666" points="526.5,-496 384.5,-496 384.5,-464 526.5,-464 526.5,-496"/>
<text xml:space="preserve" text-anchor="start" x="392.5" y="-482.5" font-family="Helvetica,sans-Serif" font-size="10.00">sfml_ui/include/customizable</text>
<text xml:space="preserve" text-anchor="middle" x="455.5" y="-470.5" font-family="Helvetica,sans-Serif" font-size="10.00">/controls/button.hpp</text>
</a>
</g>
</g>
<!-- Node1&#45;&gt;Node15 -->
<g id="edge19_Node000001_Node000015" class="edge">
<title>Node1&#45;&gt;Node15</title>
<g id="a_edge19_Node000001_Node000015"><a xlink:title=" ">
<path fill="none" stroke="#63b8ff" d="M403.64,-524.32C414.65,-515.13 427.07,-504.75 437,-496.45"/>
<polygon fill="#63b8ff" stroke="#63b8ff" points="401.41,-521.62 395.98,-530.72 405.9,-527 401.41,-521.62"/>
</a>
</g>
</g>
<!-- Node3 -->
<g id="Node000003" class="node">
<title>Node3</title>
<g id="a_Node000003"><a xlink:href="_page_8hpp.html" target="_top" xlink:title=" ">
<polygon fill="white" stroke="#666666" points="349,-360 246,-360 246,-328 349,-328 349,-360"/>
<text xml:space="preserve" text-anchor="start" x="254" y="-346.5" font-family="Helvetica,sans-Serif" font-size="10.00">sfml_ui/include/core</text>
<text xml:space="preserve" text-anchor="middle" x="297.5" y="-334.5" font-family="Helvetica,sans-Serif" font-size="10.00">/pages/Page.hpp</text>
</a>
</g>
</g>
<!-- Node2&#45;&gt;Node3 -->
<g id="edge2_Node000002_Node000003" class="edge">
<title>Node2&#45;&gt;Node3</title>
<g id="a_edge2_Node000002_Node000003"><a xlink:title=" ">
<path fill="none" stroke="#63b8ff" d="M297.5,-384.31C297.5,-376.12 297.5,-367.38 297.5,-360.22"/>
<polygon fill="#63b8ff" stroke="#63b8ff" points="294,-384.18 297.5,-394.18 301,-384.18 294,-384.18"/>
</a>
</g>
</g>
<!-- Node4 -->
<g id="Node000004" class="node">
<title>Node4</title>
<g id="a_Node000004"><a xlink:href="_control_page_8hpp.html" target="_top" xlink:title=" ">
<polygon fill="white" stroke="#666666" points="393,-224 272,-224 272,-192 393,-192 393,-224"/>
<text xml:space="preserve" text-anchor="start" x="280" y="-210.5" font-family="Helvetica,sans-Serif" font-size="10.00">sfml_ui/include/core</text>
<text xml:space="preserve" text-anchor="middle" x="332.5" y="-198.5" font-family="Helvetica,sans-Serif" font-size="10.00">/pages/ControlPage.hpp</text>
</a>
</g>
</g>
<!-- Node3&#45;&gt;Node4 -->
<g id="edge3_Node000003_Node000004" class="edge">
<title>Node3&#45;&gt;Node4</title>
<g id="a_edge3_Node000003_Node000004"><a xlink:title=" ">
<path fill="none" stroke="#63b8ff" d="M321.93,-319.42C328.62,-311.42 334.99,-301.97 338.5,-292 346.42,-269.52 341.64,-241.53 337.24,-224.48"/>
<polygon fill="#63b8ff" stroke="#63b8ff" points="319.5,-316.9 315.39,-326.66 324.69,-321.59 319.5,-316.9"/>
</a>
</g>
</g>
<!-- Node11 -->
<g id="Node000011" class="node">
<title>Node11</title>
<g id="a_Node000011"><a xlink:href="_interactive_page_8hpp.html" target="_top" xlink:title=" ">
<polygon fill="white" stroke="#666666" points="546.12,-224 410.88,-224 410.88,-192 546.12,-192 546.12,-224"/>
<text xml:space="preserve" text-anchor="start" x="418.88" y="-210.5" font-family="Helvetica,sans-Serif" font-size="10.00">sfml_ui/include/core</text>
<text xml:space="preserve" text-anchor="middle" x="478.5" y="-198.5" font-family="Helvetica,sans-Serif" font-size="10.00">/pages/InteractivePage.hpp</text>
</a>
</g>
</g>
<!-- Node3&#45;&gt;Node11 -->
<g id="edge10_Node000003_Node000011" class="edge">
<title>Node3&#45;&gt;Node11</title>
<g id="a_edge10_Node000003_Node000011"><a xlink:title=" ">
<path fill="none" stroke="#63b8ff" d="M327.5,-320.79C364.3,-293.55 425.71,-248.08 457.7,-224.4"/>
<polygon fill="#63b8ff" stroke="#63b8ff" points="325.43,-317.96 319.48,-326.73 329.6,-323.59 325.43,-317.96"/>
</a>
</g>
</g>
<!-- Node12 -->
<g id="Node000012" class="node">
<title>Node12</title>
<g id="a_Node000012"><a xlink:href="_window_8hpp.html" target="_top" xlink:title=" ">
<polygon fill="white" stroke="#666666" points="329.62,-292 221.38,-292 221.38,-260 329.62,-260 329.62,-292"/>
<text xml:space="preserve" text-anchor="start" x="229.38" y="-278.5" font-family="Helvetica,sans-Serif" font-size="10.00">sfml_ui/include/core</text>
<text xml:space="preserve" text-anchor="middle" x="275.5" y="-266.5" font-family="Helvetica,sans-Serif" font-size="10.00">/window/Window.hpp</text>
</a>
</g>
</g>
<!-- Node3&#45;&gt;Node12 -->
<g id="edge12_Node000003_Node000012" class="edge">
<title>Node3&#45;&gt;Node12</title>
<g id="a_edge12_Node000003_Node000012"><a xlink:title=" ">
<path fill="none" stroke="#63b8ff" d="M288.8,-316.89C286.01,-308.52 283.01,-299.54 280.57,-292.22"/>
<polygon fill="#63b8ff" stroke="#63b8ff" points="285.44,-317.88 291.92,-326.26 292.08,-315.66 285.44,-317.88"/>
</a>
</g>
</g>
<!-- Node13 -->
<g id="Node000013" class="node">
<title>Node13</title>
<g id="a_Node000013"><a xlink:href="_page_8cpp.html" target="_top" xlink:title="实现Page类及相关函数，负责界面生命周期、事件绑定、渲染等。">
<polygon fill="white" stroke="#666666" points="115,-224 0,-224 0,-192 115,-192 115,-224"/>
<text xml:space="preserve" text-anchor="start" x="8" y="-210.5" font-family="Helvetica,sans-Serif" font-size="10.00">sfml_ui/src/core/pages</text>
<text xml:space="preserve" text-anchor="middle" x="57.5" y="-198.5" font-family="Helvetica,sans-Serif" font-size="10.00">/Page.cpp</text>
</a>
</g>
</g>
<!-- Node3&#45;&gt;Node13 -->
<g id="edge17_Node000003_Node000013" class="edge">
<title>Node3&#45;&gt;Node13</title>
<g id="a_edge17_Node000003_Node000013"><a xlink:title=" ">
<path fill="none" stroke="#63b8ff" d="M254.41,-322.68C235.8,-313.64 213.89,-302.65 194.5,-292 154.04,-269.78 108.45,-241.48 81.39,-224.32"/>
<polygon fill="#63b8ff" stroke="#63b8ff" points="252.77,-325.77 263.3,-326.96 255.81,-319.47 252.77,-325.77"/>
</a>
</g>
</g>
<!-- Node14 -->
<g id="Node000014" class="node">
<title>Node14</title>
<g id="a_Node000014"><a xlink:href="_window_8cpp.html" target="_top" xlink:title=" ">
<polygon fill="white" stroke="#666666" points="254.38,-224 132.62,-224 132.62,-192 254.38,-192 254.38,-224"/>
<text xml:space="preserve" text-anchor="start" x="140.62" y="-210.5" font-family="Helvetica,sans-Serif" font-size="10.00">sfml_ui/src/core/window</text>
<text xml:space="preserve" text-anchor="middle" x="193.5" y="-198.5" font-family="Helvetica,sans-Serif" font-size="10.00">/Window.cpp</text>
</a>
</g>
</g>
<!-- Node3&#45;&gt;Node14 -->
<g id="edge18_Node000003_Node000014" class="edge">
<title>Node3&#45;&gt;Node14</title>
<g id="a_edge18_Node000003_Node000014"><a xlink:title=" ">
<path fill="none" stroke="#63b8ff" d="M247.77,-322.1C234.58,-314.39 221.52,-304.43 212.5,-292 197.83,-271.78 194.25,-242.08 193.51,-224.24"/>
<polygon fill="#63b8ff" stroke="#63b8ff" points="246.03,-325.13 256.49,-326.83 249.37,-318.98 246.03,-325.13"/>
</a>
</g>
</g>
<!-- Node5 -->
<g id="Node000005" class="node">
<title>Node5</title>
<g id="a_Node000005"><a xlink:href="_complex_page_8hpp.html" target="_top" xlink:title=" ">
<polygon fill="white" stroke="#666666" points="449.75,-156 321.25,-156 321.25,-124 449.75,-124 449.75,-156"/>
<text xml:space="preserve" text-anchor="start" x="329.25" y="-142.5" font-family="Helvetica,sans-Serif" font-size="10.00">sfml_ui/include/core</text>
<text xml:space="preserve" text-anchor="middle" x="385.5" y="-130.5" font-family="Helvetica,sans-Serif" font-size="10.00">/pages/ComplexPage.hpp</text>
</a>
</g>
</g>
<!-- Node4&#45;&gt;Node5 -->
<g id="edge4_Node000004_Node000005" class="edge">
<title>Node4&#45;&gt;Node5</title>
<g id="a_edge4_Node000004_Node000005"><a xlink:title=" ">
<path fill="none" stroke="#63b8ff" d="M351.88,-182.87C359.03,-173.96 366.93,-164.12 373.27,-156.22"/>
<polygon fill="#63b8ff" stroke="#63b8ff" points="349.27,-180.52 345.74,-190.51 354.73,-184.91 349.27,-180.52"/>
</a>
</g>
</g>
<!-- Node6 -->
<g id="Node000006" class="node">
<title>Node6</title>
<g id="a_Node000006"><a xlink:href="_main_menu_page_8hpp.html" target="_top" xlink:title=" ">
<polygon fill="white" stroke="#666666" points="245.12,-88 139.88,-88 139.88,-56 245.12,-56 245.12,-88"/>
<text xml:space="preserve" text-anchor="start" x="147.88" y="-74.5" font-family="Helvetica,sans-Serif" font-size="10.00">game/include/pages</text>
<text xml:space="preserve" text-anchor="middle" x="192.5" y="-62.5" font-family="Helvetica,sans-Serif" font-size="10.00">/MainMenuPage.hpp</text>
</a>
</g>
</g>
<!-- Node5&#45;&gt;Node6 -->
<g id="edge5_Node000005_Node000006" class="edge">
<title>Node5&#45;&gt;Node6</title>
<g id="a_edge5_Node000005_Node000006"><a xlink:title=" ">
<path fill="none" stroke="#63b8ff" d="M329.41,-119.82C300.29,-109.86 265.18,-97.85 237.8,-88.49"/>
<polygon fill="#63b8ff" stroke="#63b8ff" points="328.22,-123.11 338.82,-123.04 330.49,-116.49 328.22,-123.11"/>
</a>
</g>
</g>
<!-- Node8 -->
<g id="Node000008" class="node">
<title>Node8</title>
<g id="a_Node000008"><a xlink:href="gamepage_8hpp.html" target="_top" xlink:title=" ">
<polygon fill="white" stroke="#666666" points="366,-88 263,-88 263,-56 366,-56 366,-88"/>
<text xml:space="preserve" text-anchor="start" x="271" y="-74.5" font-family="Helvetica,sans-Serif" font-size="10.00">game/include/pages</text>
<text xml:space="preserve" text-anchor="middle" x="314.5" y="-62.5" font-family="Helvetica,sans-Serif" font-size="10.00">/gamepage.hpp</text>
</a>
</g>
</g>
<!-- Node5&#45;&gt;Node8 -->
<g id="edge7_Node000005_Node000008" class="edge">
<title>Node5&#45;&gt;Node8</title>
<g id="a_edge7_Node000005_Node000008"><a xlink:title=" ">
<path fill="none" stroke="#63b8ff" d="M360.74,-115.99C350.85,-106.79 339.73,-96.46 330.88,-88.22"/>
<polygon fill="#63b8ff" stroke="#63b8ff" points="358.22,-118.42 367.92,-122.66 362.98,-113.29 358.22,-118.42"/>
</a>
</g>
</g>
<!-- Node9 -->
<g id="Node000009" class="node">
<title>Node9</title>
<g id="a_Node000009"><a xlink:href="pausegamepage_8hpp.html" target="_top" xlink:title=" ">
<polygon fill="white" stroke="#666666" points="493,-88 384,-88 384,-56 493,-56 493,-88"/>
<text xml:space="preserve" text-anchor="start" x="392" y="-74.5" font-family="Helvetica,sans-Serif" font-size="10.00">game/include/pages</text>
<text xml:space="preserve" text-anchor="middle" x="438.5" y="-62.5" font-family="Helvetica,sans-Serif" font-size="10.00">/pausegamepage.hpp</text>
</a>
</g>
</g>
<!-- Node5&#45;&gt;Node9 -->
<g id="edge8_Node000005_Node000009" class="edge">
<title>Node5&#45;&gt;Node9</title>
<g id="a_edge8_Node000005_Node000009"><a xlink:title=" ">
<path fill="none" stroke="#63b8ff" d="M404.88,-114.87C412.03,-105.96 419.93,-96.12 426.27,-88.22"/>
<polygon fill="#63b8ff" stroke="#63b8ff" points="402.27,-112.52 398.74,-122.51 407.73,-116.91 402.27,-112.52"/>
</a>
</g>
</g>
<!-- Node10 -->
<g id="Node000010" class="node">
<title>Node10</title>
<g id="a_Node000010"><a xlink:href="page__emplate_8hpp.html" target="_top" xlink:title=" ">
<polygon fill="white" stroke="#666666" points="638.38,-88 510.62,-88 510.62,-56 638.38,-56 638.38,-88"/>
<text xml:space="preserve" text-anchor="start" x="518.62" y="-74.5" font-family="Helvetica,sans-Serif" font-size="10.00">sfml_ui/include/core</text>
<text xml:space="preserve" text-anchor="middle" x="574.5" y="-62.5" font-family="Helvetica,sans-Serif" font-size="10.00">/pages/page_emplate.hpp</text>
</a>
</g>
</g>
<!-- Node5&#45;&gt;Node10 -->
<g id="edge9_Node000005_Node000010" class="edge">
<title>Node5&#45;&gt;Node10</title>
<g id="a_edge9_Node000005_Node000010"><a xlink:title=" ">
<path fill="none" stroke="#63b8ff" d="M440.43,-119.82C468.94,-109.86 503.33,-97.85 530.14,-88.49"/>
<polygon fill="#63b8ff" stroke="#63b8ff" points="439.53,-116.43 431.24,-123.03 441.84,-123.03 439.53,-116.43"/>
</a>
</g>
</g>
<!-- Node7 -->
<g id="Node000007" class="node">
<title>Node7</title>
<g id="a_Node000007"><a xlink:href="main_8cpp.html" target="_top" xlink:title=" ">
<polygon fill="white" stroke="#666666" points="242.12,-20 142.88,-20 142.88,0 242.12,0 242.12,-20"/>
<text xml:space="preserve" text-anchor="middle" x="192.5" y="-6.5" font-family="Helvetica,sans-Serif" font-size="10.00">game/src/main.cpp</text>
</a>
</g>
</g>
<!-- Node6&#45;&gt;Node7 -->
<g id="edge6_Node000006_Node000007" class="edge">
<title>Node6&#45;&gt;Node7</title>
<g id="a_edge6_Node000006_Node000007"><a xlink:title=" ">
<path fill="none" stroke="#63b8ff" d="M192.5,-44.08C192.5,-35.6 192.5,-26.8 192.5,-20.41"/>
<polygon fill="#63b8ff" stroke="#63b8ff" points="189,-44.03 192.5,-54.03 196,-44.03 189,-44.03"/>
</a>
</g>
</g>
<!-- Node11&#45;&gt;Node5 -->
<g id="edge11_Node000011_Node000005" class="edge">
<title>Node11&#45;&gt;Node5</title>
<g id="a_edge11_Node000011_Node000005"><a xlink:title=" ">
<path fill="none" stroke="#63b8ff" d="M447.71,-185.15C434.47,-175.75 419.31,-165 407.28,-156.45"/>
<polygon fill="#63b8ff" stroke="#63b8ff" points="445.52,-187.88 455.7,-190.82 449.57,-182.17 445.52,-187.88"/>
</a>
</g>
</g>
<!-- Node12&#45;&gt;Node4 -->
<g id="edge13_Node000012_Node000004" class="edge">
<title>Node12&#45;&gt;Node4</title>
<g id="a_edge13_Node000012_Node000004"><a xlink:title=" ">
<path fill="none" stroke="#63b8ff" d="M296.1,-251.15C303.85,-242.17 312.46,-232.21 319.35,-224.22"/>
<polygon fill="#63b8ff" stroke="#63b8ff" points="293.6,-248.69 289.71,-258.55 298.89,-253.27 293.6,-248.69"/>
</a>
</g>
</g>
<!-- Node12&#45;&gt;Node11 -->
<g id="edge14_Node000012_Node000011" class="edge">
<title>Node12&#45;&gt;Node11</title>
<g id="a_edge14_Node000012_Node000011"><a xlink:title=" ">
<path fill="none" stroke="#63b8ff" d="M333.69,-256.08C364.47,-246.07 401.8,-233.94 430.85,-224.49"/>
<polygon fill="#63b8ff" stroke="#63b8ff" points="332.96,-252.64 324.53,-259.06 335.13,-259.29 332.96,-252.64"/>
</a>
</g>
</g>
<!-- Node12&#45;&gt;Node13 -->
<g id="edge15_Node000012_Node000013" class="edge">
<title>Node12&#45;&gt;Node13</title>
<g id="a_edge15_Node000012_Node000013"><a xlink:title=" ">
<path fill="none" stroke="#63b8ff" d="M213.45,-256.21C180.3,-246.18 140,-233.98 108.67,-224.49"/>
<polygon fill="#63b8ff" stroke="#63b8ff" points="212.35,-259.54 222.94,-259.09 214.38,-252.84 212.35,-259.54"/>
</a>
</g>
</g>
<!-- Node12&#45;&gt;Node14 -->
<g id="edge16_Node000012_Node000014" class="edge">
<title>Node12&#45;&gt;Node14</title>
<g id="a_edge16_Node000012_Node000014"><a xlink:title=" ">
<path fill="none" stroke="#63b8ff" d="M247.67,-252.6C236.16,-243.34 223.11,-232.83 212.7,-224.45"/>
<polygon fill="#63b8ff" stroke="#63b8ff" points="245.32,-255.2 255.3,-258.74 249.71,-249.75 245.32,-255.2"/>
</a>
</g>
</g>
<!-- Node15&#45;&gt;Node10 -->
<g id="edge23_Node000015_Node000010" class="edge">
<title>Node15&#45;&gt;Node10</title>
<g id="a_edge23_Node000015_Node000010"><a xlink:title=" ">
<path fill="none" stroke="#63b8ff" d="M496.58,-457.86C509.53,-449.79 523.15,-439.67 533.5,-428 560.79,-397.21 574.5,-386.14 574.5,-345 574.5,-345 574.5,-345 574.5,-207 574.5,-163.96 574.5,-113.15 574.5,-88.27"/>
<polygon fill="#63b8ff" stroke="#63b8ff" points="494.97,-454.74 488.16,-462.86 498.55,-460.76 494.97,-454.74"/>
</a>
</g>
</g>
<!-- Node16 -->
<g id="Node000016" class="node">
<title>Node16</title>
<g id="a_Node000016"><a xlink:href="_event_binding_8hpp.html" target="_top" xlink:title=" ">
<polygon fill="white" stroke="#666666" points="524.62,-428 386.38,-428 386.38,-396 524.62,-396 524.62,-428"/>
<text xml:space="preserve" text-anchor="start" x="394.38" y="-414.5" font-family="Helvetica,sans-Serif" font-size="10.00">sfml_ui/include/core</text>
<text xml:space="preserve" text-anchor="middle" x="455.5" y="-402.5" font-family="Helvetica,sans-Serif" font-size="10.00">/message/EventBinding.hpp</text>
</a>
</g>
</g>
<!-- Node15&#45;&gt;Node16 -->
<g id="edge20_Node000015_Node000016" class="edge">
<title>Node15&#45;&gt;Node16</title>
<g id="a_edge20_Node000015_Node000016"><a xlink:title=" ">
<path fill="none" stroke="#63b8ff" d="M455.5,-452.31C455.5,-444.12 455.5,-435.38 455.5,-428.22"/>
<polygon fill="#63b8ff" stroke="#63b8ff" points="452,-452.18 455.5,-462.18 459,-452.18 452,-452.18"/>
</a>
</g>
</g>
<!-- Node16&#45;&gt;Node3 -->
<g id="edge21_Node000016_Node000003" class="edge">
<title>Node16&#45;&gt;Node3</title>
<g id="a_edge21_Node000016_Node000003"><a xlink:title=" ">
<path fill="none" stroke="#63b8ff" d="M408,-391.16C384.48,-381.33 356.5,-369.65 334.59,-360.49"/>
<polygon fill="#63b8ff" stroke="#63b8ff" points="406.48,-394.32 417.06,-394.94 409.18,-387.86 406.48,-394.32"/>
</a>
</g>
</g>
<!-- Node17 -->
<g id="Node000017" class="node">
<title>Node17</title>
<g id="a_Node000017"><a xlink:href="_event_binding_8cpp.html" target="_top" xlink:title="实现EvectBingding类，负责事件与行为的绑定与触发。">
<polygon fill="white" stroke="#666666" points="519.75,-360 391.25,-360 391.25,-328 519.75,-328 519.75,-360"/>
<text xml:space="preserve" text-anchor="start" x="399.25" y="-346.5" font-family="Helvetica,sans-Serif" font-size="10.00">sfml_ui/src/core/message</text>
<text xml:space="preserve" text-anchor="middle" x="455.5" y="-334.5" font-family="Helvetica,sans-Serif" font-size="10.00">/EventBinding.cpp</text>
</a>
</g>
</g>
<!-- Node16&#45;&gt;Node17 -->
<g id="edge22_Node000016_Node000017" class="edge">
<title>Node16&#45;&gt;Node17</title>
<g id="a_edge22_Node000016_Node000017"><a xlink:title=" ">
<path fill="none" stroke="#63b8ff" d="M455.5,-384.31C455.5,-376.12 455.5,-367.38 455.5,-360.22"/>
<polygon fill="#63b8ff" stroke="#63b8ff" points="452,-384.18 455.5,-394.18 459,-384.18 452,-384.18"/>
</a>
</g>
</g>
</g>
</svg>
