<?xml version="1.0" encoding="UTF-8" standalone="no"?>
<!DOCTYPE svg PUBLIC "-//W3C//DTD SVG 1.1//EN"
 "http://www.w3.org/Graphics/SVG/1.1/DTD/svg11.dtd">
<!-- Generated by graphviz version 13.0.0 (20250608.1624)
 -->
<!-- Title: sfml_ui/include/core/pages/ControlPage.hpp Pages: 1 -->
<svg width="507pt" height="232pt"
 viewBox="0.00 0.00 507.00 232.00" xmlns="http://www.w3.org/2000/svg" xmlns:xlink="http://www.w3.org/1999/xlink">
<g id="graph0" class="graph" transform="scale(1 1) rotate(0) translate(4 228)">
<title>sfml_ui/include/core/pages/ControlPage.hpp</title>
<!-- Node1 -->
<g id="Node000001" class="node">
<title>Node1</title>
<g id="a_Node000001"><a xlink:title=" ">
<polygon fill="#999999" stroke="#666666" points="297.12,-224 176.12,-224 176.12,-192 297.12,-192 297.12,-224"/>
<text xml:space="preserve" text-anchor="start" x="184.12" y="-210.5" font-family="Helvetica,sans-Serif" font-size="10.00">sfml_ui/include/core</text>
<text xml:space="preserve" text-anchor="middle" x="236.62" y="-198.5" font-family="Helvetica,sans-Serif" font-size="10.00">/pages/ControlPage.hpp</text>
</a>
</g>
</g>
<!-- Node2 -->
<g id="Node000002" class="node">
<title>Node2</title>
<g id="a_Node000002"><a xlink:href="_complex_page_8hpp.html" target="_top" xlink:title=" ">
<polygon fill="white" stroke="#666666" points="300.88,-156 172.38,-156 172.38,-124 300.88,-124 300.88,-156"/>
<text xml:space="preserve" text-anchor="start" x="180.38" y="-142.5" font-family="Helvetica,sans-Serif" font-size="10.00">sfml_ui/include/core</text>
<text xml:space="preserve" text-anchor="middle" x="236.62" y="-130.5" font-family="Helvetica,sans-Serif" font-size="10.00">/pages/ComplexPage.hpp</text>
</a>
</g>
</g>
<!-- Node1&#45;&gt;Node2 -->
<g id="edge1_Node000001_Node000002" class="edge">
<title>Node1&#45;&gt;Node2</title>
<g id="a_edge1_Node000001_Node000002"><a xlink:title=" ">
<path fill="none" stroke="#63b8ff" d="M236.62,-180.31C236.62,-172.12 236.62,-163.38 236.62,-156.22"/>
<polygon fill="#63b8ff" stroke="#63b8ff" points="233.13,-180.18 236.63,-190.18 240.13,-180.18 233.13,-180.18"/>
</a>
</g>
</g>
<!-- Node3 -->
<g id="Node000003" class="node">
<title>Node3</title>
<g id="a_Node000003"><a xlink:href="_main_menu_page_8hpp.html" target="_top" xlink:title=" ">
<polygon fill="white" stroke="#666666" points="105.25,-88 0,-88 0,-56 105.25,-56 105.25,-88"/>
<text xml:space="preserve" text-anchor="start" x="8" y="-74.5" font-family="Helvetica,sans-Serif" font-size="10.00">game/include/pages</text>
<text xml:space="preserve" text-anchor="middle" x="52.62" y="-62.5" font-family="Helvetica,sans-Serif" font-size="10.00">/MainMenuPage.hpp</text>
</a>
</g>
</g>
<!-- Node2&#45;&gt;Node3 -->
<g id="edge2_Node000002_Node000003" class="edge">
<title>Node2&#45;&gt;Node3</title>
<g id="a_edge2_Node000002_Node000003"><a xlink:title=" ">
<path fill="none" stroke="#63b8ff" d="M182.78,-119.69C155.09,-109.76 121.8,-97.81 95.81,-88.49"/>
<polygon fill="#63b8ff" stroke="#63b8ff" points="181.47,-122.93 192.06,-123.01 183.83,-116.34 181.47,-122.93"/>
</a>
</g>
</g>
<!-- Node5 -->
<g id="Node000005" class="node">
<title>Node5</title>
<g id="a_Node000005"><a xlink:href="gamepage_8hpp.html" target="_top" xlink:title=" ">
<polygon fill="white" stroke="#666666" points="226.12,-88 123.12,-88 123.12,-56 226.12,-56 226.12,-88"/>
<text xml:space="preserve" text-anchor="start" x="131.12" y="-74.5" font-family="Helvetica,sans-Serif" font-size="10.00">game/include/pages</text>
<text xml:space="preserve" text-anchor="middle" x="174.62" y="-62.5" font-family="Helvetica,sans-Serif" font-size="10.00">/gamepage.hpp</text>
</a>
</g>
</g>
<!-- Node2&#45;&gt;Node5 -->
<g id="edge4_Node000002_Node000005" class="edge">
<title>Node2&#45;&gt;Node5</title>
<g id="a_edge4_Node000002_Node000005"><a xlink:title=" ">
<path fill="none" stroke="#63b8ff" d="M214.48,-115.43C205.98,-106.38 196.5,-96.29 188.93,-88.22"/>
<polygon fill="#63b8ff" stroke="#63b8ff" points="211.81,-117.7 221.21,-122.59 216.91,-112.9 211.81,-117.7"/>
</a>
</g>
</g>
<!-- Node6 -->
<g id="Node000006" class="node">
<title>Node6</title>
<g id="a_Node000006"><a xlink:href="pausegamepage_8hpp.html" target="_top" xlink:title=" ">
<polygon fill="white" stroke="#666666" points="353.12,-88 244.12,-88 244.12,-56 353.12,-56 353.12,-88"/>
<text xml:space="preserve" text-anchor="start" x="252.12" y="-74.5" font-family="Helvetica,sans-Serif" font-size="10.00">game/include/pages</text>
<text xml:space="preserve" text-anchor="middle" x="298.62" y="-62.5" font-family="Helvetica,sans-Serif" font-size="10.00">/pausegamepage.hpp</text>
</a>
</g>
</g>
<!-- Node2&#45;&gt;Node6 -->
<g id="edge5_Node000002_Node000006" class="edge">
<title>Node2&#45;&gt;Node6</title>
<g id="a_edge5_Node000002_Node000006"><a xlink:title=" ">
<path fill="none" stroke="#63b8ff" d="M258.77,-115.43C267.27,-106.38 276.75,-96.29 284.32,-88.22"/>
<polygon fill="#63b8ff" stroke="#63b8ff" points="256.34,-112.9 252.04,-122.59 261.44,-117.7 256.34,-112.9"/>
</a>
</g>
</g>
<!-- Node7 -->
<g id="Node000007" class="node">
<title>Node7</title>
<g id="a_Node000007"><a xlink:href="page__emplate_8hpp.html" target="_top" xlink:title=" ">
<polygon fill="white" stroke="#666666" points="498.5,-88 370.75,-88 370.75,-56 498.5,-56 498.5,-88"/>
<text xml:space="preserve" text-anchor="start" x="378.75" y="-74.5" font-family="Helvetica,sans-Serif" font-size="10.00">sfml_ui/include/core</text>
<text xml:space="preserve" text-anchor="middle" x="434.62" y="-62.5" font-family="Helvetica,sans-Serif" font-size="10.00">/pages/page_emplate.hpp</text>
</a>
</g>
</g>
<!-- Node2&#45;&gt;Node7 -->
<g id="edge6_Node000002_Node000007" class="edge">
<title>Node2&#45;&gt;Node7</title>
<g id="a_edge6_Node000002_Node000007"><a xlink:title=" ">
<path fill="none" stroke="#63b8ff" d="M293.77,-119.95C323.73,-109.97 359.94,-97.89 388.15,-88.49"/>
<polygon fill="#63b8ff" stroke="#63b8ff" points="292.86,-116.56 284.48,-123.05 295.08,-123.21 292.86,-116.56"/>
</a>
</g>
</g>
<!-- Node4 -->
<g id="Node000004" class="node">
<title>Node4</title>
<g id="a_Node000004"><a xlink:href="main_8cpp.html" target="_top" xlink:title=" ">
<polygon fill="white" stroke="#666666" points="102.25,-20 3,-20 3,0 102.25,0 102.25,-20"/>
<text xml:space="preserve" text-anchor="middle" x="52.62" y="-6.5" font-family="Helvetica,sans-Serif" font-size="10.00">game/src/main.cpp</text>
</a>
</g>
</g>
<!-- Node3&#45;&gt;Node4 -->
<g id="edge3_Node000003_Node000004" class="edge">
<title>Node3&#45;&gt;Node4</title>
<g id="a_edge3_Node000003_Node000004"><a xlink:title=" ">
<path fill="none" stroke="#63b8ff" d="M52.62,-44.08C52.62,-35.6 52.62,-26.8 52.62,-20.41"/>
<polygon fill="#63b8ff" stroke="#63b8ff" points="49.13,-44.03 52.63,-54.03 56.13,-44.03 49.13,-44.03"/>
</a>
</g>
</g>
</g>
</svg>
