<?xml version="1.0" encoding="UTF-8" standalone="no"?>
<!DOCTYPE svg PUBLIC "-//W3C//DTD SVG 1.1//EN"
 "http://www.w3.org/Graphics/SVG/1.1/DTD/svg11.dtd">
<!-- Generated by graphviz version 13.0.0 (20250608.1624)
 -->
<!-- Title: sfml_ui/include/core/message/EventBinding.hpp Pages: 1 -->
<!--zoomable 436 -->

<svg id="main" version="1.1" xmlns="http://www.w3.org/2000/svg" xmlns:xlink="http://www.w3.org/1999/xlink" xml:space="preserve" onload="init(evt)">

<style type="text/css"><![CDATA[
.node, .edge {opacity: 0.7;}
.node.selected, .edge.selected {opacity: 1;}
.edge:hover path { stroke: red; }
.edge:hover polygon { stroke: red; fill: red; }
]]></style>

<defs>
  <circle id="rim" cx="0" cy="0" r="7"/>
  <circle id="rim2" cx="0" cy="0" r="3.5"/>
  <g id="zoomPlus">
    <use xlink:href="#rim" fill="#404040"><set attributeName="fill" to="#808080" begin="zoomplus.mouseover" end="zoomplus.mouseout"/></use>
    <path d="M-4,0h8M0,-4v8" fill="none" stroke="white" stroke-width="1.5" pointer-events="none"/>
  </g>
  <g id="zoomMin">
    <use xlink:href="#rim" fill="#404040"><set attributeName="fill" to="#808080" begin="zoomminus.mouseover" end="zoomminus.mouseout"/></use>
    <path d="M-4,0h8" fill="none" stroke="white" stroke-width="1.5" pointer-events="none"/>
  </g>
  <g id="arrowUp" transform="translate(30 24)">
    <use xlink:href="#rim"/>
    <path pointer-events="none" fill="none" stroke="white" stroke-width="1.5" d="M0,-3.0v7 M-2.5,-0.5L0,-3.0L2.5,-0.5"/>
  </g>
  <g id="arrowRight" transform="rotate(90) translate(36 -43)">
    <use xlink:href="#rim"/>
    <path pointer-events="none" fill="none" stroke="white" stroke-width="1.5" d="M0,-3.0v7 M-2.5,-0.5L0,-3.0L2.5,-0.5"/>
  </g>
  <g id="arrowDown" transform="rotate(180) translate(-30 -48)">
    <use xlink:href="#rim"/>
    <path pointer-events="none" fill="none" stroke="white" stroke-width="1.5" d="M0,-3.0v7 M-2.5,-0.5L0,-3.0L2.5,-0.5"/>
  </g>
  <g id="arrowLeft" transform="rotate(270) translate(-36 17)">
    <use xlink:href="#rim"/>
    <path pointer-events="none" fill="none" stroke="white" stroke-width="1.5" d="M0,-3.0v7 M-2.5,-0.5L0,-3.0L2.5,-0.5"/>
  </g>
  <g id="resetDef">
    <use xlink:href="#rim2" fill="#404040"><set attributeName="fill" to="#808080" begin="reset.mouseover" end="reset.mouseout"/></use>
  </g>
</defs>
<script type="application/ecmascript">
var viewWidth = 658;
var viewHeight = 436;
var sectionId = 'dynsection-1';
</script>
<script type="application/ecmascript" xlink:href="svg.min.js"/>
<svg id="graph" class="graph">
<g id="viewport">
<title>sfml_ui/include/core/message/EventBinding.hpp</title>
<!-- Node1 -->
<g id="Node000001" class="node">
<title>Node1</title>
<g id="a_Node000001"><a xlink:title=" ">
<polygon fill="#999999" stroke="#666666" points="516.75,-428 378.5,-428 378.5,-396 516.75,-396 516.75,-428"/>
<text xml:space="preserve" text-anchor="start" x="386.5" y="-414.5" font-family="Helvetica,sans-Serif" font-size="10.00">sfml_ui/include/core</text>
<text xml:space="preserve" text-anchor="middle" x="447.62" y="-402.5" font-family="Helvetica,sans-Serif" font-size="10.00">/message/EventBinding.hpp</text>
</a>
</g>
</g>
<!-- Node2 -->
<g id="Node000002" class="node">
<title>Node2</title>
<g id="a_Node000002"><a xlink:href="_page_8hpp.html" target="_top" xlink:title=" ">
<polygon fill="white" stroke="#666666" points="432.12,-360 329.12,-360 329.12,-328 432.12,-328 432.12,-360"/>
<text xml:space="preserve" text-anchor="start" x="337.12" y="-346.5" font-family="Helvetica,sans-Serif" font-size="10.00">sfml_ui/include/core</text>
<text xml:space="preserve" text-anchor="middle" x="380.62" y="-334.5" font-family="Helvetica,sans-Serif" font-size="10.00">/pages/Page.hpp</text>
</a>
</g>
</g>
<!-- Node1&#45;&gt;Node2 -->
<g id="edge1_Node000001_Node000002" class="edge">
<title>Node1&#45;&gt;Node2</title>
<g id="a_edge1_Node000001_Node000002"><a xlink:title=" ">
<path fill="none" stroke="#63b8ff" d="M423.98,-387.71C414.72,-378.59 404.35,-368.37 396.08,-360.22"/>
<polygon fill="#63b8ff" stroke="#63b8ff" points="421.43,-390.11 431.01,-394.63 426.34,-385.12 421.43,-390.11"/>
</a>
</g>
</g>
<!-- Node14 -->
<g id="Node000014" class="node">
<title>Node14</title>
<g id="a_Node000014"><a xlink:href="_event_binding_8cpp.html" target="_top" xlink:title="实现EvectBingding类，负责事件与行为的绑定与触发。">
<polygon fill="white" stroke="#666666" points="578.88,-360 450.38,-360 450.38,-328 578.88,-328 578.88,-360"/>
<text xml:space="preserve" text-anchor="start" x="458.38" y="-346.5" font-family="Helvetica,sans-Serif" font-size="10.00">sfml_ui/src/core/message</text>
<text xml:space="preserve" text-anchor="middle" x="514.62" y="-334.5" font-family="Helvetica,sans-Serif" font-size="10.00">/EventBinding.cpp</text>
</a>
</g>
</g>
<!-- Node1&#45;&gt;Node14 -->
<g id="edge18_Node000001_Node000014" class="edge">
<title>Node1&#45;&gt;Node14</title>
<g id="a_edge18_Node000001_Node000014"><a xlink:title=" ">
<path fill="none" stroke="#63b8ff" d="M471.27,-387.71C480.53,-378.59 490.9,-368.37 499.17,-360.22"/>
<polygon fill="#63b8ff" stroke="#63b8ff" points="468.91,-385.12 464.24,-394.63 473.82,-390.11 468.91,-385.12"/>
</a>
</g>
</g>
<!-- Node3 -->
<g id="Node000003" class="node">
<title>Node3</title>
<g id="a_Node000003"><a xlink:href="_control_page_8hpp.html" target="_top" xlink:title=" ">
<polygon fill="white" stroke="#666666" points="224.12,-224 103.12,-224 103.12,-192 224.12,-192 224.12,-224"/>
<text xml:space="preserve" text-anchor="start" x="111.12" y="-210.5" font-family="Helvetica,sans-Serif" font-size="10.00">sfml_ui/include/core</text>
<text xml:space="preserve" text-anchor="middle" x="163.62" y="-198.5" font-family="Helvetica,sans-Serif" font-size="10.00">/pages/ControlPage.hpp</text>
</a>
</g>
</g>
<!-- Node2&#45;&gt;Node3 -->
<g id="edge2_Node000002_Node000003" class="edge">
<title>Node2&#45;&gt;Node3</title>
<g id="a_edge2_Node000002_Node000003"><a xlink:title=" ">
<path fill="none" stroke="#63b8ff" d="M346.06,-321.65C302.11,-294.52 227.32,-248.33 188.56,-224.4"/>
<polygon fill="#63b8ff" stroke="#63b8ff" points="344.1,-324.56 354.44,-326.83 347.77,-318.6 344.1,-324.56"/>
</a>
</g>
</g>
<!-- Node10 -->
<g id="Node000010" class="node">
<title>Node10</title>
<g id="a_Node000010"><a xlink:href="_interactive_page_8hpp.html" target="_top" xlink:title=" ">
<polygon fill="white" stroke="#666666" points="377.25,-224 242,-224 242,-192 377.25,-192 377.25,-224"/>
<text xml:space="preserve" text-anchor="start" x="250" y="-210.5" font-family="Helvetica,sans-Serif" font-size="10.00">sfml_ui/include/core</text>
<text xml:space="preserve" text-anchor="middle" x="309.62" y="-198.5" font-family="Helvetica,sans-Serif" font-size="10.00">/pages/InteractivePage.hpp</text>
</a>
</g>
</g>
<!-- Node2&#45;&gt;Node10 -->
<g id="edge9_Node000002_Node000010" class="edge">
<title>Node2&#45;&gt;Node10</title>
<g id="a_edge9_Node000002_Node000010"><a xlink:title=" ">
<path fill="none" stroke="#63b8ff" d="M343.69,-321.03C333.59,-313.17 323.75,-303.39 317.62,-292 306.18,-270.71 306.26,-241.87 307.7,-224.4"/>
<polygon fill="#63b8ff" stroke="#63b8ff" points="341.56,-323.81 351.72,-326.82 345.65,-318.13 341.56,-323.81"/>
</a>
</g>
</g>
<!-- Node11 -->
<g id="Node000011" class="node">
<title>Node11</title>
<g id="a_Node000011"><a xlink:href="_window_8hpp.html" target="_top" xlink:title=" ">
<polygon fill="white" stroke="#666666" points="434.75,-292 326.5,-292 326.5,-260 434.75,-260 434.75,-292"/>
<text xml:space="preserve" text-anchor="start" x="334.5" y="-278.5" font-family="Helvetica,sans-Serif" font-size="10.00">sfml_ui/include/core</text>
<text xml:space="preserve" text-anchor="middle" x="380.62" y="-266.5" font-family="Helvetica,sans-Serif" font-size="10.00">/window/Window.hpp</text>
</a>
</g>
</g>
<!-- Node2&#45;&gt;Node11 -->
<g id="edge11_Node000002_Node000011" class="edge">
<title>Node2&#45;&gt;Node11</title>
<g id="a_edge11_Node000002_Node000011"><a xlink:title=" ">
<path fill="none" stroke="#63b8ff" d="M380.62,-316.31C380.62,-308.12 380.62,-299.38 380.62,-292.22"/>
<polygon fill="#63b8ff" stroke="#63b8ff" points="377.13,-316.18 380.63,-326.18 384.13,-316.18 377.13,-316.18"/>
</a>
</g>
</g>
<!-- Node12 -->
<g id="Node000012" class="node">
<title>Node12</title>
<g id="a_Node000012"><a xlink:href="_page_8cpp.html" target="_top" xlink:title="实现Page类及相关函数，负责界面生命周期、事件绑定、渲染等。">
<polygon fill="white" stroke="#666666" points="510.12,-224 395.12,-224 395.12,-192 510.12,-192 510.12,-224"/>
<text xml:space="preserve" text-anchor="start" x="403.12" y="-210.5" font-family="Helvetica,sans-Serif" font-size="10.00">sfml_ui/src/core/pages</text>
<text xml:space="preserve" text-anchor="middle" x="452.62" y="-198.5" font-family="Helvetica,sans-Serif" font-size="10.00">/Page.cpp</text>
</a>
</g>
</g>
<!-- Node2&#45;&gt;Node12 -->
<g id="edge16_Node000002_Node000012" class="edge">
<title>Node2&#45;&gt;Node12</title>
<g id="a_edge16_Node000002_Node000012"><a xlink:title=" ">
<path fill="none" stroke="#63b8ff" d="M417.48,-320.99C427.58,-313.12 437.44,-303.35 443.62,-292 455.21,-270.75 455.51,-241.9 454.32,-224.41"/>
<polygon fill="#63b8ff" stroke="#63b8ff" points="415.51,-318.09 409.46,-326.78 419.61,-323.76 415.51,-318.09"/>
</a>
</g>
</g>
<!-- Node13 -->
<g id="Node000013" class="node">
<title>Node13</title>
<g id="a_Node000013"><a xlink:href="_window_8cpp.html" target="_top" xlink:title=" ">
<polygon fill="white" stroke="#666666" points="649.5,-224 527.75,-224 527.75,-192 649.5,-192 649.5,-224"/>
<text xml:space="preserve" text-anchor="start" x="535.75" y="-210.5" font-family="Helvetica,sans-Serif" font-size="10.00">sfml_ui/src/core/window</text>
<text xml:space="preserve" text-anchor="middle" x="588.62" y="-198.5" font-family="Helvetica,sans-Serif" font-size="10.00">/Window.cpp</text>
</a>
</g>
</g>
<!-- Node2&#45;&gt;Node13 -->
<g id="edge17_Node000002_Node000013" class="edge">
<title>Node2&#45;&gt;Node13</title>
<g id="a_edge17_Node000002_Node000013"><a xlink:title=" ">
<path fill="none" stroke="#63b8ff" d="M415.51,-321.58C430.12,-312.54 447.25,-301.84 462.62,-292 498.81,-268.84 540.34,-241.29 565.52,-224.48"/>
<polygon fill="#63b8ff" stroke="#63b8ff" points="413.81,-318.52 407.14,-326.75 417.49,-324.47 413.81,-318.52"/>
</a>
</g>
</g>
<!-- Node4 -->
<g id="Node000004" class="node">
<title>Node4</title>
<g id="a_Node000004"><a xlink:href="_complex_page_8hpp.html" target="_top" xlink:title=" ">
<polygon fill="white" stroke="#666666" points="300.88,-156 172.38,-156 172.38,-124 300.88,-124 300.88,-156"/>
<text xml:space="preserve" text-anchor="start" x="180.38" y="-142.5" font-family="Helvetica,sans-Serif" font-size="10.00">sfml_ui/include/core</text>
<text xml:space="preserve" text-anchor="middle" x="236.62" y="-130.5" font-family="Helvetica,sans-Serif" font-size="10.00">/pages/ComplexPage.hpp</text>
</a>
</g>
</g>
<!-- Node3&#45;&gt;Node4 -->
<g id="edge3_Node000003_Node000004" class="edge">
<title>Node3&#45;&gt;Node4</title>
<g id="a_edge3_Node000003_Node000004"><a xlink:title=" ">
<path fill="none" stroke="#63b8ff" d="M189.01,-184.05C199.11,-174.92 210.45,-164.67 219.53,-156.45"/>
<polygon fill="#63b8ff" stroke="#63b8ff" points="186.75,-181.37 181.68,-190.68 191.44,-186.57 186.75,-181.37"/>
</a>
</g>
</g>
<!-- Node5 -->
<g id="Node000005" class="node">
<title>Node5</title>
<g id="a_Node000005"><a xlink:href="_main_menu_page_8hpp.html" target="_top" xlink:title=" ">
<polygon fill="white" stroke="#666666" points="105.25,-88 0,-88 0,-56 105.25,-56 105.25,-88"/>
<text xml:space="preserve" text-anchor="start" x="8" y="-74.5" font-family="Helvetica,sans-Serif" font-size="10.00">game/include/pages</text>
<text xml:space="preserve" text-anchor="middle" x="52.62" y="-62.5" font-family="Helvetica,sans-Serif" font-size="10.00">/MainMenuPage.hpp</text>
</a>
</g>
</g>
<!-- Node4&#45;&gt;Node5 -->
<g id="edge4_Node000004_Node000005" class="edge">
<title>Node4&#45;&gt;Node5</title>
<g id="a_edge4_Node000004_Node000005"><a xlink:title=" ">
<path fill="none" stroke="#63b8ff" d="M182.78,-119.69C155.09,-109.76 121.8,-97.81 95.81,-88.49"/>
<polygon fill="#63b8ff" stroke="#63b8ff" points="181.47,-122.93 192.06,-123.01 183.83,-116.34 181.47,-122.93"/>
</a>
</g>
</g>
<!-- Node7 -->
<g id="Node000007" class="node">
<title>Node7</title>
<g id="a_Node000007"><a xlink:href="gamepage_8hpp.html" target="_top" xlink:title=" ">
<polygon fill="white" stroke="#666666" points="226.12,-88 123.12,-88 123.12,-56 226.12,-56 226.12,-88"/>
<text xml:space="preserve" text-anchor="start" x="131.12" y="-74.5" font-family="Helvetica,sans-Serif" font-size="10.00">game/include/pages</text>
<text xml:space="preserve" text-anchor="middle" x="174.62" y="-62.5" font-family="Helvetica,sans-Serif" font-size="10.00">/gamepage.hpp</text>
</a>
</g>
</g>
<!-- Node4&#45;&gt;Node7 -->
<g id="edge6_Node000004_Node000007" class="edge">
<title>Node4&#45;&gt;Node7</title>
<g id="a_edge6_Node000004_Node000007"><a xlink:title=" ">
<path fill="none" stroke="#63b8ff" d="M214.48,-115.43C205.98,-106.38 196.5,-96.29 188.93,-88.22"/>
<polygon fill="#63b8ff" stroke="#63b8ff" points="211.81,-117.7 221.21,-122.59 216.91,-112.9 211.81,-117.7"/>
</a>
</g>
</g>
<!-- Node8 -->
<g id="Node000008" class="node">
<title>Node8</title>
<g id="a_Node000008"><a xlink:href="pausegamepage_8hpp.html" target="_top" xlink:title=" ">
<polygon fill="white" stroke="#666666" points="353.12,-88 244.12,-88 244.12,-56 353.12,-56 353.12,-88"/>
<text xml:space="preserve" text-anchor="start" x="252.12" y="-74.5" font-family="Helvetica,sans-Serif" font-size="10.00">game/include/pages</text>
<text xml:space="preserve" text-anchor="middle" x="298.62" y="-62.5" font-family="Helvetica,sans-Serif" font-size="10.00">/pausegamepage.hpp</text>
</a>
</g>
</g>
<!-- Node4&#45;&gt;Node8 -->
<g id="edge7_Node000004_Node000008" class="edge">
<title>Node4&#45;&gt;Node8</title>
<g id="a_edge7_Node000004_Node000008"><a xlink:title=" ">
<path fill="none" stroke="#63b8ff" d="M258.77,-115.43C267.27,-106.38 276.75,-96.29 284.32,-88.22"/>
<polygon fill="#63b8ff" stroke="#63b8ff" points="256.34,-112.9 252.04,-122.59 261.44,-117.7 256.34,-112.9"/>
</a>
</g>
</g>
<!-- Node9 -->
<g id="Node000009" class="node">
<title>Node9</title>
<g id="a_Node000009"><a xlink:href="page__emplate_8hpp.html" target="_top" xlink:title=" ">
<polygon fill="white" stroke="#666666" points="498.5,-88 370.75,-88 370.75,-56 498.5,-56 498.5,-88"/>
<text xml:space="preserve" text-anchor="start" x="378.75" y="-74.5" font-family="Helvetica,sans-Serif" font-size="10.00">sfml_ui/include/core</text>
<text xml:space="preserve" text-anchor="middle" x="434.62" y="-62.5" font-family="Helvetica,sans-Serif" font-size="10.00">/pages/page_emplate.hpp</text>
</a>
</g>
</g>
<!-- Node4&#45;&gt;Node9 -->
<g id="edge8_Node000004_Node000009" class="edge">
<title>Node4&#45;&gt;Node9</title>
<g id="a_edge8_Node000004_Node000009"><a xlink:title=" ">
<path fill="none" stroke="#63b8ff" d="M293.77,-119.95C323.73,-109.97 359.94,-97.89 388.15,-88.49"/>
<polygon fill="#63b8ff" stroke="#63b8ff" points="292.86,-116.56 284.48,-123.05 295.08,-123.21 292.86,-116.56"/>
</a>
</g>
</g>
<!-- Node6 -->
<g id="Node000006" class="node">
<title>Node6</title>
<g id="a_Node000006"><a xlink:href="main_8cpp.html" target="_top" xlink:title=" ">
<polygon fill="white" stroke="#666666" points="102.25,-20 3,-20 3,0 102.25,0 102.25,-20"/>
<text xml:space="preserve" text-anchor="middle" x="52.62" y="-6.5" font-family="Helvetica,sans-Serif" font-size="10.00">game/src/main.cpp</text>
</a>
</g>
</g>
<!-- Node5&#45;&gt;Node6 -->
<g id="edge5_Node000005_Node000006" class="edge">
<title>Node5&#45;&gt;Node6</title>
<g id="a_edge5_Node000005_Node000006"><a xlink:title=" ">
<path fill="none" stroke="#63b8ff" d="M52.62,-44.08C52.62,-35.6 52.62,-26.8 52.62,-20.41"/>
<polygon fill="#63b8ff" stroke="#63b8ff" points="49.13,-44.03 52.63,-54.03 56.13,-44.03 49.13,-44.03"/>
</a>
</g>
</g>
<!-- Node10&#45;&gt;Node4 -->
<g id="edge10_Node000010_Node000004" class="edge">
<title>Node10&#45;&gt;Node4</title>
<g id="a_edge10_Node000010_Node000004"><a xlink:title=" ">
<path fill="none" stroke="#63b8ff" d="M284.24,-184.05C274.14,-174.92 262.8,-164.67 253.72,-156.45"/>
<polygon fill="#63b8ff" stroke="#63b8ff" points="281.81,-186.57 291.57,-190.68 286.5,-181.37 281.81,-186.57"/>
</a>
</g>
</g>
<!-- Node11&#45;&gt;Node3 -->
<g id="edge12_Node000011_Node000003" class="edge">
<title>Node11&#45;&gt;Node3</title>
<g id="a_edge12_Node000011_Node000003"><a xlink:title=" ">
<path fill="none" stroke="#63b8ff" d="M318.86,-256.21C285.86,-246.18 245.75,-233.98 214.56,-224.49"/>
<polygon fill="#63b8ff" stroke="#63b8ff" points="317.71,-259.52 328.3,-259.09 319.75,-252.83 317.71,-259.52"/>
</a>
</g>
</g>
<!-- Node11&#45;&gt;Node10 -->
<g id="edge13_Node000011_Node000010" class="edge">
<title>Node11&#45;&gt;Node10</title>
<g id="a_edge13_Node000011_Node000010"><a xlink:title=" ">
<path fill="none" stroke="#63b8ff" d="M355.87,-251.99C345.98,-242.79 334.86,-232.46 326,-224.22"/>
<polygon fill="#63b8ff" stroke="#63b8ff" points="353.34,-254.42 363.05,-258.66 358.11,-249.29 353.34,-254.42"/>
</a>
</g>
</g>
<!-- Node11&#45;&gt;Node12 -->
<g id="edge14_Node000011_Node000012" class="edge">
<title>Node11&#45;&gt;Node12</title>
<g id="a_edge14_Node000011_Node000012"><a xlink:title=" ">
<path fill="none" stroke="#63b8ff" d="M405.73,-251.99C415.76,-242.79 427.04,-232.46 436.02,-224.22"/>
<polygon fill="#63b8ff" stroke="#63b8ff" points="403.45,-249.33 398.44,-258.67 408.18,-254.49 403.45,-249.33"/>
</a>
</g>
</g>
<!-- Node11&#45;&gt;Node13 -->
<g id="edge15_Node000011_Node000013" class="edge">
<title>Node11&#45;&gt;Node13</title>
<g id="a_edge15_Node000011_Node000013"><a xlink:title=" ">
<path fill="none" stroke="#63b8ff" d="M440.25,-256.08C471.79,-246.07 510.04,-233.94 539.8,-224.49"/>
<polygon fill="#63b8ff" stroke="#63b8ff" points="439.31,-252.71 430.83,-259.07 441.42,-259.38 439.31,-252.71"/>
</a>
</g>
</g>
</g>
</svg>

<g id="navigator" transform="translate(0 0)" fill="#404254">
  <rect fill="#f2f5e9" fill-opacity="0.5" stroke="#606060" stroke-width=".5" x="0" y="0" width="60" height="60"/>
  <use id="zoomplus" xlink:href="#zoomPlus" x="17" y="9" onmousedown="handleZoom(evt,'in')"/>
  <use id="zoomminus" xlink:href="#zoomMin" x="42" y="9" onmousedown="handleZoom(evt,'out')"/>
  <use id="reset" xlink:href="#resetDef" x="30" y="36" onmousedown="handleReset()"/>
   <use id="arrowup" xlink:href="#arrowUp" x="0" y="0" onmousedown="handlePan(0,-1)"/>
  <use id="arrowright" xlink:href="#arrowRight" x="0" y="0" onmousedown="handlePan(1,0)"/>
  <use id="arrowdown" xlink:href="#arrowDown" x="0" y="0" onmousedown="handlePan(0,1)"/>
  <use id="arrowleft" xlink:href="#arrowLeft" x="0" y="0" onmousedown="handlePan(-1,0)"/>
</g>
<svg viewBox="0 0 15 15" width="100%" height="30px" preserveAspectRatio="xMaxYMin meet">
 <g id="arrow_out" transform="scale(0.3 0.3)">
  <a xlink:href="_event_binding_8hpp__dep__incl_org.svg" target="_base">
   <rect id="button" ry="5" rx="5" y="6" x="6" height="38" width="38"
        fill="#f2f5e9" fill-opacity="0.5" stroke="#606060" stroke-width="1.0"/>
   <path id="arrow"
     d="M 11.500037,31.436501 C 11.940474,20.09759 22.043105,11.32322 32.158766,21.979434 L 37.068811,17.246167 C 37.068811,17.246167 37.088388,32 37.088388,32 L 22.160133,31.978069 C 22.160133,31.978069 26.997745,27.140456 26.997745,27.140456 C 18.528582,18.264221 13.291696,25.230495 11.500037,31.436501 z"
     style="fill:#404040;"/>
  </a>
 </g>
</svg>

<style type='text/css'>
<![CDATA[
[data-mouse-over-selected='false'] { opacity: 0.7; }
[data-mouse-over-selected='true']  { opacity: 1.0; }
]]>
</style>
<script type="application/ecmascript"><![CDATA[
document.addEventListener('DOMContentLoaded', (event) => {
  highlightEdges();
  highlightAdjacentNodes();
});
]]></script>
</svg>
