<?xml version="1.0" encoding="UTF-8" standalone="no"?>
<!DOCTYPE svg PUBLIC "-//W3C//DTD SVG 1.1//EN"
 "http://www.w3.org/Graphics/SVG/1.1/DTD/svg11.dtd">
<!-- Generated by graphviz version 13.0.0 (20250608.1624)
 -->
<!-- Title: sfml_ui/src/core/message/EventBinding.cpp Pages: 1 -->
<svg width="344pt" height="264pt"
 viewBox="0.00 0.00 344.00 264.00" xmlns="http://www.w3.org/2000/svg" xmlns:xlink="http://www.w3.org/1999/xlink">
<g id="graph0" class="graph" transform="scale(1 1) rotate(0) translate(4 260)">
<title>sfml_ui/src/core/message/EventBinding.cpp</title>
<!-- Node1 -->
<g id="Node000001" class="node">
<title>Node1</title>
<g id="a_Node000001"><a xlink:title="实现EvectBingding类，负责事件与行为的绑定与触发。">
<polygon fill="#999999" stroke="#666666" points="335.82,-256 207.32,-256 207.32,-224 335.82,-224 335.82,-256"/>
<text xml:space="preserve" text-anchor="start" x="215.32" y="-242.5" font-family="Helvetica,sans-Serif" font-size="10.00">sfml_ui/src/core/message</text>
<text xml:space="preserve" text-anchor="middle" x="271.57" y="-230.5" font-family="Helvetica,sans-Serif" font-size="10.00">/EventBinding.cpp</text>
</a>
</g>
</g>
<!-- Node2 -->
<g id="Node000002" class="node">
<title>Node2</title>
<g id="a_Node000002"><a xlink:href="_event_binding_8hpp.html" target="_top" xlink:title=" ">
<polygon fill="white" stroke="#666666" points="222.82,-188 130.32,-188 130.32,-168 222.82,-168 222.82,-188"/>
<text xml:space="preserve" text-anchor="middle" x="176.57" y="-174.5" font-family="Helvetica,sans-Serif" font-size="10.00">EventBinding.hpp</text>
</a>
</g>
</g>
<!-- Node1&#45;&gt;Node2 -->
<g id="edge1_Node000001_Node000002" class="edge">
<title>Node1&#45;&gt;Node2</title>
<g id="a_edge1_Node000001_Node000002"><a xlink:title=" ">
<path fill="none" stroke="#63b8ff" d="M247.11,-223.55C232.95,-214.61 215.19,-203.39 201.03,-194.45"/>
<polygon fill="#63b8ff" stroke="#63b8ff" points="203.07,-191.6 192.75,-189.22 199.33,-197.52 203.07,-191.6"/>
</a>
</g>
</g>
<!-- Node9 -->
<g id="Node000009" class="node">
<title>Node9</title>
<g id="a_Node000009"><a xlink:title=" ">
<polygon fill="#e0e0e0" stroke="#999999" points="313.2,-132 273.95,-132 273.95,-112 313.2,-112 313.2,-132"/>
<text xml:space="preserve" text-anchor="middle" x="293.57" y="-118.5" font-family="Helvetica,sans-Serif" font-size="10.00">utility</text>
</a>
</g>
</g>
<!-- Node1&#45;&gt;Node9 -->
<g id="edge10_Node000001_Node000009" class="edge">
<title>Node1&#45;&gt;Node9</title>
<g id="a_edge10_Node000001_Node000009"><a xlink:title=" ">
<path fill="none" stroke="#63b8ff" d="M274.45,-223.84C278.34,-203.32 285.29,-166.63 289.66,-143.62"/>
<polygon fill="#63b8ff" stroke="#63b8ff" points="293.07,-144.4 291.5,-133.92 286.2,-143.1 293.07,-144.4"/>
</a>
</g>
</g>
<!-- Node10 -->
<g id="Node000010" class="node">
<title>Node10</title>
<g id="a_Node000010"><a xlink:title=" ">
<polygon fill="#e0e0e0" stroke="#999999" points="333.95,-188 299.2,-188 299.2,-168 333.95,-168 333.95,-188"/>
<text xml:space="preserve" text-anchor="middle" x="316.57" y="-174.5" font-family="Helvetica,sans-Serif" font-size="10.00">print</text>
</a>
</g>
</g>
<!-- Node1&#45;&gt;Node10 -->
<g id="edge11_Node000001_Node000010" class="edge">
<title>Node1&#45;&gt;Node10</title>
<g id="a_edge11_Node000001_Node000010"><a xlink:title=" ">
<path fill="none" stroke="#63b8ff" d="M283.16,-223.55C289.15,-215.56 296.5,-205.76 302.78,-197.39"/>
<polygon fill="#63b8ff" stroke="#63b8ff" points="305.41,-199.72 308.61,-189.62 299.81,-195.52 305.41,-199.72"/>
</a>
</g>
</g>
<!-- Node3 -->
<g id="Node000003" class="node">
<title>Node3</title>
<g id="a_Node000003"><a xlink:title=" ">
<polygon fill="#e0e0e0" stroke="#999999" points="114.07,-20 11.07,-20 11.07,0 114.07,0 114.07,-20"/>
<text xml:space="preserve" text-anchor="middle" x="62.57" y="-6.5" font-family="Helvetica,sans-Serif" font-size="10.00">SFML/Graphics.hpp</text>
</a>
</g>
</g>
<!-- Node2&#45;&gt;Node3 -->
<g id="edge2_Node000002_Node000003" class="edge">
<title>Node2&#45;&gt;Node3</title>
<g id="a_edge2_Node000002_Node000003"><a xlink:title=" ">
<path fill="none" stroke="#63b8ff" d="M130.03,-170.91C85.61,-164.03 23.32,-151.22 8.57,-132 -16.61,-99.19 20.22,-52.78 44.37,-28.06"/>
<polygon fill="#63b8ff" stroke="#63b8ff" points="46.52,-30.85 51.19,-21.34 41.61,-25.87 46.52,-30.85"/>
</a>
</g>
</g>
<!-- Node4 -->
<g id="Node000004" class="node">
<title>Node4</title>
<g id="a_Node000004"><a xlink:title=" ">
<polygon fill="#e0e0e0" stroke="#999999" points="75.57,-132 17.57,-132 17.57,-112 75.57,-112 75.57,-132"/>
<text xml:space="preserve" text-anchor="middle" x="46.57" y="-118.5" font-family="Helvetica,sans-Serif" font-size="10.00">functional</text>
</a>
</g>
</g>
<!-- Node2&#45;&gt;Node4 -->
<g id="edge3_Node000002_Node000004" class="edge">
<title>Node2&#45;&gt;Node4</title>
<g id="a_edge3_Node000002_Node000004"><a xlink:title=" ">
<path fill="none" stroke="#63b8ff" d="M153.93,-167.59C133.45,-159.09 103.05,-146.46 79.82,-136.81"/>
<polygon fill="#63b8ff" stroke="#63b8ff" points="81.37,-133.66 70.79,-133.06 78.68,-140.13 81.37,-133.66"/>
</a>
</g>
</g>
<!-- Node5 -->
<g id="Node000005" class="node">
<title>Node5</title>
<g id="a_Node000005"><a xlink:title=" ">
<polygon fill="#e0e0e0" stroke="#999999" points="175.95,-132 93.2,-132 93.2,-112 175.95,-112 175.95,-132"/>
<text xml:space="preserve" text-anchor="middle" x="134.57" y="-118.5" font-family="Helvetica,sans-Serif" font-size="10.00">unordered_map</text>
</a>
</g>
</g>
<!-- Node2&#45;&gt;Node5 -->
<g id="edge4_Node000002_Node000005" class="edge">
<title>Node2&#45;&gt;Node5</title>
<g id="a_edge4_Node000002_Node000005"><a xlink:title=" ">
<path fill="none" stroke="#63b8ff" d="M169.25,-167.59C163.59,-160.32 155.58,-150.02 148.69,-141.15"/>
<polygon fill="#63b8ff" stroke="#63b8ff" points="151.63,-139.24 142.73,-133.49 146.11,-143.54 151.63,-139.24"/>
</a>
</g>
</g>
<!-- Node6 -->
<g id="Node000006" class="node">
<title>Node6</title>
<g id="a_Node000006"><a xlink:href="button_8hpp.html" target="_top" xlink:title=" ">
<polygon fill="white" stroke="#666666" points="255.45,-132 193.7,-132 193.7,-112 255.45,-112 255.45,-132"/>
<text xml:space="preserve" text-anchor="middle" x="224.57" y="-118.5" font-family="Helvetica,sans-Serif" font-size="10.00">button.hpp</text>
</a>
</g>
</g>
<!-- Node2&#45;&gt;Node6 -->
<g id="edge5_Node000002_Node000006" class="edge">
<title>Node2&#45;&gt;Node6</title>
<g id="a_edge5_Node000002_Node000006"><a xlink:title=" ">
<path fill="none" stroke="#63b8ff" d="M184.93,-167.59C191.47,-160.24 200.75,-149.8 208.69,-140.87"/>
<polygon fill="#63b8ff" stroke="#63b8ff" points="211.27,-143.23 215.3,-133.43 206.04,-138.58 211.27,-143.23"/>
</a>
</g>
</g>
<!-- Node2&#45;&gt;Node9 -->
<g id="edge9_Node000002_Node000009" class="edge">
<title>Node2&#45;&gt;Node9</title>
<g id="a_edge9_Node000002_Node000009"><a xlink:title=" ">
<path fill="none" stroke="#63b8ff" d="M196.95,-167.59C215.35,-159.1 242.66,-146.5 263.55,-136.85"/>
<polygon fill="#63b8ff" stroke="#63b8ff" points="264.83,-140.12 272.44,-132.75 261.89,-133.77 264.83,-140.12"/>
</a>
</g>
</g>
<!-- Node7 -->
<g id="Node000007" class="node">
<title>Node7</title>
<g id="a_Node000007"><a xlink:href="_texture_item_8hpp.html" target="_top" xlink:title=" ">
<polygon fill="white" stroke="#666666" points="142.82,-76 56.32,-76 56.32,-56 142.82,-56 142.82,-76"/>
<text xml:space="preserve" text-anchor="middle" x="99.57" y="-62.5" font-family="Helvetica,sans-Serif" font-size="10.00">TextureItem.hpp</text>
</a>
</g>
</g>
<!-- Node6&#45;&gt;Node7 -->
<g id="edge6_Node000006_Node000007" class="edge">
<title>Node6&#45;&gt;Node7</title>
<g id="a_edge6_Node000006_Node000007"><a xlink:title=" ">
<path fill="none" stroke="#63b8ff" d="M202.8,-111.59C183.2,-103.13 154.14,-90.58 131.85,-80.94"/>
<polygon fill="#63b8ff" stroke="#63b8ff" points="133.47,-77.83 122.9,-77.08 130.69,-84.26 133.47,-77.83"/>
</a>
</g>
</g>
<!-- Node8 -->
<g id="Node000008" class="node">
<title>Node8</title>
<g id="a_Node000008"><a xlink:href="_area_8hpp.html" target="_top" xlink:title=" ">
<polygon fill="white" stroke="#666666" points="252.07,-76 197.07,-76 197.07,-56 252.07,-56 252.07,-76"/>
<text xml:space="preserve" text-anchor="middle" x="224.57" y="-62.5" font-family="Helvetica,sans-Serif" font-size="10.00">Area.hpp</text>
</a>
</g>
</g>
<!-- Node6&#45;&gt;Node8 -->
<g id="edge8_Node000006_Node000008" class="edge">
<title>Node6&#45;&gt;Node8</title>
<g id="a_edge8_Node000006_Node000008"><a xlink:title=" ">
<path fill="none" stroke="#63b8ff" d="M224.57,-111.59C224.57,-105.01 224.57,-95.96 224.57,-87.73"/>
<polygon fill="#63b8ff" stroke="#63b8ff" points="228.07,-87.81 224.57,-77.81 221.07,-87.81 228.07,-87.81"/>
</a>
</g>
</g>
<!-- Node7&#45;&gt;Node3 -->
<g id="edge7_Node000007_Node000003" class="edge">
<title>Node7&#45;&gt;Node3</title>
<g id="a_edge7_Node000007_Node000003"><a xlink:title=" ">
<path fill="none" stroke="#63b8ff" d="M93.13,-55.59C88.24,-48.47 81.38,-38.45 75.39,-29.72"/>
<polygon fill="#63b8ff" stroke="#63b8ff" points="78.34,-27.82 69.8,-21.55 72.56,-31.77 78.34,-27.82"/>
</a>
</g>
</g>
</g>
</svg>
