<?xml version="1.0" encoding="UTF-8" standalone="no"?>
<!DOCTYPE svg PUBLIC "-//W3C//DTD SVG 1.1//EN"
 "http://www.w3.org/Graphics/SVG/1.1/DTD/svg11.dtd">
<!-- Generated by graphviz version 13.0.0 (20250608.1624)
 -->
<!-- Title: sfml_ui/include/customizable/components/FrameAnimatedSprite.hpp Pages: 1 -->
<svg width="258pt" height="288pt"
 viewBox="0.00 0.00 258.00 288.00" xmlns="http://www.w3.org/2000/svg" xmlns:xlink="http://www.w3.org/1999/xlink">

<svg id="main" version="1.1" xmlns="http://www.w3.org/2000/svg" xmlns:xlink="http://www.w3.org/1999/xlink" xml:space="preserve">

<style type="text/css"><![CDATA[
.node, .edge {opacity: 0.7;}
.node.selected, .edge.selected {opacity: 1;}
.edge:hover path { stroke: red; }
.edge:hover polygon { stroke: red; fill: red; }
]]></style>
<script type="application/ecmascript" xlink:href="svg.min.js"/>
<svg id="graph" class="graph">
<g id="graph0" class="graph" transform="scale(1 1) rotate(0) translate(4 284)">
<title>sfml_ui/include/customizable/components/FrameAnimatedSprite.hpp</title>
<!-- Node1 -->
<g id="Node000001" class="node">
<title>Node1</title>
<g id="a_Node000001"><a xlink:title=" ">
<polygon fill="#999999" stroke="#666666" points="250.12,-280 61.62,-280 61.62,-248 250.12,-248 250.12,-280"/>
<text xml:space="preserve" text-anchor="start" x="69.62" y="-266.5" font-family="Helvetica,sans-Serif" font-size="10.00">sfml_ui/include/customizable</text>
<text xml:space="preserve" text-anchor="middle" x="155.88" y="-254.5" font-family="Helvetica,sans-Serif" font-size="10.00">/components/FrameAnimatedSprite.hpp</text>
</a>
</g>
</g>
<!-- Node2 -->
<g id="Node000002" class="node">
<title>Node2</title>
<g id="a_Node000002"><a xlink:href="world__elemental_8hpp.html" target="_top" xlink:title=" ">
<polygon fill="white" stroke="#666666" points="214.88,-212 96.88,-212 96.88,-180 214.88,-180 214.88,-212"/>
<text xml:space="preserve" text-anchor="start" x="104.88" y="-198.5" font-family="Helvetica,sans-Serif" font-size="10.00">elemental/include/world</text>
<text xml:space="preserve" text-anchor="middle" x="155.88" y="-186.5" font-family="Helvetica,sans-Serif" font-size="10.00">_elemental.hpp</text>
</a>
</g>
</g>
<!-- Node1&#45;&gt;Node2 -->
<g id="edge1_Node000001_Node000002" class="edge">
<title>Node1&#45;&gt;Node2</title>
<g id="a_edge1_Node000001_Node000002"><a xlink:title=" ">
<path fill="none" stroke="#63b8ff" d="M155.88,-236.31C155.88,-228.12 155.88,-219.38 155.88,-212.22"/>
<polygon fill="#63b8ff" stroke="#63b8ff" points="152.38,-236.18 155.88,-246.18 159.38,-236.18 152.38,-236.18"/>
</a>
</g>
</g>
<!-- Node3 -->
<g id="Node000003" class="node">
<title>Node3</title>
<g id="a_Node000003"><a xlink:href="biology_8hpp.html" target="_top" xlink:title=" ">
<polygon fill="white" stroke="#666666" points="177.62,-144 34.12,-144 34.12,-124 177.62,-124 177.62,-144"/>
<text xml:space="preserve" text-anchor="middle" x="105.88" y="-130.5" font-family="Helvetica,sans-Serif" font-size="10.00">elemental/include/biology.hpp</text>
</a>
</g>
</g>
<!-- Node2&#45;&gt;Node3 -->
<g id="edge2_Node000002_Node000003" class="edge">
<title>Node2&#45;&gt;Node3</title>
<g id="a_edge2_Node000002_Node000003"><a xlink:title=" ">
<path fill="none" stroke="#63b8ff" d="M135.86,-170.98C128.09,-161.66 119.65,-151.54 113.71,-144.41"/>
<polygon fill="#63b8ff" stroke="#63b8ff" points="132.94,-172.94 142.03,-178.39 138.32,-168.46 132.94,-172.94"/>
</a>
</g>
</g>
<!-- Node5 -->
<g id="Node000005" class="node">
<title>Node5</title>
<g id="a_Node000005"><a xlink:href="pausegamepage_8hpp.html" target="_top" xlink:title=" ">
<polygon fill="white" stroke="#666666" points="222.38,-32 113.38,-32 113.38,0 222.38,0 222.38,-32"/>
<text xml:space="preserve" text-anchor="start" x="121.38" y="-18.5" font-family="Helvetica,sans-Serif" font-size="10.00">game/include/pages</text>
<text xml:space="preserve" text-anchor="middle" x="167.88" y="-6.5" font-family="Helvetica,sans-Serif" font-size="10.00">/pausegamepage.hpp</text>
</a>
</g>
</g>
<!-- Node2&#45;&gt;Node5 -->
<g id="edge6_Node000002_Node000005" class="edge">
<title>Node2&#45;&gt;Node5</title>
<g id="a_edge6_Node000002_Node000005"><a xlink:title=" ">
<path fill="none" stroke="#63b8ff" d="M174.67,-170.17C179.64,-162.23 184.32,-153.12 186.88,-144 197.94,-104.5 183.28,-56.17 174.16,-32.11"/>
<polygon fill="#63b8ff" stroke="#63b8ff" points="171.9,-168.02 169.22,-178.27 177.71,-171.93 171.9,-168.02"/>
</a>
</g>
</g>
<!-- Node4 -->
<g id="Node000004" class="node">
<title>Node4</title>
<g id="a_Node000004"><a xlink:href="player_8hpp.html" target="_top" xlink:title=" ">
<polygon fill="white" stroke="#666666" points="139.75,-88 0,-88 0,-68 139.75,-68 139.75,-88"/>
<text xml:space="preserve" text-anchor="middle" x="69.88" y="-74.5" font-family="Helvetica,sans-Serif" font-size="10.00">elemental/include/player.hpp</text>
</a>
</g>
</g>
<!-- Node3&#45;&gt;Node4 -->
<g id="edge3_Node000003_Node000004" class="edge">
<title>Node3&#45;&gt;Node4</title>
<g id="a_edge3_Node000003_Node000004"><a xlink:title=" ">
<path fill="none" stroke="#63b8ff" d="M93.31,-114.15C87.48,-105.4 80.8,-95.39 76.07,-88.3"/>
<polygon fill="#63b8ff" stroke="#63b8ff" points="90.31,-115.96 98.76,-122.33 96.13,-112.07 90.31,-115.96"/>
</a>
</g>
</g>
<!-- Node3&#45;&gt;Node5 -->
<g id="edge5_Node000003_Node000005" class="edge">
<title>Node3&#45;&gt;Node5</title>
<g id="a_edge5_Node000003_Node000005"><a xlink:title=" ">
<path fill="none" stroke="#63b8ff" d="M126.16,-115.93C134.27,-108.15 143.04,-98.38 148.88,-88 158.82,-70.31 163.74,-47.21 166.04,-32.24"/>
<polygon fill="#63b8ff" stroke="#63b8ff" points="123.98,-113.18 118.92,-122.49 128.68,-118.37 123.98,-113.18"/>
</a>
</g>
</g>
<!-- Node4&#45;&gt;Node5 -->
<g id="edge4_Node000004_Node000005" class="edge">
<title>Node4&#45;&gt;Node5</title>
<g id="a_edge4_Node000004_Node000005"><a xlink:title=" ">
<path fill="none" stroke="#63b8ff" d="M94.66,-61.83C109.38,-52.81 127.99,-41.42 142.76,-32.37"/>
<polygon fill="#63b8ff" stroke="#63b8ff" points="93.18,-58.63 86.48,-66.83 96.83,-64.6 93.18,-58.63"/>
</a>
</g>
</g>
</g>
</svg>
</svg>

<style type='text/css'>
<![CDATA[
[data-mouse-over-selected='false'] { opacity: 0.7; }
[data-mouse-over-selected='true']  { opacity: 1.0; }
]]>
</style>
<script type="application/ecmascript"><![CDATA[
document.addEventListener('DOMContentLoaded', (event) => {
  highlightEdges();
  highlightAdjacentNodes();
});
]]></script>
</svg>
