<?xml version="1.0" encoding="UTF-8" standalone="no"?>
<!DOCTYPE svg PUBLIC "-//W3C//DTD SVG 1.1//EN"
 "http://www.w3.org/Graphics/SVG/1.1/DTD/svg11.dtd">
<!-- Generated by graphviz version 13.0.0 (20250608.1624)
 -->
<!-- Title: sfml_ui/include/customizable/components/TextureItem.hpp Pages: 1 -->
<!--zoomable 572 -->

<svg id="main" version="1.1" xmlns="http://www.w3.org/2000/svg" xmlns:xlink="http://www.w3.org/1999/xlink" xml:space="preserve" onload="init(evt)">

<style type="text/css"><![CDATA[
.node, .edge {opacity: 0.7;}
.node.selected, .edge.selected {opacity: 1;}
.edge:hover path { stroke: red; }
.edge:hover polygon { stroke: red; fill: red; }
]]></style>

<defs>
  <circle id="rim" cx="0" cy="0" r="7"/>
  <circle id="rim2" cx="0" cy="0" r="3.5"/>
  <g id="zoomPlus">
    <use xlink:href="#rim" fill="#404040"><set attributeName="fill" to="#808080" begin="zoomplus.mouseover" end="zoomplus.mouseout"/></use>
    <path d="M-4,0h8M0,-4v8" fill="none" stroke="white" stroke-width="1.5" pointer-events="none"/>
  </g>
  <g id="zoomMin">
    <use xlink:href="#rim" fill="#404040"><set attributeName="fill" to="#808080" begin="zoomminus.mouseover" end="zoomminus.mouseout"/></use>
    <path d="M-4,0h8" fill="none" stroke="white" stroke-width="1.5" pointer-events="none"/>
  </g>
  <g id="arrowUp" transform="translate(30 24)">
    <use xlink:href="#rim"/>
    <path pointer-events="none" fill="none" stroke="white" stroke-width="1.5" d="M0,-3.0v7 M-2.5,-0.5L0,-3.0L2.5,-0.5"/>
  </g>
  <g id="arrowRight" transform="rotate(90) translate(36 -43)">
    <use xlink:href="#rim"/>
    <path pointer-events="none" fill="none" stroke="white" stroke-width="1.5" d="M0,-3.0v7 M-2.5,-0.5L0,-3.0L2.5,-0.5"/>
  </g>
  <g id="arrowDown" transform="rotate(180) translate(-30 -48)">
    <use xlink:href="#rim"/>
    <path pointer-events="none" fill="none" stroke="white" stroke-width="1.5" d="M0,-3.0v7 M-2.5,-0.5L0,-3.0L2.5,-0.5"/>
  </g>
  <g id="arrowLeft" transform="rotate(270) translate(-36 17)">
    <use xlink:href="#rim"/>
    <path pointer-events="none" fill="none" stroke="white" stroke-width="1.5" d="M0,-3.0v7 M-2.5,-0.5L0,-3.0L2.5,-0.5"/>
  </g>
  <g id="resetDef">
    <use xlink:href="#rim2" fill="#404040"><set attributeName="fill" to="#808080" begin="reset.mouseover" end="reset.mouseout"/></use>
  </g>
</defs>
<script type="application/ecmascript">
var viewWidth = 797;
var viewHeight = 572;
var sectionId = 'dynsection-1';
</script>
<script type="application/ecmascript" xlink:href="svg.min.js"/>
<svg id="graph" class="graph">
<g id="viewport">
<title>sfml_ui/include/customizable/components/TextureItem.hpp</title>
<!-- Node1 -->
<g id="Node000001" class="node">
<title>Node1</title>
<g id="a_Node000001"><a xlink:title=" ">
<polygon fill="#999999" stroke="#666666" points="347.12,-564 201.38,-564 201.38,-532 347.12,-532 347.12,-564"/>
<text xml:space="preserve" text-anchor="start" x="209.38" y="-550.5" font-family="Helvetica,sans-Serif" font-size="10.00">sfml_ui/include/customizable</text>
<text xml:space="preserve" text-anchor="middle" x="274.25" y="-538.5" font-family="Helvetica,sans-Serif" font-size="10.00">/components/TextureItem.hpp</text>
</a>
</g>
</g>
<!-- Node2 -->
<g id="Node000002" class="node">
<title>Node2</title>
<g id="a_Node000002"><a xlink:href="_frame_animated_sprite_8hpp.html" target="_top" xlink:title=" ">
<polygon fill="white" stroke="#666666" points="188.5,-428 0,-428 0,-396 188.5,-396 188.5,-428"/>
<text xml:space="preserve" text-anchor="start" x="8" y="-414.5" font-family="Helvetica,sans-Serif" font-size="10.00">sfml_ui/include/customizable</text>
<text xml:space="preserve" text-anchor="middle" x="94.25" y="-402.5" font-family="Helvetica,sans-Serif" font-size="10.00">/components/FrameAnimatedSprite.hpp</text>
</a>
</g>
</g>
<!-- Node1&#45;&gt;Node2 -->
<g id="edge1_Node000001_Node000002" class="edge">
<title>Node1&#45;&gt;Node2</title>
<g id="a_edge1_Node000001_Node000002"><a xlink:title=" ">
<path fill="none" stroke="#63b8ff" d="M244.42,-524.79C207.82,-497.55 146.74,-452.08 114.93,-428.4"/>
<polygon fill="#63b8ff" stroke="#63b8ff" points="242.28,-527.56 252.39,-530.72 246.46,-521.95 242.28,-527.56"/>
</a>
</g>
</g>
<!-- Node7 -->
<g id="Node000007" class="node">
<title>Node7</title>
<g id="a_Node000007"><a xlink:href="_time_animated_sprite_8hpp.html" target="_top" xlink:title=" ">
<polygon fill="white" stroke="#666666" points="295.5,-360 113,-360 113,-328 295.5,-328 295.5,-360"/>
<text xml:space="preserve" text-anchor="start" x="121" y="-346.5" font-family="Helvetica,sans-Serif" font-size="10.00">sfml_ui/include/customizable</text>
<text xml:space="preserve" text-anchor="middle" x="204.25" y="-334.5" font-family="Helvetica,sans-Serif" font-size="10.00">/components/TimeAnimatedSprite.hpp</text>
</a>
</g>
</g>
<!-- Node1&#45;&gt;Node7 -->
<g id="edge8_Node000001_Node000007" class="edge">
<title>Node1&#45;&gt;Node7</title>
<g id="a_edge8_Node000001_Node000007"><a xlink:title=" ">
<path fill="none" stroke="#63b8ff" d="M265.31,-521.21C250.55,-478.6 221.51,-394.82 209.57,-360.36"/>
<polygon fill="#63b8ff" stroke="#63b8ff" points="261.91,-522.08 268.49,-530.39 268.53,-519.79 261.91,-522.08"/>
</a>
</g>
</g>
<!-- Node9 -->
<g id="Node000009" class="node">
<title>Node9</title>
<g id="a_Node000009"><a xlink:href="button_8hpp.html" target="_top" xlink:title=" ">
<polygon fill="white" stroke="#666666" points="413.25,-496 271.25,-496 271.25,-464 413.25,-464 413.25,-496"/>
<text xml:space="preserve" text-anchor="start" x="279.25" y="-482.5" font-family="Helvetica,sans-Serif" font-size="10.00">sfml_ui/include/customizable</text>
<text xml:space="preserve" text-anchor="middle" x="342.25" y="-470.5" font-family="Helvetica,sans-Serif" font-size="10.00">/controls/button.hpp</text>
</a>
</g>
</g>
<!-- Node1&#45;&gt;Node9 -->
<g id="edge11_Node000001_Node000009" class="edge">
<title>Node1&#45;&gt;Node9</title>
<g id="a_edge11_Node000001_Node000009"><a xlink:title=" ">
<path fill="none" stroke="#63b8ff" d="M298.25,-523.71C307.65,-514.59 318.17,-504.37 326.56,-496.22"/>
<polygon fill="#63b8ff" stroke="#63b8ff" points="295.85,-521.16 291.11,-530.64 300.72,-526.18 295.85,-521.16"/>
</a>
</g>
</g>
<!-- Node23 -->
<g id="Node000023" class="node">
<title>Node23</title>
<g id="a_Node000023"><a xlink:href="_texture_item_8cpp.html" target="_top" xlink:title=" ">
<polygon fill="white" stroke="#666666" points="577.12,-496 431.38,-496 431.38,-464 577.12,-464 577.12,-496"/>
<text xml:space="preserve" text-anchor="start" x="439.38" y="-482.5" font-family="Helvetica,sans-Serif" font-size="10.00">sfml_ui/src/customizable</text>
<text xml:space="preserve" text-anchor="middle" x="504.25" y="-470.5" font-family="Helvetica,sans-Serif" font-size="10.00">/components/TextureItem.cpp</text>
</a>
</g>
</g>
<!-- Node1&#45;&gt;Node23 -->
<g id="edge32_Node000001_Node000023" class="edge">
<title>Node1&#45;&gt;Node23</title>
<g id="a_edge32_Node000001_Node000023"><a xlink:title=" ">
<path fill="none" stroke="#63b8ff" d="M338.81,-528.47C373.95,-518.39 416.92,-506.06 450.27,-496.49"/>
<polygon fill="#63b8ff" stroke="#63b8ff" points="338.28,-524.99 329.63,-531.11 340.21,-531.71 338.28,-524.99"/>
</a>
</g>
</g>
<!-- Node3 -->
<g id="Node000003" class="node">
<title>Node3</title>
<g id="a_Node000003"><a xlink:href="world__elemental_8hpp.html" target="_top" xlink:title=" ">
<polygon fill="white" stroke="#666666" points="144.25,-292 26.25,-292 26.25,-260 144.25,-260 144.25,-292"/>
<text xml:space="preserve" text-anchor="start" x="34.25" y="-278.5" font-family="Helvetica,sans-Serif" font-size="10.00">elemental/include/world</text>
<text xml:space="preserve" text-anchor="middle" x="85.25" y="-266.5" font-family="Helvetica,sans-Serif" font-size="10.00">_elemental.hpp</text>
</a>
</g>
</g>
<!-- Node2&#45;&gt;Node3 -->
<g id="edge2_Node000002_Node000003" class="edge">
<title>Node2&#45;&gt;Node3</title>
<g id="a_edge2_Node000002_Node000003"><a xlink:title=" ">
<path fill="none" stroke="#63b8ff" d="M92.47,-384.45C90.61,-356.84 87.78,-314.6 86.27,-292.19"/>
<polygon fill="#63b8ff" stroke="#63b8ff" points="88.95,-384.38 93.12,-394.12 95.94,-383.91 88.95,-384.38"/>
</a>
</g>
</g>
<!-- Node4 -->
<g id="Node000004" class="node">
<title>Node4</title>
<g id="a_Node000004"><a xlink:href="biology_8hpp.html" target="_top" xlink:title=" ">
<polygon fill="white" stroke="#666666" points="197,-218 53.5,-218 53.5,-198 197,-198 197,-218"/>
<text xml:space="preserve" text-anchor="middle" x="125.25" y="-204.5" font-family="Helvetica,sans-Serif" font-size="10.00">elemental/include/biology.hpp</text>
</a>
</g>
</g>
<!-- Node3&#45;&gt;Node4 -->
<g id="edge3_Node000003_Node000004" class="edge">
<title>Node3&#45;&gt;Node4</title>
<g id="a_edge3_Node000003_Node000004"><a xlink:title=" ">
<path fill="none" stroke="#63b8ff" d="M100.39,-250.02C107.11,-238.93 114.62,-226.55 119.6,-218.32"/>
<polygon fill="#63b8ff" stroke="#63b8ff" points="97.5,-248.03 95.31,-258.4 103.49,-251.66 97.5,-248.03"/>
</a>
</g>
</g>
<!-- Node6 -->
<g id="Node000006" class="node">
<title>Node6</title>
<g id="a_Node000006"><a xlink:href="pausegamepage_8hpp.html" target="_top" xlink:title=" ">
<polygon fill="white" stroke="#666666" points="222.75,-88 113.75,-88 113.75,-56 222.75,-56 222.75,-88"/>
<text xml:space="preserve" text-anchor="start" x="121.75" y="-74.5" font-family="Helvetica,sans-Serif" font-size="10.00">game/include/pages</text>
<text xml:space="preserve" text-anchor="middle" x="168.25" y="-62.5" font-family="Helvetica,sans-Serif" font-size="10.00">/pausegamepage.hpp</text>
</a>
</g>
</g>
<!-- Node3&#45;&gt;Node6 -->
<g id="edge7_Node000003_Node000006" class="edge">
<title>Node3&#45;&gt;Node6</title>
<g id="a_edge7_Node000003_Node000006"><a xlink:title=" ">
<path fill="none" stroke="#63b8ff" d="M60.82,-251.42C54.13,-243.42 47.76,-233.97 44.25,-224 39.53,-210.59 39.22,-205.3 44.25,-192 62.14,-144.69 110.7,-107.86 141.47,-88.37"/>
<polygon fill="#63b8ff" stroke="#63b8ff" points="58.06,-253.59 67.36,-258.66 63.25,-248.9 58.06,-253.59"/>
</a>
</g>
</g>
<!-- Node5 -->
<g id="Node000005" class="node">
<title>Node5</title>
<g id="a_Node000005"><a xlink:href="player_8hpp.html" target="_top" xlink:title=" ">
<polygon fill="white" stroke="#666666" points="262.12,-150 122.38,-150 122.38,-130 262.12,-130 262.12,-150"/>
<text xml:space="preserve" text-anchor="middle" x="192.25" y="-136.5" font-family="Helvetica,sans-Serif" font-size="10.00">elemental/include/player.hpp</text>
</a>
</g>
</g>
<!-- Node4&#45;&gt;Node5 -->
<g id="edge4_Node000004_Node000005" class="edge">
<title>Node4&#45;&gt;Node5</title>
<g id="a_edge4_Node000004_Node000005"><a xlink:title=" ">
<path fill="none" stroke="#63b8ff" d="M142.9,-189.61C155.63,-177.07 172.33,-160.63 182.67,-150.44"/>
<polygon fill="#63b8ff" stroke="#63b8ff" points="140.6,-186.97 135.93,-196.48 145.51,-191.96 140.6,-186.97"/>
</a>
</g>
</g>
<!-- Node4&#45;&gt;Node6 -->
<g id="edge6_Node000004_Node000006" class="edge">
<title>Node4&#45;&gt;Node6</title>
<g id="a_edge6_Node000004_Node000006"><a xlink:title=" ">
<path fill="none" stroke="#63b8ff" d="M116.53,-187.06C110.28,-169.72 104.4,-144.27 113.25,-124 119.61,-109.44 132.39,-97.17 144.04,-88.32"/>
<polygon fill="#63b8ff" stroke="#63b8ff" points="113.22,-188.2 120.17,-196.19 119.72,-185.61 113.22,-188.2"/>
</a>
</g>
</g>
<!-- Node5&#45;&gt;Node6 -->
<g id="edge5_Node000005_Node000006" class="edge">
<title>Node5&#45;&gt;Node6</title>
<g id="a_edge5_Node000005_Node000006"><a xlink:title=" ">
<path fill="none" stroke="#63b8ff" d="M184.89,-118.75C181.32,-108.94 177.11,-97.36 173.81,-88.3"/>
<polygon fill="#63b8ff" stroke="#63b8ff" points="181.59,-119.92 188.29,-128.12 188.17,-117.53 181.59,-119.92"/>
</a>
</g>
</g>
<!-- Node7&#45;&gt;Node3 -->
<g id="edge9_Node000007_Node000003" class="edge">
<title>Node7&#45;&gt;Node3</title>
<g id="a_edge9_Node000007_Node000003"><a xlink:title=" ">
<path fill="none" stroke="#63b8ff" d="M166.51,-322.07C149.14,-312.44 128.91,-301.21 112.98,-292.38"/>
<polygon fill="#63b8ff" stroke="#63b8ff" points="164.58,-325 175.03,-326.79 167.98,-318.88 164.58,-325"/>
</a>
</g>
</g>
<!-- Node8 -->
<g id="Node000008" class="node">
<title>Node8</title>
<g id="a_Node000008"><a xlink:href="_time_animated_sprite_8cpp.html" target="_top" xlink:title=" ">
<polygon fill="white" stroke="#666666" points="344.5,-292 162,-292 162,-260 344.5,-260 344.5,-292"/>
<text xml:space="preserve" text-anchor="start" x="170" y="-278.5" font-family="Helvetica,sans-Serif" font-size="10.00">sfml_ui/src/customizable</text>
<text xml:space="preserve" text-anchor="middle" x="253.25" y="-266.5" font-family="Helvetica,sans-Serif" font-size="10.00">/components/TimeAnimatedSprite.cpp</text>
</a>
</g>
</g>
<!-- Node7&#45;&gt;Node8 -->
<g id="edge10_Node000007_Node000008" class="edge">
<title>Node7&#45;&gt;Node8</title>
<g id="a_edge10_Node000007_Node000008"><a xlink:title=" ">
<path fill="none" stroke="#63b8ff" d="M222.38,-318.59C228.93,-309.75 236.14,-300.04 241.95,-292.22"/>
<polygon fill="#63b8ff" stroke="#63b8ff" points="219.67,-316.36 216.52,-326.48 225.29,-320.53 219.67,-316.36"/>
</a>
</g>
</g>
<!-- Node10 -->
<g id="Node000010" class="node">
<title>Node10</title>
<g id="a_Node000010"><a xlink:href="_event_binding_8hpp.html" target="_top" xlink:title=" ">
<polygon fill="white" stroke="#666666" points="447.38,-428 309.12,-428 309.12,-396 447.38,-396 447.38,-428"/>
<text xml:space="preserve" text-anchor="start" x="317.12" y="-414.5" font-family="Helvetica,sans-Serif" font-size="10.00">sfml_ui/include/core</text>
<text xml:space="preserve" text-anchor="middle" x="378.25" y="-402.5" font-family="Helvetica,sans-Serif" font-size="10.00">/message/EventBinding.hpp</text>
</a>
</g>
</g>
<!-- Node9&#45;&gt;Node10 -->
<g id="edge12_Node000009_Node000010" class="edge">
<title>Node9&#45;&gt;Node10</title>
<g id="a_edge12_Node000009_Node000010"><a xlink:title=" ">
<path fill="none" stroke="#63b8ff" d="M356.03,-453.74C360.72,-445.14 365.82,-435.79 369.95,-428.22"/>
<polygon fill="#63b8ff" stroke="#63b8ff" points="353.04,-451.91 351.32,-462.36 359.19,-455.26 353.04,-451.91"/>
</a>
</g>
</g>
<!-- Node17 -->
<g id="Node000017" class="node">
<title>Node17</title>
<g id="a_Node000017"><a xlink:href="page__emplate_8hpp.html" target="_top" xlink:title=" ">
<polygon fill="white" stroke="#666666" points="733.12,-88 605.38,-88 605.38,-56 733.12,-56 733.12,-88"/>
<text xml:space="preserve" text-anchor="start" x="613.38" y="-74.5" font-family="Helvetica,sans-Serif" font-size="10.00">sfml_ui/include/core</text>
<text xml:space="preserve" text-anchor="middle" x="669.25" y="-62.5" font-family="Helvetica,sans-Serif" font-size="10.00">/pages/page_emplate.hpp</text>
</a>
</g>
</g>
<!-- Node9&#45;&gt;Node17 -->
<g id="edge31_Node000009_Node000017" class="edge">
<title>Node9&#45;&gt;Node17</title>
<g id="a_edge31_Node000009_Node000017"><a xlink:title=" ">
<path fill="none" stroke="#63b8ff" d="M424.58,-462.8C553.7,-436.24 789.25,-382.64 789.25,-345 789.25,-345 789.25,-345 789.25,-207 789.25,-152.35 733.17,-109.8 697.69,-88.34"/>
<polygon fill="#63b8ff" stroke="#63b8ff" points="424.15,-459.32 415.06,-464.75 425.55,-466.17 424.15,-459.32"/>
</a>
</g>
</g>
<!-- Node11 -->
<g id="Node000011" class="node">
<title>Node11</title>
<g id="a_Node000011"><a xlink:href="_page_8hpp.html" target="_top" xlink:title=" ">
<polygon fill="white" stroke="#666666" points="563.75,-360 460.75,-360 460.75,-328 563.75,-328 563.75,-360"/>
<text xml:space="preserve" text-anchor="start" x="468.75" y="-346.5" font-family="Helvetica,sans-Serif" font-size="10.00">sfml_ui/include/core</text>
<text xml:space="preserve" text-anchor="middle" x="512.25" y="-334.5" font-family="Helvetica,sans-Serif" font-size="10.00">/pages/Page.hpp</text>
</a>
</g>
</g>
<!-- Node10&#45;&gt;Node11 -->
<g id="edge13_Node000010_Node000011" class="edge">
<title>Node10&#45;&gt;Node11</title>
<g id="a_edge13_Node000010_Node000011"><a xlink:title=" ">
<path fill="none" stroke="#63b8ff" d="M419.93,-390.47C439.66,-380.75 462.84,-369.34 481.03,-360.38"/>
<polygon fill="#63b8ff" stroke="#63b8ff" points="418.45,-387.3 411.02,-394.86 421.54,-393.58 418.45,-387.3"/>
</a>
</g>
</g>
<!-- Node22 -->
<g id="Node000022" class="node">
<title>Node22</title>
<g id="a_Node000022"><a xlink:href="_event_binding_8cpp.html" target="_top" xlink:title="实现EvectBingding类，负责事件与行为的绑定与触发。">
<polygon fill="white" stroke="#666666" points="442.5,-360 314,-360 314,-328 442.5,-328 442.5,-360"/>
<text xml:space="preserve" text-anchor="start" x="322" y="-346.5" font-family="Helvetica,sans-Serif" font-size="10.00">sfml_ui/src/core/message</text>
<text xml:space="preserve" text-anchor="middle" x="378.25" y="-334.5" font-family="Helvetica,sans-Serif" font-size="10.00">/EventBinding.cpp</text>
</a>
</g>
</g>
<!-- Node10&#45;&gt;Node22 -->
<g id="edge30_Node000010_Node000022" class="edge">
<title>Node10&#45;&gt;Node22</title>
<g id="a_edge30_Node000010_Node000022"><a xlink:title=" ">
<path fill="none" stroke="#63b8ff" d="M378.25,-384.31C378.25,-376.12 378.25,-367.38 378.25,-360.22"/>
<polygon fill="#63b8ff" stroke="#63b8ff" points="374.75,-384.18 378.25,-394.18 381.75,-384.18 374.75,-384.18"/>
</a>
</g>
</g>
<!-- Node12 -->
<g id="Node000012" class="node">
<title>Node12</title>
<g id="a_Node000012"><a xlink:href="_control_page_8hpp.html" target="_top" xlink:title=" ">
<polygon fill="white" stroke="#666666" points="760.75,-224 639.75,-224 639.75,-192 760.75,-192 760.75,-224"/>
<text xml:space="preserve" text-anchor="start" x="647.75" y="-210.5" font-family="Helvetica,sans-Serif" font-size="10.00">sfml_ui/include/core</text>
<text xml:space="preserve" text-anchor="middle" x="700.25" y="-198.5" font-family="Helvetica,sans-Serif" font-size="10.00">/pages/ControlPage.hpp</text>
</a>
</g>
</g>
<!-- Node11&#45;&gt;Node12 -->
<g id="edge14_Node000011_Node000012" class="edge">
<title>Node11&#45;&gt;Node12</title>
<g id="a_edge14_Node000011_Node000012"><a xlink:title=" ">
<path fill="none" stroke="#63b8ff" d="M544.61,-321.37C557.89,-312.39 573.39,-301.8 587.25,-292 620.05,-268.82 657.51,-241.04 680,-224.22"/>
<polygon fill="#63b8ff" stroke="#63b8ff" points="542.97,-318.25 536.63,-326.74 546.88,-324.06 542.97,-318.25"/>
</a>
</g>
</g>
<!-- Node18 -->
<g id="Node000018" class="node">
<title>Node18</title>
<g id="a_Node000018"><a xlink:href="_interactive_page_8hpp.html" target="_top" xlink:title=" ">
<polygon fill="white" stroke="#666666" points="349.88,-224 214.62,-224 214.62,-192 349.88,-192 349.88,-224"/>
<text xml:space="preserve" text-anchor="start" x="222.62" y="-210.5" font-family="Helvetica,sans-Serif" font-size="10.00">sfml_ui/include/core</text>
<text xml:space="preserve" text-anchor="middle" x="282.25" y="-198.5" font-family="Helvetica,sans-Serif" font-size="10.00">/pages/InteractivePage.hpp</text>
</a>
</g>
</g>
<!-- Node11&#45;&gt;Node18 -->
<g id="edge21_Node000011_Node000018" class="edge">
<title>Node11&#45;&gt;Node18</title>
<g id="a_edge21_Node000011_Node000018"><a xlink:title=" ">
<path fill="none" stroke="#63b8ff" d="M476.2,-322C429.7,-294.91 349.93,-248.43 308.68,-224.4"/>
<polygon fill="#63b8ff" stroke="#63b8ff" points="474.16,-324.86 484.56,-326.87 477.68,-318.81 474.16,-324.86"/>
</a>
</g>
</g>
<!-- Node19 -->
<g id="Node000019" class="node">
<title>Node19</title>
<g id="a_Node000019"><a xlink:href="_window_8hpp.html" target="_top" xlink:title=" ">
<polygon fill="white" stroke="#666666" points="561.38,-292 453.12,-292 453.12,-260 561.38,-260 561.38,-292"/>
<text xml:space="preserve" text-anchor="start" x="461.12" y="-278.5" font-family="Helvetica,sans-Serif" font-size="10.00">sfml_ui/include/core</text>
<text xml:space="preserve" text-anchor="middle" x="507.25" y="-266.5" font-family="Helvetica,sans-Serif" font-size="10.00">/window/Window.hpp</text>
</a>
</g>
</g>
<!-- Node11&#45;&gt;Node19 -->
<g id="edge23_Node000011_Node000019" class="edge">
<title>Node11&#45;&gt;Node19</title>
<g id="a_edge23_Node000011_Node000019"><a xlink:title=" ">
<path fill="none" stroke="#63b8ff" d="M510.23,-316.31C509.61,-308.12 508.95,-299.38 508.4,-292.22"/>
<polygon fill="#63b8ff" stroke="#63b8ff" points="506.73,-316.48 510.98,-326.18 513.71,-315.95 506.73,-316.48"/>
</a>
</g>
</g>
<!-- Node20 -->
<g id="Node000020" class="node">
<title>Node20</title>
<g id="a_Node000020"><a xlink:href="_page_8cpp.html" target="_top" xlink:title="实现Page类及相关函数，负责界面生命周期、事件绑定、渲染等。">
<polygon fill="white" stroke="#666666" points="482.75,-224 367.75,-224 367.75,-192 482.75,-192 482.75,-224"/>
<text xml:space="preserve" text-anchor="start" x="375.75" y="-210.5" font-family="Helvetica,sans-Serif" font-size="10.00">sfml_ui/src/core/pages</text>
<text xml:space="preserve" text-anchor="middle" x="425.25" y="-198.5" font-family="Helvetica,sans-Serif" font-size="10.00">/Page.cpp</text>
</a>
</g>
</g>
<!-- Node11&#45;&gt;Node20 -->
<g id="edge28_Node000011_Node000020" class="edge">
<title>Node11&#45;&gt;Node20</title>
<g id="a_edge28_Node000011_Node000020"><a xlink:title=" ">
<path fill="none" stroke="#63b8ff" d="M474.01,-321.49C462.92,-313.54 451.79,-303.6 444.25,-292 430.72,-271.17 426.77,-241.94 425.65,-224.3"/>
<polygon fill="#63b8ff" stroke="#63b8ff" points="471.73,-324.17 481.98,-326.84 475.63,-318.36 471.73,-324.17"/>
</a>
</g>
</g>
<!-- Node21 -->
<g id="Node000021" class="node">
<title>Node21</title>
<g id="a_Node000021"><a xlink:href="_window_8cpp.html" target="_top" xlink:title=" ">
<polygon fill="white" stroke="#666666" points="622.12,-224 500.38,-224 500.38,-192 622.12,-192 622.12,-224"/>
<text xml:space="preserve" text-anchor="start" x="508.38" y="-210.5" font-family="Helvetica,sans-Serif" font-size="10.00">sfml_ui/src/core/window</text>
<text xml:space="preserve" text-anchor="middle" x="561.25" y="-198.5" font-family="Helvetica,sans-Serif" font-size="10.00">/Window.cpp</text>
</a>
</g>
</g>
<!-- Node11&#45;&gt;Node21 -->
<g id="edge29_Node000011_Node000021" class="edge">
<title>Node11&#45;&gt;Node21</title>
<g id="a_edge29_Node000011_Node000021"><a xlink:title=" ">
<path fill="none" stroke="#63b8ff" d="M547.23,-320.59C556.45,-312.76 565.23,-303.11 570.25,-292 580.17,-270.08 573.44,-241.69 567.48,-224.43"/>
<polygon fill="#63b8ff" stroke="#63b8ff" points="545.27,-317.68 539.54,-326.59 549.58,-323.19 545.27,-317.68"/>
</a>
</g>
</g>
<!-- Node13 -->
<g id="Node000013" class="node">
<title>Node13</title>
<g id="a_Node000013"><a xlink:href="_complex_page_8hpp.html" target="_top" xlink:title=" ">
<polygon fill="white" stroke="#666666" points="456.5,-156 328,-156 328,-124 456.5,-124 456.5,-156"/>
<text xml:space="preserve" text-anchor="start" x="336" y="-142.5" font-family="Helvetica,sans-Serif" font-size="10.00">sfml_ui/include/core</text>
<text xml:space="preserve" text-anchor="middle" x="392.25" y="-130.5" font-family="Helvetica,sans-Serif" font-size="10.00">/pages/ComplexPage.hpp</text>
</a>
</g>
</g>
<!-- Node12&#45;&gt;Node13 -->
<g id="edge15_Node000012_Node000013" class="edge">
<title>Node12&#45;&gt;Node13</title>
<g id="a_edge15_Node000012_Node000013"><a xlink:title=" ">
<path fill="none" stroke="#63b8ff" d="M628.3,-191.37C564.95,-177.74 502.39,-164.4 456.93,-154.73"/>
<polygon fill="#63b8ff" stroke="#63b8ff" points="627.31,-194.73 637.82,-193.42 628.78,-187.89 627.31,-194.73"/>
</a>
</g>
</g>
<!-- Node13&#45;&gt;Node6 -->
<g id="edge19_Node000013_Node000006" class="edge">
<title>Node13&#45;&gt;Node6</title>
<g id="a_edge19_Node000013_Node000006"><a xlink:title=" ">
<path fill="none" stroke="#63b8ff" d="M328.93,-120.34C294.79,-110.28 253.16,-98.02 220.83,-88.49"/>
<polygon fill="#63b8ff" stroke="#63b8ff" points="327.7,-123.63 338.28,-123.1 329.68,-116.91 327.7,-123.63"/>
</a>
</g>
</g>
<!-- Node14 -->
<g id="Node000014" class="node">
<title>Node14</title>
<g id="a_Node000014"><a xlink:href="_main_menu_page_8hpp.html" target="_top" xlink:title=" ">
<polygon fill="white" stroke="#666666" points="346.88,-88 241.62,-88 241.62,-56 346.88,-56 346.88,-88"/>
<text xml:space="preserve" text-anchor="start" x="249.62" y="-74.5" font-family="Helvetica,sans-Serif" font-size="10.00">game/include/pages</text>
<text xml:space="preserve" text-anchor="middle" x="294.25" y="-62.5" font-family="Helvetica,sans-Serif" font-size="10.00">/MainMenuPage.hpp</text>
</a>
</g>
</g>
<!-- Node13&#45;&gt;Node14 -->
<g id="edge16_Node000013_Node000014" class="edge">
<title>Node13&#45;&gt;Node14</title>
<g id="a_edge16_Node000013_Node000014"><a xlink:title=" ">
<path fill="none" stroke="#63b8ff" d="M360.21,-117.42C346.16,-107.96 330.01,-97.08 317.2,-88.45"/>
<polygon fill="#63b8ff" stroke="#63b8ff" points="358.02,-120.16 368.27,-122.85 361.93,-114.36 358.02,-120.16"/>
</a>
</g>
</g>
<!-- Node16 -->
<g id="Node000016" class="node">
<title>Node16</title>
<g id="a_Node000016"><a xlink:href="gamepage_8hpp.html" target="_top" xlink:title=" ">
<polygon fill="white" stroke="#666666" points="467.75,-88 364.75,-88 364.75,-56 467.75,-56 467.75,-88"/>
<text xml:space="preserve" text-anchor="start" x="372.75" y="-74.5" font-family="Helvetica,sans-Serif" font-size="10.00">game/include/pages</text>
<text xml:space="preserve" text-anchor="middle" x="416.25" y="-62.5" font-family="Helvetica,sans-Serif" font-size="10.00">/gamepage.hpp</text>
</a>
</g>
</g>
<!-- Node13&#45;&gt;Node16 -->
<g id="edge18_Node000013_Node000016" class="edge">
<title>Node13&#45;&gt;Node16</title>
<g id="a_edge18_Node000013_Node000016"><a xlink:title=" ">
<path fill="none" stroke="#63b8ff" d="M401.75,-112.89C404.79,-104.52 408.05,-95.54 410.71,-88.22"/>
<polygon fill="#63b8ff" stroke="#63b8ff" points="398.46,-111.68 398.33,-122.27 405.04,-114.07 398.46,-111.68"/>
</a>
</g>
</g>
<!-- Node13&#45;&gt;Node17 -->
<g id="edge20_Node000013_Node000017" class="edge">
<title>Node13&#45;&gt;Node17</title>
<g id="a_edge20_Node000013_Node000017"><a xlink:title=" ">
<path fill="none" stroke="#63b8ff" d="M467.82,-120.99C510.81,-110.75 564.08,-98.06 605.03,-88.3"/>
<polygon fill="#63b8ff" stroke="#63b8ff" points="467.23,-117.54 458.32,-123.26 468.86,-124.35 467.23,-117.54"/>
</a>
</g>
</g>
<!-- Node15 -->
<g id="Node000015" class="node">
<title>Node15</title>
<g id="a_Node000015"><a xlink:href="main_8cpp.html" target="_top" xlink:title=" ">
<polygon fill="white" stroke="#666666" points="343.88,-20 244.62,-20 244.62,0 343.88,0 343.88,-20"/>
<text xml:space="preserve" text-anchor="middle" x="294.25" y="-6.5" font-family="Helvetica,sans-Serif" font-size="10.00">game/src/main.cpp</text>
</a>
</g>
</g>
<!-- Node14&#45;&gt;Node15 -->
<g id="edge17_Node000014_Node000015" class="edge">
<title>Node14&#45;&gt;Node15</title>
<g id="a_edge17_Node000014_Node000015"><a xlink:title=" ">
<path fill="none" stroke="#63b8ff" d="M294.25,-44.08C294.25,-35.6 294.25,-26.8 294.25,-20.41"/>
<polygon fill="#63b8ff" stroke="#63b8ff" points="290.75,-44.03 294.25,-54.03 297.75,-44.03 290.75,-44.03"/>
</a>
</g>
</g>
<!-- Node18&#45;&gt;Node13 -->
<g id="edge22_Node000018_Node000013" class="edge">
<title>Node18&#45;&gt;Node13</title>
<g id="a_edge22_Node000018_Node000013"><a xlink:title=" ">
<path fill="none" stroke="#63b8ff" d="M317.59,-185.8C333.54,-176.23 352.03,-165.13 366.62,-156.38"/>
<polygon fill="#63b8ff" stroke="#63b8ff" points="316.11,-182.6 309.34,-190.75 319.71,-188.6 316.11,-182.6"/>
</a>
</g>
</g>
<!-- Node19&#45;&gt;Node12 -->
<g id="edge24_Node000019_Node000012" class="edge">
<title>Node19&#45;&gt;Node12</title>
<g id="a_edge24_Node000019_Node000012"><a xlink:title=" ">
<path fill="none" stroke="#63b8ff" d="M563.34,-255.82C592.46,-245.86 627.57,-233.85 654.95,-224.49"/>
<polygon fill="#63b8ff" stroke="#63b8ff" points="562.26,-252.49 553.93,-259.04 564.53,-259.11 562.26,-252.49"/>
</a>
</g>
</g>
<!-- Node19&#45;&gt;Node18 -->
<g id="edge25_Node000019_Node000018" class="edge">
<title>Node19&#45;&gt;Node18</title>
<g id="a_edge25_Node000019_Node000018"><a xlink:title=" ">
<path fill="none" stroke="#63b8ff" d="M443.65,-256.34C409.36,-246.28 367.54,-234.02 335.06,-224.49"/>
<polygon fill="#63b8ff" stroke="#63b8ff" points="442.46,-259.64 453.05,-259.1 444.43,-252.93 442.46,-259.64"/>
</a>
</g>
</g>
<!-- Node19&#45;&gt;Node20 -->
<g id="edge26_Node000019_Node000020" class="edge">
<title>Node19&#45;&gt;Node20</title>
<g id="a_edge26_Node000019_Node000020"><a xlink:title=" ">
<path fill="none" stroke="#63b8ff" d="M479.42,-252.6C467.91,-243.34 454.86,-232.83 444.45,-224.45"/>
<polygon fill="#63b8ff" stroke="#63b8ff" points="477.07,-255.2 487.05,-258.74 481.46,-249.75 477.07,-255.2"/>
</a>
</g>
</g>
<!-- Node19&#45;&gt;Node21 -->
<g id="edge27_Node000019_Node000021" class="edge">
<title>Node19&#45;&gt;Node21</title>
<g id="a_edge27_Node000019_Node000021"><a xlink:title=" ">
<path fill="none" stroke="#63b8ff" d="M526.99,-250.87C534.28,-241.96 542.33,-232.12 548.79,-224.22"/>
<polygon fill="#63b8ff" stroke="#63b8ff" points="524.36,-248.57 520.73,-258.52 529.77,-253 524.36,-248.57"/>
</a>
</g>
</g>
</g>
</svg>

<g id="navigator" transform="translate(0 0)" fill="#404254">
  <rect fill="#f2f5e9" fill-opacity="0.5" stroke="#606060" stroke-width=".5" x="0" y="0" width="60" height="60"/>
  <use id="zoomplus" xlink:href="#zoomPlus" x="17" y="9" onmousedown="handleZoom(evt,'in')"/>
  <use id="zoomminus" xlink:href="#zoomMin" x="42" y="9" onmousedown="handleZoom(evt,'out')"/>
  <use id="reset" xlink:href="#resetDef" x="30" y="36" onmousedown="handleReset()"/>
   <use id="arrowup" xlink:href="#arrowUp" x="0" y="0" onmousedown="handlePan(0,-1)"/>
  <use id="arrowright" xlink:href="#arrowRight" x="0" y="0" onmousedown="handlePan(1,0)"/>
  <use id="arrowdown" xlink:href="#arrowDown" x="0" y="0" onmousedown="handlePan(0,1)"/>
  <use id="arrowleft" xlink:href="#arrowLeft" x="0" y="0" onmousedown="handlePan(-1,0)"/>
</g>
<svg viewBox="0 0 15 15" width="100%" height="30px" preserveAspectRatio="xMaxYMin meet">
 <g id="arrow_out" transform="scale(0.3 0.3)">
  <a xlink:href="_texture_item_8hpp__dep__incl_org.svg" target="_base">
   <rect id="button" ry="5" rx="5" y="6" x="6" height="38" width="38"
        fill="#f2f5e9" fill-opacity="0.5" stroke="#606060" stroke-width="1.0"/>
   <path id="arrow"
     d="M 11.500037,31.436501 C 11.940474,20.09759 22.043105,11.32322 32.158766,21.979434 L 37.068811,17.246167 C 37.068811,17.246167 37.088388,32 37.088388,32 L 22.160133,31.978069 C 22.160133,31.978069 26.997745,27.140456 26.997745,27.140456 C 18.528582,18.264221 13.291696,25.230495 11.500037,31.436501 z"
     style="fill:#404040;"/>
  </a>
 </g>
</svg>

<style type='text/css'>
<![CDATA[
[data-mouse-over-selected='false'] { opacity: 0.7; }
[data-mouse-over-selected='true']  { opacity: 1.0; }
]]>
</style>
<script type="application/ecmascript"><![CDATA[
document.addEventListener('DOMContentLoaded', (event) => {
  highlightEdges();
  highlightAdjacentNodes();
});
]]></script>
</svg>
