<?xml version="1.0" encoding="UTF-8" standalone="no"?>
<!DOCTYPE svg PUBLIC "-//W3C//DTD SVG 1.1//EN"
 "http://www.w3.org/Graphics/SVG/1.1/DTD/svg11.dtd">
<!-- Generated by graphviz version 13.0.0 (20250608.1624)
 -->
<!-- Title: sfml_ui/src/core/window/Window.cpp Pages: 1 -->
<!--zoomable 376 -->

<svg id="main" version="1.1" xmlns="http://www.w3.org/2000/svg" xmlns:xlink="http://www.w3.org/1999/xlink" xml:space="preserve" onload="init(evt)">

<style type="text/css"><![CDATA[
.node, .edge {opacity: 0.7;}
.node.selected, .edge.selected {opacity: 1;}
.edge:hover path { stroke: red; }
.edge:hover polygon { stroke: red; fill: red; }
]]></style>

<defs>
  <circle id="rim" cx="0" cy="0" r="7"/>
  <circle id="rim2" cx="0" cy="0" r="3.5"/>
  <g id="zoomPlus">
    <use xlink:href="#rim" fill="#404040"><set attributeName="fill" to="#808080" begin="zoomplus.mouseover" end="zoomplus.mouseout"/></use>
    <path d="M-4,0h8M0,-4v8" fill="none" stroke="white" stroke-width="1.5" pointer-events="none"/>
  </g>
  <g id="zoomMin">
    <use xlink:href="#rim" fill="#404040"><set attributeName="fill" to="#808080" begin="zoomminus.mouseover" end="zoomminus.mouseout"/></use>
    <path d="M-4,0h8" fill="none" stroke="white" stroke-width="1.5" pointer-events="none"/>
  </g>
  <g id="arrowUp" transform="translate(30 24)">
    <use xlink:href="#rim"/>
    <path pointer-events="none" fill="none" stroke="white" stroke-width="1.5" d="M0,-3.0v7 M-2.5,-0.5L0,-3.0L2.5,-0.5"/>
  </g>
  <g id="arrowRight" transform="rotate(90) translate(36 -43)">
    <use xlink:href="#rim"/>
    <path pointer-events="none" fill="none" stroke="white" stroke-width="1.5" d="M0,-3.0v7 M-2.5,-0.5L0,-3.0L2.5,-0.5"/>
  </g>
  <g id="arrowDown" transform="rotate(180) translate(-30 -48)">
    <use xlink:href="#rim"/>
    <path pointer-events="none" fill="none" stroke="white" stroke-width="1.5" d="M0,-3.0v7 M-2.5,-0.5L0,-3.0L2.5,-0.5"/>
  </g>
  <g id="arrowLeft" transform="rotate(270) translate(-36 17)">
    <use xlink:href="#rim"/>
    <path pointer-events="none" fill="none" stroke="white" stroke-width="1.5" d="M0,-3.0v7 M-2.5,-0.5L0,-3.0L2.5,-0.5"/>
  </g>
  <g id="resetDef">
    <use xlink:href="#rim2" fill="#404040"><set attributeName="fill" to="#808080" begin="reset.mouseover" end="reset.mouseout"/></use>
  </g>
</defs>
<script type="application/ecmascript">
var viewWidth = 813;
var viewHeight = 376;
var sectionId = 'dynsection-0';
</script>
<script type="application/ecmascript" xlink:href="svg.min.js"/>
<svg id="graph" class="graph">
<g id="viewport">
<title>sfml_ui/src/core/window/Window.cpp</title>
<!-- Node1 -->
<g id="Node000001" class="node">
<title>Node1</title>
<g id="a_Node000001"><a xlink:title=" ">
<polygon fill="#999999" stroke="#666666" points="699.88,-368 578.12,-368 578.12,-336 699.88,-336 699.88,-368"/>
<text xml:space="preserve" text-anchor="start" x="586.12" y="-354.5" font-family="Helvetica,sans-Serif" font-size="10.00">sfml_ui/src/core/window</text>
<text xml:space="preserve" text-anchor="middle" x="639" y="-342.5" font-family="Helvetica,sans-Serif" font-size="10.00">/Window.cpp</text>
</a>
</g>
</g>
<!-- Node2 -->
<g id="Node000002" class="node">
<title>Node2</title>
<g id="a_Node000002"><a xlink:href="_window_8hpp.html" target="_top" xlink:title=" ">
<polygon fill="white" stroke="#666666" points="489.62,-300 420.38,-300 420.38,-280 489.62,-280 489.62,-300"/>
<text xml:space="preserve" text-anchor="middle" x="455" y="-286.5" font-family="Helvetica,sans-Serif" font-size="10.00">Window.hpp</text>
</a>
</g>
</g>
<!-- Node1&#45;&gt;Node2 -->
<g id="edge1_Node000001_Node000002" class="edge">
<title>Node1&#45;&gt;Node2</title>
<g id="a_edge1_Node000001_Node000002"><a xlink:title=" ">
<path fill="none" stroke="#63b8ff" d="M591.62,-335.55C561.63,-325.77 523.3,-313.27 494.87,-304"/>
<polygon fill="#63b8ff" stroke="#63b8ff" points="496.15,-300.74 485.56,-300.97 493.98,-307.39 496.15,-300.74"/>
</a>
</g>
</g>
<!-- Node4 -->
<g id="Node000004" class="node">
<title>Node4</title>
<g id="a_Node000004"><a xlink:href="_page_8hpp.html" target="_top" xlink:title=" ">
<polygon fill="white" stroke="#666666" points="483.62,-244 426.38,-244 426.38,-224 483.62,-224 483.62,-244"/>
<text xml:space="preserve" text-anchor="middle" x="455" y="-230.5" font-family="Helvetica,sans-Serif" font-size="10.00">Page.hpp</text>
</a>
</g>
</g>
<!-- Node1&#45;&gt;Node4 -->
<g id="edge31_Node000001_Node000004" class="edge">
<title>Node1&#45;&gt;Node4</title>
<g id="a_edge31_Node000001_Node000004"><a xlink:title=" ">
<path fill="none" stroke="#63b8ff" d="M614.57,-335.6C579.33,-313.38 514.63,-272.59 479.41,-250.39"/>
<polygon fill="#63b8ff" stroke="#63b8ff" points="481.51,-247.57 471.18,-245.2 477.77,-253.49 481.51,-247.57"/>
</a>
</g>
</g>
<!-- Node19 -->
<g id="Node000019" class="node">
<title>Node19</title>
<g id="a_Node000019"><a xlink:title=" ">
<polygon fill="#e0e0e0" stroke="#999999" points="701.75,-132 648.25,-132 648.25,-112 701.75,-112 701.75,-132"/>
<text xml:space="preserve" text-anchor="middle" x="675" y="-118.5" font-family="Helvetica,sans-Serif" font-size="10.00">iostream</text>
</a>
</g>
</g>
<!-- Node1&#45;&gt;Node19 -->
<g id="edge28_Node000001_Node000019" class="edge">
<title>Node1&#45;&gt;Node19</title>
<g id="a_edge28_Node000001_Node000019"><a xlink:title=" ">
<path fill="none" stroke="#63b8ff" d="M641.42,-335.69C647.72,-295.8 664.63,-188.67 671.76,-143.51"/>
<polygon fill="#63b8ff" stroke="#63b8ff" points="675.19,-144.22 673.29,-133.8 668.28,-143.13 675.19,-144.22"/>
</a>
</g>
</g>
<!-- Node21 -->
<g id="Node000021" class="node">
<title>Node21</title>
<g id="a_Node000021"><a xlink:title=" ">
<polygon fill="#e0e0e0" stroke="#999999" points="725.38,-300 666.62,-300 666.62,-280 725.38,-280 725.38,-300"/>
<text xml:space="preserve" text-anchor="middle" x="696" y="-286.5" font-family="Helvetica,sans-Serif" font-size="10.00">stdexcept</text>
</a>
</g>
</g>
<!-- Node1&#45;&gt;Node21 -->
<g id="edge29_Node000001_Node000021" class="edge">
<title>Node1&#45;&gt;Node21</title>
<g id="a_edge29_Node000001_Node000021"><a xlink:title=" ">
<path fill="none" stroke="#63b8ff" d="M653.68,-335.55C661.51,-327.3 671.19,-317.12 679.31,-308.57"/>
<polygon fill="#63b8ff" stroke="#63b8ff" points="681.67,-311.17 686.02,-301.51 676.59,-306.34 681.67,-311.17"/>
</a>
</g>
</g>
<!-- Node22 -->
<g id="Node000022" class="node">
<title>Node22</title>
<g id="a_Node000022"><a xlink:title=" ">
<polygon fill="#e0e0e0" stroke="#999999" points="804.88,-300 743.12,-300 743.12,-280 804.88,-280 804.88,-300"/>
<text xml:space="preserve" text-anchor="middle" x="774" y="-286.5" font-family="Helvetica,sans-Serif" font-size="10.00">type_traits</text>
</a>
</g>
</g>
<!-- Node1&#45;&gt;Node22 -->
<g id="edge30_Node000001_Node000022" class="edge">
<title>Node1&#45;&gt;Node22</title>
<g id="a_edge30_Node000001_Node000022"><a xlink:title=" ">
<path fill="none" stroke="#63b8ff" d="M673.77,-335.55C694.96,-326.13 721.83,-314.19 742.41,-305.04"/>
<polygon fill="#63b8ff" stroke="#63b8ff" points="743.73,-308.28 751.45,-301.02 740.89,-301.89 743.73,-308.28"/>
</a>
</g>
</g>
<!-- Node3 -->
<g id="Node000003" class="node">
<title>Node3</title>
<g id="a_Node000003"><a xlink:title=" ">
<polygon fill="#e0e0e0" stroke="#999999" points="407.88,-244 280.12,-244 280.12,-224 407.88,-224 407.88,-244"/>
<text xml:space="preserve" text-anchor="middle" x="344" y="-230.5" font-family="Helvetica,sans-Serif" font-size="10.00">SFML/Window/Event.hpp</text>
</a>
</g>
</g>
<!-- Node2&#45;&gt;Node3 -->
<g id="edge2_Node000002_Node000003" class="edge">
<title>Node2&#45;&gt;Node3</title>
<g id="a_edge2_Node000002_Node000003"><a xlink:title=" ">
<path fill="none" stroke="#63b8ff" d="M435.67,-279.59C418.58,-271.28 393.4,-259.03 373.75,-249.47"/>
<polygon fill="#63b8ff" stroke="#63b8ff" points="375.37,-246.37 364.85,-245.14 372.31,-252.66 375.37,-246.37"/>
</a>
</g>
</g>
<!-- Node2&#45;&gt;Node4 -->
<g id="edge3_Node000002_Node000004" class="edge">
<title>Node2&#45;&gt;Node4</title>
<g id="a_edge3_Node000002_Node000004"><a xlink:title=" ">
<path fill="none" stroke="#63b8ff" d="M455,-279.59C455,-273.01 455,-263.96 455,-255.73"/>
<polygon fill="#63b8ff" stroke="#63b8ff" points="458.5,-255.81 455,-245.81 451.5,-255.81 458.5,-255.81"/>
</a>
</g>
</g>
<!-- Node5 -->
<g id="Node000005" class="node">
<title>Node5</title>
<g id="a_Node000005"><a xlink:title=" ">
<polygon fill="#e0e0e0" stroke="#999999" points="353.25,-188 254.75,-188 254.75,-168 353.25,-168 353.25,-188"/>
<text xml:space="preserve" text-anchor="middle" x="304" y="-174.5" font-family="Helvetica,sans-Serif" font-size="10.00">SFML/Window.hpp</text>
</a>
</g>
</g>
<!-- Node4&#45;&gt;Node5 -->
<g id="edge4_Node000004_Node000005" class="edge">
<title>Node4&#45;&gt;Node5</title>
<g id="a_edge4_Node000004_Node000005"><a xlink:title=" ">
<path fill="none" stroke="#63b8ff" d="M428.7,-223.59C404.49,-214.94 368.32,-202 341.16,-192.29"/>
<polygon fill="#63b8ff" stroke="#63b8ff" points="342.53,-189.06 331.93,-188.99 340.17,-195.65 342.53,-189.06"/>
</a>
</g>
</g>
<!-- Node6 -->
<g id="Node000006" class="node">
<title>Node6</title>
<g id="a_Node000006"><a xlink:href="_active_key_binding_8hpp.html" target="_top" xlink:title=" ">
<polygon fill="white" stroke="#666666" points="483,-188 371,-188 371,-168 483,-168 483,-188"/>
<text xml:space="preserve" text-anchor="middle" x="427" y="-174.5" font-family="Helvetica,sans-Serif" font-size="10.00">ActiveKeyBinding.hpp</text>
</a>
</g>
</g>
<!-- Node4&#45;&gt;Node6 -->
<g id="edge5_Node000004_Node000006" class="edge">
<title>Node4&#45;&gt;Node6</title>
<g id="a_edge5_Node000004_Node000006"><a xlink:title=" ">
<path fill="none" stroke="#63b8ff" d="M450.12,-223.59C446.51,-216.63 441.46,-206.89 437,-198.29"/>
<polygon fill="#63b8ff" stroke="#63b8ff" points="440.23,-196.91 432.52,-189.64 434.01,-200.13 440.23,-196.91"/>
</a>
</g>
</g>
<!-- Node10 -->
<g id="Node000010" class="node">
<title>Node10</title>
<g id="a_Node000010"><a xlink:href="_mouse_8hpp.html" target="_top" xlink:title=" ">
<polygon fill="white" stroke="#666666" points="64,-76 0,-76 0,-56 64,-56 64,-76"/>
<text xml:space="preserve" text-anchor="middle" x="32" y="-62.5" font-family="Helvetica,sans-Serif" font-size="10.00">Mouse.hpp</text>
</a>
</g>
</g>
<!-- Node4&#45;&gt;Node10 -->
<g id="edge9_Node000004_Node000010" class="edge">
<title>Node4&#45;&gt;Node10</title>
<g id="a_edge9_Node000004_Node000010"><a xlink:title=" ">
<path fill="none" stroke="#63b8ff" d="M426.02,-225.8C422.98,-225.15 419.94,-224.53 417,-224 292.69,-201.41 246.11,-248.16 135,-188 91.29,-164.33 58.09,-114.04 42.25,-86.33"/>
<polygon fill="#63b8ff" stroke="#63b8ff" points="45.34,-84.68 37.44,-77.61 39.21,-88.06 45.34,-84.68"/>
</a>
</g>
</g>
<!-- Node11 -->
<g id="Node000011" class="node">
<title>Node11</title>
<g id="a_Node000011"><a xlink:href="textbox_8hpp.html" target="_top" xlink:title=" ">
<polygon fill="white" stroke="#666666" points="539.5,-132 472.5,-132 472.5,-112 539.5,-112 539.5,-132"/>
<text xml:space="preserve" text-anchor="middle" x="506" y="-118.5" font-family="Helvetica,sans-Serif" font-size="10.00">textbox.hpp</text>
</a>
</g>
</g>
<!-- Node4&#45;&gt;Node11 -->
<g id="edge11_Node000004_Node000011" class="edge">
<title>Node4&#45;&gt;Node11</title>
<g id="a_edge11_Node000004_Node000011"><a xlink:title=" ">
<path fill="none" stroke="#63b8ff" d="M465.05,-223.61C473.52,-215.11 485.31,-201.84 492,-188 498.77,-173.98 502.3,-156.69 504.11,-143.46"/>
<polygon fill="#63b8ff" stroke="#63b8ff" points="507.56,-144.11 505.21,-133.78 500.61,-143.32 507.56,-144.11"/>
</a>
</g>
</g>
<!-- Node13 -->
<g id="Node000013" class="node">
<title>Node13</title>
<g id="a_Node000013"><a xlink:href="_event_binding_8hpp.html" target="_top" xlink:title=" ">
<polygon fill="white" stroke="#666666" points="236.25,-188 143.75,-188 143.75,-168 236.25,-168 236.25,-188"/>
<text xml:space="preserve" text-anchor="middle" x="190" y="-174.5" font-family="Helvetica,sans-Serif" font-size="10.00">EventBinding.hpp</text>
</a>
</g>
</g>
<!-- Node4&#45;&gt;Node13 -->
<g id="edge14_Node000004_Node000013" class="edge">
<title>Node4&#45;&gt;Node13</title>
<g id="a_edge14_Node000004_Node000013"><a xlink:title=" ">
<path fill="none" stroke="#63b8ff" d="M425.98,-226.01C422.95,-225.32 419.91,-224.63 417,-224 359.64,-211.53 293.8,-198.63 247.86,-189.86"/>
<polygon fill="#63b8ff" stroke="#63b8ff" points="248.59,-186.44 238.11,-188 247.28,-193.31 248.59,-186.44"/>
</a>
</g>
</g>
<!-- Node18 -->
<g id="Node000018" class="node">
<title>Node18</title>
<g id="a_Node000018"><a xlink:href="inputbox_8hpp.html" target="_top" xlink:title=" ">
<polygon fill="white" stroke="#666666" points="610.75,-188 539.25,-188 539.25,-168 610.75,-168 610.75,-188"/>
<text xml:space="preserve" text-anchor="middle" x="575" y="-174.5" font-family="Helvetica,sans-Serif" font-size="10.00">inputbox.hpp</text>
</a>
</g>
</g>
<!-- Node4&#45;&gt;Node18 -->
<g id="edge23_Node000004_Node000018" class="edge">
<title>Node4&#45;&gt;Node18</title>
<g id="a_edge23_Node000004_Node000018"><a xlink:title=" ">
<path fill="none" stroke="#63b8ff" d="M475.9,-223.59C494.63,-215.17 522.36,-202.69 543.72,-193.07"/>
<polygon fill="#63b8ff" stroke="#63b8ff" points="544.87,-196.4 552.55,-189.1 542,-190.01 544.87,-196.4"/>
</a>
</g>
</g>
<!-- Node7 -->
<g id="Node000007" class="node">
<title>Node7</title>
<g id="a_Node000007"><a xlink:title=" ">
<polygon fill="#e0e0e0" stroke="#999999" points="214.5,-20 111.5,-20 111.5,0 214.5,0 214.5,-20"/>
<text xml:space="preserve" text-anchor="middle" x="163" y="-6.5" font-family="Helvetica,sans-Serif" font-size="10.00">SFML/Graphics.hpp</text>
</a>
</g>
</g>
<!-- Node6&#45;&gt;Node7 -->
<g id="edge6_Node000006_Node000007" class="edge">
<title>Node6&#45;&gt;Node7</title>
<g id="a_edge6_Node000006_Node000007"><a xlink:title=" ">
<path fill="none" stroke="#63b8ff" d="M429.68,-167.6C432.97,-153.98 436.75,-128.58 425,-112 379.67,-48.08 287.97,-24.61 226,-15.99"/>
<polygon fill="#63b8ff" stroke="#63b8ff" points="226.66,-12.55 216.3,-14.75 225.77,-19.49 226.66,-12.55"/>
</a>
</g>
</g>
<!-- Node8 -->
<g id="Node000008" class="node">
<title>Node8</title>
<g id="a_Node000008"><a xlink:title=" ">
<polygon fill="#e0e0e0" stroke="#999999" points="416,-132 358,-132 358,-112 416,-112 416,-132"/>
<text xml:space="preserve" text-anchor="middle" x="387" y="-118.5" font-family="Helvetica,sans-Serif" font-size="10.00">functional</text>
</a>
</g>
</g>
<!-- Node6&#45;&gt;Node8 -->
<g id="edge7_Node000006_Node000008" class="edge">
<title>Node6&#45;&gt;Node8</title>
<g id="a_edge7_Node000006_Node000008"><a xlink:title=" ">
<path fill="none" stroke="#63b8ff" d="M420.03,-167.59C414.7,-160.39 407.17,-150.23 400.65,-141.43"/>
<polygon fill="#63b8ff" stroke="#63b8ff" points="403.55,-139.47 394.79,-133.51 397.93,-143.63 403.55,-139.47"/>
</a>
</g>
</g>
<!-- Node9 -->
<g id="Node000009" class="node">
<title>Node9</title>
<g id="a_Node000009"><a xlink:title=" ">
<polygon fill="#e0e0e0" stroke="#999999" points="340.38,-132 257.62,-132 257.62,-112 340.38,-112 340.38,-132"/>
<text xml:space="preserve" text-anchor="middle" x="299" y="-118.5" font-family="Helvetica,sans-Serif" font-size="10.00">unordered_map</text>
</a>
</g>
</g>
<!-- Node6&#45;&gt;Node9 -->
<g id="edge8_Node000006_Node000009" class="edge">
<title>Node6&#45;&gt;Node9</title>
<g id="a_edge8_Node000006_Node000009"><a xlink:title=" ">
<path fill="none" stroke="#63b8ff" d="M404.7,-167.59C384.64,-159.13 354.88,-146.58 332.05,-136.94"/>
<polygon fill="#63b8ff" stroke="#63b8ff" points="333.44,-133.73 322.86,-133.07 330.72,-140.18 333.44,-133.73"/>
</a>
</g>
</g>
<!-- Node10&#45;&gt;Node7 -->
<g id="edge10_Node000010_Node000007" class="edge">
<title>Node10&#45;&gt;Node7</title>
<g id="a_edge10_Node000010_Node000007"><a xlink:title=" ">
<path fill="none" stroke="#63b8ff" d="M54.82,-55.59C75.45,-47.09 106.08,-34.46 129.49,-24.81"/>
<polygon fill="#63b8ff" stroke="#63b8ff" points="130.69,-28.1 138.6,-21.06 128.02,-21.63 130.69,-28.1"/>
</a>
</g>
</g>
<!-- Node11&#45;&gt;Node7 -->
<g id="edge13_Node000011_Node000007" class="edge">
<title>Node11&#45;&gt;Node7</title>
<g id="a_edge13_Node000011_Node000007"><a xlink:title=" ">
<path fill="none" stroke="#63b8ff" d="M539.97,-111.63C568.89,-102.88 607.12,-89.23 616,-76 620.95,-68.62 621.97,-62.59 616,-56 590.33,-27.65 344.52,-16.45 226.13,-12.67"/>
<polygon fill="#63b8ff" stroke="#63b8ff" points="226.36,-9.17 216.25,-12.36 226.14,-16.17 226.36,-9.17"/>
</a>
</g>
</g>
<!-- Node12 -->
<g id="Node000012" class="node">
<title>Node12</title>
<g id="a_Node000012"><a xlink:title=" ">
<polygon fill="#e0e0e0" stroke="#999999" points="533.5,-76 472.5,-76 472.5,-56 533.5,-56 533.5,-76"/>
<text xml:space="preserve" text-anchor="middle" x="503" y="-62.5" font-family="Helvetica,sans-Serif" font-size="10.00">filesystem</text>
</a>
</g>
</g>
<!-- Node11&#45;&gt;Node12 -->
<g id="edge12_Node000011_Node000012" class="edge">
<title>Node11&#45;&gt;Node12</title>
<g id="a_edge12_Node000011_Node000012"><a xlink:title=" ">
<path fill="none" stroke="#63b8ff" d="M505.48,-111.59C505.11,-105.01 504.61,-95.96 504.15,-87.73"/>
<polygon fill="#63b8ff" stroke="#63b8ff" points="507.65,-87.6 503.6,-77.81 500.66,-87.99 507.65,-87.6"/>
</a>
</g>
</g>
<!-- Node13&#45;&gt;Node7 -->
<g id="edge15_Node000013_Node000007" class="edge">
<title>Node13&#45;&gt;Node7</title>
<g id="a_edge15_Node000013_Node000007"><a xlink:title=" ">
<path fill="none" stroke="#63b8ff" d="M158.11,-167.6C140.9,-160.72 121.15,-149.47 111,-132 94.03,-102.8 96.96,-86.72 111,-56 116.38,-44.23 126.52,-34.36 136.43,-26.9"/>
<polygon fill="#63b8ff" stroke="#63b8ff" points="138.22,-29.91 144.45,-21.35 134.24,-24.16 138.22,-29.91"/>
</a>
</g>
</g>
<!-- Node13&#45;&gt;Node8 -->
<g id="edge16_Node000013_Node000008" class="edge">
<title>Node13&#45;&gt;Node8</title>
<g id="a_edge16_Node000013_Node000008"><a xlink:title=" ">
<path fill="none" stroke="#63b8ff" d="M224.31,-167.59C258.33,-158.27 310.45,-143.98 346.48,-134.11"/>
<polygon fill="#63b8ff" stroke="#63b8ff" points="347.39,-137.49 356.11,-131.47 345.54,-130.73 347.39,-137.49"/>
</a>
</g>
</g>
<!-- Node13&#45;&gt;Node9 -->
<g id="edge17_Node000013_Node000009" class="edge">
<title>Node13&#45;&gt;Node9</title>
<g id="a_edge17_Node000013_Node000009"><a xlink:title=" ">
<path fill="none" stroke="#63b8ff" d="M208.99,-167.59C225.76,-159.28 250.49,-147.03 269.79,-137.47"/>
<polygon fill="#63b8ff" stroke="#63b8ff" points="271.1,-140.73 278.51,-133.15 267.99,-134.45 271.1,-140.73"/>
</a>
</g>
</g>
<!-- Node14 -->
<g id="Node000014" class="node">
<title>Node14</title>
<g id="a_Node000014"><a xlink:href="button_8hpp.html" target="_top" xlink:title=" ">
<polygon fill="white" stroke="#666666" points="181.88,-132 120.12,-132 120.12,-112 181.88,-112 181.88,-132"/>
<text xml:space="preserve" text-anchor="middle" x="151" y="-118.5" font-family="Helvetica,sans-Serif" font-size="10.00">button.hpp</text>
</a>
</g>
</g>
<!-- Node13&#45;&gt;Node14 -->
<g id="edge18_Node000013_Node000014" class="edge">
<title>Node13&#45;&gt;Node14</title>
<g id="a_edge18_Node000013_Node000014"><a xlink:title=" ">
<path fill="none" stroke="#63b8ff" d="M183.21,-167.59C178.01,-160.39 170.67,-150.23 164.31,-141.43"/>
<polygon fill="#63b8ff" stroke="#63b8ff" points="167.29,-139.58 158.6,-133.53 161.62,-143.68 167.29,-139.58"/>
</a>
</g>
</g>
<!-- Node17 -->
<g id="Node000017" class="node">
<title>Node17</title>
<g id="a_Node000017"><a xlink:title=" ">
<polygon fill="#e0e0e0" stroke="#999999" points="239.62,-132 200.38,-132 200.38,-112 239.62,-112 239.62,-132"/>
<text xml:space="preserve" text-anchor="middle" x="220" y="-118.5" font-family="Helvetica,sans-Serif" font-size="10.00">utility</text>
</a>
</g>
</g>
<!-- Node13&#45;&gt;Node17 -->
<g id="edge22_Node000013_Node000017" class="edge">
<title>Node13&#45;&gt;Node17</title>
<g id="a_edge22_Node000013_Node000017"><a xlink:title=" ">
<path fill="none" stroke="#63b8ff" d="M195.23,-167.59C199.1,-160.63 204.51,-150.89 209.28,-142.29"/>
<polygon fill="#63b8ff" stroke="#63b8ff" points="212.3,-144.06 214.1,-133.62 206.18,-140.66 212.3,-144.06"/>
</a>
</g>
</g>
<!-- Node15 -->
<g id="Node000015" class="node">
<title>Node15</title>
<g id="a_Node000015"><a xlink:href="_texture_item_8hpp.html" target="_top" xlink:title=" ">
<polygon fill="white" stroke="#666666" points="206.25,-76 119.75,-76 119.75,-56 206.25,-56 206.25,-76"/>
<text xml:space="preserve" text-anchor="middle" x="163" y="-62.5" font-family="Helvetica,sans-Serif" font-size="10.00">TextureItem.hpp</text>
</a>
</g>
</g>
<!-- Node14&#45;&gt;Node15 -->
<g id="edge19_Node000014_Node000015" class="edge">
<title>Node14&#45;&gt;Node15</title>
<g id="a_edge19_Node000014_Node000015"><a xlink:title=" ">
<path fill="none" stroke="#63b8ff" d="M153.09,-111.59C154.57,-104.93 156.61,-95.75 158.46,-87.44"/>
<polygon fill="#63b8ff" stroke="#63b8ff" points="161.85,-88.3 160.61,-77.78 155.02,-86.78 161.85,-88.3"/>
</a>
</g>
</g>
<!-- Node16 -->
<g id="Node000016" class="node">
<title>Node16</title>
<g id="a_Node000016"><a xlink:href="_area_8hpp.html" target="_top" xlink:title=" ">
<polygon fill="white" stroke="#666666" points="606.5,-76 551.5,-76 551.5,-56 606.5,-56 606.5,-76"/>
<text xml:space="preserve" text-anchor="middle" x="579" y="-62.5" font-family="Helvetica,sans-Serif" font-size="10.00">Area.hpp</text>
</a>
</g>
</g>
<!-- Node14&#45;&gt;Node16 -->
<g id="edge21_Node000014_Node000016" class="edge">
<title>Node14&#45;&gt;Node16</title>
<g id="a_edge21_Node000014_Node000016"><a xlink:title=" ">
<path fill="none" stroke="#63b8ff" d="M182.37,-113.57C185.28,-112.99 188.19,-112.46 191,-112 342.57,-87.29 386.07,-102.39 539.91,-76.32"/>
<polygon fill="#63b8ff" stroke="#63b8ff" points="540.43,-79.78 549.68,-74.63 539.23,-72.89 540.43,-79.78"/>
</a>
</g>
</g>
<!-- Node15&#45;&gt;Node7 -->
<g id="edge20_Node000015_Node000007" class="edge">
<title>Node15&#45;&gt;Node7</title>
<g id="a_edge20_Node000015_Node000007"><a xlink:title=" ">
<path fill="none" stroke="#63b8ff" d="M163,-55.59C163,-49.01 163,-39.96 163,-31.73"/>
<polygon fill="#63b8ff" stroke="#63b8ff" points="166.5,-31.81 163,-21.81 159.5,-31.81 166.5,-31.81"/>
</a>
</g>
</g>
<!-- Node18&#45;&gt;Node11 -->
<g id="edge24_Node000018_Node000011" class="edge">
<title>Node18&#45;&gt;Node11</title>
<g id="a_edge24_Node000018_Node000011"><a xlink:title=" ">
<path fill="none" stroke="#63b8ff" d="M562.98,-167.59C552.99,-159.77 538.54,-148.46 526.69,-139.19"/>
<polygon fill="#63b8ff" stroke="#63b8ff" points="529.11,-136.64 519.07,-133.23 524.79,-142.15 529.11,-136.64"/>
</a>
</g>
</g>
<!-- Node18&#45;&gt;Node16 -->
<g id="edge25_Node000018_Node000016" class="edge">
<title>Node18&#45;&gt;Node16</title>
<g id="a_edge25_Node000018_Node000016"><a xlink:title=" ">
<path fill="none" stroke="#63b8ff" d="M582.38,-167.65C588.72,-158.98 597.4,-145.42 601,-132 605.24,-116.18 598.58,-98.6 591.5,-85.72"/>
<polygon fill="#63b8ff" stroke="#63b8ff" points="594.66,-84.17 586.48,-77.44 588.67,-87.8 594.66,-84.17"/>
</a>
</g>
</g>
<!-- Node18&#45;&gt;Node19 -->
<g id="edge26_Node000018_Node000019" class="edge">
<title>Node18&#45;&gt;Node19</title>
<g id="a_edge26_Node000018_Node000019"><a xlink:title=" ">
<path fill="none" stroke="#63b8ff" d="M592.42,-167.59C607.67,-159.36 630.08,-147.26 647.71,-137.74"/>
<polygon fill="#63b8ff" stroke="#63b8ff" points="648.98,-141.03 656.11,-133.2 645.65,-134.87 648.98,-141.03"/>
</a>
</g>
</g>
<!-- Node20 -->
<g id="Node000020" class="node">
<title>Node20</title>
<g id="a_Node000020"><a xlink:title=" ">
<polygon fill="#e0e0e0" stroke="#999999" points="592.38,-132 557.62,-132 557.62,-112 592.38,-112 592.38,-132"/>
<text xml:space="preserve" text-anchor="middle" x="575" y="-118.5" font-family="Helvetica,sans-Serif" font-size="10.00">print</text>
</a>
</g>
</g>
<!-- Node18&#45;&gt;Node20 -->
<g id="edge27_Node000018_Node000020" class="edge">
<title>Node18&#45;&gt;Node20</title>
<g id="a_edge27_Node000018_Node000020"><a xlink:title=" ">
<path fill="none" stroke="#63b8ff" d="M575,-167.59C575,-161.01 575,-151.96 575,-143.73"/>
<polygon fill="#63b8ff" stroke="#63b8ff" points="578.5,-143.81 575,-133.81 571.5,-143.81 578.5,-143.81"/>
</a>
</g>
</g>
</g>
</svg>

<g id="navigator" transform="translate(0 0)" fill="#404254">
  <rect fill="#f2f5e9" fill-opacity="0.5" stroke="#606060" stroke-width=".5" x="0" y="0" width="60" height="60"/>
  <use id="zoomplus" xlink:href="#zoomPlus" x="17" y="9" onmousedown="handleZoom(evt,'in')"/>
  <use id="zoomminus" xlink:href="#zoomMin" x="42" y="9" onmousedown="handleZoom(evt,'out')"/>
  <use id="reset" xlink:href="#resetDef" x="30" y="36" onmousedown="handleReset()"/>
   <use id="arrowup" xlink:href="#arrowUp" x="0" y="0" onmousedown="handlePan(0,-1)"/>
  <use id="arrowright" xlink:href="#arrowRight" x="0" y="0" onmousedown="handlePan(1,0)"/>
  <use id="arrowdown" xlink:href="#arrowDown" x="0" y="0" onmousedown="handlePan(0,1)"/>
  <use id="arrowleft" xlink:href="#arrowLeft" x="0" y="0" onmousedown="handlePan(-1,0)"/>
</g>
<svg viewBox="0 0 15 15" width="100%" height="30px" preserveAspectRatio="xMaxYMin meet">
 <g id="arrow_out" transform="scale(0.3 0.3)">
  <a xlink:href="_window_8cpp__incl_org.svg" target="_base">
   <rect id="button" ry="5" rx="5" y="6" x="6" height="38" width="38"
        fill="#f2f5e9" fill-opacity="0.5" stroke="#606060" stroke-width="1.0"/>
   <path id="arrow"
     d="M 11.500037,31.436501 C 11.940474,20.09759 22.043105,11.32322 32.158766,21.979434 L 37.068811,17.246167 C 37.068811,17.246167 37.088388,32 37.088388,32 L 22.160133,31.978069 C 22.160133,31.978069 26.997745,27.140456 26.997745,27.140456 C 18.528582,18.264221 13.291696,25.230495 11.500037,31.436501 z"
     style="fill:#404040;"/>
  </a>
 </g>
</svg>

<style type='text/css'>
<![CDATA[
[data-mouse-over-selected='false'] { opacity: 0.7; }
[data-mouse-over-selected='true']  { opacity: 1.0; }
]]>
</style>
<script type="application/ecmascript"><![CDATA[
document.addEventListener('DOMContentLoaded', (event) => {
  highlightEdges();
  highlightAdjacentNodes();
});
]]></script>
</svg>
