<?xml version="1.0" encoding="UTF-8" standalone="no"?>
<!DOCTYPE svg PUBLIC "-//W3C//DTD SVG 1.1//EN"
 "http://www.w3.org/Graphics/SVG/1.1/DTD/svg11.dtd">
<!-- Generated by graphviz version 13.0.0 (20250608.1624)
 -->
<!-- Title: elemental/include/biology.hpp Pages: 1 -->
<svg width="199pt" height="152pt"
 viewBox="0.00 0.00 199.00 152.00" xmlns="http://www.w3.org/2000/svg" xmlns:xlink="http://www.w3.org/1999/xlink">
<g id="graph0" class="graph" transform="scale(1 1) rotate(0) translate(4 148)">
<title>elemental/include/biology.hpp</title>
<!-- Node1 -->
<g id="Node000001" class="node">
<title>Node1</title>
<g id="a_Node000001"><a xlink:title=" ">
<polygon fill="#999999" stroke="#666666" points="190.62,-144 47.12,-144 47.12,-124 190.62,-124 190.62,-144"/>
<text xml:space="preserve" text-anchor="middle" x="118.88" y="-130.5" font-family="Helvetica,sans-Serif" font-size="10.00">elemental/include/biology.hpp</text>
</a>
</g>
</g>
<!-- Node2 -->
<g id="Node000002" class="node">
<title>Node2</title>
<g id="a_Node000002"><a xlink:href="player_8hpp.html" target="_top" xlink:title=" ">
<polygon fill="white" stroke="#666666" points="139.75,-88 0,-88 0,-68 139.75,-68 139.75,-88"/>
<text xml:space="preserve" text-anchor="middle" x="69.88" y="-74.5" font-family="Helvetica,sans-Serif" font-size="10.00">elemental/include/player.hpp</text>
</a>
</g>
</g>
<!-- Node1&#45;&gt;Node2 -->
<g id="edge1_Node000001_Node000002" class="edge">
<title>Node1&#45;&gt;Node2</title>
<g id="a_edge1_Node000001_Node000002"><a xlink:title=" ">
<path fill="none" stroke="#63b8ff" d="M102.8,-115.29C94.63,-106.28 85.03,-95.7 78.31,-88.3"/>
<polygon fill="#63b8ff" stroke="#63b8ff" points="100.01,-117.42 109.32,-122.47 105.19,-112.72 100.01,-117.42"/>
</a>
</g>
</g>
<!-- Node3 -->
<g id="Node000003" class="node">
<title>Node3</title>
<g id="a_Node000003"><a xlink:href="pausegamepage_8hpp.html" target="_top" xlink:title=" ">
<polygon fill="white" stroke="#666666" points="173.38,-32 64.38,-32 64.38,0 173.38,0 173.38,-32"/>
<text xml:space="preserve" text-anchor="start" x="72.38" y="-18.5" font-family="Helvetica,sans-Serif" font-size="10.00">game/include/pages</text>
<text xml:space="preserve" text-anchor="middle" x="118.88" y="-6.5" font-family="Helvetica,sans-Serif" font-size="10.00">/pausegamepage.hpp</text>
</a>
</g>
</g>
<!-- Node1&#45;&gt;Node3 -->
<g id="edge3_Node000001_Node000003" class="edge">
<title>Node1&#45;&gt;Node3</title>
<g id="a_edge3_Node000001_Node000003"><a xlink:title=" ">
<path fill="none" stroke="#63b8ff" d="M134.78,-114.5C140.38,-106.82 146,-97.5 148.88,-88 154.85,-68.28 142.78,-46.59 132.21,-32.44"/>
<polygon fill="#63b8ff" stroke="#63b8ff" points="132.05,-112.31 128.6,-122.33 137.54,-116.65 132.05,-112.31"/>
</a>
</g>
</g>
<!-- Node2&#45;&gt;Node3 -->
<g id="edge2_Node000002_Node000003" class="edge">
<title>Node2&#45;&gt;Node3</title>
<g id="a_edge2_Node000002_Node000003"><a xlink:title=" ">
<path fill="none" stroke="#63b8ff" d="M84.72,-58.83C91.68,-50.3 99.89,-40.25 106.51,-32.14"/>
<polygon fill="#63b8ff" stroke="#63b8ff" points="82.1,-56.49 78.49,-66.45 87.52,-60.92 82.1,-56.49"/>
</a>
</g>
</g>
</g>
</svg>
