<?xml version="1.0" encoding="UTF-8" standalone="no"?>
<!DOCTYPE svg PUBLIC "-//W3C//DTD SVG 1.1//EN"
 "http://www.w3.org/Graphics/SVG/1.1/DTD/svg11.dtd">
<!-- Generated by graphviz version 13.0.0 (20250608.1624)
 -->
<!-- Title: elemental/include/biology.hpp Pages: 1 -->
<svg width="373pt" height="252pt"
 viewBox="0.00 0.00 373.00 252.00" xmlns="http://www.w3.org/2000/svg" xmlns:xlink="http://www.w3.org/1999/xlink">

<svg id="main" version="1.1" xmlns="http://www.w3.org/2000/svg" xmlns:xlink="http://www.w3.org/1999/xlink" xml:space="preserve">

<style type="text/css"><![CDATA[
.node, .edge {opacity: 0.7;}
.node.selected, .edge.selected {opacity: 1;}
.edge:hover path { stroke: red; }
.edge:hover polygon { stroke: red; fill: red; }
]]></style>
<script type="application/ecmascript" xlink:href="svg.min.js"/>
<svg id="graph" class="graph">
<g id="graph0" class="graph" transform="scale(1 1) rotate(0) translate(4 248)">
<title>elemental/include/biology.hpp</title>
<!-- Node1 -->
<g id="Node000001" class="node">
<title>Node1</title>
<g id="a_Node000001"><a xlink:title=" ">
<polygon fill="#999999" stroke="#666666" points="231.12,-244 87.62,-244 87.62,-224 231.12,-224 231.12,-244"/>
<text xml:space="preserve" text-anchor="middle" x="159.38" y="-230.5" font-family="Helvetica,sans-Serif" font-size="10.00">elemental/include/biology.hpp</text>
</a>
</g>
</g>
<!-- Node2 -->
<g id="Node000002" class="node">
<title>Node2</title>
<g id="a_Node000002"><a xlink:href="world__elemental_8hpp.html" target="_top" xlink:title=" ">
<polygon fill="white" stroke="#666666" points="212,-188 106.75,-188 106.75,-168 212,-168 212,-188"/>
<text xml:space="preserve" text-anchor="middle" x="159.38" y="-174.5" font-family="Helvetica,sans-Serif" font-size="10.00">world_elemental.hpp</text>
</a>
</g>
</g>
<!-- Node1&#45;&gt;Node2 -->
<g id="edge1_Node000001_Node000002" class="edge">
<title>Node1&#45;&gt;Node2</title>
<g id="a_edge1_Node000001_Node000002"><a xlink:title=" ">
<path fill="none" stroke="#63b8ff" d="M159.38,-223.59C159.38,-217.01 159.38,-207.96 159.38,-199.73"/>
<polygon fill="#63b8ff" stroke="#63b8ff" points="162.88,-199.81 159.38,-189.81 155.88,-199.81 162.88,-199.81"/>
</a>
</g>
</g>
<!-- Node3 -->
<g id="Node000003" class="node">
<title>Node3</title>
<g id="a_Node000003"><a xlink:href="elemental_8hpp.html" target="_top" xlink:title=" ">
<polygon fill="white" stroke="#666666" points="76.75,-132 0,-132 0,-112 76.75,-112 76.75,-132"/>
<text xml:space="preserve" text-anchor="middle" x="38.38" y="-118.5" font-family="Helvetica,sans-Serif" font-size="10.00">elemental.hpp</text>
</a>
</g>
</g>
<!-- Node2&#45;&gt;Node3 -->
<g id="edge2_Node000002_Node000003" class="edge">
<title>Node2&#45;&gt;Node3</title>
<g id="a_edge2_Node000002_Node000003"><a xlink:title=" ">
<path fill="none" stroke="#63b8ff" d="M138.3,-167.59C119.42,-159.17 91.46,-146.69 69.91,-137.07"/>
<polygon fill="#63b8ff" stroke="#63b8ff" points="71.56,-133.98 61,-133.1 68.7,-140.37 71.56,-133.98"/>
</a>
</g>
</g>
<!-- Node4 -->
<g id="Node000004" class="node">
<title>Node4</title>
<g id="a_Node000004"><a xlink:href="_frame_animated_sprite_8hpp.html" target="_top" xlink:title=" ">
<polygon fill="white" stroke="#666666" points="224,-132 94.75,-132 94.75,-112 224,-112 224,-132"/>
<text xml:space="preserve" text-anchor="middle" x="159.38" y="-118.5" font-family="Helvetica,sans-Serif" font-size="10.00">FrameAnimatedSprite.hpp</text>
</a>
</g>
</g>
<!-- Node2&#45;&gt;Node4 -->
<g id="edge3_Node000002_Node000004" class="edge">
<title>Node2&#45;&gt;Node4</title>
<g id="a_edge3_Node000002_Node000004"><a xlink:title=" ">
<path fill="none" stroke="#63b8ff" d="M159.38,-167.59C159.38,-161.01 159.38,-151.96 159.38,-143.73"/>
<polygon fill="#63b8ff" stroke="#63b8ff" points="162.88,-143.81 159.38,-133.81 155.88,-143.81 162.88,-143.81"/>
</a>
</g>
</g>
<!-- Node7 -->
<g id="Node000007" class="node">
<title>Node7</title>
<g id="a_Node000007"><a xlink:href="_time_animated_sprite_8hpp.html" target="_top" xlink:title=" ">
<polygon fill="white" stroke="#666666" points="365,-132 241.75,-132 241.75,-112 365,-112 365,-132"/>
<text xml:space="preserve" text-anchor="middle" x="303.38" y="-118.5" font-family="Helvetica,sans-Serif" font-size="10.00">TimeAnimatedSprite.hpp</text>
</a>
</g>
</g>
<!-- Node2&#45;&gt;Node7 -->
<g id="edge6_Node000002_Node000007" class="edge">
<title>Node2&#45;&gt;Node7</title>
<g id="a_edge6_Node000002_Node000007"><a xlink:title=" ">
<path fill="none" stroke="#63b8ff" d="M184.46,-167.59C207.44,-158.97 241.73,-146.12 267.59,-136.42"/>
<polygon fill="#63b8ff" stroke="#63b8ff" points="268.54,-139.8 276.68,-133.01 266.09,-133.25 268.54,-139.8"/>
</a>
</g>
</g>
<!-- Node5 -->
<g id="Node000005" class="node">
<title>Node5</title>
<g id="a_Node000005"><a xlink:href="_texture_item_8hpp.html" target="_top" xlink:title=" ">
<polygon fill="white" stroke="#666666" points="274.62,-76 188.12,-76 188.12,-56 274.62,-56 274.62,-76"/>
<text xml:space="preserve" text-anchor="middle" x="231.38" y="-62.5" font-family="Helvetica,sans-Serif" font-size="10.00">TextureItem.hpp</text>
</a>
</g>
</g>
<!-- Node4&#45;&gt;Node5 -->
<g id="edge4_Node000004_Node000005" class="edge">
<title>Node4&#45;&gt;Node5</title>
<g id="a_edge4_Node000004_Node000005"><a xlink:title=" ">
<path fill="none" stroke="#63b8ff" d="M171.92,-111.59C182.34,-103.77 197.42,-92.46 209.79,-83.19"/>
<polygon fill="#63b8ff" stroke="#63b8ff" points="211.87,-86.01 217.77,-77.21 207.67,-80.41 211.87,-86.01"/>
</a>
</g>
</g>
<!-- Node6 -->
<g id="Node000006" class="node">
<title>Node6</title>
<g id="a_Node000006"><a xlink:title=" ">
<polygon fill="#e0e0e0" stroke="#999999" points="282.88,-20 179.88,-20 179.88,0 282.88,0 282.88,-20"/>
<text xml:space="preserve" text-anchor="middle" x="231.38" y="-6.5" font-family="Helvetica,sans-Serif" font-size="10.00">SFML/Graphics.hpp</text>
</a>
</g>
</g>
<!-- Node5&#45;&gt;Node6 -->
<g id="edge5_Node000005_Node000006" class="edge">
<title>Node5&#45;&gt;Node6</title>
<g id="a_edge5_Node000005_Node000006"><a xlink:title=" ">
<path fill="none" stroke="#63b8ff" d="M231.38,-55.59C231.38,-49.01 231.38,-39.96 231.38,-31.73"/>
<polygon fill="#63b8ff" stroke="#63b8ff" points="234.88,-31.81 231.38,-21.81 227.88,-31.81 234.88,-31.81"/>
</a>
</g>
</g>
<!-- Node7&#45;&gt;Node5 -->
<g id="edge7_Node000007_Node000005" class="edge">
<title>Node7&#45;&gt;Node5</title>
<g id="a_edge7_Node000007_Node000005"><a xlink:title=" ">
<path fill="none" stroke="#63b8ff" d="M290.83,-111.59C280.41,-103.77 265.33,-92.46 252.96,-83.19"/>
<polygon fill="#63b8ff" stroke="#63b8ff" points="255.08,-80.41 244.98,-77.21 250.88,-86.01 255.08,-80.41"/>
</a>
</g>
</g>
</g>
</svg>
</svg>

<style type='text/css'>
<![CDATA[
[data-mouse-over-selected='false'] { opacity: 0.7; }
[data-mouse-over-selected='true']  { opacity: 1.0; }
]]>
</style>
<script type="application/ecmascript"><![CDATA[
document.addEventListener('DOMContentLoaded', (event) => {
  highlightEdges();
  highlightAdjacentNodes();
});
]]></script>
</svg>
