<?xml version="1.0" encoding="UTF-8" standalone="no"?>
<!DOCTYPE svg PUBLIC "-//W3C//DTD SVG 1.1//EN"
 "http://www.w3.org/Graphics/SVG/1.1/DTD/svg11.dtd">
<!-- Generated by graphviz version 13.0.0 (20250608.1624)
 -->
<!-- Title: sfml_ui/include/customizable/controls/button.hpp Pages: 1 -->
<svg width="646pt" height="504pt"
 viewBox="0.00 0.00 646.00 504.00" xmlns="http://www.w3.org/2000/svg" xmlns:xlink="http://www.w3.org/1999/xlink">
<g id="graph0" class="graph" transform="scale(1 1) rotate(0) translate(4 500)">
<title>sfml_ui/include/customizable/controls/button.hpp</title>
<!-- Node1 -->
<g id="Node000001" class="node">
<title>Node1</title>
<g id="a_Node000001"><a xlink:title=" ">
<polygon fill="#999999" stroke="#666666" points="536.5,-496 394.5,-496 394.5,-464 536.5,-464 536.5,-496"/>
<text xml:space="preserve" text-anchor="start" x="402.5" y="-482.5" font-family="Helvetica,sans-Serif" font-size="10.00">sfml_ui/include/customizable</text>
<text xml:space="preserve" text-anchor="middle" x="465.5" y="-470.5" font-family="Helvetica,sans-Serif" font-size="10.00">/controls/button.hpp</text>
</a>
</g>
</g>
<!-- Node2 -->
<g id="Node000002" class="node">
<title>Node2</title>
<g id="a_Node000002"><a xlink:href="_event_binding_8hpp.html" target="_top" xlink:title=" ">
<polygon fill="white" stroke="#666666" points="385.62,-428 247.38,-428 247.38,-396 385.62,-396 385.62,-428"/>
<text xml:space="preserve" text-anchor="start" x="255.38" y="-414.5" font-family="Helvetica,sans-Serif" font-size="10.00">sfml_ui/include/core</text>
<text xml:space="preserve" text-anchor="middle" x="316.5" y="-402.5" font-family="Helvetica,sans-Serif" font-size="10.00">/message/EventBinding.hpp</text>
</a>
</g>
</g>
<!-- Node1&#45;&gt;Node2 -->
<g id="edge1_Node000001_Node000002" class="edge">
<title>Node1&#45;&gt;Node2</title>
<g id="a_edge1_Node000001_Node000002"><a xlink:title=" ">
<path fill="none" stroke="#63b8ff" d="M420.11,-458.89C398.05,-449.12 371.96,-437.56 351.47,-428.49"/>
<polygon fill="#63b8ff" stroke="#63b8ff" points="418.62,-462.06 429.18,-462.91 421.46,-455.66 418.62,-462.06"/>
</a>
</g>
</g>
<!-- Node10 -->
<g id="Node000010" class="node">
<title>Node10</title>
<g id="a_Node000010"><a xlink:href="page__emplate_8hpp.html" target="_top" xlink:title=" ">
<polygon fill="white" stroke="#666666" points="638.38,-88 510.62,-88 510.62,-56 638.38,-56 638.38,-88"/>
<text xml:space="preserve" text-anchor="start" x="518.62" y="-74.5" font-family="Helvetica,sans-Serif" font-size="10.00">sfml_ui/include/core</text>
<text xml:space="preserve" text-anchor="middle" x="574.5" y="-62.5" font-family="Helvetica,sans-Serif" font-size="10.00">/pages/page_emplate.hpp</text>
</a>
</g>
</g>
<!-- Node1&#45;&gt;Node10 -->
<g id="edge20_Node000001_Node000010" class="edge">
<title>Node1&#45;&gt;Node10</title>
<g id="a_edge20_Node000001_Node000010"><a xlink:title=" ">
<path fill="none" stroke="#63b8ff" d="M499.6,-457.13C531.58,-433.65 574.5,-393.17 574.5,-345 574.5,-345 574.5,-345 574.5,-207 574.5,-163.96 574.5,-113.15 574.5,-88.27"/>
<polygon fill="#63b8ff" stroke="#63b8ff" points="497.88,-454.06 491.74,-462.7 501.92,-459.77 497.88,-454.06"/>
</a>
</g>
</g>
<!-- Node3 -->
<g id="Node000003" class="node">
<title>Node3</title>
<g id="a_Node000003"><a xlink:href="_page_8hpp.html" target="_top" xlink:title=" ">
<polygon fill="white" stroke="#666666" points="368,-360 265,-360 265,-328 368,-328 368,-360"/>
<text xml:space="preserve" text-anchor="start" x="273" y="-346.5" font-family="Helvetica,sans-Serif" font-size="10.00">sfml_ui/include/core</text>
<text xml:space="preserve" text-anchor="middle" x="316.5" y="-334.5" font-family="Helvetica,sans-Serif" font-size="10.00">/pages/Page.hpp</text>
</a>
</g>
</g>
<!-- Node2&#45;&gt;Node3 -->
<g id="edge2_Node000002_Node000003" class="edge">
<title>Node2&#45;&gt;Node3</title>
<g id="a_edge2_Node000002_Node000003"><a xlink:title=" ">
<path fill="none" stroke="#63b8ff" d="M316.5,-384.31C316.5,-376.12 316.5,-367.38 316.5,-360.22"/>
<polygon fill="#63b8ff" stroke="#63b8ff" points="313,-384.18 316.5,-394.18 320,-384.18 313,-384.18"/>
</a>
</g>
</g>
<!-- Node15 -->
<g id="Node000015" class="node">
<title>Node15</title>
<g id="a_Node000015"><a xlink:href="_event_binding_8cpp.html" target="_top" xlink:title="实现EvectBingding类，负责事件与行为的绑定与触发。">
<polygon fill="white" stroke="#666666" points="246.75,-360 118.25,-360 118.25,-328 246.75,-328 246.75,-360"/>
<text xml:space="preserve" text-anchor="start" x="126.25" y="-346.5" font-family="Helvetica,sans-Serif" font-size="10.00">sfml_ui/src/core/message</text>
<text xml:space="preserve" text-anchor="middle" x="182.5" y="-334.5" font-family="Helvetica,sans-Serif" font-size="10.00">/EventBinding.cpp</text>
</a>
</g>
</g>
<!-- Node2&#45;&gt;Node15 -->
<g id="edge19_Node000002_Node000015" class="edge">
<title>Node2&#45;&gt;Node15</title>
<g id="a_edge19_Node000002_Node000015"><a xlink:title=" ">
<path fill="none" stroke="#63b8ff" d="M274.82,-390.47C255.09,-380.75 231.91,-369.34 213.72,-360.38"/>
<polygon fill="#63b8ff" stroke="#63b8ff" points="273.21,-393.58 283.73,-394.86 276.3,-387.3 273.21,-393.58"/>
</a>
</g>
</g>
<!-- Node4 -->
<g id="Node000004" class="node">
<title>Node4</title>
<g id="a_Node000004"><a xlink:href="_control_page_8hpp.html" target="_top" xlink:title=" ">
<polygon fill="white" stroke="#666666" points="393,-224 272,-224 272,-192 393,-192 393,-224"/>
<text xml:space="preserve" text-anchor="start" x="280" y="-210.5" font-family="Helvetica,sans-Serif" font-size="10.00">sfml_ui/include/core</text>
<text xml:space="preserve" text-anchor="middle" x="332.5" y="-198.5" font-family="Helvetica,sans-Serif" font-size="10.00">/pages/ControlPage.hpp</text>
</a>
</g>
</g>
<!-- Node3&#45;&gt;Node4 -->
<g id="edge3_Node000003_Node000004" class="edge">
<title>Node3&#45;&gt;Node4</title>
<g id="a_edge3_Node000003_Node000004"><a xlink:title=" ">
<path fill="none" stroke="#63b8ff" d="M329.8,-317.76C333.35,-309.74 336.7,-300.7 338.5,-292 343.29,-268.8 339.48,-241.26 336.12,-224.46"/>
<polygon fill="#63b8ff" stroke="#63b8ff" points="326.75,-316.02 325.6,-326.55 333.06,-319.03 326.75,-316.02"/>
</a>
</g>
</g>
<!-- Node11 -->
<g id="Node000011" class="node">
<title>Node11</title>
<g id="a_Node000011"><a xlink:href="_interactive_page_8hpp.html" target="_top" xlink:title=" ">
<polygon fill="white" stroke="#666666" points="546.12,-224 410.88,-224 410.88,-192 546.12,-192 546.12,-224"/>
<text xml:space="preserve" text-anchor="start" x="418.88" y="-210.5" font-family="Helvetica,sans-Serif" font-size="10.00">sfml_ui/include/core</text>
<text xml:space="preserve" text-anchor="middle" x="478.5" y="-198.5" font-family="Helvetica,sans-Serif" font-size="10.00">/pages/InteractivePage.hpp</text>
</a>
</g>
</g>
<!-- Node3&#45;&gt;Node11 -->
<g id="edge10_Node000003_Node000011" class="edge">
<title>Node3&#45;&gt;Node11</title>
<g id="a_edge10_Node000003_Node000011"><a xlink:title=" ">
<path fill="none" stroke="#63b8ff" d="M343.77,-320.44C376.75,-293.16 431.38,-247.98 459.88,-224.4"/>
<polygon fill="#63b8ff" stroke="#63b8ff" points="341.72,-317.59 336.25,-326.66 346.19,-322.99 341.72,-317.59"/>
</a>
</g>
</g>
<!-- Node12 -->
<g id="Node000012" class="node">
<title>Node12</title>
<g id="a_Node000012"><a xlink:href="_window_8hpp.html" target="_top" xlink:title=" ">
<polygon fill="white" stroke="#666666" points="329.62,-292 221.38,-292 221.38,-260 329.62,-260 329.62,-292"/>
<text xml:space="preserve" text-anchor="start" x="229.38" y="-278.5" font-family="Helvetica,sans-Serif" font-size="10.00">sfml_ui/include/core</text>
<text xml:space="preserve" text-anchor="middle" x="275.5" y="-266.5" font-family="Helvetica,sans-Serif" font-size="10.00">/window/Window.hpp</text>
</a>
</g>
</g>
<!-- Node3&#45;&gt;Node12 -->
<g id="edge12_Node000003_Node000012" class="edge">
<title>Node3&#45;&gt;Node12</title>
<g id="a_edge12_Node000003_Node000012"><a xlink:title=" ">
<path fill="none" stroke="#63b8ff" d="M300.98,-318.02C295.59,-309.34 289.71,-299.88 284.96,-292.22"/>
<polygon fill="#63b8ff" stroke="#63b8ff" points="297.94,-319.76 306.19,-326.41 303.89,-316.07 297.94,-319.76"/>
</a>
</g>
</g>
<!-- Node13 -->
<g id="Node000013" class="node">
<title>Node13</title>
<g id="a_Node000013"><a xlink:href="_page_8cpp.html" target="_top" xlink:title="实现Page类及相关函数，负责界面生命周期、事件绑定、渲染等。">
<polygon fill="white" stroke="#666666" points="115,-224 0,-224 0,-192 115,-192 115,-224"/>
<text xml:space="preserve" text-anchor="start" x="8" y="-210.5" font-family="Helvetica,sans-Serif" font-size="10.00">sfml_ui/src/core/pages</text>
<text xml:space="preserve" text-anchor="middle" x="57.5" y="-198.5" font-family="Helvetica,sans-Serif" font-size="10.00">/Page.cpp</text>
</a>
</g>
</g>
<!-- Node3&#45;&gt;Node13 -->
<g id="edge17_Node000003_Node000013" class="edge">
<title>Node3&#45;&gt;Node13</title>
<g id="a_edge17_Node000003_Node000013"><a xlink:title=" ">
<path fill="none" stroke="#63b8ff" d="M264.94,-323.43C242.9,-314.56 217.1,-303.49 194.5,-292 153.1,-270.95 107.41,-242.05 80.65,-224.49"/>
<polygon fill="#63b8ff" stroke="#63b8ff" points="263.43,-326.59 274.02,-327.04 266.02,-320.09 263.43,-326.59"/>
</a>
</g>
</g>
<!-- Node14 -->
<g id="Node000014" class="node">
<title>Node14</title>
<g id="a_Node000014"><a xlink:href="_window_8cpp.html" target="_top" xlink:title=" ">
<polygon fill="white" stroke="#666666" points="254.38,-224 132.62,-224 132.62,-192 254.38,-192 254.38,-224"/>
<text xml:space="preserve" text-anchor="start" x="140.62" y="-210.5" font-family="Helvetica,sans-Serif" font-size="10.00">sfml_ui/src/core/window</text>
<text xml:space="preserve" text-anchor="middle" x="193.5" y="-198.5" font-family="Helvetica,sans-Serif" font-size="10.00">/Window.cpp</text>
</a>
</g>
</g>
<!-- Node3&#45;&gt;Node14 -->
<g id="edge18_Node000003_Node000014" class="edge">
<title>Node3&#45;&gt;Node14</title>
<g id="a_edge18_Node000003_Node000014"><a xlink:title=" ">
<path fill="none" stroke="#63b8ff" d="M254.33,-323.48C238.69,-315.89 223.31,-305.64 212.5,-292 196.99,-272.42 193.68,-242.52 193.22,-224.46"/>
<polygon fill="#63b8ff" stroke="#63b8ff" points="252.65,-326.56 263.21,-327.47 255.52,-320.18 252.65,-326.56"/>
</a>
</g>
</g>
<!-- Node5 -->
<g id="Node000005" class="node">
<title>Node5</title>
<g id="a_Node000005"><a xlink:href="_complex_page_8hpp.html" target="_top" xlink:title=" ">
<polygon fill="white" stroke="#666666" points="449.75,-156 321.25,-156 321.25,-124 449.75,-124 449.75,-156"/>
<text xml:space="preserve" text-anchor="start" x="329.25" y="-142.5" font-family="Helvetica,sans-Serif" font-size="10.00">sfml_ui/include/core</text>
<text xml:space="preserve" text-anchor="middle" x="385.5" y="-130.5" font-family="Helvetica,sans-Serif" font-size="10.00">/pages/ComplexPage.hpp</text>
</a>
</g>
</g>
<!-- Node4&#45;&gt;Node5 -->
<g id="edge4_Node000004_Node000005" class="edge">
<title>Node4&#45;&gt;Node5</title>
<g id="a_edge4_Node000004_Node000005"><a xlink:title=" ">
<path fill="none" stroke="#63b8ff" d="M351.88,-182.87C359.03,-173.96 366.93,-164.12 373.27,-156.22"/>
<polygon fill="#63b8ff" stroke="#63b8ff" points="349.27,-180.52 345.74,-190.51 354.73,-184.91 349.27,-180.52"/>
</a>
</g>
</g>
<!-- Node6 -->
<g id="Node000006" class="node">
<title>Node6</title>
<g id="a_Node000006"><a xlink:href="_main_menu_page_8hpp.html" target="_top" xlink:title=" ">
<polygon fill="white" stroke="#666666" points="245.12,-88 139.88,-88 139.88,-56 245.12,-56 245.12,-88"/>
<text xml:space="preserve" text-anchor="start" x="147.88" y="-74.5" font-family="Helvetica,sans-Serif" font-size="10.00">game/include/pages</text>
<text xml:space="preserve" text-anchor="middle" x="192.5" y="-62.5" font-family="Helvetica,sans-Serif" font-size="10.00">/MainMenuPage.hpp</text>
</a>
</g>
</g>
<!-- Node5&#45;&gt;Node6 -->
<g id="edge5_Node000005_Node000006" class="edge">
<title>Node5&#45;&gt;Node6</title>
<g id="a_edge5_Node000005_Node000006"><a xlink:title=" ">
<path fill="none" stroke="#63b8ff" d="M329.41,-119.82C300.29,-109.86 265.18,-97.85 237.8,-88.49"/>
<polygon fill="#63b8ff" stroke="#63b8ff" points="328.22,-123.11 338.82,-123.04 330.49,-116.49 328.22,-123.11"/>
</a>
</g>
</g>
<!-- Node8 -->
<g id="Node000008" class="node">
<title>Node8</title>
<g id="a_Node000008"><a xlink:href="gamepage_8hpp.html" target="_top" xlink:title=" ">
<polygon fill="white" stroke="#666666" points="366,-88 263,-88 263,-56 366,-56 366,-88"/>
<text xml:space="preserve" text-anchor="start" x="271" y="-74.5" font-family="Helvetica,sans-Serif" font-size="10.00">game/include/pages</text>
<text xml:space="preserve" text-anchor="middle" x="314.5" y="-62.5" font-family="Helvetica,sans-Serif" font-size="10.00">/gamepage.hpp</text>
</a>
</g>
</g>
<!-- Node5&#45;&gt;Node8 -->
<g id="edge7_Node000005_Node000008" class="edge">
<title>Node5&#45;&gt;Node8</title>
<g id="a_edge7_Node000005_Node000008"><a xlink:title=" ">
<path fill="none" stroke="#63b8ff" d="M360.74,-115.99C350.85,-106.79 339.73,-96.46 330.88,-88.22"/>
<polygon fill="#63b8ff" stroke="#63b8ff" points="358.22,-118.42 367.92,-122.66 362.98,-113.29 358.22,-118.42"/>
</a>
</g>
</g>
<!-- Node9 -->
<g id="Node000009" class="node">
<title>Node9</title>
<g id="a_Node000009"><a xlink:href="pausegamepage_8hpp.html" target="_top" xlink:title=" ">
<polygon fill="white" stroke="#666666" points="493,-88 384,-88 384,-56 493,-56 493,-88"/>
<text xml:space="preserve" text-anchor="start" x="392" y="-74.5" font-family="Helvetica,sans-Serif" font-size="10.00">game/include/pages</text>
<text xml:space="preserve" text-anchor="middle" x="438.5" y="-62.5" font-family="Helvetica,sans-Serif" font-size="10.00">/pausegamepage.hpp</text>
</a>
</g>
</g>
<!-- Node5&#45;&gt;Node9 -->
<g id="edge8_Node000005_Node000009" class="edge">
<title>Node5&#45;&gt;Node9</title>
<g id="a_edge8_Node000005_Node000009"><a xlink:title=" ">
<path fill="none" stroke="#63b8ff" d="M404.88,-114.87C412.03,-105.96 419.93,-96.12 426.27,-88.22"/>
<polygon fill="#63b8ff" stroke="#63b8ff" points="402.27,-112.52 398.74,-122.51 407.73,-116.91 402.27,-112.52"/>
</a>
</g>
</g>
<!-- Node5&#45;&gt;Node10 -->
<g id="edge9_Node000005_Node000010" class="edge">
<title>Node5&#45;&gt;Node10</title>
<g id="a_edge9_Node000005_Node000010"><a xlink:title=" ">
<path fill="none" stroke="#63b8ff" d="M440.43,-119.82C468.94,-109.86 503.33,-97.85 530.14,-88.49"/>
<polygon fill="#63b8ff" stroke="#63b8ff" points="439.53,-116.43 431.24,-123.03 441.84,-123.03 439.53,-116.43"/>
</a>
</g>
</g>
<!-- Node7 -->
<g id="Node000007" class="node">
<title>Node7</title>
<g id="a_Node000007"><a xlink:href="main_8cpp.html" target="_top" xlink:title=" ">
<polygon fill="white" stroke="#666666" points="242.12,-20 142.88,-20 142.88,0 242.12,0 242.12,-20"/>
<text xml:space="preserve" text-anchor="middle" x="192.5" y="-6.5" font-family="Helvetica,sans-Serif" font-size="10.00">game/src/main.cpp</text>
</a>
</g>
</g>
<!-- Node6&#45;&gt;Node7 -->
<g id="edge6_Node000006_Node000007" class="edge">
<title>Node6&#45;&gt;Node7</title>
<g id="a_edge6_Node000006_Node000007"><a xlink:title=" ">
<path fill="none" stroke="#63b8ff" d="M192.5,-44.08C192.5,-35.6 192.5,-26.8 192.5,-20.41"/>
<polygon fill="#63b8ff" stroke="#63b8ff" points="189,-44.03 192.5,-54.03 196,-44.03 189,-44.03"/>
</a>
</g>
</g>
<!-- Node11&#45;&gt;Node5 -->
<g id="edge11_Node000011_Node000005" class="edge">
<title>Node11&#45;&gt;Node5</title>
<g id="a_edge11_Node000011_Node000005"><a xlink:title=" ">
<path fill="none" stroke="#63b8ff" d="M447.71,-185.15C434.47,-175.75 419.31,-165 407.28,-156.45"/>
<polygon fill="#63b8ff" stroke="#63b8ff" points="445.52,-187.88 455.7,-190.82 449.57,-182.17 445.52,-187.88"/>
</a>
</g>
</g>
<!-- Node12&#45;&gt;Node4 -->
<g id="edge13_Node000012_Node000004" class="edge">
<title>Node12&#45;&gt;Node4</title>
<g id="a_edge13_Node000012_Node000004"><a xlink:title=" ">
<path fill="none" stroke="#63b8ff" d="M296.1,-251.15C303.85,-242.17 312.46,-232.21 319.35,-224.22"/>
<polygon fill="#63b8ff" stroke="#63b8ff" points="293.6,-248.69 289.71,-258.55 298.89,-253.27 293.6,-248.69"/>
</a>
</g>
</g>
<!-- Node12&#45;&gt;Node11 -->
<g id="edge14_Node000012_Node000011" class="edge">
<title>Node12&#45;&gt;Node11</title>
<g id="a_edge14_Node000012_Node000011"><a xlink:title=" ">
<path fill="none" stroke="#63b8ff" d="M333.69,-256.08C364.47,-246.07 401.8,-233.94 430.85,-224.49"/>
<polygon fill="#63b8ff" stroke="#63b8ff" points="332.96,-252.64 324.53,-259.06 335.13,-259.29 332.96,-252.64"/>
</a>
</g>
</g>
<!-- Node12&#45;&gt;Node13 -->
<g id="edge15_Node000012_Node000013" class="edge">
<title>Node12&#45;&gt;Node13</title>
<g id="a_edge15_Node000012_Node000013"><a xlink:title=" ">
<path fill="none" stroke="#63b8ff" d="M213.45,-256.21C180.3,-246.18 140,-233.98 108.67,-224.49"/>
<polygon fill="#63b8ff" stroke="#63b8ff" points="212.35,-259.54 222.94,-259.09 214.38,-252.84 212.35,-259.54"/>
</a>
</g>
</g>
<!-- Node12&#45;&gt;Node14 -->
<g id="edge16_Node000012_Node000014" class="edge">
<title>Node12&#45;&gt;Node14</title>
<g id="a_edge16_Node000012_Node000014"><a xlink:title=" ">
<path fill="none" stroke="#63b8ff" d="M247.67,-252.6C236.16,-243.34 223.11,-232.83 212.7,-224.45"/>
<polygon fill="#63b8ff" stroke="#63b8ff" points="245.32,-255.2 255.3,-258.74 249.71,-249.75 245.32,-255.2"/>
</a>
</g>
</g>
</g>
</svg>
