<?xml version="1.0" encoding="UTF-8" standalone="no"?>
<!DOCTYPE svg PUBLIC "-//W3C//DTD SVG 1.1//EN"
 "http://www.w3.org/Graphics/SVG/1.1/DTD/svg11.dtd">
<!-- Generated by graphviz version 13.0.0 (20250608.1624)
 -->
<!-- Title: sfui::TextureItem::TextureItem Pages: 1 -->
<svg width="235pt" height="140pt"
 viewBox="0.00 0.00 235.00 140.00" xmlns="http://www.w3.org/2000/svg" xmlns:xlink="http://www.w3.org/1999/xlink">
<g id="graph0" class="graph" transform="scale(1 1) rotate(0) translate(4 136)">
<title>sfui::TextureItem::TextureItem</title>
<!-- Node1 -->
<g id="Node000001" class="node">
<title>Node1</title>
<g id="a_Node000001"><a xlink:title="默认构造函数">
<polygon fill="#999999" stroke="#666666" points="227,-82 131.5,-82 131.5,-50 227,-50 227,-82"/>
<text xml:space="preserve" text-anchor="start" x="139.5" y="-68.5" font-family="Helvetica,sans-Serif" font-size="10.00">sfui::TextureItem::</text>
<text xml:space="preserve" text-anchor="middle" x="179.25" y="-56.5" font-family="Helvetica,sans-Serif" font-size="10.00">TextureItem</text>
</a>
</g>
</g>
<!-- Node2 -->
<g id="Node000002" class="node">
<title>Node2</title>
<g id="a_Node000002"><a xlink:href="classsfui_1_1_texture_item.html#a93f6ad7b8cb2e8266bc2afe418c74ce6" target="_top" xlink:title="移动赋值运算符">
<polygon fill="white" stroke="#666666" points="95.5,-132 0,-132 0,-100 95.5,-100 95.5,-132"/>
<text xml:space="preserve" text-anchor="start" x="8" y="-118.5" font-family="Helvetica,sans-Serif" font-size="10.00">sfui::TextureItem::</text>
<text xml:space="preserve" text-anchor="middle" x="47.75" y="-106.5" font-family="Helvetica,sans-Serif" font-size="10.00">operator=</text>
</a>
</g>
</g>
<!-- Node1&#45;&gt;Node2 -->
<g id="edge1_Node000001_Node000002" class="edge">
<title>Node1&#45;&gt;Node2</title>
<g id="a_edge1_Node000001_Node000002"><a xlink:title=" ">
<path fill="none" stroke="#63b8ff" d="M125.2,-86.48C113.9,-90.85 102.1,-95.4 91.25,-99.59"/>
<polygon fill="#63b8ff" stroke="#63b8ff" points="126.37,-89.78 134.43,-82.92 123.85,-83.25 126.37,-89.78"/>
</a>
</g>
</g>
<!-- Node3 -->
<g id="Node000003" class="node">
<title>Node3</title>
<g id="a_Node000003"><a xlink:href="classsfui_1_1_texture_item.html#a0e832fcf60b57860645b10df0609b9cb" target="_top" xlink:title="拷贝构造函数">
<polygon fill="white" stroke="#666666" points="95.5,-82 0,-82 0,-50 95.5,-50 95.5,-82"/>
<text xml:space="preserve" text-anchor="start" x="8" y="-68.5" font-family="Helvetica,sans-Serif" font-size="10.00">sfui::TextureItem::</text>
<text xml:space="preserve" text-anchor="middle" x="47.75" y="-56.5" font-family="Helvetica,sans-Serif" font-size="10.00">TextureItem</text>
</a>
</g>
</g>
<!-- Node1&#45;&gt;Node3 -->
<g id="edge2_Node000001_Node000003" class="edge">
<title>Node1&#45;&gt;Node3</title>
<g id="a_edge2_Node000001_Node000003"><a xlink:title=" ">
<path fill="none" stroke="#63b8ff" d="M119.82,-66C111.71,-66 103.47,-66 95.62,-66"/>
<polygon fill="#63b8ff" stroke="#63b8ff" points="119.62,-69.5 129.62,-66 119.62,-62.5 119.62,-69.5"/>
</a>
</g>
</g>
<!-- Node4 -->
<g id="Node000004" class="node">
<title>Node4</title>
<g id="a_Node000004"><a xlink:href="classsfui_1_1_texture_item.html#ab997ea9499d2e9c0774be061a3391ed0" target="_top" xlink:title="移动构造函数">
<polygon fill="white" stroke="#666666" points="95.5,-32 0,-32 0,0 95.5,0 95.5,-32"/>
<text xml:space="preserve" text-anchor="start" x="8" y="-18.5" font-family="Helvetica,sans-Serif" font-size="10.00">sfui::TextureItem::</text>
<text xml:space="preserve" text-anchor="middle" x="47.75" y="-6.5" font-family="Helvetica,sans-Serif" font-size="10.00">TextureItem</text>
</a>
</g>
</g>
<!-- Node1&#45;&gt;Node4 -->
<g id="edge3_Node000001_Node000004" class="edge">
<title>Node1&#45;&gt;Node4</title>
<g id="a_edge3_Node000001_Node000004"><a xlink:title=" ">
<path fill="none" stroke="#63b8ff" d="M125.2,-45.52C113.9,-41.15 102.1,-36.6 91.25,-32.41"/>
<polygon fill="#63b8ff" stroke="#63b8ff" points="123.85,-48.75 134.43,-49.08 126.37,-42.22 123.85,-48.75"/>
</a>
</g>
</g>
</g>
</svg>
