<?xml version="1.0" encoding="UTF-8" standalone="no"?>
<!DOCTYPE svg PUBLIC "-//W3C//DTD SVG 1.1//EN"
 "http://www.w3.org/Graphics/SVG/1.1/DTD/svg11.dtd">
<!-- Generated by graphviz version 13.0.0 (20250608.1624)
 -->
<!-- Title: game::PauseGamePage::initMessageBinding Pages: 1 -->
<svg width="318pt" height="104pt"
 viewBox="0.00 0.00 318.00 104.00" xmlns="http://www.w3.org/2000/svg" xmlns:xlink="http://www.w3.org/1999/xlink">
<g id="graph0" class="graph" transform="scale(1 1) rotate(0) translate(4 100)">
<title>game::PauseGamePage::initMessageBinding</title>
<!-- Node1 -->
<g id="Node000001" class="node">
<title>Node1</title>
<g id="a_Node000001"><a xlink:title="初始化消息与事件绑定（纯虚函数，需子类实现）">
<polygon fill="#999999" stroke="#666666" points="122.5,-64 0,-64 0,-32 122.5,-32 122.5,-64"/>
<text xml:space="preserve" text-anchor="start" x="8" y="-50.5" font-family="Helvetica,sans-Serif" font-size="10.00">game::PauseGamePage</text>
<text xml:space="preserve" text-anchor="middle" x="61.25" y="-38.5" font-family="Helvetica,sans-Serif" font-size="10.00">::initMessageBinding</text>
</a>
</g>
</g>
<!-- Node2 -->
<g id="Node000002" class="node">
<title>Node2</title>
<g id="a_Node000002"><a xlink:href="classsfui_1_1_page.html#a08a68da4f1209edaf1cb43004dd5b6d0" target="_top" xlink:title="绑定按键与行为（事件输入）">
<polygon fill="white" stroke="#666666" points="288.5,-96 179.5,-96 179.5,-76 288.5,-76 288.5,-96"/>
<text xml:space="preserve" text-anchor="middle" x="234" y="-82.5" font-family="Helvetica,sans-Serif" font-size="10.00">sfui::Page::eventMap</text>
</a>
</g>
</g>
<!-- Node1&#45;&gt;Node2 -->
<g id="edge1_Node000001_Node000002" class="edge">
<title>Node1&#45;&gt;Node2</title>
<g id="a_edge1_Node000001_Node000002"><a xlink:title=" ">
<path fill="none" stroke="#63b8ff" d="M122.93,-61.5C139.92,-65.28 158.33,-69.38 175.14,-73.12"/>
<polygon fill="#63b8ff" stroke="#63b8ff" points="173.93,-76.44 184.45,-75.2 175.45,-69.61 173.93,-76.44"/>
</a>
</g>
</g>
<!-- Node3 -->
<g id="Node000003" class="node">
<title>Node3</title>
<g id="a_Node000003"><a xlink:href="classsfui_1_1_page.html#af7802cf36ee67e4944b825c034d4aff8" target="_top" xlink:title="发起界面跳转请求（由子类调用）">
<polygon fill="white" stroke="#666666" points="309.5,-58 158.5,-58 158.5,-38 309.5,-38 309.5,-58"/>
<text xml:space="preserve" text-anchor="middle" x="234" y="-44.5" font-family="Helvetica,sans-Serif" font-size="10.00">sfui::Page::requestPageSwitch</text>
</a>
</g>
</g>
<!-- Node1&#45;&gt;Node3 -->
<g id="edge2_Node000001_Node000003" class="edge">
<title>Node1&#45;&gt;Node3</title>
<g id="a_edge2_Node000001_Node000003"><a xlink:title=" ">
<path fill="none" stroke="#63b8ff" d="M122.93,-48C130.68,-48 138.73,-48 146.79,-48"/>
<polygon fill="#63b8ff" stroke="#63b8ff" points="146.65,-51.5 156.65,-48 146.65,-44.5 146.65,-51.5"/>
</a>
</g>
</g>
<!-- Node4 -->
<g id="Node000004" class="node">
<title>Node4</title>
<g id="a_Node000004"><a xlink:href="namespacesfui.html#a92f7a2203cd1f549830bf28cd2447d4b" target="_top" xlink:title="将std::string转换为Title（std::wstring）">
<polygon fill="white" stroke="#666666" points="275.38,-20 192.62,-20 192.62,0 275.38,0 275.38,-20"/>
<text xml:space="preserve" text-anchor="middle" x="234" y="-6.5" font-family="Helvetica,sans-Serif" font-size="10.00">sfui::TitleName</text>
</a>
</g>
</g>
<!-- Node1&#45;&gt;Node4 -->
<g id="edge3_Node000001_Node000004" class="edge">
<title>Node1&#45;&gt;Node4</title>
<g id="a_edge3_Node000001_Node000004"><a xlink:title=" ">
<path fill="none" stroke="#63b8ff" d="M122.93,-34.5C141.98,-30.26 162.83,-25.62 181.21,-21.53"/>
<polygon fill="#63b8ff" stroke="#63b8ff" points="181.81,-24.98 190.81,-19.39 180.29,-18.14 181.81,-24.98"/>
</a>
</g>
</g>
</g>
</svg>
