<?xml version="1.0" encoding="UTF-8" standalone="no"?>
<!DOCTYPE svg PUBLIC "-//W3C//DTD SVG 1.1//EN"
 "http://www.w3.org/Graphics/SVG/1.1/DTD/svg11.dtd">
<!-- Generated by graphviz version 13.0.0 (20250608.1624)
 -->
<!-- Title: sfui::Page::Page Pages: 1 -->
<!--zoomable 139 -->

<svg id="main" version="1.1" xmlns="http://www.w3.org/2000/svg" xmlns:xlink="http://www.w3.org/1999/xlink" xml:space="preserve" onload="init(evt)">

<style type="text/css"><![CDATA[
.node, .edge {opacity: 0.7;}
.node.selected, .edge.selected {opacity: 1;}
.edge:hover path { stroke: red; }
.edge:hover polygon { stroke: red; fill: red; }
]]></style>

<defs>
  <circle id="rim" cx="0" cy="0" r="7"/>
  <circle id="rim2" cx="0" cy="0" r="3.5"/>
  <g id="zoomPlus">
    <use xlink:href="#rim" fill="#404040"><set attributeName="fill" to="#808080" begin="zoomplus.mouseover" end="zoomplus.mouseout"/></use>
    <path d="M-4,0h8M0,-4v8" fill="none" stroke="white" stroke-width="1.5" pointer-events="none"/>
  </g>
  <g id="zoomMin">
    <use xlink:href="#rim" fill="#404040"><set attributeName="fill" to="#808080" begin="zoomminus.mouseover" end="zoomminus.mouseout"/></use>
    <path d="M-4,0h8" fill="none" stroke="white" stroke-width="1.5" pointer-events="none"/>
  </g>
  <g id="arrowUp" transform="translate(30 24)">
    <use xlink:href="#rim"/>
    <path pointer-events="none" fill="none" stroke="white" stroke-width="1.5" d="M0,-3.0v7 M-2.5,-0.5L0,-3.0L2.5,-0.5"/>
  </g>
  <g id="arrowRight" transform="rotate(90) translate(36 -43)">
    <use xlink:href="#rim"/>
    <path pointer-events="none" fill="none" stroke="white" stroke-width="1.5" d="M0,-3.0v7 M-2.5,-0.5L0,-3.0L2.5,-0.5"/>
  </g>
  <g id="arrowDown" transform="rotate(180) translate(-30 -48)">
    <use xlink:href="#rim"/>
    <path pointer-events="none" fill="none" stroke="white" stroke-width="1.5" d="M0,-3.0v7 M-2.5,-0.5L0,-3.0L2.5,-0.5"/>
  </g>
  <g id="arrowLeft" transform="rotate(270) translate(-36 17)">
    <use xlink:href="#rim"/>
    <path pointer-events="none" fill="none" stroke="white" stroke-width="1.5" d="M0,-3.0v7 M-2.5,-0.5L0,-3.0L2.5,-0.5"/>
  </g>
  <g id="resetDef">
    <use xlink:href="#rim2" fill="#404040"><set attributeName="fill" to="#808080" begin="reset.mouseover" end="reset.mouseout"/></use>
  </g>
</defs>
<script type="application/ecmascript">
var viewWidth = 566;
var viewHeight = 139;
var sectionId = 'dynsection-2';
</script>
<script type="application/ecmascript" xlink:href="svg.min.js"/>
<svg id="graph" class="graph">
<g id="viewport">
<title>sfui::Page::Page</title>
<!-- Node1 -->
<g id="Node000001" class="node">
<title>Node1</title>
<g id="a_Node000001"><a xlink:title=" ">
<polygon fill="#999999" stroke="#666666" points="557.5,-75.2 468.75,-75.2 468.75,-55.2 557.5,-55.2 557.5,-75.2"/>
<text xml:space="preserve" text-anchor="middle" x="513.12" y="-61.7" font-family="Helvetica,sans-Serif" font-size="10.00">sfui::Page::Page</text>
</a>
</g>
</g>
<!-- Node2 -->
<g id="Node000002" class="node">
<title>Node2</title>
<g id="a_Node000002"><a xlink:href="classsfui_1_1_control_page.html#afc330f12e794ff22b74203c5743bcc9f" target="_top" xlink:title=" ">
<polygon fill="white" stroke="#666666" points="428.62,-56.2 330.88,-56.2 330.88,-24.2 428.62,-24.2 428.62,-56.2"/>
<text xml:space="preserve" text-anchor="start" x="338.88" y="-42.7" font-family="Helvetica,sans-Serif" font-size="10.00">sfui::ControlPage::</text>
<text xml:space="preserve" text-anchor="middle" x="379.75" y="-30.7" font-family="Helvetica,sans-Serif" font-size="10.00">ControlPage</text>
</a>
</g>
</g>
<!-- Node1&#45;&gt;Node2 -->
<g id="edge1_Node000001_Node000002" class="edge">
<title>Node1&#45;&gt;Node2</title>
<g id="a_edge1_Node000001_Node000002"><a xlink:title=" ">
<path fill="none" stroke="#63b8ff" d="M457.12,-54.73C447.72,-52.94 438.03,-51.09 428.83,-49.34"/>
<polygon fill="#63b8ff" stroke="#63b8ff" points="456.41,-58.16 466.89,-56.59 457.72,-51.28 456.41,-58.16"/>
</a>
</g>
</g>
<!-- Node4 -->
<g id="Node000004" class="node">
<title>Node4</title>
<g id="a_Node000004"><a xlink:href="classgame_1_1_game_page.html#a91af173bceb6cb36da8332f25e8b7183" target="_top" xlink:title=" ">
<polygon fill="white" stroke="#666666" points="149.5,-103.2 0,-103.2 0,-83.2 149.5,-83.2 149.5,-103.2"/>
<text xml:space="preserve" text-anchor="middle" x="74.75" y="-89.7" font-family="Helvetica,sans-Serif" font-size="10.00">game::GamePage::GamePage</text>
</a>
</g>
</g>
<!-- Node1&#45;&gt;Node4 -->
<g id="edge5_Node000001_Node000004" class="edge">
<title>Node1&#45;&gt;Node4</title>
<g id="a_edge5_Node000001_Node000004"><a xlink:title=" ">
<path fill="none" stroke="#63b8ff" d="M491.58,-82.73C476.43,-94.45 454.7,-108.86 432.75,-115.2 320.14,-147.71 179.51,-120.32 113.4,-103.68"/>
<polygon fill="#63b8ff" stroke="#63b8ff" points="493.76,-85.47 499.35,-76.47 489.37,-80.01 493.76,-85.47"/>
</a>
</g>
</g>
<!-- Node5 -->
<g id="Node000005" class="node">
<title>Node5</title>
<g id="a_Node000005"><a xlink:href="classgame_1_1_main_menu_page.html#a597d6a61f1bc9cf80e3a99e466fe678b" target="_top" xlink:title=" ">
<polygon fill="white" stroke="#666666" points="131.5,-53.2 18,-53.2 18,-21.2 131.5,-21.2 131.5,-53.2"/>
<text xml:space="preserve" text-anchor="start" x="26" y="-39.7" font-family="Helvetica,sans-Serif" font-size="10.00">game::MainMenuPage</text>
<text xml:space="preserve" text-anchor="middle" x="74.75" y="-27.7" font-family="Helvetica,sans-Serif" font-size="10.00">::MainMenuPage</text>
</a>
</g>
</g>
<!-- Node1&#45;&gt;Node5 -->
<g id="edge8_Node000001_Node000005" class="edge">
<title>Node1&#45;&gt;Node5</title>
<g id="a_edge8_Node000001_Node000005"><a xlink:title=" ">
<path fill="none" stroke="#63b8ff" d="M491.58,-47.67C476.43,-35.94 454.7,-21.53 432.75,-15.2 329.69,14.56 203.15,-5.86 131.76,-22.29"/>
<polygon fill="#63b8ff" stroke="#63b8ff" points="489.37,-50.38 499.35,-53.92 493.76,-44.93 489.37,-50.38"/>
</a>
</g>
</g>
<!-- Node6 -->
<g id="Node000006" class="node">
<title>Node6</title>
<g id="a_Node000006"><a xlink:href="classsfui_1_1_interactive_page.html#ac553cc6c1df69243d54a316f67aa5f45" target="_top" xlink:title=" ">
<polygon fill="white" stroke="#666666" points="432.75,-106.2 326.75,-106.2 326.75,-74.2 432.75,-74.2 432.75,-106.2"/>
<text xml:space="preserve" text-anchor="start" x="334.75" y="-92.7" font-family="Helvetica,sans-Serif" font-size="10.00">sfui::InteractivePage</text>
<text xml:space="preserve" text-anchor="middle" x="379.75" y="-80.7" font-family="Helvetica,sans-Serif" font-size="10.00">::InteractivePage</text>
</a>
</g>
</g>
<!-- Node1&#45;&gt;Node6 -->
<g id="edge6_Node000001_Node000006" class="edge">
<title>Node1&#45;&gt;Node6</title>
<g id="a_edge6_Node000001_Node000006"><a xlink:title=" ">
<path fill="none" stroke="#63b8ff" d="M457.22,-75.64C449.19,-77.17 440.94,-78.74 432.97,-80.26"/>
<polygon fill="#63b8ff" stroke="#63b8ff" points="457.72,-79.11 466.89,-73.8 456.41,-72.23 457.72,-79.11"/>
</a>
</g>
</g>
<!-- Node3 -->
<g id="Node000003" class="node">
<title>Node3</title>
<g id="a_Node000003"><a xlink:href="classsfui_1_1_complex_page.html#a3c97d3fcf521310edbd6b77ec693e4e9" target="_top" xlink:title=" ">
<polygon fill="white" stroke="#666666" points="290.75,-81.2 185.5,-81.2 185.5,-49.2 290.75,-49.2 290.75,-81.2"/>
<text xml:space="preserve" text-anchor="start" x="193.5" y="-67.7" font-family="Helvetica,sans-Serif" font-size="10.00">sfui::ComplexPage::</text>
<text xml:space="preserve" text-anchor="middle" x="238.12" y="-55.7" font-family="Helvetica,sans-Serif" font-size="10.00">ComplexPage</text>
</a>
</g>
</g>
<!-- Node2&#45;&gt;Node3 -->
<g id="edge2_Node000002_Node000003" class="edge">
<title>Node2&#45;&gt;Node3</title>
<g id="a_edge2_Node000002_Node000003"><a xlink:title=" ">
<path fill="none" stroke="#63b8ff" d="M319.39,-50.82C309.98,-52.51 300.31,-54.24 291.08,-55.89"/>
<polygon fill="#63b8ff" stroke="#63b8ff" points="319.98,-54.27 329.21,-49.07 318.75,-47.38 319.98,-54.27"/>
</a>
</g>
</g>
<!-- Node3&#45;&gt;Node4 -->
<g id="edge3_Node000003_Node000004" class="edge">
<title>Node3&#45;&gt;Node4</title>
<g id="a_edge3_Node000003_Node000004"><a xlink:title=" ">
<path fill="none" stroke="#63b8ff" d="M173.93,-76.16C161.46,-78.32 148.4,-80.59 136.03,-82.74"/>
<polygon fill="#63b8ff" stroke="#63b8ff" points="174.43,-79.63 183.69,-74.47 173.23,-72.73 174.43,-79.63"/>
</a>
</g>
</g>
<!-- Node3&#45;&gt;Node5 -->
<g id="edge4_Node000003_Node000005" class="edge">
<title>Node3&#45;&gt;Node5</title>
<g id="a_edge4_Node000003_Node000005"><a xlink:title=" ">
<path fill="none" stroke="#63b8ff" d="M174.16,-54.27C160.18,-51.85 145.46,-49.29 131.78,-46.92"/>
<polygon fill="#63b8ff" stroke="#63b8ff" points="173.23,-57.66 183.69,-55.92 174.43,-50.77 173.23,-57.66"/>
</a>
</g>
</g>
<!-- Node6&#45;&gt;Node3 -->
<g id="edge7_Node000006_Node000003" class="edge">
<title>Node6&#45;&gt;Node3</title>
<g id="a_edge7_Node000006_Node000003"><a xlink:title=" ">
<path fill="none" stroke="#63b8ff" d="M315.04,-78.79C306.95,-77.34 298.75,-75.87 290.88,-74.46"/>
<polygon fill="#63b8ff" stroke="#63b8ff" points="314.41,-82.23 324.87,-80.55 315.65,-75.34 314.41,-82.23"/>
</a>
</g>
</g>
</g>
</svg>

<g id="navigator" transform="translate(0 0)" fill="#404254">
  <rect fill="#f2f5e9" fill-opacity="0.5" stroke="#606060" stroke-width=".5" x="0" y="0" width="60" height="60"/>
  <use id="zoomplus" xlink:href="#zoomPlus" x="17" y="9" onmousedown="handleZoom(evt,'in')"/>
  <use id="zoomminus" xlink:href="#zoomMin" x="42" y="9" onmousedown="handleZoom(evt,'out')"/>
  <use id="reset" xlink:href="#resetDef" x="30" y="36" onmousedown="handleReset()"/>
   <use id="arrowup" xlink:href="#arrowUp" x="0" y="0" onmousedown="handlePan(0,-1)"/>
  <use id="arrowright" xlink:href="#arrowRight" x="0" y="0" onmousedown="handlePan(1,0)"/>
  <use id="arrowdown" xlink:href="#arrowDown" x="0" y="0" onmousedown="handlePan(0,1)"/>
  <use id="arrowleft" xlink:href="#arrowLeft" x="0" y="0" onmousedown="handlePan(-1,0)"/>
</g>
<svg viewBox="0 0 15 15" width="100%" height="30px" preserveAspectRatio="xMaxYMin meet">
 <g id="arrow_out" transform="scale(0.3 0.3)">
  <a xlink:href="classsfui_1_1_page_a1d645637dcd8fea7241f485ef4fe1b93_icgraph_org.svg" target="_base">
   <rect id="button" ry="5" rx="5" y="6" x="6" height="38" width="38"
        fill="#f2f5e9" fill-opacity="0.5" stroke="#606060" stroke-width="1.0"/>
   <path id="arrow"
     d="M 11.500037,31.436501 C 11.940474,20.09759 22.043105,11.32322 32.158766,21.979434 L 37.068811,17.246167 C 37.068811,17.246167 37.088388,32 37.088388,32 L 22.160133,31.978069 C 22.160133,31.978069 26.997745,27.140456 26.997745,27.140456 C 18.528582,18.264221 13.291696,25.230495 11.500037,31.436501 z"
     style="fill:#404040;"/>
  </a>
 </g>
</svg>

<style type='text/css'>
<![CDATA[
[data-mouse-over-selected='false'] { opacity: 0.7; }
[data-mouse-over-selected='true']  { opacity: 1.0; }
]]>
</style>
<script type="application/ecmascript"><![CDATA[
document.addEventListener('DOMContentLoaded', (event) => {
  highlightEdges();
  highlightAdjacentNodes();
});
]]></script>
</svg>
