<?xml version="1.0" encoding="UTF-8" standalone="no"?>
<!DOCTYPE svg PUBLIC "-//W3C//DTD SVG 1.1//EN"
 "http://www.w3.org/Graphics/SVG/1.1/DTD/svg11.dtd">
<!-- Generated by graphviz version 13.0.0 (20250608.1624)
 -->
<!-- Title: game::PauseGamePage Pages: 1 -->
<svg width="224pt" height="196pt"
 viewBox="0.00 0.00 224.00 196.00" xmlns="http://www.w3.org/2000/svg" xmlns:xlink="http://www.w3.org/1999/xlink">

<svg id="main" version="1.1" xmlns="http://www.w3.org/2000/svg" xmlns:xlink="http://www.w3.org/1999/xlink" xml:space="preserve">

<style type="text/css"><![CDATA[
.node, .edge {opacity: 0.7;}
.node.selected, .edge.selected {opacity: 1;}
.edge:hover path { stroke: red; }
.edge:hover polygon { stroke: red; fill: red; }
]]></style>
<script type="application/ecmascript" xlink:href="svg.min.js"/>
<svg id="graph" class="graph">
<g id="graph0" class="graph" transform="scale(1 1) rotate(0) translate(4 192)">
<title>game::PauseGamePage</title>
<!-- Node1 -->
<g id="Node000001" class="node">
<title>Node1</title>
<g id="a_Node000001"><a xlink:title=" ">
<polygon fill="#999999" stroke="#666666" points="172.25,-20 49.75,-20 49.75,0 172.25,0 172.25,-20"/>
<text xml:space="preserve" text-anchor="middle" x="111" y="-6.5" font-family="Helvetica,sans-Serif" font-size="10.00">game::PauseGamePage</text>
</a>
</g>
</g>
<!-- Node2 -->
<g id="Node000002" class="node">
<title>Node2</title>
<g id="a_Node000002"><a xlink:href="classsfui_1_1_complex_page.html" target="_top" xlink:title="混合界面类，结合了交互页面和控件页面的功能">
<polygon fill="white" stroke="#666666" points="160.62,-76 61.38,-76 61.38,-56 160.62,-56 160.62,-76"/>
<text xml:space="preserve" text-anchor="middle" x="111" y="-62.5" font-family="Helvetica,sans-Serif" font-size="10.00">sfui::ComplexPage</text>
</a>
</g>
</g>
<!-- Node2&#45;&gt;Node1 -->
<g id="edge1_Node000001_Node000002" class="edge">
<title>Node2&#45;&gt;Node1</title>
<g id="a_edge1_Node000001_Node000002"><a xlink:title=" ">
<path fill="none" stroke="#63b8ff" d="M111,-44.13C111,-35.9 111,-26.85 111,-20.3"/>
<polygon fill="#63b8ff" stroke="#63b8ff" points="107.5,-44.08 111,-54.08 114.5,-44.08 107.5,-44.08"/>
</a>
</g>
</g>
<!-- Node3 -->
<g id="Node000003" class="node">
<title>Node3</title>
<g id="a_Node000003"><a xlink:href="classsfui_1_1_interactive_page.html" target="_top" xlink:title="动态或实时更新的交互页面，视图中心可自定义">
<polygon fill="white" stroke="#666666" points="106,-132 0,-132 0,-112 106,-112 106,-132"/>
<text xml:space="preserve" text-anchor="middle" x="53" y="-118.5" font-family="Helvetica,sans-Serif" font-size="10.00">sfui::InteractivePage</text>
</a>
</g>
</g>
<!-- Node3&#45;&gt;Node2 -->
<g id="edge2_Node000002_Node000003" class="edge">
<title>Node3&#45;&gt;Node2</title>
<g id="a_edge2_Node000002_Node000003"><a xlink:title=" ">
<path fill="none" stroke="#63b8ff" d="M71.42,-103.85C81.23,-94.72 92.9,-83.86 101.01,-76.3"/>
<polygon fill="#63b8ff" stroke="#63b8ff" points="69.14,-101.19 64.21,-110.56 73.91,-106.31 69.14,-101.19"/>
</a>
</g>
</g>
<!-- Node4 -->
<g id="Node000004" class="node">
<title>Node4</title>
<g id="a_Node000004"><a xlink:href="classsfui_1_1_page.html" target="_top" xlink:title="前置声明窗口类">
<polygon fill="white" stroke="#666666" points="141.12,-188 80.88,-188 80.88,-168 141.12,-168 141.12,-188"/>
<text xml:space="preserve" text-anchor="middle" x="111" y="-174.5" font-family="Helvetica,sans-Serif" font-size="10.00">sfui::Page</text>
</a>
</g>
</g>
<!-- Node4&#45;&gt;Node3 -->
<g id="edge3_Node000003_Node000004" class="edge">
<title>Node4&#45;&gt;Node3</title>
<g id="a_edge3_Node000003_Node000004"><a xlink:title=" ">
<path fill="none" stroke="#63b8ff" d="M92.58,-159.85C82.77,-150.72 71.1,-139.86 62.99,-132.3"/>
<polygon fill="#63b8ff" stroke="#63b8ff" points="90.09,-162.31 99.79,-166.56 94.86,-157.19 90.09,-162.31"/>
</a>
</g>
</g>
<!-- Node5 -->
<g id="Node000005" class="node">
<title>Node5</title>
<g id="a_Node000005"><a xlink:href="classsfui_1_1_control_page.html" target="_top" xlink:title="UI 控件页面，视图大小等于窗口大小，(0,0)为左上角">
<polygon fill="white" stroke="#666666" points="215.88,-132 124.12,-132 124.12,-112 215.88,-112 215.88,-132"/>
<text xml:space="preserve" text-anchor="middle" x="170" y="-118.5" font-family="Helvetica,sans-Serif" font-size="10.00">sfui::ControlPage</text>
</a>
</g>
</g>
<!-- Node4&#45;&gt;Node5 -->
<g id="edge5_Node000005_Node000004" class="edge">
<title>Node4&#45;&gt;Node5</title>
<g id="a_edge5_Node000005_Node000004"><a xlink:title=" ">
<path fill="none" stroke="#63b8ff" d="M129.74,-159.85C139.71,-150.72 151.58,-139.86 159.84,-132.3"/>
<polygon fill="#63b8ff" stroke="#63b8ff" points="127.41,-157.24 122.39,-166.57 132.13,-162.4 127.41,-157.24"/>
</a>
</g>
</g>
<!-- Node5&#45;&gt;Node2 -->
<g id="edge4_Node000002_Node000005" class="edge">
<title>Node5&#45;&gt;Node2</title>
<g id="a_edge4_Node000002_Node000005"><a xlink:title=" ">
<path fill="none" stroke="#63b8ff" d="M151.26,-103.85C141.29,-94.72 129.42,-83.86 121.16,-76.3"/>
<polygon fill="#63b8ff" stroke="#63b8ff" points="148.87,-106.4 158.61,-110.57 153.59,-101.24 148.87,-106.4"/>
</a>
</g>
</g>
</g>
</svg>
</svg>

<style type='text/css'>
<![CDATA[
[data-mouse-over-selected='false'] { opacity: 0.7; }
[data-mouse-over-selected='true']  { opacity: 1.0; }
]]>
</style>
<script type="application/ecmascript"><![CDATA[
document.addEventListener('DOMContentLoaded', (event) => {
  highlightEdges();
  highlightAdjacentNodes();
});
]]></script>
</svg>
