<?xml version="1.0" encoding="UTF-8" standalone="no"?>
<!DOCTYPE svg PUBLIC "-//W3C//DTD SVG 1.1//EN"
 "http://www.w3.org/Graphics/SVG/1.1/DTD/svg11.dtd">
<!-- Generated by graphviz version 13.0.0 (20250608.1624)
 -->
<!-- Title: sfui::Window::requestPageSwitch Pages: 1 -->
<svg width="374pt" height="40pt"
 viewBox="0.00 0.00 374.00 40.00" xmlns="http://www.w3.org/2000/svg" xmlns:xlink="http://www.w3.org/1999/xlink">
<g id="graph0" class="graph" transform="scale(1 1) rotate(0) translate(4 36)">
<title>sfui::Window::requestPageSwitch</title>
<!-- Node1 -->
<g id="Node000001" class="node">
<title>Node1</title>
<g id="a_Node000001"><a xlink:title="切换到指定页面。">
<polygon fill="#999999" stroke="#666666" points="366,-32 232.25,-32 232.25,0 366,0 366,-32"/>
<text xml:space="preserve" text-anchor="start" x="240.25" y="-18.5" font-family="Helvetica,sans-Serif" font-size="10.00">sfui::Window::requestPage</text>
<text xml:space="preserve" text-anchor="middle" x="299.12" y="-6.5" font-family="Helvetica,sans-Serif" font-size="10.00">Switch</text>
</a>
</g>
</g>
<!-- Node2 -->
<g id="Node000002" class="node">
<title>Node2</title>
<g id="a_Node000002"><a xlink:href="classsfui_1_1_window.html#a2d60139900440e63f10e535d5287af9b" target="_top" xlink:title="显示首页并进入主循环。">
<polygon fill="white" stroke="#666666" points="196.25,-26 73,-26 73,-6 196.25,-6 196.25,-26"/>
<text xml:space="preserve" text-anchor="middle" x="134.62" y="-12.5" font-family="Helvetica,sans-Serif" font-size="10.00">sfui::Window::startShow</text>
</a>
</g>
</g>
<!-- Node1&#45;&gt;Node2 -->
<g id="edge1_Node000001_Node000002" class="edge">
<title>Node1&#45;&gt;Node2</title>
<g id="a_edge1_Node000001_Node000002"><a xlink:title=" ">
<path fill="none" stroke="#63b8ff" d="M220.7,-16C212.64,-16 204.53,-16 196.68,-16"/>
<polygon fill="#63b8ff" stroke="#63b8ff" points="220.52,-19.5 230.52,-16 220.52,-12.5 220.52,-19.5"/>
</a>
</g>
</g>
<!-- Node3 -->
<g id="Node000003" class="node">
<title>Node3</title>
<g id="a_Node000003"><a xlink:href="main_8cpp.html#a8216c1645620cdb2f629cde3ac02ffef" target="_top" xlink:title=" ">
<polygon fill="white" stroke="#666666" points="37,-26 0,-26 0,-6 37,-6 37,-26"/>
<text xml:space="preserve" text-anchor="middle" x="18.5" y="-12.5" font-family="Helvetica,sans-Serif" font-size="10.00">main</text>
</a>
</g>
</g>
<!-- Node2&#45;&gt;Node3 -->
<g id="edge2_Node000002_Node000003" class="edge">
<title>Node2&#45;&gt;Node3</title>
<g id="a_edge2_Node000002_Node000003"><a xlink:title=" ">
<path fill="none" stroke="#63b8ff" d="M61.18,-16C52.37,-16 44.09,-16 37.26,-16"/>
<polygon fill="#63b8ff" stroke="#63b8ff" points="61.04,-19.5 71.04,-16 61.04,-12.5 61.04,-19.5"/>
</a>
</g>
</g>
</g>
</svg>
