<?xml version="1.0" encoding="UTF-8" standalone="no"?>
<!DOCTYPE svg PUBLIC "-//W3C//DTD SVG 1.1//EN"
 "http://www.w3.org/Graphics/SVG/1.1/DTD/svg11.dtd">
<!-- Generated by graphviz version 13.0.0 (20250608.1624)
 -->
<!-- Title: game::MainMenuPage::MainMenuPage Pages: 1 -->
<svg width="530pt" height="112pt"
 viewBox="0.00 0.00 530.00 112.00" xmlns="http://www.w3.org/2000/svg" xmlns:xlink="http://www.w3.org/1999/xlink">
<g id="graph0" class="graph" transform="scale(1 1) rotate(0) translate(4 108)">
<title>game::MainMenuPage::MainMenuPage</title>
<!-- Node1 -->
<g id="Node000001" class="node">
<title>Node1</title>
<g id="a_Node000001"><a xlink:title=" ">
<polygon fill="#999999" stroke="#666666" points="113.5,-32 0,-32 0,0 113.5,0 113.5,-32"/>
<text xml:space="preserve" text-anchor="start" x="8" y="-18.5" font-family="Helvetica,sans-Serif" font-size="10.00">game::MainMenuPage</text>
<text xml:space="preserve" text-anchor="middle" x="56.75" y="-6.5" font-family="Helvetica,sans-Serif" font-size="10.00">::MainMenuPage</text>
</a>
</g>
</g>
<!-- Node2 -->
<g id="Node000002" class="node">
<title>Node2</title>
<g id="a_Node000002"><a xlink:href="classsfui_1_1_complex_page.html#a3c97d3fcf521310edbd6b77ec693e4e9" target="_top" xlink:title=" ">
<polygon fill="white" stroke="#666666" points="254.75,-54 149.5,-54 149.5,-22 254.75,-22 254.75,-54"/>
<text xml:space="preserve" text-anchor="start" x="157.5" y="-40.5" font-family="Helvetica,sans-Serif" font-size="10.00">sfui::ComplexPage::</text>
<text xml:space="preserve" text-anchor="middle" x="202.12" y="-28.5" font-family="Helvetica,sans-Serif" font-size="10.00">ComplexPage</text>
</a>
</g>
</g>
<!-- Node1&#45;&gt;Node2 -->
<g id="edge1_Node000001_Node000002" class="edge">
<title>Node1&#45;&gt;Node2</title>
<g id="a_edge1_Node000001_Node000002"><a xlink:title=" ">
<path fill="none" stroke="#63b8ff" d="M113.59,-24.57C121.61,-25.8 129.9,-27.07 138.05,-28.32"/>
<polygon fill="#63b8ff" stroke="#63b8ff" points="137.51,-31.78 147.92,-29.84 138.57,-24.86 137.51,-31.78"/>
</a>
</g>
</g>
<!-- Node4 -->
<g id="Node000004" class="node">
<title>Node4</title>
<g id="a_Node000004"><a xlink:href="classsfui_1_1_page.html#a1d645637dcd8fea7241f485ef4fe1b93" target="_top" xlink:title=" ">
<polygon fill="white" stroke="#666666" points="521.5,-48 432.75,-48 432.75,-28 521.5,-28 521.5,-48"/>
<text xml:space="preserve" text-anchor="middle" x="477.12" y="-34.5" font-family="Helvetica,sans-Serif" font-size="10.00">sfui::Page::Page</text>
</a>
</g>
</g>
<!-- Node1&#45;&gt;Node4 -->
<g id="edge6_Node000001_Node000004" class="edge">
<title>Node1&#45;&gt;Node4</title>
<g id="a_edge6_Node000001_Node000004"><a xlink:title=" ">
<path fill="none" stroke="#63b8ff" d="M113.93,-10.01C181.5,-4.07 298.15,2.16 396.75,-13 411.03,-15.2 426.27,-19.49 439.53,-23.91"/>
<polygon fill="#63b8ff" stroke="#63b8ff" points="438.12,-27.13 448.72,-27.11 440.42,-20.51 438.12,-27.13"/>
</a>
</g>
</g>
<!-- Node3 -->
<g id="Node000003" class="node">
<title>Node3</title>
<g id="a_Node000003"><a xlink:href="classsfui_1_1_control_page.html#afc330f12e794ff22b74203c5743bcc9f" target="_top" xlink:title=" ">
<polygon fill="white" stroke="#666666" points="392.62,-104 294.88,-104 294.88,-72 392.62,-72 392.62,-104"/>
<text xml:space="preserve" text-anchor="start" x="302.88" y="-90.5" font-family="Helvetica,sans-Serif" font-size="10.00">sfui::ControlPage::</text>
<text xml:space="preserve" text-anchor="middle" x="343.75" y="-78.5" font-family="Helvetica,sans-Serif" font-size="10.00">ControlPage</text>
</a>
</g>
</g>
<!-- Node2&#45;&gt;Node3 -->
<g id="edge2_Node000002_Node000003" class="edge">
<title>Node2&#45;&gt;Node3</title>
<g id="a_edge2_Node000002_Node000003"><a xlink:title=" ">
<path fill="none" stroke="#63b8ff" d="M248.84,-54.37C260.78,-58.65 273.78,-63.3 286.2,-67.75"/>
<polygon fill="#63b8ff" stroke="#63b8ff" points="284.91,-71 295.5,-71.08 287.27,-64.41 284.91,-71"/>
</a>
</g>
</g>
<!-- Node5 -->
<g id="Node000005" class="node">
<title>Node5</title>
<g id="a_Node000005"><a xlink:href="classsfui_1_1_interactive_page.html#ac553cc6c1df69243d54a316f67aa5f45" target="_top" xlink:title=" ">
<polygon fill="white" stroke="#666666" points="396.75,-54 290.75,-54 290.75,-22 396.75,-22 396.75,-54"/>
<text xml:space="preserve" text-anchor="start" x="298.75" y="-40.5" font-family="Helvetica,sans-Serif" font-size="10.00">sfui::InteractivePage</text>
<text xml:space="preserve" text-anchor="middle" x="343.75" y="-28.5" font-family="Helvetica,sans-Serif" font-size="10.00">::InteractivePage</text>
</a>
</g>
</g>
<!-- Node2&#45;&gt;Node5 -->
<g id="edge4_Node000002_Node000005" class="edge">
<title>Node2&#45;&gt;Node5</title>
<g id="a_edge4_Node000002_Node000005"><a xlink:title=" ">
<path fill="none" stroke="#63b8ff" d="M255.12,-38C263.02,-38 271.25,-38 279.37,-38"/>
<polygon fill="#63b8ff" stroke="#63b8ff" points="279.2,-41.5 289.2,-38 279.2,-34.5 279.2,-41.5"/>
</a>
</g>
</g>
<!-- Node3&#45;&gt;Node4 -->
<g id="edge3_Node000003_Node000004" class="edge">
<title>Node3&#45;&gt;Node4</title>
<g id="a_edge3_Node000003_Node000004"><a xlink:title=" ">
<path fill="none" stroke="#63b8ff" d="M387.77,-71.63C404.06,-65.43 422.48,-58.42 438.26,-52.41"/>
<polygon fill="#63b8ff" stroke="#63b8ff" points="439.2,-55.8 447.3,-48.97 436.71,-49.26 439.2,-55.8"/>
</a>
</g>
</g>
<!-- Node5&#45;&gt;Node4 -->
<g id="edge5_Node000005_Node000004" class="edge">
<title>Node5&#45;&gt;Node4</title>
<g id="a_edge5_Node000005_Node000004"><a xlink:title=" ">
<path fill="none" stroke="#63b8ff" d="M397.05,-38C404.93,-38 413.09,-38 421.03,-38"/>
<polygon fill="#63b8ff" stroke="#63b8ff" points="420.94,-41.5 430.94,-38 420.94,-34.5 420.94,-41.5"/>
</a>
</g>
</g>
</g>
</svg>
