<?xml version="1.0" encoding="UTF-8" standalone="no"?>
<!DOCTYPE svg PUBLIC "-//W3C//DTD SVG 1.1//EN"
 "http://www.w3.org/Graphics/SVG/1.1/DTD/svg11.dtd">
<!-- Generated by graphviz version 13.0.0 (20250608.1624)
 -->
<!-- Title: sfui::InputBox Pages: 1 -->
<svg width="252pt" height="102pt"
 viewBox="0.00 0.00 252.00 102.00" xmlns="http://www.w3.org/2000/svg" xmlns:xlink="http://www.w3.org/1999/xlink">

<svg id="main" version="1.1" xmlns="http://www.w3.org/2000/svg" xmlns:xlink="http://www.w3.org/1999/xlink" xml:space="preserve">

<style type="text/css"><![CDATA[
.node, .edge {opacity: 0.7;}
.node.selected, .edge.selected {opacity: 1;}
.edge:hover path { stroke: red; }
.edge:hover polygon { stroke: red; fill: red; }
]]></style>
<script type="application/ecmascript" xlink:href="svg.min.js"/>
<svg id="graph" class="graph">
<g id="graph0" class="graph" transform="scale(1 1) rotate(0) translate(4 98)">
<title>sfui::InputBox</title>
<!-- Node1 -->
<g id="Node000001" class="node">
<title>Node1</title>
<g id="a_Node000001"><a xlink:title=" ">
<polygon fill="#999999" stroke="#666666" points="159.25,-20 82.5,-20 82.5,0 159.25,0 159.25,-20"/>
<text xml:space="preserve" text-anchor="middle" x="120.88" y="-6.5" font-family="Helvetica,sans-Serif" font-size="10.00">sfui::InputBox</text>
</a>
</g>
</g>
<!-- Node2 -->
<g id="Node000002" class="node">
<title>Node2</title>
<g id="a_Node000002"><a xlink:href="classsfui_1_1_text_box.html" target="_top" xlink:title="文本框控件，支持自定义字体、颜色、内容、位置等">
<polygon fill="white" stroke="#666666" points="73.75,-94 0,-94 0,-74 73.75,-74 73.75,-94"/>
<text xml:space="preserve" text-anchor="middle" x="36.88" y="-80.5" font-family="Helvetica,sans-Serif" font-size="10.00">sfui::TextBox</text>
</a>
</g>
</g>
<!-- Node2&#45;&gt;Node1 -->
<g id="edge1_Node000001_Node000002" class="edge">
<title>Node2&#45;&gt;Node1</title>
<g id="a_edge1_Node000001_Node000002"><a xlink:title=" ">
<path fill="none" stroke="#9a32cd" stroke-dasharray="5,2" d="M45.92,-63.6C50.69,-54.93 57.2,-45.1 65.12,-38 73.37,-30.61 84.01,-24.79 93.78,-20.48"/>
<polygon fill="#9a32cd" stroke="#9a32cd" points="42.9,-61.8 41.52,-72.3 49.15,-64.96 42.9,-61.8"/>
</a>
</g>
<text xml:space="preserve" text-anchor="start" x="68.12" y="-43.5" font-family="Helvetica,sans-Serif" font-size="10.00" fill="grey">m_textbox</text>
</g>
<!-- Node3 -->
<g id="Node000003" class="node">
<title>Node3</title>
<g id="a_Node000003"><a xlink:href="classsfui_1_1_area.html" target="_top" xlink:title="区域类，表示一个矩形区域，支持判定点是否在区域内">
<polygon fill="white" stroke="#666666" points="149.88,-94 91.88,-94 91.88,-74 149.88,-74 149.88,-94"/>
<text xml:space="preserve" text-anchor="middle" x="120.88" y="-80.5" font-family="Helvetica,sans-Serif" font-size="10.00">sfui::Area</text>
</a>
</g>
</g>
<!-- Node3&#45;&gt;Node1 -->
<g id="edge2_Node000001_Node000003" class="edge">
<title>Node3&#45;&gt;Node1</title>
<g id="a_edge2_Node000001_Node000003"><a xlink:title=" ">
<path fill="none" stroke="#9a32cd" stroke-dasharray="5,2" d="M120.88,-62.18C120.88,-48.29 120.88,-30.71 120.88,-20.19"/>
<polygon fill="#9a32cd" stroke="#9a32cd" points="117.38,-62.07 120.88,-72.07 124.38,-62.07 117.38,-62.07"/>
</a>
</g>
<text xml:space="preserve" text-anchor="start" x="123.88" y="-43.5" font-family="Helvetica,sans-Serif" font-size="10.00" fill="grey">m_inputArea</text>
</g>
<!-- Node4 -->
<g id="Node000004" class="node">
<title>Node4</title>
<g id="a_Node000004"><a xlink:href="classsfui_1_1_mouse.html" target="_top" xlink:title="实时鼠标操作类">
<polygon fill="white" stroke="#666666" points="238.38,-94 171.38,-94 171.38,-74 238.38,-74 238.38,-94"/>
<text xml:space="preserve" text-anchor="middle" x="204.88" y="-80.5" font-family="Helvetica,sans-Serif" font-size="10.00">sfui::Mouse</text>
</a>
</g>
</g>
<!-- Node4&#45;&gt;Node1 -->
<g id="edge3_Node000001_Node000004" class="edge">
<title>Node4&#45;&gt;Node1</title>
<g id="a_edge3_Node000001_Node000004"><a xlink:title=" ">
<path fill="none" stroke="#9a32cd" stroke-dasharray="5,2" d="M198.57,-62.87C195.07,-54.32 189.96,-44.78 182.88,-38 174.82,-30.29 164.2,-24.58 154.04,-20.46"/>
<polygon fill="#9a32cd" stroke="#9a32cd" points="195.22,-63.89 201.88,-72.14 201.82,-61.54 195.22,-63.89"/>
</a>
</g>
<text xml:space="preserve" text-anchor="start" x="198.33" y="-43.5" font-family="Helvetica,sans-Serif" font-size="10.00" fill="grey">m_mouse</text>
</g>
</g>
</svg>
</svg>

<style type='text/css'>
<![CDATA[
[data-mouse-over-selected='false'] { opacity: 0.7; }
[data-mouse-over-selected='true']  { opacity: 1.0; }
]]>
</style>
<script type="application/ecmascript"><![CDATA[
document.addEventListener('DOMContentLoaded', (event) => {
  highlightEdges();
  highlightAdjacentNodes();
});
]]></script>
</svg>
