<?xml version="1.0" encoding="UTF-8" standalone="no"?>
<!DOCTYPE svg PUBLIC "-//W3C//DTD SVG 1.1//EN"
 "http://www.w3.org/Graphics/SVG/1.1/DTD/svg11.dtd">
<!-- Generated by graphviz version 13.0.0 (20250608.1624)
 -->
<!-- Title: sfui::Window::procesMessage Pages: 1 -->
<svg width="388pt" height="28pt"
 viewBox="0.00 0.00 388.00 28.00" xmlns="http://www.w3.org/2000/svg" xmlns:xlink="http://www.w3.org/1999/xlink">
<g id="graph0" class="graph" transform="scale(1 1) rotate(0) translate(4 24)">
<title>sfui::Window::procesMessage</title>
<!-- Node1 -->
<g id="Node000001" class="node">
<title>Node1</title>
<g id="a_Node000001"><a xlink:title="处理窗口和页面事件，收到关闭事件时关闭窗口。">
<polygon fill="#999999" stroke="#666666" points="380.25,-20 232.25,-20 232.25,0 380.25,0 380.25,-20"/>
<text xml:space="preserve" text-anchor="middle" x="306.25" y="-6.5" font-family="Helvetica,sans-Serif" font-size="10.00">sfui::Window::procesMessage</text>
</a>
</g>
</g>
<!-- Node2 -->
<g id="Node000002" class="node">
<title>Node2</title>
<g id="a_Node000002"><a xlink:href="classsfui_1_1_window.html#a2d60139900440e63f10e535d5287af9b" target="_top" xlink:title="显示首页并进入主循环。">
<polygon fill="white" stroke="#666666" points="196.25,-20 73,-20 73,0 196.25,0 196.25,-20"/>
<text xml:space="preserve" text-anchor="middle" x="134.62" y="-6.5" font-family="Helvetica,sans-Serif" font-size="10.00">sfui::Window::startShow</text>
</a>
</g>
</g>
<!-- Node1&#45;&gt;Node2 -->
<g id="edge1_Node000001_Node000002" class="edge">
<title>Node1&#45;&gt;Node2</title>
<g id="a_edge1_Node000001_Node000002"><a xlink:title=" ">
<path fill="none" stroke="#63b8ff" d="M220.5,-10C212.47,-10 204.43,-10 196.68,-10"/>
<polygon fill="#63b8ff" stroke="#63b8ff" points="220.32,-13.5 230.32,-10 220.32,-6.5 220.32,-13.5"/>
</a>
</g>
</g>
<!-- Node3 -->
<g id="Node000003" class="node">
<title>Node3</title>
<g id="a_Node000003"><a xlink:href="main_8cpp.html#a8216c1645620cdb2f629cde3ac02ffef" target="_top" xlink:title=" ">
<polygon fill="white" stroke="#666666" points="37,-20 0,-20 0,0 37,0 37,-20"/>
<text xml:space="preserve" text-anchor="middle" x="18.5" y="-6.5" font-family="Helvetica,sans-Serif" font-size="10.00">main</text>
</a>
</g>
</g>
<!-- Node2&#45;&gt;Node3 -->
<g id="edge2_Node000002_Node000003" class="edge">
<title>Node2&#45;&gt;Node3</title>
<g id="a_edge2_Node000002_Node000003"><a xlink:title=" ">
<path fill="none" stroke="#63b8ff" d="M61.18,-10C52.37,-10 44.09,-10 37.26,-10"/>
<polygon fill="#63b8ff" stroke="#63b8ff" points="61.04,-13.5 71.04,-10 61.04,-6.5 61.04,-13.5"/>
</a>
</g>
</g>
</g>
</svg>
