<?xml version="1.0" encoding="UTF-8" standalone="no"?>
<!DOCTYPE svg PUBLIC "-//W3C//DTD SVG 1.1//EN"
 "http://www.w3.org/Graphics/SVG/1.1/DTD/svg11.dtd">
<!-- Generated by graphviz version 13.0.0 (20250608.1624)
 -->
<!-- Title: game::GamePage Pages: 1 -->
<svg width="477pt" height="323pt"
 viewBox="0.00 0.00 477.00 323.00" xmlns="http://www.w3.org/2000/svg" xmlns:xlink="http://www.w3.org/1999/xlink">

<svg id="main" version="1.1" xmlns="http://www.w3.org/2000/svg" xmlns:xlink="http://www.w3.org/1999/xlink" xml:space="preserve">

<style type="text/css"><![CDATA[
.node, .edge {opacity: 0.7;}
.node.selected, .edge.selected {opacity: 1;}
.edge:hover path { stroke: red; }
.edge:hover polygon { stroke: red; fill: red; }
]]></style>
<script type="application/ecmascript" xlink:href="svg.min.js"/>
<svg id="graph" class="graph">
<g id="graph0" class="graph" transform="scale(1 1) rotate(0) translate(4 319)">
<title>game::GamePage</title>
<!-- Node1 -->
<g id="Node000001" class="node">
<title>Node1</title>
<g id="a_Node000001"><a xlink:title=" ">
<polygon fill="#999999" stroke="#666666" points="329.88,-20 235.12,-20 235.12,0 329.88,0 329.88,-20"/>
<text xml:space="preserve" text-anchor="middle" x="282.5" y="-6.5" font-family="Helvetica,sans-Serif" font-size="10.00">game::GamePage</text>
</a>
</g>
</g>
<!-- Node2 -->
<g id="Node000002" class="node">
<title>Node2</title>
<g id="a_Node000002"><a xlink:href="classsfui_1_1_complex_page.html" target="_top" xlink:title="混合界面类，结合了交互页面和控件页面的功能">
<polygon fill="white" stroke="#666666" points="282.12,-110 182.88,-110 182.88,-90 282.12,-90 282.12,-110"/>
<text xml:space="preserve" text-anchor="middle" x="232.5" y="-96.5" font-family="Helvetica,sans-Serif" font-size="10.00">sfui::ComplexPage</text>
</a>
</g>
</g>
<!-- Node2&#45;&gt;Node1 -->
<g id="edge1_Node000001_Node000002" class="edge">
<title>Node2&#45;&gt;Node1</title>
<g id="a_edge1_Node000001_Node000002"><a xlink:title=" ">
<path fill="none" stroke="#63b8ff" d="M243.49,-79.66C253.94,-61.27 269.2,-34.4 277.19,-20.35"/>
<polygon fill="#63b8ff" stroke="#63b8ff" points="240.5,-77.84 238.6,-88.27 246.58,-81.3 240.5,-77.84"/>
</a>
</g>
</g>
<!-- Node3 -->
<g id="Node000003" class="node">
<title>Node3</title>
<g id="a_Node000003"><a xlink:href="classsfui_1_1_interactive_page.html" target="_top" xlink:title="动态或实时更新的交互页面，视图中心可自定义">
<polygon fill="white" stroke="#666666" points="173.5,-184 67.5,-184 67.5,-164 173.5,-164 173.5,-184"/>
<text xml:space="preserve" text-anchor="middle" x="120.5" y="-170.5" font-family="Helvetica,sans-Serif" font-size="10.00">sfui::InteractivePage</text>
</a>
</g>
</g>
<!-- Node3&#45;&gt;Node2 -->
<g id="edge2_Node000002_Node000003" class="edge">
<title>Node3&#45;&gt;Node2</title>
<g id="a_edge2_Node000002_Node000003"><a xlink:title=" ">
<path fill="none" stroke="#63b8ff" d="M144.58,-157.52C166.85,-143.2 199.24,-122.38 217.85,-110.42"/>
<polygon fill="#63b8ff" stroke="#63b8ff" points="142.93,-154.42 136.42,-162.77 146.72,-160.31 142.93,-154.42"/>
</a>
</g>
</g>
<!-- Node4 -->
<g id="Node000004" class="node">
<title>Node4</title>
<g id="a_Node000004"><a xlink:href="classsfui_1_1_page.html" target="_top" xlink:title="前置声明窗口类">
<polygon fill="white" stroke="#666666" points="208.62,-241 148.38,-241 148.38,-221 208.62,-221 208.62,-241"/>
<text xml:space="preserve" text-anchor="middle" x="178.5" y="-227.5" font-family="Helvetica,sans-Serif" font-size="10.00">sfui::Page</text>
</a>
</g>
</g>
<!-- Node4&#45;&gt;Node3 -->
<g id="edge3_Node000003_Node000004" class="edge">
<title>Node4&#45;&gt;Node3</title>
<g id="a_edge3_Node000003_Node000004"><a xlink:title=" ">
<path fill="none" stroke="#63b8ff" d="M160.54,-212.97C150.53,-203.47 138.45,-192.02 130.19,-184.19"/>
<polygon fill="#63b8ff" stroke="#63b8ff" points="157.9,-215.29 167.56,-219.63 162.71,-210.21 157.9,-215.29"/>
</a>
</g>
</g>
<!-- Node9 -->
<g id="Node000009" class="node">
<title>Node9</title>
<g id="a_Node000009"><a xlink:href="classsfui_1_1_control_page.html" target="_top" xlink:title="UI 控件页面，视图大小等于窗口大小，(0,0)为左上角">
<polygon fill="white" stroke="#666666" points="283.38,-184 191.62,-184 191.62,-164 283.38,-164 283.38,-184"/>
<text xml:space="preserve" text-anchor="middle" x="237.5" y="-170.5" font-family="Helvetica,sans-Serif" font-size="10.00">sfui::ControlPage</text>
</a>
</g>
</g>
<!-- Node4&#45;&gt;Node9 -->
<g id="edge9_Node000009_Node000004" class="edge">
<title>Node4&#45;&gt;Node9</title>
<g id="a_edge9_Node000009_Node000004"><a xlink:title=" ">
<path fill="none" stroke="#63b8ff" d="M196.77,-212.97C206.96,-203.47 219.24,-192.02 227.64,-184.19"/>
<polygon fill="#63b8ff" stroke="#63b8ff" points="194.54,-210.26 189.62,-219.64 199.32,-215.38 194.54,-210.26"/>
</a>
</g>
</g>
<!-- Node5 -->
<g id="Node000005" class="node">
<title>Node5</title>
<g id="a_Node000005"><a xlink:href="classsfui_1_1_window.html" target="_top" xlink:title="窗口类，负责窗口创建、页面管理、事件循环、全屏切换等。">
<polygon fill="white" stroke="#666666" points="73,-315 0,-315 0,-295 73,-295 73,-315"/>
<text xml:space="preserve" text-anchor="middle" x="36.5" y="-301.5" font-family="Helvetica,sans-Serif" font-size="10.00">sfui::Window</text>
</a>
</g>
</g>
<!-- Node5&#45;&gt;Node4 -->
<g id="edge4_Node000004_Node000005" class="edge">
<title>Node5&#45;&gt;Node4</title>
<g id="a_edge4_Node000004_Node000005"><a xlink:title=" ">
<path fill="none" stroke="#9a32cd" stroke-dasharray="5,2" d="M51.4,-286.12C60,-276.83 71.51,-266 83.75,-259 103.65,-247.63 128.68,-240.76 148.01,-236.8"/>
<polygon fill="#9a32cd" stroke="#9a32cd" points="48.84,-283.73 44.86,-293.55 54.09,-288.36 48.84,-283.73"/>
</a>
</g>
<text xml:space="preserve" text-anchor="start" x="86.75" y="-264.5" font-family="Helvetica,sans-Serif" font-size="10.00" fill="grey">mp_window</text>
</g>
<!-- Node6 -->
<g id="Node000006" class="node">
<title>Node6</title>
<g id="a_Node000006"><a xlink:href="classsfui_1_1_mouse.html" target="_top" xlink:title="实时鼠标操作类">
<polygon fill="white" stroke="#666666" points="158,-315 91,-315 91,-295 158,-295 158,-315"/>
<text xml:space="preserve" text-anchor="middle" x="124.5" y="-301.5" font-family="Helvetica,sans-Serif" font-size="10.00">sfui::Mouse</text>
</a>
</g>
</g>
<!-- Node6&#45;&gt;Node4 -->
<g id="edge5_Node000004_Node000006" class="edge">
<title>Node6&#45;&gt;Node4</title>
<g id="a_edge5_Node000004_Node000006"><a xlink:title=" ">
<path fill="none" stroke="#9a32cd" stroke-dasharray="5,2" d="M138.24,-285.68C148.9,-271.47 163.23,-252.36 171.61,-241.19"/>
<polygon fill="#9a32cd" stroke="#9a32cd" points="135.67,-283.28 132.47,-293.38 141.27,-287.48 135.67,-283.28"/>
</a>
</g>
<text xml:space="preserve" text-anchor="start" x="160.92" y="-264.5" font-family="Helvetica,sans-Serif" font-size="10.00" fill="grey">m_mouse</text>
</g>
<!-- Node7 -->
<g id="Node000007" class="node">
<title>Node7</title>
<g id="a_Node000007"><a xlink:href="classsfui_1_1_active_key_binding.html" target="_top" xlink:title="按键状态与行为的映射类">
<polygon fill="white" stroke="#666666" points="291,-315 176,-315 176,-295 291,-295 291,-315"/>
<text xml:space="preserve" text-anchor="middle" x="233.5" y="-301.5" font-family="Helvetica,sans-Serif" font-size="10.00">sfui::ActiveKeyBinding</text>
</a>
</g>
</g>
<!-- Node7&#45;&gt;Node4 -->
<g id="edge6_Node000004_Node000007" class="edge">
<title>Node7&#45;&gt;Node4</title>
<g id="a_edge6_Node000004_Node000007"><a xlink:title=" ">
<path fill="none" stroke="#9a32cd" stroke-dasharray="5,2" d="M225.59,-284.47C221.72,-276.16 216.58,-266.65 210.5,-259 205.26,-252.4 198.19,-246.23 192.04,-241.47"/>
<polygon fill="#9a32cd" stroke="#9a32cd" points="222.26,-285.58 229.45,-293.37 228.68,-282.8 222.26,-285.58"/>
</a>
</g>
<text xml:space="preserve" text-anchor="start" x="224.63" y="-264.5" font-family="Helvetica,sans-Serif" font-size="10.00" fill="grey">m_activeKeyBinding</text>
</g>
<!-- Node8 -->
<g id="Node000008" class="node">
<title>Node8</title>
<g id="a_Node000008"><a xlink:href="classsfui_1_1_evect_bingding.html" target="_top" xlink:title="按键和鼠标事件与行为的映射类">
<polygon fill="white" stroke="#666666" points="409.88,-315 309.12,-315 309.12,-295 409.88,-295 409.88,-315"/>
<text xml:space="preserve" text-anchor="middle" x="359.5" y="-301.5" font-family="Helvetica,sans-Serif" font-size="10.00">sfui::EvectBingding</text>
</a>
</g>
</g>
<!-- Node8&#45;&gt;Node4 -->
<g id="edge7_Node000004_Node000008" class="edge">
<title>Node8&#45;&gt;Node4</title>
<g id="a_edge7_Node000004_Node000008"><a xlink:title=" ">
<path fill="none" stroke="#9a32cd" stroke-dasharray="5,2" d="M347.84,-285.4C341.01,-276.04 331.55,-265.36 320.5,-259 285.81,-239.03 239.23,-233.47 209.03,-232.11"/>
<polygon fill="#9a32cd" stroke="#9a32cd" points="344.83,-287.2 353.33,-293.52 350.63,-283.28 344.83,-287.2"/>
</a>
</g>
<text xml:space="preserve" text-anchor="start" x="344.15" y="-264.5" font-family="Helvetica,sans-Serif" font-size="10.00" fill="grey">m_eventBinding</text>
</g>
<!-- Node9&#45;&gt;Node2 -->
<g id="edge8_Node000002_Node000009" class="edge">
<title>Node9&#45;&gt;Node2</title>
<g id="a_edge8_Node000002_Node000009"><a xlink:title=" ">
<path fill="none" stroke="#63b8ff" d="M236.05,-152.18C235.09,-138.29 233.87,-120.71 233.14,-110.19"/>
<polygon fill="#63b8ff" stroke="#63b8ff" points="232.56,-152.34 236.74,-162.08 239.54,-151.86 232.56,-152.34"/>
</a>
</g>
</g>
<!-- Node10 -->
<g id="Node000010" class="node">
<title>Node10</title>
<g id="a_Node000010"><a xlink:href="classsfui_1_1_button.html" target="_top" xlink:title="按钮类，封装贴图和区域">
<polygon fill="white" stroke="#666666" points="366.62,-110 300.38,-110 300.38,-90 366.62,-90 366.62,-110"/>
<text xml:space="preserve" text-anchor="middle" x="333.5" y="-96.5" font-family="Helvetica,sans-Serif" font-size="10.00">sfui::Button</text>
</a>
</g>
</g>
<!-- Node10&#45;&gt;Node1 -->
<g id="edge10_Node000001_Node000010" class="edge">
<title>Node10&#45;&gt;Node1</title>
<g id="a_edge10_Node000001_Node000010"><a xlink:title=" ">
<path fill="none" stroke="#9a32cd" stroke-dasharray="5,2" d="M322.29,-79.66C311.64,-61.27 296.06,-34.4 287.92,-20.35"/>
<polygon fill="#9a32cd" stroke="#9a32cd" points="319.24,-81.38 327.28,-88.27 325.3,-77.87 319.24,-81.38"/>
</a>
</g>
<text xml:space="preserve" text-anchor="start" x="320" y="-59.5" font-family="Helvetica,sans-Serif" font-size="10.00" fill="grey">returnGameButton</text>
<text xml:space="preserve" text-anchor="start" x="320" y="-43.5" font-family="Helvetica,sans-Serif" font-size="10.00" fill="grey">returnMainPageButton</text>
</g>
<!-- Node11 -->
<g id="Node000011" class="node">
<title>Node11</title>
<g id="a_Node000011"><a xlink:href="classsfui_1_1_area.html" target="_top" xlink:title="区域类，表示一个矩形区域，支持判定点是否在区域内">
<polygon fill="white" stroke="#666666" points="361.5,-184 303.5,-184 303.5,-164 361.5,-164 361.5,-184"/>
<text xml:space="preserve" text-anchor="middle" x="332.5" y="-170.5" font-family="Helvetica,sans-Serif" font-size="10.00">sfui::Area</text>
</a>
</g>
</g>
<!-- Node11&#45;&gt;Node10 -->
<g id="edge11_Node000010_Node000011" class="edge">
<title>Node11&#45;&gt;Node10</title>
<g id="a_edge11_Node000010_Node000011"><a xlink:title=" ">
<path fill="none" stroke="#9a32cd" stroke-dasharray="5,2" d="M332.79,-152.18C332.98,-138.29 333.23,-120.71 333.37,-110.19"/>
<polygon fill="#9a32cd" stroke="#9a32cd" points="329.29,-152.03 332.65,-162.07 336.29,-152.12 329.29,-152.03"/>
</a>
</g>
<text xml:space="preserve" text-anchor="start" x="336.12" y="-133.5" font-family="Helvetica,sans-Serif" font-size="10.00" fill="grey">m_area</text>
</g>
<!-- Node12 -->
<g id="Node000012" class="node">
<title>Node12</title>
<g id="a_Node000012"><a xlink:href="classsfui_1_1_texture_item.html" target="_top" xlink:title="贴图项，封装SFML贴图，支持加载、缩放、位置设置等">
<polygon fill="white" stroke="#666666" points="469.25,-184 379.75,-184 379.75,-164 469.25,-164 469.25,-184"/>
<text xml:space="preserve" text-anchor="middle" x="424.5" y="-170.5" font-family="Helvetica,sans-Serif" font-size="10.00">sfui::TextureItem</text>
</a>
</g>
</g>
<!-- Node12&#45;&gt;Node10 -->
<g id="edge12_Node000010_Node000012" class="edge">
<title>Node12&#45;&gt;Node10</title>
<g id="a_edge12_Node000010_Node000012"><a xlink:title=" ">
<path fill="none" stroke="#9a32cd" stroke-dasharray="5,2" d="M407,-155.56C397.93,-146.88 386.47,-136.47 375.5,-128 367.26,-121.65 357.52,-115.32 349.49,-110.38"/>
<polygon fill="#9a32cd" stroke="#9a32cd" points="404.48,-158 414.08,-162.47 409.37,-152.98 404.48,-158"/>
</a>
</g>
<text xml:space="preserve" text-anchor="start" x="399.41" y="-133.5" font-family="Helvetica,sans-Serif" font-size="10.00" fill="grey">m_textureItem</text>
</g>
</g>
</svg>
</svg>

<style type='text/css'>
<![CDATA[
[data-mouse-over-selected='false'] { opacity: 0.7; }
[data-mouse-over-selected='true']  { opacity: 1.0; }
]]>
</style>
<script type="application/ecmascript"><![CDATA[
document.addEventListener('DOMContentLoaded', (event) => {
  highlightEdges();
  highlightAdjacentNodes();
});
]]></script>
</svg>
