<?xml version="1.0" encoding="UTF-8" standalone="no"?>
<!DOCTYPE svg PUBLIC "-//W3C//DTD SVG 1.1//EN"
 "http://www.w3.org/Graphics/SVG/1.1/DTD/svg11.dtd">
<!-- Generated by graphviz version 13.0.0 (20250608.1624)
 -->
<!-- Title: sfui::Page::eventMap Pages: 1 -->
<svg width="306pt" height="90pt"
 viewBox="0.00 0.00 306.00 90.00" xmlns="http://www.w3.org/2000/svg" xmlns:xlink="http://www.w3.org/1999/xlink">
<g id="graph0" class="graph" transform="scale(1 1) rotate(0) translate(4 86)">
<title>sfui::Page::eventMap</title>
<!-- Node1 -->
<g id="Node000001" class="node">
<title>Node1</title>
<g id="a_Node000001"><a xlink:title="绑定按键与行为（事件输入）">
<polygon fill="#999999" stroke="#666666" points="298.25,-51 189.25,-51 189.25,-31 298.25,-31 298.25,-51"/>
<text xml:space="preserve" text-anchor="middle" x="243.75" y="-37.5" font-family="Helvetica,sans-Serif" font-size="10.00">sfui::Page::eventMap</text>
</a>
</g>
</g>
<!-- Node2 -->
<g id="Node000002" class="node">
<title>Node2</title>
<g id="a_Node000002"><a xlink:href="classgame_1_1_game_page.html#add53e04151e73fdb529bd926baaad85e" target="_top" xlink:title="初始化消息与事件绑定（纯虚函数，需子类实现）">
<polygon fill="white" stroke="#666666" points="153.25,-82 0,-82 0,-50 153.25,-50 153.25,-82"/>
<text xml:space="preserve" text-anchor="start" x="8" y="-68.5" font-family="Helvetica,sans-Serif" font-size="10.00">game::GamePage::initMessage</text>
<text xml:space="preserve" text-anchor="middle" x="76.62" y="-56.5" font-family="Helvetica,sans-Serif" font-size="10.00">Binding</text>
</a>
</g>
</g>
<!-- Node1&#45;&gt;Node2 -->
<g id="edge1_Node000001_Node000002" class="edge">
<title>Node1&#45;&gt;Node2</title>
<g id="a_edge1_Node000001_Node000002"><a xlink:title=" ">
<path fill="none" stroke="#63b8ff" d="M177.96,-50.81C169.92,-52.03 161.65,-53.28 153.46,-54.52"/>
<polygon fill="#63b8ff" stroke="#63b8ff" points="178.28,-54.3 187.64,-49.34 177.23,-47.38 178.28,-54.3"/>
</a>
</g>
</g>
<!-- Node3 -->
<g id="Node000003" class="node">
<title>Node3</title>
<g id="a_Node000003"><a xlink:href="classgame_1_1_pause_game_page.html#a8a95bf5893cfc470c077e362231ccd35" target="_top" xlink:title="初始化消息与事件绑定（纯虚函数，需子类实现）">
<polygon fill="white" stroke="#666666" points="137.88,-32 15.38,-32 15.38,0 137.88,0 137.88,-32"/>
<text xml:space="preserve" text-anchor="start" x="23.38" y="-18.5" font-family="Helvetica,sans-Serif" font-size="10.00">game::PauseGamePage</text>
<text xml:space="preserve" text-anchor="middle" x="76.62" y="-6.5" font-family="Helvetica,sans-Serif" font-size="10.00">::initMessageBinding</text>
</a>
</g>
</g>
<!-- Node1&#45;&gt;Node3 -->
<g id="edge2_Node000001_Node000003" class="edge">
<title>Node1&#45;&gt;Node3</title>
<g id="a_edge2_Node000001_Node000003"><a xlink:title=" ">
<path fill="none" stroke="#63b8ff" d="M177.84,-31.17C164.75,-29.19 151.05,-27.12 138.12,-25.16"/>
<polygon fill="#63b8ff" stroke="#63b8ff" points="177.23,-34.62 187.64,-32.66 178.28,-27.7 177.23,-34.62"/>
</a>
</g>
</g>
</g>
</svg>
