<?xml version="1.0" encoding="UTF-8" standalone="no"?>
<!DOCTYPE svg PUBLIC "-//W3C//DTD SVG 1.1//EN"
 "http://www.w3.org/Graphics/SVG/1.1/DTD/svg11.dtd">
<!-- Generated by graphviz version 13.0.0 (20250608.1624)
 -->
<!-- Title: sfui::Page::Page Pages: 1 -->
<svg width="566pt" height="139pt"
 viewBox="0.00 0.00 566.00 139.00" xmlns="http://www.w3.org/2000/svg" xmlns:xlink="http://www.w3.org/1999/xlink">
<g id="graph0" class="graph" transform="scale(1 1) rotate(0) translate(4 134.54)">
<title>sfui::Page::Page</title>
<!-- Node1 -->
<g id="Node000001" class="node">
<title>Node1</title>
<g id="a_Node000001"><a xlink:title=" ">
<polygon fill="#999999" stroke="#666666" points="557.5,-75.2 468.75,-75.2 468.75,-55.2 557.5,-55.2 557.5,-75.2"/>
<text xml:space="preserve" text-anchor="middle" x="513.12" y="-61.7" font-family="Helvetica,sans-Serif" font-size="10.00">sfui::Page::Page</text>
</a>
</g>
</g>
<!-- Node2 -->
<g id="Node000002" class="node">
<title>Node2</title>
<g id="a_Node000002"><a xlink:href="classsfui_1_1_control_page.html#afc330f12e794ff22b74203c5743bcc9f" target="_top" xlink:title=" ">
<polygon fill="white" stroke="#666666" points="428.62,-56.2 330.88,-56.2 330.88,-24.2 428.62,-24.2 428.62,-56.2"/>
<text xml:space="preserve" text-anchor="start" x="338.88" y="-42.7" font-family="Helvetica,sans-Serif" font-size="10.00">sfui::ControlPage::</text>
<text xml:space="preserve" text-anchor="middle" x="379.75" y="-30.7" font-family="Helvetica,sans-Serif" font-size="10.00">ControlPage</text>
</a>
</g>
</g>
<!-- Node1&#45;&gt;Node2 -->
<g id="edge1_Node000001_Node000002" class="edge">
<title>Node1&#45;&gt;Node2</title>
<g id="a_edge1_Node000001_Node000002"><a xlink:title=" ">
<path fill="none" stroke="#63b8ff" d="M457.12,-54.73C447.72,-52.94 438.03,-51.09 428.83,-49.34"/>
<polygon fill="#63b8ff" stroke="#63b8ff" points="456.41,-58.16 466.89,-56.59 457.72,-51.28 456.41,-58.16"/>
</a>
</g>
</g>
<!-- Node4 -->
<g id="Node000004" class="node">
<title>Node4</title>
<g id="a_Node000004"><a xlink:href="classgame_1_1_game_page.html#a91af173bceb6cb36da8332f25e8b7183" target="_top" xlink:title=" ">
<polygon fill="white" stroke="#666666" points="149.5,-103.2 0,-103.2 0,-83.2 149.5,-83.2 149.5,-103.2"/>
<text xml:space="preserve" text-anchor="middle" x="74.75" y="-89.7" font-family="Helvetica,sans-Serif" font-size="10.00">game::GamePage::GamePage</text>
</a>
</g>
</g>
<!-- Node1&#45;&gt;Node4 -->
<g id="edge5_Node000001_Node000004" class="edge">
<title>Node1&#45;&gt;Node4</title>
<g id="a_edge5_Node000001_Node000004"><a xlink:title=" ">
<path fill="none" stroke="#63b8ff" d="M491.58,-82.73C476.43,-94.45 454.7,-108.86 432.75,-115.2 320.14,-147.71 179.51,-120.32 113.4,-103.68"/>
<polygon fill="#63b8ff" stroke="#63b8ff" points="493.76,-85.47 499.35,-76.47 489.37,-80.01 493.76,-85.47"/>
</a>
</g>
</g>
<!-- Node5 -->
<g id="Node000005" class="node">
<title>Node5</title>
<g id="a_Node000005"><a xlink:href="classgame_1_1_main_menu_page.html#a597d6a61f1bc9cf80e3a99e466fe678b" target="_top" xlink:title=" ">
<polygon fill="white" stroke="#666666" points="131.5,-53.2 18,-53.2 18,-21.2 131.5,-21.2 131.5,-53.2"/>
<text xml:space="preserve" text-anchor="start" x="26" y="-39.7" font-family="Helvetica,sans-Serif" font-size="10.00">game::MainMenuPage</text>
<text xml:space="preserve" text-anchor="middle" x="74.75" y="-27.7" font-family="Helvetica,sans-Serif" font-size="10.00">::MainMenuPage</text>
</a>
</g>
</g>
<!-- Node1&#45;&gt;Node5 -->
<g id="edge8_Node000001_Node000005" class="edge">
<title>Node1&#45;&gt;Node5</title>
<g id="a_edge8_Node000001_Node000005"><a xlink:title=" ">
<path fill="none" stroke="#63b8ff" d="M491.58,-47.67C476.43,-35.94 454.7,-21.53 432.75,-15.2 329.69,14.56 203.15,-5.86 131.76,-22.29"/>
<polygon fill="#63b8ff" stroke="#63b8ff" points="489.37,-50.38 499.35,-53.92 493.76,-44.93 489.37,-50.38"/>
</a>
</g>
</g>
<!-- Node6 -->
<g id="Node000006" class="node">
<title>Node6</title>
<g id="a_Node000006"><a xlink:href="classsfui_1_1_interactive_page.html#ac553cc6c1df69243d54a316f67aa5f45" target="_top" xlink:title=" ">
<polygon fill="white" stroke="#666666" points="432.75,-106.2 326.75,-106.2 326.75,-74.2 432.75,-74.2 432.75,-106.2"/>
<text xml:space="preserve" text-anchor="start" x="334.75" y="-92.7" font-family="Helvetica,sans-Serif" font-size="10.00">sfui::InteractivePage</text>
<text xml:space="preserve" text-anchor="middle" x="379.75" y="-80.7" font-family="Helvetica,sans-Serif" font-size="10.00">::InteractivePage</text>
</a>
</g>
</g>
<!-- Node1&#45;&gt;Node6 -->
<g id="edge6_Node000001_Node000006" class="edge">
<title>Node1&#45;&gt;Node6</title>
<g id="a_edge6_Node000001_Node000006"><a xlink:title=" ">
<path fill="none" stroke="#63b8ff" d="M457.22,-75.64C449.19,-77.17 440.94,-78.74 432.97,-80.26"/>
<polygon fill="#63b8ff" stroke="#63b8ff" points="457.72,-79.11 466.89,-73.8 456.41,-72.23 457.72,-79.11"/>
</a>
</g>
</g>
<!-- Node3 -->
<g id="Node000003" class="node">
<title>Node3</title>
<g id="a_Node000003"><a xlink:href="classsfui_1_1_complex_page.html#a3c97d3fcf521310edbd6b77ec693e4e9" target="_top" xlink:title=" ">
<polygon fill="white" stroke="#666666" points="290.75,-81.2 185.5,-81.2 185.5,-49.2 290.75,-49.2 290.75,-81.2"/>
<text xml:space="preserve" text-anchor="start" x="193.5" y="-67.7" font-family="Helvetica,sans-Serif" font-size="10.00">sfui::ComplexPage::</text>
<text xml:space="preserve" text-anchor="middle" x="238.12" y="-55.7" font-family="Helvetica,sans-Serif" font-size="10.00">ComplexPage</text>
</a>
</g>
</g>
<!-- Node2&#45;&gt;Node3 -->
<g id="edge2_Node000002_Node000003" class="edge">
<title>Node2&#45;&gt;Node3</title>
<g id="a_edge2_Node000002_Node000003"><a xlink:title=" ">
<path fill="none" stroke="#63b8ff" d="M319.39,-50.82C309.98,-52.51 300.31,-54.24 291.08,-55.89"/>
<polygon fill="#63b8ff" stroke="#63b8ff" points="319.98,-54.27 329.21,-49.07 318.75,-47.38 319.98,-54.27"/>
</a>
</g>
</g>
<!-- Node3&#45;&gt;Node4 -->
<g id="edge3_Node000003_Node000004" class="edge">
<title>Node3&#45;&gt;Node4</title>
<g id="a_edge3_Node000003_Node000004"><a xlink:title=" ">
<path fill="none" stroke="#63b8ff" d="M173.93,-76.16C161.46,-78.32 148.4,-80.59 136.03,-82.74"/>
<polygon fill="#63b8ff" stroke="#63b8ff" points="174.43,-79.63 183.69,-74.47 173.23,-72.73 174.43,-79.63"/>
</a>
</g>
</g>
<!-- Node3&#45;&gt;Node5 -->
<g id="edge4_Node000003_Node000005" class="edge">
<title>Node3&#45;&gt;Node5</title>
<g id="a_edge4_Node000003_Node000005"><a xlink:title=" ">
<path fill="none" stroke="#63b8ff" d="M174.16,-54.27C160.18,-51.85 145.46,-49.29 131.78,-46.92"/>
<polygon fill="#63b8ff" stroke="#63b8ff" points="173.23,-57.66 183.69,-55.92 174.43,-50.77 173.23,-57.66"/>
</a>
</g>
</g>
<!-- Node6&#45;&gt;Node3 -->
<g id="edge7_Node000006_Node000003" class="edge">
<title>Node6&#45;&gt;Node3</title>
<g id="a_edge7_Node000006_Node000003"><a xlink:title=" ">
<path fill="none" stroke="#63b8ff" d="M315.04,-78.79C306.95,-77.34 298.75,-75.87 290.88,-74.46"/>
<polygon fill="#63b8ff" stroke="#63b8ff" points="314.41,-82.23 324.87,-80.55 315.65,-75.34 314.41,-82.23"/>
</a>
</g>
</g>
</g>
</svg>
