<?xml version="1.0" encoding="UTF-8" standalone="no"?>
<!DOCTYPE svg PUBLIC "-//W3C//DTD SVG 1.1//EN"
 "http://www.w3.org/Graphics/SVG/1.1/DTD/svg11.dtd">
<!-- Generated by graphviz version 13.0.0 (20250608.1624)
 -->
<!-- Title: game::MainMenuPage Pages: 1 -->
<svg width="682pt" height="356pt"
 viewBox="0.00 0.00 682.00 356.00" xmlns="http://www.w3.org/2000/svg" xmlns:xlink="http://www.w3.org/1999/xlink">
<g id="graph0" class="graph" transform="scale(1 1) rotate(0) translate(4 352)">
<title>game::MainMenuPage</title>
<!-- Node1 -->
<g id="Node000001" class="node">
<title>Node1</title>
<g id="a_Node000001"><a xlink:title=" ">
<polygon fill="#999999" stroke="#666666" points="346.5,-20 233,-20 233,0 346.5,0 346.5,-20"/>
<text xml:space="preserve" text-anchor="middle" x="289.75" y="-6.5" font-family="Helvetica,sans-Serif" font-size="10.00">game::MainMenuPage</text>
</a>
</g>
</g>
<!-- Node2 -->
<g id="Node000002" class="node">
<title>Node2</title>
<g id="a_Node000002"><a xlink:href="classsfui_1_1_complex_page.html" target="_top" xlink:title="混合界面类，结合了交互页面和控件页面的功能">
<polygon fill="white" stroke="#666666" points="546.38,-126 447.12,-126 447.12,-106 546.38,-106 546.38,-126"/>
<text xml:space="preserve" text-anchor="middle" x="496.75" y="-112.5" font-family="Helvetica,sans-Serif" font-size="10.00">sfui::ComplexPage</text>
</a>
</g>
</g>
<!-- Node2&#45;&gt;Node1 -->
<g id="edge1_Node000001_Node000002" class="edge">
<title>Node2&#45;&gt;Node1</title>
<g id="a_edge1_Node000001_Node000002"><a xlink:title=" ">
<path fill="none" stroke="#63b8ff" d="M480.3,-97.26C462.93,-79.6 433.95,-53.04 403.75,-38 386.18,-29.25 365.66,-23.26 346.91,-19.19"/>
<polygon fill="#63b8ff" stroke="#63b8ff" points="477.77,-99.68 487.21,-104.47 482.82,-94.83 477.77,-99.68"/>
</a>
</g>
</g>
<!-- Node3 -->
<g id="Node000003" class="node">
<title>Node3</title>
<g id="a_Node000003"><a xlink:href="classsfui_1_1_interactive_page.html" target="_top" xlink:title="动态或实时更新的交互页面，视图中心可自定义">
<polygon fill="white" stroke="#666666" points="654.75,-200 548.75,-200 548.75,-180 654.75,-180 654.75,-200"/>
<text xml:space="preserve" text-anchor="middle" x="601.75" y="-186.5" font-family="Helvetica,sans-Serif" font-size="10.00">sfui::InteractivePage</text>
</a>
</g>
</g>
<!-- Node3&#45;&gt;Node2 -->
<g id="edge2_Node000002_Node000003" class="edge">
<title>Node3&#45;&gt;Node2</title>
<g id="a_edge2_Node000002_Node000003"><a xlink:title=" ">
<path fill="none" stroke="#63b8ff" d="M578.61,-173.13C557.75,-158.83 527.78,-138.27 510.48,-126.42"/>
<polygon fill="#63b8ff" stroke="#63b8ff" points="576.55,-175.96 586.77,-178.73 580.51,-170.19 576.55,-175.96"/>
</a>
</g>
</g>
<!-- Node4 -->
<g id="Node000004" class="node">
<title>Node4</title>
<g id="a_Node000004"><a xlink:href="classsfui_1_1_page.html" target="_top" xlink:title="前置声明窗口类">
<polygon fill="white" stroke="#666666" points="544.88,-274 484.62,-274 484.62,-254 544.88,-254 544.88,-274"/>
<text xml:space="preserve" text-anchor="middle" x="514.75" y="-260.5" font-family="Helvetica,sans-Serif" font-size="10.00">sfui::Page</text>
</a>
</g>
</g>
<!-- Node4&#45;&gt;Node3 -->
<g id="edge3_Node000003_Node000004" class="edge">
<title>Node4&#45;&gt;Node3</title>
<g id="a_edge3_Node000003_Node000004"><a xlink:title=" ">
<path fill="none" stroke="#63b8ff" d="M534.87,-246.35C552.11,-232.08 576.3,-212.06 590.37,-200.42"/>
<polygon fill="#63b8ff" stroke="#63b8ff" points="532.76,-243.55 527.29,-252.62 537.23,-248.94 532.76,-243.55"/>
</a>
</g>
</g>
<!-- Node9 -->
<g id="Node000009" class="node">
<title>Node9</title>
<g id="a_Node000009"><a xlink:href="classsfui_1_1_control_page.html" target="_top" xlink:title="UI 控件页面，视图大小等于窗口大小，(0,0)为左上角">
<polygon fill="white" stroke="#666666" points="530.62,-200 438.88,-200 438.88,-180 530.62,-180 530.62,-200"/>
<text xml:space="preserve" text-anchor="middle" x="484.75" y="-186.5" font-family="Helvetica,sans-Serif" font-size="10.00">sfui::ControlPage</text>
</a>
</g>
</g>
<!-- Node4&#45;&gt;Node9 -->
<g id="edge9_Node000009_Node000004" class="edge">
<title>Node4&#45;&gt;Node9</title>
<g id="a_edge9_Node000009_Node000004"><a xlink:title=" ">
<path fill="none" stroke="#63b8ff" d="M506.43,-243.02C500.59,-229.01 493.05,-210.93 488.58,-200.19"/>
<polygon fill="#63b8ff" stroke="#63b8ff" points="503.17,-244.31 510.25,-252.19 509.63,-241.61 503.17,-244.31"/>
</a>
</g>
</g>
<!-- Node5 -->
<g id="Node000005" class="node">
<title>Node5</title>
<g id="a_Node000005"><a xlink:href="classsfui_1_1_window.html" target="_top" xlink:title="窗口类，负责窗口创建、页面管理、事件循环、全屏切换等。">
<polygon fill="white" stroke="#666666" points="666.25,-348 593.25,-348 593.25,-328 666.25,-328 666.25,-348"/>
<text xml:space="preserve" text-anchor="middle" x="629.75" y="-334.5" font-family="Helvetica,sans-Serif" font-size="10.00">sfui::Window</text>
</a>
</g>
</g>
<!-- Node5&#45;&gt;Node4 -->
<g id="edge4_Node000004_Node000005" class="edge">
<title>Node5&#45;&gt;Node4</title>
<g id="a_edge4_Node000004_Node000005"><a xlink:title=" ">
<path fill="none" stroke="#9a32cd" stroke-dasharray="5,2" d="M621,-317.37C616.17,-308.51 609.38,-298.58 600.75,-292 584.57,-279.67 562.65,-272.9 544.98,-269.22"/>
<polygon fill="#9a32cd" stroke="#9a32cd" points="617.85,-318.9 625.4,-326.33 624.13,-315.82 617.85,-318.9"/>
</a>
</g>
<text xml:space="preserve" text-anchor="start" x="619.16" y="-297.5" font-family="Helvetica,sans-Serif" font-size="10.00" fill="grey">mp_window</text>
</g>
<!-- Node6 -->
<g id="Node000006" class="node">
<title>Node6</title>
<g id="a_Node000006"><a xlink:href="classsfui_1_1_mouse.html" target="_top" xlink:title="实时鼠标操作类">
<polygon fill="white" stroke="#666666" points="323.25,-348 256.25,-348 256.25,-328 323.25,-328 323.25,-348"/>
<text xml:space="preserve" text-anchor="middle" x="289.75" y="-334.5" font-family="Helvetica,sans-Serif" font-size="10.00">sfui::Mouse</text>
</a>
</g>
</g>
<!-- Node6&#45;&gt;Node4 -->
<g id="edge5_Node000004_Node000006" class="edge">
<title>Node6&#45;&gt;Node4</title>
<g id="a_edge5_Node000004_Node000006"><a xlink:title=" ">
<path fill="none" stroke="#9a32cd" stroke-dasharray="5,2" d="M308.51,-320.47C320.66,-310.66 337.29,-298.84 354,-292 397.08,-274.36 451.17,-268.24 484.33,-266.12"/>
<polygon fill="#9a32cd" stroke="#9a32cd" points="306.37,-317.7 300.96,-326.8 310.87,-323.06 306.37,-317.7"/>
</a>
</g>
<text xml:space="preserve" text-anchor="start" x="357" y="-297.5" font-family="Helvetica,sans-Serif" font-size="10.00" fill="grey">m_mouse</text>
</g>
<!-- Node14 -->
<g id="Node000014" class="node">
<title>Node14</title>
<g id="a_Node000014"><a xlink:href="classsfui_1_1_input_box.html" target="_top" xlink:title=" ">
<polygon fill="white" stroke="#666666" points="328.12,-126 251.38,-126 251.38,-106 328.12,-106 328.12,-126"/>
<text xml:space="preserve" text-anchor="middle" x="289.75" y="-112.5" font-family="Helvetica,sans-Serif" font-size="10.00">sfui::InputBox</text>
</a>
</g>
</g>
<!-- Node6&#45;&gt;Node14 -->
<g id="edge18_Node000014_Node000006" class="edge">
<title>Node6&#45;&gt;Node14</title>
<g id="a_edge18_Node000014_Node000006"><a xlink:title=" ">
<path fill="none" stroke="#9a32cd" stroke-dasharray="5,2" d="M289.75,-316.3C289.75,-269.96 289.75,-159.37 289.75,-126.42"/>
<polygon fill="#9a32cd" stroke="#9a32cd" points="286.25,-316.03 289.75,-326.03 293.25,-316.03 286.25,-316.03"/>
</a>
</g>
<text xml:space="preserve" text-anchor="start" x="292.75" y="-223.5" font-family="Helvetica,sans-Serif" font-size="10.00" fill="grey">m_mouse</text>
</g>
<!-- Node7 -->
<g id="Node000007" class="node">
<title>Node7</title>
<g id="a_Node000007"><a xlink:href="classsfui_1_1_active_key_binding.html" target="_top" xlink:title="按键状态与行为的映射类">
<polygon fill="white" stroke="#666666" points="456.25,-348 341.25,-348 341.25,-328 456.25,-328 456.25,-348"/>
<text xml:space="preserve" text-anchor="middle" x="398.75" y="-334.5" font-family="Helvetica,sans-Serif" font-size="10.00">sfui::ActiveKeyBinding</text>
</a>
</g>
</g>
<!-- Node7&#45;&gt;Node4 -->
<g id="edge6_Node000004_Node000007" class="edge">
<title>Node7&#45;&gt;Node4</title>
<g id="a_edge6_Node000004_Node000007"><a xlink:title=" ">
<path fill="none" stroke="#9a32cd" stroke-dasharray="5,2" d="M403.93,-316.74C407.11,-308.02 412.04,-298.38 419.5,-292 437.53,-276.58 463.8,-269.94 484.18,-267.1"/>
<polygon fill="#9a32cd" stroke="#9a32cd" points="400.61,-315.63 401.06,-326.22 407.31,-317.66 400.61,-315.63"/>
</a>
</g>
<text xml:space="preserve" text-anchor="start" x="422.5" y="-297.5" font-family="Helvetica,sans-Serif" font-size="10.00" fill="grey">m_activeKeyBinding</text>
</g>
<!-- Node8 -->
<g id="Node000008" class="node">
<title>Node8</title>
<g id="a_Node000008"><a xlink:href="classsfui_1_1_evect_bingding.html" target="_top" xlink:title="按键和鼠标事件与行为的映射类">
<polygon fill="white" stroke="#666666" points="575.12,-348 474.38,-348 474.38,-328 575.12,-328 575.12,-348"/>
<text xml:space="preserve" text-anchor="middle" x="524.75" y="-334.5" font-family="Helvetica,sans-Serif" font-size="10.00">sfui::EvectBingding</text>
</a>
</g>
</g>
<!-- Node8&#45;&gt;Node4 -->
<g id="edge7_Node000004_Node000008" class="edge">
<title>Node8&#45;&gt;Node4</title>
<g id="a_edge7_Node000004_Node000008"><a xlink:title=" ">
<path fill="none" stroke="#9a32cd" stroke-dasharray="5,2" d="M521.92,-316.6C519.98,-302.65 517.5,-284.82 516.03,-274.19"/>
<polygon fill="#9a32cd" stroke="#9a32cd" points="518.39,-316.66 523.23,-326.09 525.33,-315.7 518.39,-316.66"/>
</a>
</g>
<text xml:space="preserve" text-anchor="start" x="523.94" y="-297.5" font-family="Helvetica,sans-Serif" font-size="10.00" fill="grey">m_eventBinding</text>
</g>
<!-- Node9&#45;&gt;Node2 -->
<g id="edge8_Node000002_Node000009" class="edge">
<title>Node9&#45;&gt;Node2</title>
<g id="a_edge8_Node000002_Node000009"><a xlink:title=" ">
<path fill="none" stroke="#63b8ff" d="M488.15,-168.6C490.48,-154.65 493.45,-136.82 495.22,-126.19"/>
<polygon fill="#63b8ff" stroke="#63b8ff" points="484.76,-167.65 486.57,-178.09 491.66,-168.81 484.76,-167.65"/>
</a>
</g>
</g>
<!-- Node10 -->
<g id="Node000010" class="node">
<title>Node10</title>
<g id="a_Node000010"><a xlink:href="classsfui_1_1_texture_item.html" target="_top" xlink:title="贴图项，封装SFML贴图，支持加载、缩放、位置设置等">
<polygon fill="white" stroke="#666666" points="89.5,-200 0,-200 0,-180 89.5,-180 89.5,-200"/>
<text xml:space="preserve" text-anchor="middle" x="44.75" y="-186.5" font-family="Helvetica,sans-Serif" font-size="10.00">sfui::TextureItem</text>
</a>
</g>
</g>
<!-- Node10&#45;&gt;Node1 -->
<g id="edge10_Node000001_Node000010" class="edge">
<title>Node10&#45;&gt;Node1</title>
<g id="a_edge10_Node000001_Node000010"><a xlink:title=" ">
<path fill="none" stroke="#9a32cd" stroke-dasharray="5,2" d="M44.39,-168.14C45.07,-150.19 48.49,-124.34 61.25,-106 100.19,-50.01 178.71,-26.93 232.74,-17.47"/>
<polygon fill="#9a32cd" stroke="#9a32cd" points="40.89,-168.06 44.3,-178.09 47.89,-168.12 40.89,-168.06"/>
</a>
</g>
<text xml:space="preserve" text-anchor="start" x="64.25" y="-112.5" font-family="Helvetica,sans-Serif" font-size="10.00" fill="grey">mainPage</text>
</g>
<!-- Node11 -->
<g id="Node000011" class="node">
<title>Node11</title>
<g id="a_Node000011"><a xlink:href="classsfui_1_1_button.html" target="_top" xlink:title="按钮类，封装贴图和区域">
<polygon fill="white" stroke="#666666" points="185.88,-126 119.62,-126 119.62,-106 185.88,-106 185.88,-126"/>
<text xml:space="preserve" text-anchor="middle" x="152.75" y="-112.5" font-family="Helvetica,sans-Serif" font-size="10.00">sfui::Button</text>
</a>
</g>
</g>
<!-- Node10&#45;&gt;Node11 -->
<g id="edge13_Node000011_Node000010" class="edge">
<title>Node10&#45;&gt;Node11</title>
<g id="a_edge13_Node000011_Node000010"><a xlink:title=" ">
<path fill="none" stroke="#9a32cd" stroke-dasharray="5,2" d="M54.75,-169.82C60.22,-160.92 67.72,-150.82 76.75,-144 89.15,-134.63 105.09,-128.31 119.16,-124.16"/>
<polygon fill="#9a32cd" stroke="#9a32cd" points="51.74,-168.03 49.87,-178.46 57.83,-171.48 51.74,-168.03"/>
</a>
</g>
<text xml:space="preserve" text-anchor="start" x="79.75" y="-149.5" font-family="Helvetica,sans-Serif" font-size="10.00" fill="grey">m_textureItem</text>
</g>
<!-- Node11&#45;&gt;Node1 -->
<g id="edge11_Node000001_Node000011" class="edge">
<title>Node11&#45;&gt;Node1</title>
<g id="a_edge11_Node000001_Node000011"><a xlink:title=" ">
<path fill="none" stroke="#9a32cd" stroke-dasharray="5,2" d="M167.16,-96.62C181.22,-79.64 203.96,-54.61 228,-38 238.4,-30.82 251.01,-24.89 262.12,-20.44"/>
<polygon fill="#9a32cd" stroke="#9a32cd" points="164.45,-94.41 160.89,-104.39 169.89,-98.81 164.45,-94.41"/>
</a>
</g>
<text xml:space="preserve" text-anchor="start" x="231" y="-75.5" font-family="Helvetica,sans-Serif" font-size="10.00" fill="grey">beginButton</text>
<text xml:space="preserve" text-anchor="start" x="231" y="-59.5" font-family="Helvetica,sans-Serif" font-size="10.00" fill="grey">quitButton</text>
<text xml:space="preserve" text-anchor="start" x="231" y="-43.5" font-family="Helvetica,sans-Serif" font-size="10.00" fill="grey">setButton</text>
</g>
<!-- Node12 -->
<g id="Node000012" class="node">
<title>Node12</title>
<g id="a_Node000012"><a xlink:href="classsfui_1_1_area.html" target="_top" xlink:title="区域类，表示一个矩形区域，支持判定点是否在区域内">
<polygon fill="white" stroke="#666666" points="211.75,-200 153.75,-200 153.75,-180 211.75,-180 211.75,-200"/>
<text xml:space="preserve" text-anchor="middle" x="182.75" y="-186.5" font-family="Helvetica,sans-Serif" font-size="10.00">sfui::Area</text>
</a>
</g>
</g>
<!-- Node12&#45;&gt;Node11 -->
<g id="edge12_Node000011_Node000012" class="edge">
<title>Node12&#45;&gt;Node11</title>
<g id="a_edge12_Node000011_Node000012"><a xlink:title=" ">
<path fill="none" stroke="#9a32cd" stroke-dasharray="5,2" d="M160.23,-172.06C157.51,-169.02 155.13,-165.64 153.5,-162 148.39,-150.59 149.38,-135.86 150.83,-126.42"/>
<polygon fill="#9a32cd" stroke="#9a32cd" points="157.6,-174.39 167.29,-178.65 162.37,-169.27 157.6,-174.39"/>
</a>
</g>
<text xml:space="preserve" text-anchor="start" x="156.5" y="-149.5" font-family="Helvetica,sans-Serif" font-size="10.00" fill="grey">m_area</text>
</g>
<!-- Node12&#45;&gt;Node14 -->
<g id="edge17_Node000014_Node000012" class="edge">
<title>Node12&#45;&gt;Node14</title>
<g id="a_edge17_Node000014_Node000012"><a xlink:title=" ">
<path fill="none" stroke="#9a32cd" stroke-dasharray="5,2" d="M192.87,-169.84C198.4,-160.94 205.95,-150.84 215,-144 225.56,-136.01 238.72,-130.21 251.03,-126.09"/>
<polygon fill="#9a32cd" stroke="#9a32cd" points="189.86,-168.06 187.94,-178.48 195.94,-171.53 189.86,-168.06"/>
</a>
</g>
<text xml:space="preserve" text-anchor="start" x="218" y="-149.5" font-family="Helvetica,sans-Serif" font-size="10.00" fill="grey">m_inputArea</text>
</g>
<!-- Node13 -->
<g id="Node000013" class="node">
<title>Node13</title>
<g id="a_Node000013"><a xlink:href="classsfui_1_1_text_box.html" target="_top" xlink:title="文本框控件，支持自定义字体、颜色、内容、位置等">
<polygon fill="white" stroke="#666666" points="408.62,-200 334.88,-200 334.88,-180 408.62,-180 408.62,-200"/>
<text xml:space="preserve" text-anchor="middle" x="371.75" y="-186.5" font-family="Helvetica,sans-Serif" font-size="10.00">sfui::TextBox</text>
</a>
</g>
</g>
<!-- Node13&#45;&gt;Node1 -->
<g id="edge14_Node000001_Node000013" class="edge">
<title>Node13&#45;&gt;Node1</title>
<g id="a_edge14_Node000001_Node000013"><a xlink:title=" ">
<path fill="none" stroke="#9a32cd" stroke-dasharray="5,2" d="M375.86,-168.39C376.8,-160.7 377.16,-151.91 375.75,-144 366.95,-94.58 369.13,-76.36 336.75,-38 330.44,-30.52 321.5,-24.66 313.11,-20.34"/>
<polygon fill="#9a32cd" stroke="#9a32cd" points="372.43,-167.7 374.26,-178.14 379.34,-168.84 372.43,-167.7"/>
</a>
</g>
<text xml:space="preserve" text-anchor="start" x="375.71" y="-112.5" font-family="Helvetica,sans-Serif" font-size="10.00" fill="grey">textBox</text>
</g>
<!-- Node13&#45;&gt;Node14 -->
<g id="edge16_Node000014_Node000013" class="edge">
<title>Node13&#45;&gt;Node14</title>
<g id="a_edge16_Node000014_Node000013"><a xlink:title=" ">
<path fill="none" stroke="#9a32cd" stroke-dasharray="5,2" d="M341.15,-174.16C335.16,-170.59 329.15,-166.49 324,-162 311.87,-151.41 301.22,-135.92 295.14,-126.16"/>
<polygon fill="#9a32cd" stroke="#9a32cd" points="339.28,-177.12 349.73,-178.9 342.67,-171 339.28,-177.12"/>
</a>
</g>
<text xml:space="preserve" text-anchor="start" x="327" y="-149.5" font-family="Helvetica,sans-Serif" font-size="10.00" fill="grey">m_textbox</text>
</g>
<!-- Node14&#45;&gt;Node1 -->
<g id="edge15_Node000001_Node000014" class="edge">
<title>Node14&#45;&gt;Node1</title>
<g id="a_edge15_Node000001_Node000014"><a xlink:title=" ">
<path fill="none" stroke="#9a32cd" stroke-dasharray="5,2" d="M289.75,-94.51C289.75,-72.04 289.75,-36.99 289.75,-20.36"/>
<polygon fill="#9a32cd" stroke="#9a32cd" points="286.25,-94.26 289.75,-104.26 293.25,-94.26 286.25,-94.26"/>
</a>
</g>
<text xml:space="preserve" text-anchor="start" x="292.75" y="-59.5" font-family="Helvetica,sans-Serif" font-size="10.00" fill="grey">inputbox</text>
</g>
</g>
</svg>
