<?xml version="1.0" encoding="UTF-8" standalone="no"?>
<!DOCTYPE svg PUBLIC "-//W3C//DTD SVG 1.1//EN"
 "http://www.w3.org/Graphics/SVG/1.1/DTD/svg11.dtd">
<!-- Generated by graphviz version 13.0.0 (20250608.1624)
 -->
<!-- Title: game::WorldElemental Pages: 1 -->
<svg width="122pt" height="196pt"
 viewBox="0.00 0.00 122.00 196.00" xmlns="http://www.w3.org/2000/svg" xmlns:xlink="http://www.w3.org/1999/xlink">
<g id="graph0" class="graph" transform="scale(1 1) rotate(0) translate(4 192)">
<title>game::WorldElemental</title>
<!-- Node1 -->
<g id="Node000001" class="node">
<title>Node1</title>
<g id="a_Node000001"><a xlink:title=" ">
<polygon fill="#999999" stroke="#666666" points="114.25,-132 0,-132 0,-112 114.25,-112 114.25,-132"/>
<text xml:space="preserve" text-anchor="middle" x="57.13" y="-118.5" font-family="Helvetica,sans-Serif" font-size="10.00">game::WorldElemental</text>
</a>
</g>
</g>
<!-- Node3 -->
<g id="Node000003" class="node">
<title>Node3</title>
<g id="a_Node000003"><a xlink:href="classgame_1_1_biology.html" target="_top" xlink:title=" ">
<polygon fill="white" stroke="#666666" points="96.25,-76 18,-76 18,-56 96.25,-56 96.25,-76"/>
<text xml:space="preserve" text-anchor="middle" x="57.13" y="-62.5" font-family="Helvetica,sans-Serif" font-size="10.00">game::Biology</text>
</a>
</g>
</g>
<!-- Node1&#45;&gt;Node3 -->
<g id="edge2_Node000001_Node000003" class="edge">
<title>Node1&#45;&gt;Node3</title>
<g id="a_edge2_Node000001_Node000003"><a xlink:title=" ">
<path fill="none" stroke="#63b8ff" d="M57.13,-100.13C57.13,-91.9 57.13,-82.85 57.13,-76.3"/>
<polygon fill="#63b8ff" stroke="#63b8ff" points="53.63,-100.08 57.13,-110.08 60.63,-100.08 53.63,-100.08"/>
</a>
</g>
</g>
<!-- Node2 -->
<g id="Node000002" class="node">
<title>Node2</title>
<g id="a_Node000002"><a xlink:href="classgame_1_1_elemental.html" target="_top" xlink:title=" ">
<polygon fill="white" stroke="#666666" points="101.88,-188 12.38,-188 12.38,-168 101.88,-168 101.88,-188"/>
<text xml:space="preserve" text-anchor="middle" x="57.13" y="-174.5" font-family="Helvetica,sans-Serif" font-size="10.00">game::Elemental</text>
</a>
</g>
</g>
<!-- Node2&#45;&gt;Node1 -->
<g id="edge1_Node000001_Node000002" class="edge">
<title>Node2&#45;&gt;Node1</title>
<g id="a_edge1_Node000001_Node000002"><a xlink:title=" ">
<path fill="none" stroke="#63b8ff" d="M57.13,-156.13C57.13,-147.9 57.13,-138.85 57.13,-132.3"/>
<polygon fill="#63b8ff" stroke="#63b8ff" points="53.63,-156.08 57.13,-166.08 60.63,-156.08 53.63,-156.08"/>
</a>
</g>
</g>
<!-- Node4 -->
<g id="Node000004" class="node">
<title>Node4</title>
<g id="a_Node000004"><a xlink:href="classgame_1_1_player.html" target="_top" xlink:title=" ">
<polygon fill="white" stroke="#666666" points="94,-20 20.25,-20 20.25,0 94,0 94,-20"/>
<text xml:space="preserve" text-anchor="middle" x="57.13" y="-6.5" font-family="Helvetica,sans-Serif" font-size="10.00">game::Player</text>
</a>
</g>
</g>
<!-- Node3&#45;&gt;Node4 -->
<g id="edge3_Node000003_Node000004" class="edge">
<title>Node3&#45;&gt;Node4</title>
<g id="a_edge3_Node000003_Node000004"><a xlink:title=" ">
<path fill="none" stroke="#8b1a1a" d="M57.13,-44.13C57.13,-35.9 57.13,-26.85 57.13,-20.3"/>
<polygon fill="#8b1a1a" stroke="#8b1a1a" points="53.63,-44.08 57.13,-54.08 60.63,-44.08 53.63,-44.08"/>
</a>
</g>
</g>
</g>
</svg>
