<?xml version="1.0" encoding="UTF-8" standalone="no"?>
<!DOCTYPE svg PUBLIC "-//W3C//DTD SVG 1.1//EN"
 "http://www.w3.org/Graphics/SVG/1.1/DTD/svg11.dtd">
<!-- Generated by graphviz version 13.0.0 (20250608.1624)
 -->
<!-- Title: sfui::Window::updateView Pages: 1 -->
<svg width="534pt" height="28pt"
 viewBox="0.00 0.00 534.00 28.00" xmlns="http://www.w3.org/2000/svg" xmlns:xlink="http://www.w3.org/1999/xlink">
<g id="graph0" class="graph" transform="scale(1 1) rotate(0) translate(4 24)">
<title>sfui::Window::updateView</title>
<!-- Node1 -->
<g id="Node000001" class="node">
<title>Node1</title>
<g id="a_Node000001"><a xlink:title="更新当前页面视图。">
<polygon fill="#999999" stroke="#666666" points="526,-20 396,-20 396,0 526,0 526,-20"/>
<text xml:space="preserve" text-anchor="middle" x="461" y="-6.5" font-family="Helvetica,sans-Serif" font-size="10.00">sfui::Window::updateView</text>
</a>
</g>
</g>
<!-- Node2 -->
<g id="Node000002" class="node">
<title>Node2</title>
<g id="a_Node000002"><a xlink:href="classsfui_1_1_window.html#ac3654758cf94834f792bb540e3631f2c" target="_top" xlink:title="绘制当前帧到窗口。">
<polygon fill="white" stroke="#666666" points="360,-20 232.25,-20 232.25,0 360,0 360,-20"/>
<text xml:space="preserve" text-anchor="middle" x="296.12" y="-6.5" font-family="Helvetica,sans-Serif" font-size="10.00">sfui::Window::drawFrame</text>
</a>
</g>
</g>
<!-- Node1&#45;&gt;Node2 -->
<g id="edge1_Node000001_Node000002" class="edge">
<title>Node1&#45;&gt;Node2</title>
<g id="a_edge1_Node000001_Node000002"><a xlink:title=" ">
<path fill="none" stroke="#63b8ff" d="M384.13,-10C376.22,-10 368.24,-10 360.5,-10"/>
<polygon fill="#63b8ff" stroke="#63b8ff" points="384.11,-13.5 394.11,-10 384.11,-6.5 384.11,-13.5"/>
</a>
</g>
</g>
<!-- Node3 -->
<g id="Node000003" class="node">
<title>Node3</title>
<g id="a_Node000003"><a xlink:href="classsfui_1_1_window.html#a2d60139900440e63f10e535d5287af9b" target="_top" xlink:title="显示首页并进入主循环。">
<polygon fill="white" stroke="#666666" points="196.25,-20 73,-20 73,0 196.25,0 196.25,-20"/>
<text xml:space="preserve" text-anchor="middle" x="134.62" y="-6.5" font-family="Helvetica,sans-Serif" font-size="10.00">sfui::Window::startShow</text>
</a>
</g>
</g>
<!-- Node2&#45;&gt;Node3 -->
<g id="edge2_Node000002_Node000003" class="edge">
<title>Node2&#45;&gt;Node3</title>
<g id="a_edge2_Node000002_Node000003"><a xlink:title=" ">
<path fill="none" stroke="#63b8ff" d="M220.76,-10C212.68,-10 204.53,-10 196.64,-10"/>
<polygon fill="#63b8ff" stroke="#63b8ff" points="220.57,-13.5 230.57,-10 220.57,-6.5 220.57,-13.5"/>
</a>
</g>
</g>
<!-- Node4 -->
<g id="Node000004" class="node">
<title>Node4</title>
<g id="a_Node000004"><a xlink:href="main_8cpp.html#a8216c1645620cdb2f629cde3ac02ffef" target="_top" xlink:title=" ">
<polygon fill="white" stroke="#666666" points="37,-20 0,-20 0,0 37,0 37,-20"/>
<text xml:space="preserve" text-anchor="middle" x="18.5" y="-6.5" font-family="Helvetica,sans-Serif" font-size="10.00">main</text>
</a>
</g>
</g>
<!-- Node3&#45;&gt;Node4 -->
<g id="edge3_Node000003_Node000004" class="edge">
<title>Node3&#45;&gt;Node4</title>
<g id="a_edge3_Node000003_Node000004"><a xlink:title=" ">
<path fill="none" stroke="#63b8ff" d="M61.18,-10C52.37,-10 44.09,-10 37.26,-10"/>
<polygon fill="#63b8ff" stroke="#63b8ff" points="61.04,-13.5 71.04,-10 61.04,-6.5 61.04,-13.5"/>
</a>
</g>
</g>
</g>
</svg>
