<?xml version="1.0" encoding="UTF-8" standalone="no"?>
<!DOCTYPE svg PUBLIC "-//W3C//DTD SVG 1.1//EN"
 "http://www.w3.org/Graphics/SVG/1.1/DTD/svg11.dtd">
<!-- Generated by graphviz version 13.0.0 (20250608.1624)
 -->
<!-- Title: sfui::InteractivePage Pages: 1 -->
<svg width="425pt" height="159pt"
 viewBox="0.00 0.00 425.00 159.00" xmlns="http://www.w3.org/2000/svg" xmlns:xlink="http://www.w3.org/1999/xlink">

<svg id="main" version="1.1" xmlns="http://www.w3.org/2000/svg" xmlns:xlink="http://www.w3.org/1999/xlink" xml:space="preserve">

<style type="text/css"><![CDATA[
.node, .edge {opacity: 0.7;}
.node.selected, .edge.selected {opacity: 1;}
.edge:hover path { stroke: red; }
.edge:hover polygon { stroke: red; fill: red; }
]]></style>
<script type="application/ecmascript" xlink:href="svg.min.js"/>
<svg id="graph" class="graph">
<g id="graph0" class="graph" transform="scale(1 1) rotate(0) translate(4 155)">
<title>sfui::InteractivePage</title>
<!-- Node1 -->
<g id="Node000001" class="node">
<title>Node1</title>
<g id="a_Node000001"><a xlink:title="动态或实时更新的交互页面，视图中心可自定义">
<polygon fill="#999999" stroke="#666666" points="231.5,-20 125.5,-20 125.5,0 231.5,0 231.5,-20"/>
<text xml:space="preserve" text-anchor="middle" x="178.5" y="-6.5" font-family="Helvetica,sans-Serif" font-size="10.00">sfui::InteractivePage</text>
</a>
</g>
</g>
<!-- Node2 -->
<g id="Node000002" class="node">
<title>Node2</title>
<g id="a_Node000002"><a xlink:href="classsfui_1_1_page.html" target="_top" xlink:title="前置声明窗口类">
<polygon fill="white" stroke="#666666" points="208.62,-77 148.38,-77 148.38,-57 208.62,-57 208.62,-77"/>
<text xml:space="preserve" text-anchor="middle" x="178.5" y="-63.5" font-family="Helvetica,sans-Serif" font-size="10.00">sfui::Page</text>
</a>
</g>
</g>
<!-- Node2&#45;&gt;Node1 -->
<g id="edge1_Node000001_Node000002" class="edge">
<title>Node2&#45;&gt;Node1</title>
<g id="a_edge1_Node000001_Node000002"><a xlink:title=" ">
<path fill="none" stroke="#63b8ff" d="M178.5,-45.69C178.5,-36.97 178.5,-27.22 178.5,-20.28"/>
<polygon fill="#63b8ff" stroke="#63b8ff" points="175,-45.4 178.5,-55.4 182,-45.4 175,-45.4"/>
</a>
</g>
</g>
<!-- Node3 -->
<g id="Node000003" class="node">
<title>Node3</title>
<g id="a_Node000003"><a xlink:href="classsfui_1_1_window.html" target="_top" xlink:title="窗口类，负责窗口创建、页面管理、事件循环、全屏切换等。">
<polygon fill="white" stroke="#666666" points="73,-151 0,-151 0,-131 73,-131 73,-151"/>
<text xml:space="preserve" text-anchor="middle" x="36.5" y="-137.5" font-family="Helvetica,sans-Serif" font-size="10.00">sfui::Window</text>
</a>
</g>
</g>
<!-- Node3&#45;&gt;Node2 -->
<g id="edge2_Node000002_Node000003" class="edge">
<title>Node3&#45;&gt;Node2</title>
<g id="a_edge2_Node000002_Node000003"><a xlink:title=" ">
<path fill="none" stroke="#9a32cd" stroke-dasharray="5,2" d="M51.4,-122.12C60,-112.83 71.51,-102 83.75,-95 103.65,-83.63 128.68,-76.76 148.01,-72.8"/>
<polygon fill="#9a32cd" stroke="#9a32cd" points="48.84,-119.73 44.86,-129.55 54.09,-124.36 48.84,-119.73"/>
</a>
</g>
<text xml:space="preserve" text-anchor="start" x="86.75" y="-100.5" font-family="Helvetica,sans-Serif" font-size="10.00" fill="grey">mp_window</text>
</g>
<!-- Node4 -->
<g id="Node000004" class="node">
<title>Node4</title>
<g id="a_Node000004"><a xlink:href="classsfui_1_1_mouse.html" target="_top" xlink:title="实时鼠标操作类">
<polygon fill="white" stroke="#666666" points="158,-151 91,-151 91,-131 158,-131 158,-151"/>
<text xml:space="preserve" text-anchor="middle" x="124.5" y="-137.5" font-family="Helvetica,sans-Serif" font-size="10.00">sfui::Mouse</text>
</a>
</g>
</g>
<!-- Node4&#45;&gt;Node2 -->
<g id="edge3_Node000002_Node000004" class="edge">
<title>Node4&#45;&gt;Node2</title>
<g id="a_edge3_Node000002_Node000004"><a xlink:title=" ">
<path fill="none" stroke="#9a32cd" stroke-dasharray="5,2" d="M138.24,-121.68C148.9,-107.47 163.23,-88.36 171.61,-77.19"/>
<polygon fill="#9a32cd" stroke="#9a32cd" points="135.67,-119.28 132.47,-129.38 141.27,-123.48 135.67,-119.28"/>
</a>
</g>
<text xml:space="preserve" text-anchor="start" x="160.92" y="-100.5" font-family="Helvetica,sans-Serif" font-size="10.00" fill="grey">m_mouse</text>
</g>
<!-- Node5 -->
<g id="Node000005" class="node">
<title>Node5</title>
<g id="a_Node000005"><a xlink:href="classsfui_1_1_active_key_binding.html" target="_top" xlink:title="按键状态与行为的映射类">
<polygon fill="white" stroke="#666666" points="291,-151 176,-151 176,-131 291,-131 291,-151"/>
<text xml:space="preserve" text-anchor="middle" x="233.5" y="-137.5" font-family="Helvetica,sans-Serif" font-size="10.00">sfui::ActiveKeyBinding</text>
</a>
</g>
</g>
<!-- Node5&#45;&gt;Node2 -->
<g id="edge4_Node000002_Node000005" class="edge">
<title>Node5&#45;&gt;Node2</title>
<g id="a_edge4_Node000002_Node000005"><a xlink:title=" ">
<path fill="none" stroke="#9a32cd" stroke-dasharray="5,2" d="M225.59,-120.47C221.72,-112.16 216.58,-102.65 210.5,-95 205.26,-88.4 198.19,-82.23 192.04,-77.47"/>
<polygon fill="#9a32cd" stroke="#9a32cd" points="222.26,-121.58 229.45,-129.37 228.68,-118.8 222.26,-121.58"/>
</a>
</g>
<text xml:space="preserve" text-anchor="start" x="224.63" y="-100.5" font-family="Helvetica,sans-Serif" font-size="10.00" fill="grey">m_activeKeyBinding</text>
</g>
<!-- Node6 -->
<g id="Node000006" class="node">
<title>Node6</title>
<g id="a_Node000006"><a xlink:href="classsfui_1_1_evect_bingding.html" target="_top" xlink:title="按键和鼠标事件与行为的映射类">
<polygon fill="white" stroke="#666666" points="409.88,-151 309.12,-151 309.12,-131 409.88,-131 409.88,-151"/>
<text xml:space="preserve" text-anchor="middle" x="359.5" y="-137.5" font-family="Helvetica,sans-Serif" font-size="10.00">sfui::EvectBingding</text>
</a>
</g>
</g>
<!-- Node6&#45;&gt;Node2 -->
<g id="edge5_Node000002_Node000006" class="edge">
<title>Node6&#45;&gt;Node2</title>
<g id="a_edge5_Node000002_Node000006"><a xlink:title=" ">
<path fill="none" stroke="#9a32cd" stroke-dasharray="5,2" d="M347.84,-121.4C341.01,-112.04 331.55,-101.36 320.5,-95 285.81,-75.03 239.23,-69.47 209.03,-68.11"/>
<polygon fill="#9a32cd" stroke="#9a32cd" points="344.83,-123.2 353.33,-129.52 350.63,-119.28 344.83,-123.2"/>
</a>
</g>
<text xml:space="preserve" text-anchor="start" x="344.15" y="-100.5" font-family="Helvetica,sans-Serif" font-size="10.00" fill="grey">m_eventBinding</text>
</g>
</g>
</svg>
</svg>

<style type='text/css'>
<![CDATA[
[data-mouse-over-selected='false'] { opacity: 0.7; }
[data-mouse-over-selected='true']  { opacity: 1.0; }
]]>
</style>
<script type="application/ecmascript"><![CDATA[
document.addEventListener('DOMContentLoaded', (event) => {
  highlightEdges();
  highlightAdjacentNodes();
});
]]></script>
</svg>
