<?xml version="1.0" encoding="UTF-8" standalone="no"?>
<!DOCTYPE svg PUBLIC "-//W3C//DTD SVG 1.1//EN"
 "http://www.w3.org/Graphics/SVG/1.1/DTD/svg11.dtd">
<!-- Generated by graphviz version 13.0.0 (20250608.1624)
 -->
<!-- Title: sfui::Page Pages: 1 -->
<svg width="375pt" height="196pt"
 viewBox="0.00 0.00 375.00 196.00" xmlns="http://www.w3.org/2000/svg" xmlns:xlink="http://www.w3.org/1999/xlink">

<svg id="main" version="1.1" xmlns="http://www.w3.org/2000/svg" xmlns:xlink="http://www.w3.org/1999/xlink" xml:space="preserve">

<style type="text/css"><![CDATA[
.node, .edge {opacity: 0.7;}
.node.selected, .edge.selected {opacity: 1;}
.edge:hover path { stroke: red; }
.edge:hover polygon { stroke: red; fill: red; }
]]></style>
<script type="application/ecmascript" xlink:href="svg.min.js"/>
<svg id="graph" class="graph">
<g id="graph0" class="graph" transform="scale(1 1) rotate(0) translate(4 192)">
<title>sfui::Page</title>
<!-- Node1 -->
<g id="Node000001" class="node">
<title>Node1</title>
<g id="a_Node000001"><a xlink:title="前置声明窗口类">
<polygon fill="#999999" stroke="#666666" points="199.5,-188 139.25,-188 139.25,-168 199.5,-168 199.5,-188"/>
<text xml:space="preserve" text-anchor="middle" x="169.38" y="-174.5" font-family="Helvetica,sans-Serif" font-size="10.00">sfui::Page</text>
</a>
</g>
</g>
<!-- Node2 -->
<g id="Node000002" class="node">
<title>Node2</title>
<g id="a_Node000002"><a xlink:href="classsfui_1_1_control_page.html" target="_top" xlink:title="UI 控件页面，视图大小等于窗口大小，(0,0)为左上角">
<polygon fill="white" stroke="#666666" points="157.25,-132 65.5,-132 65.5,-112 157.25,-112 157.25,-132"/>
<text xml:space="preserve" text-anchor="middle" x="111.38" y="-118.5" font-family="Helvetica,sans-Serif" font-size="10.00">sfui::ControlPage</text>
</a>
</g>
</g>
<!-- Node1&#45;&gt;Node2 -->
<g id="edge1_Node000001_Node000002" class="edge">
<title>Node1&#45;&gt;Node2</title>
<g id="a_edge1_Node000001_Node000002"><a xlink:title=" ">
<path fill="none" stroke="#63b8ff" d="M150.95,-159.85C141.15,-150.72 129.48,-139.86 121.36,-132.3"/>
<polygon fill="#63b8ff" stroke="#63b8ff" points="148.46,-162.31 158.16,-166.56 153.23,-157.19 148.46,-162.31"/>
</a>
</g>
</g>
<!-- Node7 -->
<g id="Node000007" class="node">
<title>Node7</title>
<g id="a_Node000007"><a xlink:href="classsfui_1_1_interactive_page.html" target="_top" xlink:title="动态或实时更新的交互页面，视图中心可自定义">
<polygon fill="white" stroke="#666666" points="281.38,-132 175.38,-132 175.38,-112 281.38,-112 281.38,-132"/>
<text xml:space="preserve" text-anchor="middle" x="228.38" y="-118.5" font-family="Helvetica,sans-Serif" font-size="10.00">sfui::InteractivePage</text>
</a>
</g>
</g>
<!-- Node1&#45;&gt;Node7 -->
<g id="edge6_Node000001_Node000007" class="edge">
<title>Node1&#45;&gt;Node7</title>
<g id="a_edge6_Node000001_Node000007"><a xlink:title=" ">
<path fill="none" stroke="#63b8ff" d="M188.12,-159.85C198.09,-150.72 209.96,-139.86 218.22,-132.3"/>
<polygon fill="#63b8ff" stroke="#63b8ff" points="185.78,-157.24 180.77,-166.57 190.51,-162.4 185.78,-157.24"/>
</a>
</g>
</g>
<!-- Node3 -->
<g id="Node000003" class="node">
<title>Node3</title>
<g id="a_Node000003"><a xlink:href="classsfui_1_1_complex_page.html" target="_top" xlink:title="混合界面类，结合了交互页面和控件页面的功能">
<polygon fill="white" stroke="#666666" points="219,-76 119.75,-76 119.75,-56 219,-56 219,-76"/>
<text xml:space="preserve" text-anchor="middle" x="169.38" y="-62.5" font-family="Helvetica,sans-Serif" font-size="10.00">sfui::ComplexPage</text>
</a>
</g>
</g>
<!-- Node2&#45;&gt;Node3 -->
<g id="edge2_Node000002_Node000003" class="edge">
<title>Node2&#45;&gt;Node3</title>
<g id="a_edge2_Node000002_Node000003"><a xlink:title=" ">
<path fill="none" stroke="#63b8ff" d="M129.8,-103.85C139.6,-94.72 151.27,-83.86 159.39,-76.3"/>
<polygon fill="#63b8ff" stroke="#63b8ff" points="127.52,-101.19 122.59,-110.56 132.29,-106.31 127.52,-101.19"/>
</a>
</g>
</g>
<!-- Node4 -->
<g id="Node000004" class="node">
<title>Node4</title>
<g id="a_Node000004"><a xlink:href="classgame_1_1_game_page.html" target="_top" xlink:title=" ">
<polygon fill="white" stroke="#666666" points="94.75,-20 0,-20 0,0 94.75,0 94.75,-20"/>
<text xml:space="preserve" text-anchor="middle" x="47.38" y="-6.5" font-family="Helvetica,sans-Serif" font-size="10.00">game::GamePage</text>
</a>
</g>
</g>
<!-- Node3&#45;&gt;Node4 -->
<g id="edge3_Node000003_Node000004" class="edge">
<title>Node3&#45;&gt;Node4</title>
<g id="a_edge3_Node000003_Node000004"><a xlink:title=" ">
<path fill="none" stroke="#63b8ff" d="M137.77,-51.01C116.08,-41.41 87.88,-28.93 68.79,-20.48"/>
<polygon fill="#63b8ff" stroke="#63b8ff" points="136.18,-54.13 146.74,-54.98 139.01,-47.73 136.18,-54.13"/>
</a>
</g>
</g>
<!-- Node5 -->
<g id="Node000005" class="node">
<title>Node5</title>
<g id="a_Node000005"><a xlink:href="classgame_1_1_main_menu_page.html" target="_top" xlink:title=" ">
<polygon fill="white" stroke="#666666" points="226.12,-20 112.62,-20 112.62,0 226.12,0 226.12,-20"/>
<text xml:space="preserve" text-anchor="middle" x="169.38" y="-6.5" font-family="Helvetica,sans-Serif" font-size="10.00">game::MainMenuPage</text>
</a>
</g>
</g>
<!-- Node3&#45;&gt;Node5 -->
<g id="edge4_Node000003_Node000005" class="edge">
<title>Node3&#45;&gt;Node5</title>
<g id="a_edge4_Node000003_Node000005"><a xlink:title=" ">
<path fill="none" stroke="#63b8ff" d="M169.38,-44.13C169.38,-35.9 169.38,-26.85 169.38,-20.3"/>
<polygon fill="#63b8ff" stroke="#63b8ff" points="165.88,-44.08 169.38,-54.08 172.88,-44.08 165.88,-44.08"/>
</a>
</g>
</g>
<!-- Node6 -->
<g id="Node000006" class="node">
<title>Node6</title>
<g id="a_Node000006"><a xlink:href="classgame_1_1_pause_game_page.html" target="_top" xlink:title=" ">
<polygon fill="white" stroke="#666666" points="366.62,-20 244.12,-20 244.12,0 366.62,0 366.62,-20"/>
<text xml:space="preserve" text-anchor="middle" x="305.38" y="-6.5" font-family="Helvetica,sans-Serif" font-size="10.00">game::PauseGamePage</text>
</a>
</g>
</g>
<!-- Node3&#45;&gt;Node6 -->
<g id="edge5_Node000003_Node000006" class="edge">
<title>Node3&#45;&gt;Node6</title>
<g id="a_edge5_Node000003_Node000006"><a xlink:title=" ">
<path fill="none" stroke="#63b8ff" d="M203.62,-51.4C227.92,-41.75 259.93,-29.05 281.5,-20.48"/>
<polygon fill="#63b8ff" stroke="#63b8ff" points="202.47,-48.09 194.47,-55.04 205.06,-54.6 202.47,-48.09"/>
</a>
</g>
</g>
<!-- Node7&#45;&gt;Node3 -->
<g id="edge7_Node000007_Node000003" class="edge">
<title>Node7&#45;&gt;Node3</title>
<g id="a_edge7_Node000007_Node000003"><a xlink:title=" ">
<path fill="none" stroke="#63b8ff" d="M209.63,-103.85C199.66,-94.72 187.79,-83.86 179.53,-76.3"/>
<polygon fill="#63b8ff" stroke="#63b8ff" points="207.24,-106.4 216.98,-110.57 211.97,-101.24 207.24,-106.4"/>
</a>
</g>
</g>
</g>
</svg>
</svg>

<style type='text/css'>
<![CDATA[
[data-mouse-over-selected='false'] { opacity: 0.7; }
[data-mouse-over-selected='true']  { opacity: 1.0; }
]]>
</style>
<script type="application/ecmascript"><![CDATA[
document.addEventListener('DOMContentLoaded', (event) => {
  highlightEdges();
  highlightAdjacentNodes();
});
]]></script>
</svg>
