<?xml version="1.0" encoding="UTF-8" standalone="no"?>
<!DOCTYPE svg PUBLIC "-//W3C//DTD SVG 1.1//EN"
 "http://www.w3.org/Graphics/SVG/1.1/DTD/svg11.dtd">
<!-- Generated by graphviz version 13.0.0 (20250608.1624)
 -->
<!-- Title: game::PauseGamePage Pages: 1 -->
<svg width="425pt" height="273pt"
 viewBox="0.00 0.00 425.00 273.00" xmlns="http://www.w3.org/2000/svg" xmlns:xlink="http://www.w3.org/1999/xlink">
<g id="graph0" class="graph" transform="scale(1 1) rotate(0) translate(4 269)">
<title>game::PauseGamePage</title>
<!-- Node1 -->
<g id="Node000001" class="node">
<title>Node1</title>
<g id="a_Node000001"><a xlink:title=" ">
<polygon fill="#999999" stroke="#666666" points="239.75,-20 117.25,-20 117.25,0 239.75,0 239.75,-20"/>
<text xml:space="preserve" text-anchor="middle" x="178.5" y="-6.5" font-family="Helvetica,sans-Serif" font-size="10.00">game::PauseGamePage</text>
</a>
</g>
</g>
<!-- Node2 -->
<g id="Node000002" class="node">
<title>Node2</title>
<g id="a_Node000002"><a xlink:href="classsfui_1_1_complex_page.html" target="_top" xlink:title="混合界面类，结合了交互页面和控件页面的功能">
<polygon fill="white" stroke="#666666" points="228.12,-77 128.88,-77 128.88,-57 228.12,-57 228.12,-77"/>
<text xml:space="preserve" text-anchor="middle" x="178.5" y="-63.5" font-family="Helvetica,sans-Serif" font-size="10.00">sfui::ComplexPage</text>
</a>
</g>
</g>
<!-- Node2&#45;&gt;Node1 -->
<g id="edge1_Node000001_Node000002" class="edge">
<title>Node2&#45;&gt;Node1</title>
<g id="a_edge1_Node000001_Node000002"><a xlink:title=" ">
<path fill="none" stroke="#63b8ff" d="M178.5,-45.69C178.5,-36.97 178.5,-27.22 178.5,-20.28"/>
<polygon fill="#63b8ff" stroke="#63b8ff" points="175,-45.4 178.5,-55.4 182,-45.4 175,-45.4"/>
</a>
</g>
</g>
<!-- Node3 -->
<g id="Node000003" class="node">
<title>Node3</title>
<g id="a_Node000003"><a xlink:href="classsfui_1_1_interactive_page.html" target="_top" xlink:title="动态或实时更新的交互页面，视图中心可自定义">
<polygon fill="white" stroke="#666666" points="173.5,-134 67.5,-134 67.5,-114 173.5,-114 173.5,-134"/>
<text xml:space="preserve" text-anchor="middle" x="120.5" y="-120.5" font-family="Helvetica,sans-Serif" font-size="10.00">sfui::InteractivePage</text>
</a>
</g>
</g>
<!-- Node3&#45;&gt;Node2 -->
<g id="edge2_Node000002_Node000003" class="edge">
<title>Node3&#45;&gt;Node2</title>
<g id="a_edge2_Node000002_Node000003"><a xlink:title=" ">
<path fill="none" stroke="#63b8ff" d="M138.46,-105.97C148.47,-96.47 160.55,-85.02 168.81,-77.19"/>
<polygon fill="#63b8ff" stroke="#63b8ff" points="136.29,-103.21 131.44,-112.63 141.1,-108.29 136.29,-103.21"/>
</a>
</g>
</g>
<!-- Node4 -->
<g id="Node000004" class="node">
<title>Node4</title>
<g id="a_Node000004"><a xlink:href="classsfui_1_1_page.html" target="_top" xlink:title="前置声明窗口类">
<polygon fill="white" stroke="#666666" points="208.62,-191 148.38,-191 148.38,-171 208.62,-171 208.62,-191"/>
<text xml:space="preserve" text-anchor="middle" x="178.5" y="-177.5" font-family="Helvetica,sans-Serif" font-size="10.00">sfui::Page</text>
</a>
</g>
</g>
<!-- Node4&#45;&gt;Node3 -->
<g id="edge3_Node000003_Node000004" class="edge">
<title>Node4&#45;&gt;Node3</title>
<g id="a_edge3_Node000003_Node000004"><a xlink:title=" ">
<path fill="none" stroke="#63b8ff" d="M160.54,-162.97C150.53,-153.47 138.45,-142.02 130.19,-134.19"/>
<polygon fill="#63b8ff" stroke="#63b8ff" points="157.9,-165.29 167.56,-169.63 162.71,-160.21 157.9,-165.29"/>
</a>
</g>
</g>
<!-- Node9 -->
<g id="Node000009" class="node">
<title>Node9</title>
<g id="a_Node000009"><a xlink:href="classsfui_1_1_control_page.html" target="_top" xlink:title="UI 控件页面，视图大小等于窗口大小，(0,0)为左上角">
<polygon fill="white" stroke="#666666" points="283.38,-134 191.62,-134 191.62,-114 283.38,-114 283.38,-134"/>
<text xml:space="preserve" text-anchor="middle" x="237.5" y="-120.5" font-family="Helvetica,sans-Serif" font-size="10.00">sfui::ControlPage</text>
</a>
</g>
</g>
<!-- Node4&#45;&gt;Node9 -->
<g id="edge9_Node000009_Node000004" class="edge">
<title>Node4&#45;&gt;Node9</title>
<g id="a_edge9_Node000009_Node000004"><a xlink:title=" ">
<path fill="none" stroke="#63b8ff" d="M196.77,-162.97C206.96,-153.47 219.24,-142.02 227.64,-134.19"/>
<polygon fill="#63b8ff" stroke="#63b8ff" points="194.54,-160.26 189.62,-169.64 199.32,-165.38 194.54,-160.26"/>
</a>
</g>
</g>
<!-- Node5 -->
<g id="Node000005" class="node">
<title>Node5</title>
<g id="a_Node000005"><a xlink:href="classsfui_1_1_window.html" target="_top" xlink:title="窗口类，负责窗口创建、页面管理、事件循环、全屏切换等。">
<polygon fill="white" stroke="#666666" points="73,-265 0,-265 0,-245 73,-245 73,-265"/>
<text xml:space="preserve" text-anchor="middle" x="36.5" y="-251.5" font-family="Helvetica,sans-Serif" font-size="10.00">sfui::Window</text>
</a>
</g>
</g>
<!-- Node5&#45;&gt;Node4 -->
<g id="edge4_Node000004_Node000005" class="edge">
<title>Node5&#45;&gt;Node4</title>
<g id="a_edge4_Node000004_Node000005"><a xlink:title=" ">
<path fill="none" stroke="#9a32cd" stroke-dasharray="5,2" d="M51.4,-236.12C60,-226.83 71.51,-216 83.75,-209 103.65,-197.63 128.68,-190.76 148.01,-186.8"/>
<polygon fill="#9a32cd" stroke="#9a32cd" points="48.84,-233.73 44.86,-243.55 54.09,-238.36 48.84,-233.73"/>
</a>
</g>
<text xml:space="preserve" text-anchor="start" x="86.75" y="-214.5" font-family="Helvetica,sans-Serif" font-size="10.00" fill="grey">mp_window</text>
</g>
<!-- Node6 -->
<g id="Node000006" class="node">
<title>Node6</title>
<g id="a_Node000006"><a xlink:href="classsfui_1_1_mouse.html" target="_top" xlink:title="实时鼠标操作类">
<polygon fill="white" stroke="#666666" points="158,-265 91,-265 91,-245 158,-245 158,-265"/>
<text xml:space="preserve" text-anchor="middle" x="124.5" y="-251.5" font-family="Helvetica,sans-Serif" font-size="10.00">sfui::Mouse</text>
</a>
</g>
</g>
<!-- Node6&#45;&gt;Node4 -->
<g id="edge5_Node000004_Node000006" class="edge">
<title>Node6&#45;&gt;Node4</title>
<g id="a_edge5_Node000004_Node000006"><a xlink:title=" ">
<path fill="none" stroke="#9a32cd" stroke-dasharray="5,2" d="M138.24,-235.68C148.9,-221.47 163.23,-202.36 171.61,-191.19"/>
<polygon fill="#9a32cd" stroke="#9a32cd" points="135.67,-233.28 132.47,-243.38 141.27,-237.48 135.67,-233.28"/>
</a>
</g>
<text xml:space="preserve" text-anchor="start" x="160.92" y="-214.5" font-family="Helvetica,sans-Serif" font-size="10.00" fill="grey">m_mouse</text>
</g>
<!-- Node7 -->
<g id="Node000007" class="node">
<title>Node7</title>
<g id="a_Node000007"><a xlink:href="classsfui_1_1_active_key_binding.html" target="_top" xlink:title="按键状态与行为的映射类">
<polygon fill="white" stroke="#666666" points="291,-265 176,-265 176,-245 291,-245 291,-265"/>
<text xml:space="preserve" text-anchor="middle" x="233.5" y="-251.5" font-family="Helvetica,sans-Serif" font-size="10.00">sfui::ActiveKeyBinding</text>
</a>
</g>
</g>
<!-- Node7&#45;&gt;Node4 -->
<g id="edge6_Node000004_Node000007" class="edge">
<title>Node7&#45;&gt;Node4</title>
<g id="a_edge6_Node000004_Node000007"><a xlink:title=" ">
<path fill="none" stroke="#9a32cd" stroke-dasharray="5,2" d="M225.59,-234.47C221.72,-226.16 216.58,-216.65 210.5,-209 205.26,-202.4 198.19,-196.23 192.04,-191.47"/>
<polygon fill="#9a32cd" stroke="#9a32cd" points="222.26,-235.58 229.45,-243.37 228.68,-232.8 222.26,-235.58"/>
</a>
</g>
<text xml:space="preserve" text-anchor="start" x="224.63" y="-214.5" font-family="Helvetica,sans-Serif" font-size="10.00" fill="grey">m_activeKeyBinding</text>
</g>
<!-- Node8 -->
<g id="Node000008" class="node">
<title>Node8</title>
<g id="a_Node000008"><a xlink:href="classsfui_1_1_evect_bingding.html" target="_top" xlink:title="按键和鼠标事件与行为的映射类">
<polygon fill="white" stroke="#666666" points="409.88,-265 309.12,-265 309.12,-245 409.88,-245 409.88,-265"/>
<text xml:space="preserve" text-anchor="middle" x="359.5" y="-251.5" font-family="Helvetica,sans-Serif" font-size="10.00">sfui::EvectBingding</text>
</a>
</g>
</g>
<!-- Node8&#45;&gt;Node4 -->
<g id="edge7_Node000004_Node000008" class="edge">
<title>Node8&#45;&gt;Node4</title>
<g id="a_edge7_Node000004_Node000008"><a xlink:title=" ">
<path fill="none" stroke="#9a32cd" stroke-dasharray="5,2" d="M347.84,-235.4C341.01,-226.04 331.55,-215.36 320.5,-209 285.81,-189.03 239.23,-183.47 209.03,-182.11"/>
<polygon fill="#9a32cd" stroke="#9a32cd" points="344.83,-237.2 353.33,-243.52 350.63,-233.28 344.83,-237.2"/>
</a>
</g>
<text xml:space="preserve" text-anchor="start" x="344.15" y="-214.5" font-family="Helvetica,sans-Serif" font-size="10.00" fill="grey">m_eventBinding</text>
</g>
<!-- Node9&#45;&gt;Node2 -->
<g id="edge8_Node000002_Node000009" class="edge">
<title>Node9&#45;&gt;Node2</title>
<g id="a_edge8_Node000002_Node000009"><a xlink:title=" ">
<path fill="none" stroke="#63b8ff" d="M219.23,-105.97C209.04,-96.47 196.76,-85.02 188.36,-77.19"/>
<polygon fill="#63b8ff" stroke="#63b8ff" points="216.68,-108.38 226.38,-112.64 221.46,-103.26 216.68,-108.38"/>
</a>
</g>
</g>
</g>
</svg>
