<?xml version="1.0" encoding="UTF-8" standalone="no"?>
<!DOCTYPE svg PUBLIC "-//W3C//DTD SVG 1.1//EN"
 "http://www.w3.org/Graphics/SVG/1.1/DTD/svg11.dtd">
<!-- Generated by graphviz version 13.0.0 (20250608.1624)
 -->
<!-- Title: sfui::Window::toggleFullscreen Pages: 1 -->
<svg width="744pt" height="40pt"
 viewBox="0.00 0.00 744.00 40.00" xmlns="http://www.w3.org/2000/svg" xmlns:xlink="http://www.w3.org/1999/xlink">
<g id="graph0" class="graph" transform="scale(1 1) rotate(0) translate(4 36)">
<title>sfui::Window::toggleFullscreen</title>
<!-- Node1 -->
<g id="Node000001" class="node">
<title>Node1</title>
<g id="a_Node000001"><a xlink:title="切换窗口/全屏模式。">
<polygon fill="#999999" stroke="#666666" points="735.5,-26 585.25,-26 585.25,-6 735.5,-6 735.5,-26"/>
<text xml:space="preserve" text-anchor="middle" x="660.38" y="-12.5" font-family="Helvetica,sans-Serif" font-size="10.00">sfui::Window::toggleFullscreen</text>
</a>
</g>
</g>
<!-- Node2 -->
<g id="Node000002" class="node">
<title>Node2</title>
<g id="a_Node000002"><a xlink:href="classsfui_1_1_window.html#adfd7ab642e978cb4bac3b6ccb2093712" target="_top" xlink:title="处理SFML事件输入。">
<polygon fill="white" stroke="#666666" points="549.25,-32 416.25,-32 416.25,0 549.25,0 549.25,-32"/>
<text xml:space="preserve" text-anchor="start" x="424.25" y="-18.5" font-family="Helvetica,sans-Serif" font-size="10.00">sfui::Window::handleEvent</text>
<text xml:space="preserve" text-anchor="middle" x="482.75" y="-6.5" font-family="Helvetica,sans-Serif" font-size="10.00">Input</text>
</a>
</g>
</g>
<!-- Node1&#45;&gt;Node2 -->
<g id="edge1_Node000001_Node000002" class="edge">
<title>Node1&#45;&gt;Node2</title>
<g id="a_edge1_Node000001_Node000002"><a xlink:title=" ">
<path fill="none" stroke="#63b8ff" d="M573.59,-16C565.57,-16 557.52,-16 549.72,-16"/>
<polygon fill="#63b8ff" stroke="#63b8ff" points="573.38,-19.5 583.38,-16 573.38,-12.5 573.38,-19.5"/>
</a>
</g>
</g>
<!-- Node3 -->
<g id="Node000003" class="node">
<title>Node3</title>
<g id="a_Node000003"><a xlink:href="classsfui_1_1_window.html#a2ab4ee75de63cdb7df571d69bc2902a1" target="_top" xlink:title="处理窗口和页面事件，收到关闭事件时关闭窗口。">
<polygon fill="white" stroke="#666666" points="380.25,-26 232.25,-26 232.25,-6 380.25,-6 380.25,-26"/>
<text xml:space="preserve" text-anchor="middle" x="306.25" y="-12.5" font-family="Helvetica,sans-Serif" font-size="10.00">sfui::Window::procesMessage</text>
</a>
</g>
</g>
<!-- Node2&#45;&gt;Node3 -->
<g id="edge2_Node000002_Node000003" class="edge">
<title>Node2&#45;&gt;Node3</title>
<g id="a_edge2_Node000002_Node000003"><a xlink:title=" ">
<path fill="none" stroke="#63b8ff" d="M404.33,-16C396.45,-16 388.46,-16 380.62,-16"/>
<polygon fill="#63b8ff" stroke="#63b8ff" points="404.27,-19.5 414.27,-16 404.27,-12.5 404.27,-19.5"/>
</a>
</g>
</g>
<!-- Node4 -->
<g id="Node000004" class="node">
<title>Node4</title>
<g id="a_Node000004"><a xlink:href="classsfui_1_1_window.html#a2d60139900440e63f10e535d5287af9b" target="_top" xlink:title="显示首页并进入主循环。">
<polygon fill="white" stroke="#666666" points="196.25,-26 73,-26 73,-6 196.25,-6 196.25,-26"/>
<text xml:space="preserve" text-anchor="middle" x="134.62" y="-12.5" font-family="Helvetica,sans-Serif" font-size="10.00">sfui::Window::startShow</text>
</a>
</g>
</g>
<!-- Node3&#45;&gt;Node4 -->
<g id="edge3_Node000003_Node000004" class="edge">
<title>Node3&#45;&gt;Node4</title>
<g id="a_edge3_Node000003_Node000004"><a xlink:title=" ">
<path fill="none" stroke="#63b8ff" d="M220.5,-16C212.47,-16 204.43,-16 196.68,-16"/>
<polygon fill="#63b8ff" stroke="#63b8ff" points="220.32,-19.5 230.32,-16 220.32,-12.5 220.32,-19.5"/>
</a>
</g>
</g>
<!-- Node5 -->
<g id="Node000005" class="node">
<title>Node5</title>
<g id="a_Node000005"><a xlink:href="main_8cpp.html#a8216c1645620cdb2f629cde3ac02ffef" target="_top" xlink:title=" ">
<polygon fill="white" stroke="#666666" points="37,-26 0,-26 0,-6 37,-6 37,-26"/>
<text xml:space="preserve" text-anchor="middle" x="18.5" y="-12.5" font-family="Helvetica,sans-Serif" font-size="10.00">main</text>
</a>
</g>
</g>
<!-- Node4&#45;&gt;Node5 -->
<g id="edge4_Node000004_Node000005" class="edge">
<title>Node4&#45;&gt;Node5</title>
<g id="a_edge4_Node000004_Node000005"><a xlink:title=" ">
<path fill="none" stroke="#63b8ff" d="M61.18,-16C52.37,-16 44.09,-16 37.26,-16"/>
<polygon fill="#63b8ff" stroke="#63b8ff" points="61.04,-19.5 71.04,-16 61.04,-12.5 61.04,-19.5"/>
</a>
</g>
</g>
</g>
</svg>
