<?xml version="1.0" encoding="UTF-8" standalone="no"?>
<!DOCTYPE svg PUBLIC "-//W3C//DTD SVG 1.1//EN"
 "http://www.w3.org/Graphics/SVG/1.1/DTD/svg11.dtd">
<!-- Generated by graphviz version 13.0.0 (20250608.1624)
 -->
<!-- Title: game::Player Pages: 1 -->
<svg width="266pt" height="216pt"
 viewBox="0.00 0.00 266.00 216.00" xmlns="http://www.w3.org/2000/svg" xmlns:xlink="http://www.w3.org/1999/xlink">
<g id="graph0" class="graph" transform="scale(1 1) rotate(0) translate(4 212)">
<title>game::Player</title>
<!-- Node1 -->
<g id="Node000001" class="node">
<title>Node1</title>
<g id="a_Node000001"><a xlink:title=" ">
<polygon fill="#999999" stroke="#666666" points="144.62,-20 70.88,-20 70.88,0 144.62,0 144.62,-20"/>
<text xml:space="preserve" text-anchor="middle" x="107.75" y="-6.5" font-family="Helvetica,sans-Serif" font-size="10.00">game::Player</text>
</a>
</g>
</g>
<!-- Node2 -->
<g id="Node000002" class="node">
<title>Node2</title>
<g id="a_Node000002"><a xlink:href="classgame_1_1_biology.html" target="_top" xlink:title=" ">
<polygon fill="white" stroke="#666666" points="146.88,-77 68.62,-77 68.62,-57 146.88,-57 146.88,-77"/>
<text xml:space="preserve" text-anchor="middle" x="107.75" y="-63.5" font-family="Helvetica,sans-Serif" font-size="10.00">game::Biology</text>
</a>
</g>
</g>
<!-- Node2&#45;&gt;Node1 -->
<g id="edge1_Node000001_Node000002" class="edge">
<title>Node2&#45;&gt;Node1</title>
<g id="a_edge1_Node000001_Node000002"><a xlink:title=" ">
<path fill="none" stroke="#8b1a1a" d="M107.75,-45.69C107.75,-36.97 107.75,-27.22 107.75,-20.28"/>
<polygon fill="#8b1a1a" stroke="#8b1a1a" points="104.25,-45.4 107.75,-55.4 111.25,-45.4 104.25,-45.4"/>
</a>
</g>
</g>
<!-- Node3 -->
<g id="Node000003" class="node">
<title>Node3</title>
<g id="a_Node000003"><a xlink:href="classgame_1_1_world_elemental.html" target="_top" xlink:title=" ">
<polygon fill="white" stroke="#666666" points="164.88,-134 50.62,-134 50.62,-114 164.88,-114 164.88,-134"/>
<text xml:space="preserve" text-anchor="middle" x="107.75" y="-120.5" font-family="Helvetica,sans-Serif" font-size="10.00">game::WorldElemental</text>
</a>
</g>
</g>
<!-- Node3&#45;&gt;Node2 -->
<g id="edge2_Node000002_Node000003" class="edge">
<title>Node3&#45;&gt;Node2</title>
<g id="a_edge2_Node000002_Node000003"><a xlink:title=" ">
<path fill="none" stroke="#63b8ff" d="M107.75,-102.69C107.75,-93.97 107.75,-84.22 107.75,-77.28"/>
<polygon fill="#63b8ff" stroke="#63b8ff" points="104.25,-102.4 107.75,-112.4 111.25,-102.4 104.25,-102.4"/>
</a>
</g>
</g>
<!-- Node4 -->
<g id="Node000004" class="node">
<title>Node4</title>
<g id="a_Node000004"><a xlink:href="classgame_1_1_elemental.html" target="_top" xlink:title=" ">
<polygon fill="white" stroke="#666666" points="89.5,-208 0,-208 0,-188 89.5,-188 89.5,-208"/>
<text xml:space="preserve" text-anchor="middle" x="44.75" y="-194.5" font-family="Helvetica,sans-Serif" font-size="10.00">game::Elemental</text>
</a>
</g>
</g>
<!-- Node4&#45;&gt;Node3 -->
<g id="edge3_Node000003_Node000004" class="edge">
<title>Node4&#45;&gt;Node3</title>
<g id="a_edge3_Node000003_Node000004"><a xlink:title=" ">
<path fill="none" stroke="#63b8ff" d="M60.42,-179.09C72.89,-164.84 89.85,-145.46 99.71,-134.19"/>
<polygon fill="#63b8ff" stroke="#63b8ff" points="57.93,-176.62 53.98,-186.45 63.2,-181.23 57.93,-176.62"/>
</a>
</g>
</g>
<!-- Node5 -->
<g id="Node000005" class="node">
<title>Node5</title>
<g id="a_Node000005"><a xlink:href="classsfui_1_1_time_animated_sprite.html" target="_top" xlink:title="以时间为依据循环播放的动图类">
<polygon fill="white" stroke="#666666" points="233.88,-208 107.62,-208 107.62,-188 233.88,-188 233.88,-208"/>
<text xml:space="preserve" text-anchor="middle" x="170.75" y="-194.5" font-family="Helvetica,sans-Serif" font-size="10.00">sfui::TimeAnimatedSprite</text>
</a>
</g>
</g>
<!-- Node5&#45;&gt;Node3 -->
<g id="edge4_Node000003_Node000005" class="edge">
<title>Node5&#45;&gt;Node3</title>
<g id="a_edge4_Node000003_Node000005"><a xlink:title=" ">
<path fill="none" stroke="#9a32cd" stroke-dasharray="5,2" d="M155.08,-179.09C142.61,-164.84 125.65,-145.46 115.79,-134.19"/>
<polygon fill="#9a32cd" stroke="#9a32cd" points="152.3,-181.23 161.52,-186.45 157.57,-176.62 152.3,-181.23"/>
</a>
</g>
<text xml:space="preserve" text-anchor="start" x="149.75" y="-157.5" font-family="Helvetica,sans-Serif" font-size="10.00" fill="grey">m_frameAnimatedSprite</text>
</g>
</g>
</svg>
