<?xml version="1.0" encoding="UTF-8" standalone="no"?>
<!DOCTYPE svg PUBLIC "-//W3C//DTD SVG 1.1//EN"
 "http://www.w3.org/Graphics/SVG/1.1/DTD/svg11.dtd">
<!-- Generated by graphviz version 13.0.0 (20250608.1624)
 -->
<!-- Title: game::WorldElemental Pages: 1 -->
<svg width="266pt" height="102pt"
 viewBox="0.00 0.00 266.00 102.00" xmlns="http://www.w3.org/2000/svg" xmlns:xlink="http://www.w3.org/1999/xlink">
<g id="graph0" class="graph" transform="scale(1 1) rotate(0) translate(4 98)">
<title>game::WorldElemental</title>
<!-- Node1 -->
<g id="Node000001" class="node">
<title>Node1</title>
<g id="a_Node000001"><a xlink:title=" ">
<polygon fill="#999999" stroke="#666666" points="164.88,-20 50.62,-20 50.62,0 164.88,0 164.88,-20"/>
<text xml:space="preserve" text-anchor="middle" x="107.75" y="-6.5" font-family="Helvetica,sans-Serif" font-size="10.00">game::WorldElemental</text>
</a>
</g>
</g>
<!-- Node2 -->
<g id="Node000002" class="node">
<title>Node2</title>
<g id="a_Node000002"><a xlink:href="classgame_1_1_elemental.html" target="_top" xlink:title=" ">
<polygon fill="white" stroke="#666666" points="89.5,-94 0,-94 0,-74 89.5,-74 89.5,-94"/>
<text xml:space="preserve" text-anchor="middle" x="44.75" y="-80.5" font-family="Helvetica,sans-Serif" font-size="10.00">game::Elemental</text>
</a>
</g>
</g>
<!-- Node2&#45;&gt;Node1 -->
<g id="edge1_Node000001_Node000002" class="edge">
<title>Node2&#45;&gt;Node1</title>
<g id="a_edge1_Node000001_Node000002"><a xlink:title=" ">
<path fill="none" stroke="#63b8ff" d="M60.42,-65.09C72.89,-50.84 89.85,-31.46 99.71,-20.19"/>
<polygon fill="#63b8ff" stroke="#63b8ff" points="57.93,-62.62 53.98,-72.45 63.2,-67.23 57.93,-62.62"/>
</a>
</g>
</g>
<!-- Node3 -->
<g id="Node000003" class="node">
<title>Node3</title>
<g id="a_Node000003"><a xlink:href="classsfui_1_1_time_animated_sprite.html" target="_top" xlink:title="以时间为依据循环播放的动图类">
<polygon fill="white" stroke="#666666" points="233.88,-94 107.62,-94 107.62,-74 233.88,-74 233.88,-94"/>
<text xml:space="preserve" text-anchor="middle" x="170.75" y="-80.5" font-family="Helvetica,sans-Serif" font-size="10.00">sfui::TimeAnimatedSprite</text>
</a>
</g>
</g>
<!-- Node3&#45;&gt;Node1 -->
<g id="edge2_Node000001_Node000003" class="edge">
<title>Node3&#45;&gt;Node1</title>
<g id="a_edge2_Node000001_Node000003"><a xlink:title=" ">
<path fill="none" stroke="#9a32cd" stroke-dasharray="5,2" d="M155.08,-65.09C142.61,-50.84 125.65,-31.46 115.79,-20.19"/>
<polygon fill="#9a32cd" stroke="#9a32cd" points="152.3,-67.23 161.52,-72.45 157.57,-62.62 152.3,-67.23"/>
</a>
</g>
<text xml:space="preserve" text-anchor="start" x="149.75" y="-43.5" font-family="Helvetica,sans-Serif" font-size="10.00" fill="grey">m_frameAnimatedSprite</text>
</g>
</g>
</svg>
