<?xml version="1.0" encoding="UTF-8" standalone="no"?>
<!DOCTYPE svg PUBLIC "-//W3C//DTD SVG 1.1//EN"
 "http://www.w3.org/Graphics/SVG/1.1/DTD/svg11.dtd">
<!-- Generated by graphviz version 13.0.0 (20250608.1624)
 -->
<!-- Title: sfui::ControlPage::draw Pages: 1 -->
<svg width="432pt" height="78pt"
 viewBox="0.00 0.00 432.00 78.00" xmlns="http://www.w3.org/2000/svg" xmlns:xlink="http://www.w3.org/1999/xlink">
<g id="graph0" class="graph" transform="scale(1 1) rotate(0) translate(4 74)">
<title>sfui::ControlPage::draw</title>
<!-- Node1 -->
<g id="Node000001" class="node">
<title>Node1</title>
<g id="a_Node000001"><a xlink:title="绘制按钮">
<polygon fill="#999999" stroke="#666666" points="423.75,-48 305,-48 305,-28 423.75,-28 423.75,-48"/>
<text xml:space="preserve" text-anchor="middle" x="364.38" y="-34.5" font-family="Helvetica,sans-Serif" font-size="10.00">sfui::ControlPage::draw</text>
</a>
</g>
</g>
<!-- Node2 -->
<g id="Node000002" class="node">
<title>Node2</title>
<g id="a_Node000002"><a xlink:href="classsfui_1_1_complex_page.html#aa891757590b0909bb44a4e8de89b0846" target="_top" xlink:title="以窗口为依据绘制对象">
<polygon fill="white" stroke="#666666" points="269,-54 163.75,-54 163.75,-22 269,-22 269,-54"/>
<text xml:space="preserve" text-anchor="start" x="171.75" y="-40.5" font-family="Helvetica,sans-Serif" font-size="10.00">sfui::ComplexPage::</text>
<text xml:space="preserve" text-anchor="middle" x="216.38" y="-28.5" font-family="Helvetica,sans-Serif" font-size="10.00">drawForWindow</text>
</a>
</g>
</g>
<!-- Node1&#45;&gt;Node2 -->
<g id="edge1_Node000001_Node000002" class="edge">
<title>Node1&#45;&gt;Node2</title>
<g id="a_edge1_Node000001_Node000002"><a xlink:title=" ">
<path fill="none" stroke="#63b8ff" d="M293.43,-38C285.31,-38 277.15,-38 269.33,-38"/>
<polygon fill="#63b8ff" stroke="#63b8ff" points="293.32,-41.5 303.32,-38 293.32,-34.5 293.32,-41.5"/>
</a>
</g>
</g>
<!-- Node3 -->
<g id="Node000003" class="node">
<title>Node3</title>
<g id="a_Node000003"><a xlink:href="classgame_1_1_game_page.html#a2e31f8daab5616ded15be1e119be1ef9" target="_top" xlink:title="渲染界面内容（纯虚函数，需子类实现）">
<polygon fill="white" stroke="#666666" points="127.75,-70 0,-70 0,-50 127.75,-50 127.75,-70"/>
<text xml:space="preserve" text-anchor="middle" x="63.88" y="-56.5" font-family="Helvetica,sans-Serif" font-size="10.00">game::GamePage::render</text>
</a>
</g>
</g>
<!-- Node2&#45;&gt;Node3 -->
<g id="edge2_Node000002_Node000003" class="edge">
<title>Node2&#45;&gt;Node3</title>
<g id="a_edge2_Node000002_Node000003"><a xlink:title=" ">
<path fill="none" stroke="#63b8ff" d="M152.43,-47.2C144.42,-48.37 136.22,-49.57 128.21,-50.74"/>
<polygon fill="#63b8ff" stroke="#63b8ff" points="152.7,-50.7 162.08,-45.79 151.68,-43.77 152.7,-50.7"/>
</a>
</g>
</g>
<!-- Node4 -->
<g id="Node000004" class="node">
<title>Node4</title>
<g id="a_Node000004"><a xlink:href="classgame_1_1_pause_game_page.html#a01faef65e895e021fc756aac70e3d38a" target="_top" xlink:title="渲染界面内容（纯虚函数，需子类实现）">
<polygon fill="white" stroke="#666666" points="125.12,-32 2.62,-32 2.62,0 125.12,0 125.12,-32"/>
<text xml:space="preserve" text-anchor="start" x="10.62" y="-18.5" font-family="Helvetica,sans-Serif" font-size="10.00">game::PauseGamePage</text>
<text xml:space="preserve" text-anchor="middle" x="63.88" y="-6.5" font-family="Helvetica,sans-Serif" font-size="10.00">::render</text>
</a>
</g>
</g>
<!-- Node2&#45;&gt;Node4 -->
<g id="edge3_Node000002_Node000004" class="edge">
<title>Node2&#45;&gt;Node4</title>
<g id="a_edge3_Node000002_Node000004"><a xlink:title=" ">
<path fill="none" stroke="#63b8ff" d="M152.47,-28.8C143.57,-27.5 134.43,-26.17 125.57,-24.87"/>
<polygon fill="#63b8ff" stroke="#63b8ff" points="151.68,-32.23 162.08,-30.21 152.7,-25.3 151.68,-32.23"/>
</a>
</g>
</g>
</g>
</svg>
