<?xml version="1.0" encoding="UTF-8" standalone="no"?>
<!DOCTYPE svg PUBLIC "-//W3C//DTD SVG 1.1//EN"
 "http://www.w3.org/Graphics/SVG/1.1/DTD/svg11.dtd">
<!-- Generated by graphviz version 13.0.0 (20250608.1624)
 -->
<!-- Title: sfui::ComplexPage::ComplexPage Pages: 1 -->
<svg width="299pt" height="78pt"
 viewBox="0.00 0.00 299.00 78.00" xmlns="http://www.w3.org/2000/svg" xmlns:xlink="http://www.w3.org/1999/xlink">
<g id="graph0" class="graph" transform="scale(1 1) rotate(0) translate(4 74)">
<title>sfui::ComplexPage::ComplexPage</title>
<!-- Node1 -->
<g id="Node000001" class="node">
<title>Node1</title>
<g id="a_Node000001"><a xlink:title=" ">
<polygon fill="#999999" stroke="#666666" points="290.75,-54 185.5,-54 185.5,-22 290.75,-22 290.75,-54"/>
<text xml:space="preserve" text-anchor="start" x="193.5" y="-40.5" font-family="Helvetica,sans-Serif" font-size="10.00">sfui::ComplexPage::</text>
<text xml:space="preserve" text-anchor="middle" x="238.12" y="-28.5" font-family="Helvetica,sans-Serif" font-size="10.00">ComplexPage</text>
</a>
</g>
</g>
<!-- Node2 -->
<g id="Node000002" class="node">
<title>Node2</title>
<g id="a_Node000002"><a xlink:href="classgame_1_1_game_page.html#a91af173bceb6cb36da8332f25e8b7183" target="_top" xlink:title=" ">
<polygon fill="white" stroke="#666666" points="149.5,-70 0,-70 0,-50 149.5,-50 149.5,-70"/>
<text xml:space="preserve" text-anchor="middle" x="74.75" y="-56.5" font-family="Helvetica,sans-Serif" font-size="10.00">game::GamePage::GamePage</text>
</a>
</g>
</g>
<!-- Node1&#45;&gt;Node2 -->
<g id="edge1_Node000001_Node000002" class="edge">
<title>Node1&#45;&gt;Node2</title>
<g id="a_edge1_Node000001_Node000002"><a xlink:title=" ">
<path fill="none" stroke="#63b8ff" d="M173.87,-46.62C166.02,-47.69 157.93,-48.8 149.93,-49.89"/>
<polygon fill="#63b8ff" stroke="#63b8ff" points="174.24,-50.11 183.68,-45.29 173.3,-43.17 174.24,-50.11"/>
</a>
</g>
</g>
<!-- Node3 -->
<g id="Node000003" class="node">
<title>Node3</title>
<g id="a_Node000003"><a xlink:href="classgame_1_1_main_menu_page.html#a597d6a61f1bc9cf80e3a99e466fe678b" target="_top" xlink:title=" ">
<polygon fill="white" stroke="#666666" points="131.5,-32 18,-32 18,0 131.5,0 131.5,-32"/>
<text xml:space="preserve" text-anchor="start" x="26" y="-18.5" font-family="Helvetica,sans-Serif" font-size="10.00">game::MainMenuPage</text>
<text xml:space="preserve" text-anchor="middle" x="74.75" y="-6.5" font-family="Helvetica,sans-Serif" font-size="10.00">::MainMenuPage</text>
</a>
</g>
</g>
<!-- Node1&#45;&gt;Node3 -->
<g id="edge2_Node000001_Node000003" class="edge">
<title>Node1&#45;&gt;Node3</title>
<g id="a_edge2_Node000001_Node000003"><a xlink:title=" ">
<path fill="none" stroke="#63b8ff" d="M174.16,-29.42C160.18,-27.51 145.46,-25.5 131.78,-23.64"/>
<polygon fill="#63b8ff" stroke="#63b8ff" points="173.3,-32.83 183.68,-30.71 174.24,-25.89 173.3,-32.83"/>
</a>
</g>
</g>
</g>
</svg>
