<?xml version="1.0" encoding="UTF-8" standalone="no"?>
<!DOCTYPE svg PUBLIC "-//W3C//DTD SVG 1.1//EN"
 "http://www.w3.org/Graphics/SVG/1.1/DTD/svg11.dtd">
<!-- Generated by graphviz version 13.0.0 (20250608.1624)
 -->
<!-- Title: sfui::Window::handleEventInput Pages: 1 -->
<svg width="496pt" height="66pt"
 viewBox="0.00 0.00 496.00 66.00" xmlns="http://www.w3.org/2000/svg" xmlns:xlink="http://www.w3.org/1999/xlink">
<g id="graph0" class="graph" transform="scale(1 1) rotate(0) translate(4 62)">
<title>sfui::Window::handleEventInput</title>
<!-- Node1 -->
<g id="Node000001" class="node">
<title>Node1</title>
<g id="a_Node000001"><a xlink:title="处理SFML事件输入。">
<polygon fill="#999999" stroke="#666666" points="133,-45 0,-45 0,-13 133,-13 133,-45"/>
<text xml:space="preserve" text-anchor="start" x="8" y="-31.5" font-family="Helvetica,sans-Serif" font-size="10.00">sfui::Window::handleEvent</text>
<text xml:space="preserve" text-anchor="middle" x="66.5" y="-19.5" font-family="Helvetica,sans-Serif" font-size="10.00">Input</text>
</a>
</g>
</g>
<!-- Node2 -->
<g id="Node000002" class="node">
<title>Node2</title>
<g id="a_Node000002"><a xlink:href="classsfui_1_1_window.html#ae92de433502a60e90de1494307e91291" target="_top" xlink:title="切换窗口/全屏模式。">
<polygon fill="white" stroke="#666666" points="319.25,-39 169,-39 169,-19 319.25,-19 319.25,-39"/>
<text xml:space="preserve" text-anchor="middle" x="244.12" y="-25.5" font-family="Helvetica,sans-Serif" font-size="10.00">sfui::Window::toggleFullscreen</text>
</a>
</g>
</g>
<!-- Node1&#45;&gt;Node2 -->
<g id="edge1_Node000001_Node000002" class="edge">
<title>Node1&#45;&gt;Node2</title>
<g id="a_edge1_Node000001_Node000002"><a xlink:title=" ">
<path fill="none" stroke="#63b8ff" d="M133.4,-29C141.2,-29 149.26,-29 157.29,-29"/>
<polygon fill="#63b8ff" stroke="#63b8ff" points="157.08,-32.5 167.08,-29 157.08,-25.5 157.08,-32.5"/>
</a>
</g>
</g>
<!-- Node3 -->
<g id="Node000003" class="node">
<title>Node3</title>
<g id="a_Node000003"><a xlink:href="classsfui_1_1_window.html#a2643f2d69c4b1e042e27cb4c0eccb30e" target="_top" xlink:title="切换到全屏模式。">
<polygon fill="white" stroke="#666666" points="487.88,-58 355.62,-58 355.62,-38 487.88,-38 487.88,-58"/>
<text xml:space="preserve" text-anchor="middle" x="421.75" y="-44.5" font-family="Helvetica,sans-Serif" font-size="10.00">sfui::Window::toFullscreen</text>
</a>
</g>
</g>
<!-- Node2&#45;&gt;Node3 -->
<g id="edge2_Node000002_Node000003" class="edge">
<title>Node2&#45;&gt;Node3</title>
<g id="a_edge2_Node000002_Node000003"><a xlink:title=" ">
<path fill="none" stroke="#63b8ff" d="M319.61,-37.06C327.68,-37.93 335.9,-38.82 344,-39.7"/>
<polygon fill="#63b8ff" stroke="#63b8ff" points="343.51,-43.16 353.82,-40.76 344.26,-36.2 343.51,-43.16"/>
</a>
</g>
</g>
<!-- Node4 -->
<g id="Node000004" class="node">
<title>Node4</title>
<g id="a_Node000004"><a xlink:href="classsfui_1_1_window.html#a981375b53a47466a633fe41b3ce66361" target="_top" xlink:title="切换到窗口模式。">
<polygon fill="white" stroke="#666666" points="488.25,-20 355.25,-20 355.25,0 488.25,0 488.25,-20"/>
<text xml:space="preserve" text-anchor="middle" x="421.75" y="-6.5" font-family="Helvetica,sans-Serif" font-size="10.00">sfui::Window::toWindowed</text>
</a>
</g>
</g>
<!-- Node2&#45;&gt;Node4 -->
<g id="edge3_Node000002_Node000004" class="edge">
<title>Node2&#45;&gt;Node4</title>
<g id="a_edge3_Node000002_Node000004"><a xlink:title=" ">
<path fill="none" stroke="#63b8ff" d="M319.61,-20.94C327.46,-20.09 335.45,-19.23 343.34,-18.37"/>
<polygon fill="#63b8ff" stroke="#63b8ff" points="343.71,-21.86 353.27,-17.3 342.95,-14.9 343.71,-21.86"/>
</a>
</g>
</g>
</g>
</svg>
