<?xml version="1.0" encoding="UTF-8" standalone="no"?>
<!DOCTYPE svg PUBLIC "-//W3C//DTD SVG 1.1//EN"
 "http://www.w3.org/Graphics/SVG/1.1/DTD/svg11.dtd">
<!-- Generated by graphviz version 13.0.0 (20250608.1624)
 -->
<!-- Title: game::PauseGamePage::render Pages: 1 -->
<svg width="574pt" height="40pt"
 viewBox="0.00 0.00 574.00 40.00" xmlns="http://www.w3.org/2000/svg" xmlns:xlink="http://www.w3.org/1999/xlink">
<g id="graph0" class="graph" transform="scale(1 1) rotate(0) translate(4 36)">
<title>game::PauseGamePage::render</title>
<!-- Node1 -->
<g id="Node000001" class="node">
<title>Node1</title>
<g id="a_Node000001"><a xlink:title="渲染界面内容（纯虚函数，需子类实现）">
<polygon fill="#999999" stroke="#666666" points="122.5,-32 0,-32 0,0 122.5,0 122.5,-32"/>
<text xml:space="preserve" text-anchor="start" x="8" y="-18.5" font-family="Helvetica,sans-Serif" font-size="10.00">game::PauseGamePage</text>
<text xml:space="preserve" text-anchor="middle" x="61.25" y="-6.5" font-family="Helvetica,sans-Serif" font-size="10.00">::render</text>
</a>
</g>
</g>
<!-- Node2 -->
<g id="Node000002" class="node">
<title>Node2</title>
<g id="a_Node000002"><a xlink:href="classsfui_1_1_complex_page.html#aa891757590b0909bb44a4e8de89b0846" target="_top" xlink:title="以窗口为依据绘制对象">
<polygon fill="white" stroke="#666666" points="263.75,-32 158.5,-32 158.5,0 263.75,0 263.75,-32"/>
<text xml:space="preserve" text-anchor="start" x="166.5" y="-18.5" font-family="Helvetica,sans-Serif" font-size="10.00">sfui::ComplexPage::</text>
<text xml:space="preserve" text-anchor="middle" x="211.12" y="-6.5" font-family="Helvetica,sans-Serif" font-size="10.00">drawForWindow</text>
</a>
</g>
</g>
<!-- Node1&#45;&gt;Node2 -->
<g id="edge1_Node000001_Node000002" class="edge">
<title>Node1&#45;&gt;Node2</title>
<g id="a_edge1_Node000001_Node000002"><a xlink:title=" ">
<path fill="none" stroke="#63b8ff" d="M122.82,-16C130.85,-16 139.09,-16 147.15,-16"/>
<polygon fill="#63b8ff" stroke="#63b8ff" points="146.88,-19.5 156.88,-16 146.88,-12.5 146.88,-19.5"/>
</a>
</g>
</g>
<!-- Node3 -->
<g id="Node000003" class="node">
<title>Node3</title>
<g id="a_Node000003"><a xlink:href="classsfui_1_1_control_page.html#a971fb2bb6afcf431eea85c35f97bf7c5" target="_top" xlink:title="绘制按钮">
<polygon fill="white" stroke="#666666" points="418.5,-26 299.75,-26 299.75,-6 418.5,-6 418.5,-26"/>
<text xml:space="preserve" text-anchor="middle" x="359.12" y="-12.5" font-family="Helvetica,sans-Serif" font-size="10.00">sfui::ControlPage::draw</text>
</a>
</g>
</g>
<!-- Node2&#45;&gt;Node3 -->
<g id="edge2_Node000002_Node000003" class="edge">
<title>Node2&#45;&gt;Node3</title>
<g id="a_edge2_Node000002_Node000003"><a xlink:title=" ">
<path fill="none" stroke="#63b8ff" d="M264.01,-16C271.81,-16 279.96,-16 288.06,-16"/>
<polygon fill="#63b8ff" stroke="#63b8ff" points="287.93,-19.5 297.93,-16 287.93,-12.5 287.93,-19.5"/>
</a>
</g>
</g>
<!-- Node4 -->
<g id="Node000004" class="node">
<title>Node4</title>
<g id="a_Node000004"><a xlink:href="classsfui_1_1_button.html#a9bda2b07213ffd9a40fb2e231f084952" target="_top" xlink:title="获取按钮的Sprite">
<polygon fill="white" stroke="#666666" points="565.75,-26 454.5,-26 454.5,-6 565.75,-6 565.75,-26"/>
<text xml:space="preserve" text-anchor="middle" x="510.12" y="-12.5" font-family="Helvetica,sans-Serif" font-size="10.00">sfui::Button::getSprite</text>
</a>
</g>
</g>
<!-- Node3&#45;&gt;Node4 -->
<g id="edge3_Node000003_Node000004" class="edge">
<title>Node3&#45;&gt;Node4</title>
<g id="a_edge3_Node000003_Node000004"><a xlink:title=" ">
<path fill="none" stroke="#63b8ff" d="M418.59,-16C426.57,-16 434.8,-16 442.91,-16"/>
<polygon fill="#63b8ff" stroke="#63b8ff" points="442.72,-19.5 452.72,-16 442.72,-12.5 442.72,-19.5"/>
</a>
</g>
</g>
</g>
</svg>
