<?xml version="1.0" encoding="UTF-8" standalone="no"?>
<!DOCTYPE svg PUBLIC "-//W3C//DTD SVG 1.1//EN"
 "http://www.w3.org/Graphics/SVG/1.1/DTD/svg11.dtd">
<!-- Generated by graphviz version 13.0.0 (20250608.1624)
 -->
<!-- Title: game::GamePage::GamePage Pages: 1 -->
<svg width="566pt" height="109pt"
 viewBox="0.00 0.00 566.00 109.00" xmlns="http://www.w3.org/2000/svg" xmlns:xlink="http://www.w3.org/1999/xlink">
<g id="graph0" class="graph" transform="scale(1 1) rotate(0) translate(4 105)">
<title>game::GamePage::GamePage</title>
<!-- Node1 -->
<g id="Node000001" class="node">
<title>Node1</title>
<g id="a_Node000001"><a xlink:title=" ">
<polygon fill="#999999" stroke="#666666" points="149.5,-23 0,-23 0,-3 149.5,-3 149.5,-23"/>
<text xml:space="preserve" text-anchor="middle" x="74.75" y="-9.5" font-family="Helvetica,sans-Serif" font-size="10.00">game::GamePage::GamePage</text>
</a>
</g>
</g>
<!-- Node2 -->
<g id="Node000002" class="node">
<title>Node2</title>
<g id="a_Node000002"><a xlink:href="classsfui_1_1_complex_page.html#a3c97d3fcf521310edbd6b77ec693e4e9" target="_top" xlink:title=" ">
<polygon fill="white" stroke="#666666" points="290.75,-51 185.5,-51 185.5,-19 290.75,-19 290.75,-51"/>
<text xml:space="preserve" text-anchor="start" x="193.5" y="-37.5" font-family="Helvetica,sans-Serif" font-size="10.00">sfui::ComplexPage::</text>
<text xml:space="preserve" text-anchor="middle" x="238.12" y="-25.5" font-family="Helvetica,sans-Serif" font-size="10.00">ComplexPage</text>
</a>
</g>
</g>
<!-- Node1&#45;&gt;Node2 -->
<g id="edge1_Node000001_Node000002" class="edge">
<title>Node1&#45;&gt;Node2</title>
<g id="a_edge1_Node000001_Node000002"><a xlink:title=" ">
<path fill="none" stroke="#63b8ff" d="M149.83,-23.1C157.84,-24.19 165.95,-25.3 173.82,-26.37"/>
<polygon fill="#63b8ff" stroke="#63b8ff" points="173.27,-29.83 183.65,-27.71 174.21,-22.89 173.27,-29.83"/>
</a>
</g>
</g>
<!-- Node4 -->
<g id="Node000004" class="node">
<title>Node4</title>
<g id="a_Node000004"><a xlink:href="classsfui_1_1_page.html#a1d645637dcd8fea7241f485ef4fe1b93" target="_top" xlink:title=" ">
<polygon fill="white" stroke="#666666" points="557.5,-45 468.75,-45 468.75,-25 557.5,-25 557.5,-45"/>
<text xml:space="preserve" text-anchor="middle" x="513.12" y="-31.5" font-family="Helvetica,sans-Serif" font-size="10.00">sfui::Page::Page</text>
</a>
</g>
</g>
<!-- Node1&#45;&gt;Node4 -->
<g id="edge6_Node000001_Node000004" class="edge">
<title>Node1&#45;&gt;Node4</title>
<g id="a_edge6_Node000001_Node000004"><a xlink:title=" ">
<path fill="none" stroke="#63b8ff" d="M149.75,-5.5C222.3,0.24 335.8,4.9 432.75,-10 447.03,-12.2 462.27,-16.49 475.53,-20.91"/>
<polygon fill="#63b8ff" stroke="#63b8ff" points="474.12,-24.13 484.72,-24.11 476.42,-17.52 474.12,-24.13"/>
</a>
</g>
</g>
<!-- Node3 -->
<g id="Node000003" class="node">
<title>Node3</title>
<g id="a_Node000003"><a xlink:href="classsfui_1_1_control_page.html#afc330f12e794ff22b74203c5743bcc9f" target="_top" xlink:title=" ">
<polygon fill="white" stroke="#666666" points="428.62,-101 330.88,-101 330.88,-69 428.62,-69 428.62,-101"/>
<text xml:space="preserve" text-anchor="start" x="338.88" y="-87.5" font-family="Helvetica,sans-Serif" font-size="10.00">sfui::ControlPage::</text>
<text xml:space="preserve" text-anchor="middle" x="379.75" y="-75.5" font-family="Helvetica,sans-Serif" font-size="10.00">ControlPage</text>
</a>
</g>
</g>
<!-- Node2&#45;&gt;Node3 -->
<g id="edge2_Node000002_Node000003" class="edge">
<title>Node2&#45;&gt;Node3</title>
<g id="a_edge2_Node000002_Node000003"><a xlink:title=" ">
<path fill="none" stroke="#63b8ff" d="M284.84,-51.37C296.78,-55.65 309.78,-60.3 322.2,-64.75"/>
<polygon fill="#63b8ff" stroke="#63b8ff" points="320.91,-68.01 331.5,-68.08 323.27,-61.42 320.91,-68.01"/>
</a>
</g>
</g>
<!-- Node5 -->
<g id="Node000005" class="node">
<title>Node5</title>
<g id="a_Node000005"><a xlink:href="classsfui_1_1_interactive_page.html#ac553cc6c1df69243d54a316f67aa5f45" target="_top" xlink:title=" ">
<polygon fill="white" stroke="#666666" points="432.75,-51 326.75,-51 326.75,-19 432.75,-19 432.75,-51"/>
<text xml:space="preserve" text-anchor="start" x="334.75" y="-37.5" font-family="Helvetica,sans-Serif" font-size="10.00">sfui::InteractivePage</text>
<text xml:space="preserve" text-anchor="middle" x="379.75" y="-25.5" font-family="Helvetica,sans-Serif" font-size="10.00">::InteractivePage</text>
</a>
</g>
</g>
<!-- Node2&#45;&gt;Node5 -->
<g id="edge4_Node000002_Node000005" class="edge">
<title>Node2&#45;&gt;Node5</title>
<g id="a_edge4_Node000002_Node000005"><a xlink:title=" ">
<path fill="none" stroke="#63b8ff" d="M291.12,-35C299.02,-35 307.25,-35 315.37,-35"/>
<polygon fill="#63b8ff" stroke="#63b8ff" points="315.2,-38.5 325.2,-35 315.2,-31.5 315.2,-38.5"/>
</a>
</g>
</g>
<!-- Node3&#45;&gt;Node4 -->
<g id="edge3_Node000003_Node000004" class="edge">
<title>Node3&#45;&gt;Node4</title>
<g id="a_edge3_Node000003_Node000004"><a xlink:title=" ">
<path fill="none" stroke="#63b8ff" d="M423.77,-68.63C440.06,-62.43 458.48,-55.42 474.26,-49.41"/>
<polygon fill="#63b8ff" stroke="#63b8ff" points="475.2,-52.8 483.3,-45.97 472.71,-46.26 475.2,-52.8"/>
</a>
</g>
</g>
<!-- Node5&#45;&gt;Node4 -->
<g id="edge5_Node000005_Node000004" class="edge">
<title>Node5&#45;&gt;Node4</title>
<g id="a_edge5_Node000005_Node000004"><a xlink:title=" ">
<path fill="none" stroke="#63b8ff" d="M433.05,-35C440.93,-35 449.09,-35 457.03,-35"/>
<polygon fill="#63b8ff" stroke="#63b8ff" points="456.94,-38.5 466.94,-35 456.94,-31.5 456.94,-38.5"/>
</a>
</g>
</g>
</g>
</svg>
