<?xml version="1.0" encoding="UTF-8" standalone="no"?>
<!DOCTYPE svg PUBLIC "-//W3C//DTD SVG 1.1//EN"
 "http://www.w3.org/Graphics/SVG/1.1/DTD/svg11.dtd">
<!-- Generated by graphviz version 13.0.0 (20250608.1624)
 -->
<!-- Title: sfui::Button::getSprite Pages: 1 -->
<svg width="579pt" height="106pt"
 viewBox="0.00 0.00 579.00 106.00" xmlns="http://www.w3.org/2000/svg" xmlns:xlink="http://www.w3.org/1999/xlink">
<g id="graph0" class="graph" transform="scale(1 1) rotate(0) translate(4 102)">
<title>sfui::Button::getSprite</title>
<!-- Node1 -->
<g id="Node000001" class="node">
<title>Node1</title>
<g id="a_Node000001"><a xlink:title="获取按钮的Sprite">
<polygon fill="#999999" stroke="#666666" points="571,-51 459.75,-51 459.75,-31 571,-31 571,-51"/>
<text xml:space="preserve" text-anchor="middle" x="515.38" y="-37.5" font-family="Helvetica,sans-Serif" font-size="10.00">sfui::Button::getSprite</text>
</a>
</g>
</g>
<!-- Node2 -->
<g id="Node000002" class="node">
<title>Node2</title>
<g id="a_Node000002"><a xlink:href="classsfui_1_1_control_page.html#a971fb2bb6afcf431eea85c35f97bf7c5" target="_top" xlink:title="绘制按钮">
<polygon fill="white" stroke="#666666" points="423.75,-74 305,-74 305,-54 423.75,-54 423.75,-74"/>
<text xml:space="preserve" text-anchor="middle" x="364.38" y="-60.5" font-family="Helvetica,sans-Serif" font-size="10.00">sfui::ControlPage::draw</text>
</a>
</g>
</g>
<!-- Node1&#45;&gt;Node2 -->
<g id="edge1_Node000001_Node000002" class="edge">
<title>Node1&#45;&gt;Node2</title>
<g id="a_edge1_Node000001_Node000002"><a xlink:title=" ">
<path fill="none" stroke="#63b8ff" d="M448.16,-51.22C440.18,-52.45 432.07,-53.7 424.21,-54.92"/>
<polygon fill="#63b8ff" stroke="#63b8ff" points="448.47,-54.71 457.82,-49.73 447.4,-47.8 448.47,-54.71"/>
</a>
</g>
</g>
<!-- Node6 -->
<g id="Node000006" class="node">
<title>Node6</title>
<g id="a_Node000006"><a xlink:href="classsfui_1_1_interactive_page.html#ac65175a61dce2a643a73b1b3abde1b6d" target="_top" xlink:title="绘制按钮">
<polygon fill="white" stroke="#666666" points="417.38,-35 311.38,-35 311.38,-3 417.38,-3 417.38,-35"/>
<text xml:space="preserve" text-anchor="start" x="319.38" y="-21.5" font-family="Helvetica,sans-Serif" font-size="10.00">sfui::InteractivePage</text>
<text xml:space="preserve" text-anchor="middle" x="364.38" y="-9.5" font-family="Helvetica,sans-Serif" font-size="10.00">::draw</text>
</a>
</g>
</g>
<!-- Node1&#45;&gt;Node6 -->
<g id="edge5_Node000001_Node000006" class="edge">
<title>Node1&#45;&gt;Node6</title>
<g id="a_edge5_Node000001_Node000006"><a xlink:title=" ">
<path fill="none" stroke="#63b8ff" d="M448,-31.2C437.86,-29.7 427.52,-28.18 417.73,-26.73"/>
<polygon fill="#63b8ff" stroke="#63b8ff" points="447.41,-34.65 457.82,-32.65 448.44,-27.73 447.41,-34.65"/>
</a>
</g>
</g>
<!-- Node3 -->
<g id="Node000003" class="node">
<title>Node3</title>
<g id="a_Node000003"><a xlink:href="classsfui_1_1_complex_page.html#aa891757590b0909bb44a4e8de89b0846" target="_top" xlink:title="以窗口为依据绘制对象">
<polygon fill="white" stroke="#666666" points="269,-82 163.75,-82 163.75,-50 269,-50 269,-82"/>
<text xml:space="preserve" text-anchor="start" x="171.75" y="-68.5" font-family="Helvetica,sans-Serif" font-size="10.00">sfui::ComplexPage::</text>
<text xml:space="preserve" text-anchor="middle" x="216.38" y="-56.5" font-family="Helvetica,sans-Serif" font-size="10.00">drawForWindow</text>
</a>
</g>
</g>
<!-- Node2&#45;&gt;Node3 -->
<g id="edge2_Node000002_Node000003" class="edge">
<title>Node2&#45;&gt;Node3</title>
<g id="a_edge2_Node000002_Node000003"><a xlink:title=" ">
<path fill="none" stroke="#63b8ff" d="M293.43,-64.96C285.31,-65.07 277.15,-65.18 269.33,-65.29"/>
<polygon fill="#63b8ff" stroke="#63b8ff" points="293.37,-68.46 303.32,-64.82 293.27,-61.46 293.37,-68.46"/>
</a>
</g>
</g>
<!-- Node4 -->
<g id="Node000004" class="node">
<title>Node4</title>
<g id="a_Node000004"><a xlink:href="classgame_1_1_game_page.html#a2e31f8daab5616ded15be1e119be1ef9" target="_top" xlink:title="渲染界面内容（纯虚函数，需子类实现）">
<polygon fill="white" stroke="#666666" points="127.75,-98 0,-98 0,-78 127.75,-78 127.75,-98"/>
<text xml:space="preserve" text-anchor="middle" x="63.88" y="-84.5" font-family="Helvetica,sans-Serif" font-size="10.00">game::GamePage::render</text>
</a>
</g>
</g>
<!-- Node3&#45;&gt;Node4 -->
<g id="edge3_Node000003_Node000004" class="edge">
<title>Node3&#45;&gt;Node4</title>
<g id="a_edge3_Node000003_Node000004"><a xlink:title=" ">
<path fill="none" stroke="#63b8ff" d="M152.43,-75.2C144.42,-76.37 136.22,-77.57 128.21,-78.74"/>
<polygon fill="#63b8ff" stroke="#63b8ff" points="152.7,-78.7 162.08,-73.79 151.68,-71.77 152.7,-78.7"/>
</a>
</g>
</g>
<!-- Node5 -->
<g id="Node000005" class="node">
<title>Node5</title>
<g id="a_Node000005"><a xlink:href="classgame_1_1_pause_game_page.html#a01faef65e895e021fc756aac70e3d38a" target="_top" xlink:title="渲染界面内容（纯虚函数，需子类实现）">
<polygon fill="white" stroke="#666666" points="125.12,-60 2.62,-60 2.62,-28 125.12,-28 125.12,-60"/>
<text xml:space="preserve" text-anchor="start" x="10.62" y="-46.5" font-family="Helvetica,sans-Serif" font-size="10.00">game::PauseGamePage</text>
<text xml:space="preserve" text-anchor="middle" x="63.88" y="-34.5" font-family="Helvetica,sans-Serif" font-size="10.00">::render</text>
</a>
</g>
</g>
<!-- Node3&#45;&gt;Node5 -->
<g id="edge4_Node000003_Node000005" class="edge">
<title>Node3&#45;&gt;Node5</title>
<g id="a_edge4_Node000003_Node000005"><a xlink:title=" ">
<path fill="none" stroke="#63b8ff" d="M152.47,-56.8C143.57,-55.5 134.43,-54.17 125.57,-52.87"/>
<polygon fill="#63b8ff" stroke="#63b8ff" points="151.68,-60.23 162.08,-58.21 152.7,-53.3 151.68,-60.23"/>
</a>
</g>
</g>
<!-- Node7 -->
<g id="Node000007" class="node">
<title>Node7</title>
<g id="a_Node000007"><a xlink:href="classsfui_1_1_complex_page.html#a3e835234919e61969ecfaa5fb9c01794" target="_top" xlink:title="以视图为依据绘制对象">
<polygon fill="white" stroke="#666666" points="269,-32 163.75,-32 163.75,0 269,0 269,-32"/>
<text xml:space="preserve" text-anchor="start" x="171.75" y="-18.5" font-family="Helvetica,sans-Serif" font-size="10.00">sfui::ComplexPage::</text>
<text xml:space="preserve" text-anchor="middle" x="216.38" y="-6.5" font-family="Helvetica,sans-Serif" font-size="10.00">drawForView</text>
</a>
</g>
</g>
<!-- Node6&#45;&gt;Node7 -->
<g id="edge6_Node000006_Node000007" class="edge">
<title>Node6&#45;&gt;Node7</title>
<g id="a_edge6_Node000006_Node000007"><a xlink:title=" ">
<path fill="none" stroke="#63b8ff" d="M299.75,-17.69C289.58,-17.48 279.16,-17.27 269.31,-17.07"/>
<polygon fill="#63b8ff" stroke="#63b8ff" points="299.49,-21.19 309.56,-17.89 299.64,-14.19 299.49,-21.19"/>
</a>
</g>
</g>
</g>
</svg>
