<?xml version="1.0" encoding="UTF-8" standalone="no"?>
<!DOCTYPE svg PUBLIC "-//W3C//DTD SVG 1.1//EN"
 "http://www.w3.org/Graphics/SVG/1.1/DTD/svg11.dtd">
<!-- Generated by graphviz version 13.0.0 (20250608.1624)
 -->
<!-- Title: sfui::InteractivePage Pages: 1 -->
<svg width="375pt" height="196pt"
 viewBox="0.00 0.00 375.00 196.00" xmlns="http://www.w3.org/2000/svg" xmlns:xlink="http://www.w3.org/1999/xlink">
<g id="graph0" class="graph" transform="scale(1 1) rotate(0) translate(4 192)">
<title>sfui::InteractivePage</title>
<!-- Node1 -->
<g id="Node000001" class="node">
<title>Node1</title>
<g id="a_Node000001"><a xlink:title="动态或实时更新的交互页面，视图中心可自定义">
<polygon fill="#999999" stroke="#666666" points="222.38,-132 116.38,-132 116.38,-112 222.38,-112 222.38,-132"/>
<text xml:space="preserve" text-anchor="middle" x="169.38" y="-118.5" font-family="Helvetica,sans-Serif" font-size="10.00">sfui::InteractivePage</text>
</a>
</g>
</g>
<!-- Node3 -->
<g id="Node000003" class="node">
<title>Node3</title>
<g id="a_Node000003"><a xlink:href="classsfui_1_1_complex_page.html" target="_top" xlink:title="混合界面类，结合了交互页面和控件页面的功能">
<polygon fill="white" stroke="#666666" points="219,-76 119.75,-76 119.75,-56 219,-56 219,-76"/>
<text xml:space="preserve" text-anchor="middle" x="169.38" y="-62.5" font-family="Helvetica,sans-Serif" font-size="10.00">sfui::ComplexPage</text>
</a>
</g>
</g>
<!-- Node1&#45;&gt;Node3 -->
<g id="edge2_Node000001_Node000003" class="edge">
<title>Node1&#45;&gt;Node3</title>
<g id="a_edge2_Node000001_Node000003"><a xlink:title=" ">
<path fill="none" stroke="#63b8ff" d="M169.38,-100.13C169.38,-91.9 169.38,-82.85 169.38,-76.3"/>
<polygon fill="#63b8ff" stroke="#63b8ff" points="165.88,-100.08 169.38,-110.08 172.88,-100.08 165.88,-100.08"/>
</a>
</g>
</g>
<!-- Node2 -->
<g id="Node000002" class="node">
<title>Node2</title>
<g id="a_Node000002"><a xlink:href="classsfui_1_1_page.html" target="_top" xlink:title="前置声明窗口类">
<polygon fill="white" stroke="#666666" points="199.5,-188 139.25,-188 139.25,-168 199.5,-168 199.5,-188"/>
<text xml:space="preserve" text-anchor="middle" x="169.38" y="-174.5" font-family="Helvetica,sans-Serif" font-size="10.00">sfui::Page</text>
</a>
</g>
</g>
<!-- Node2&#45;&gt;Node1 -->
<g id="edge1_Node000001_Node000002" class="edge">
<title>Node2&#45;&gt;Node1</title>
<g id="a_edge1_Node000001_Node000002"><a xlink:title=" ">
<path fill="none" stroke="#63b8ff" d="M169.38,-156.13C169.38,-147.9 169.38,-138.85 169.38,-132.3"/>
<polygon fill="#63b8ff" stroke="#63b8ff" points="165.88,-156.08 169.38,-166.08 172.88,-156.08 165.88,-156.08"/>
</a>
</g>
</g>
<!-- Node4 -->
<g id="Node000004" class="node">
<title>Node4</title>
<g id="a_Node000004"><a xlink:href="classgame_1_1_game_page.html" target="_top" xlink:title=" ">
<polygon fill="white" stroke="#666666" points="94.75,-20 0,-20 0,0 94.75,0 94.75,-20"/>
<text xml:space="preserve" text-anchor="middle" x="47.38" y="-6.5" font-family="Helvetica,sans-Serif" font-size="10.00">game::GamePage</text>
</a>
</g>
</g>
<!-- Node3&#45;&gt;Node4 -->
<g id="edge3_Node000003_Node000004" class="edge">
<title>Node3&#45;&gt;Node4</title>
<g id="a_edge3_Node000003_Node000004"><a xlink:title=" ">
<path fill="none" stroke="#63b8ff" d="M137.77,-51.01C116.08,-41.41 87.88,-28.93 68.79,-20.48"/>
<polygon fill="#63b8ff" stroke="#63b8ff" points="136.18,-54.13 146.74,-54.98 139.01,-47.73 136.18,-54.13"/>
</a>
</g>
</g>
<!-- Node5 -->
<g id="Node000005" class="node">
<title>Node5</title>
<g id="a_Node000005"><a xlink:href="classgame_1_1_main_menu_page.html" target="_top" xlink:title=" ">
<polygon fill="white" stroke="#666666" points="226.12,-20 112.62,-20 112.62,0 226.12,0 226.12,-20"/>
<text xml:space="preserve" text-anchor="middle" x="169.38" y="-6.5" font-family="Helvetica,sans-Serif" font-size="10.00">game::MainMenuPage</text>
</a>
</g>
</g>
<!-- Node3&#45;&gt;Node5 -->
<g id="edge4_Node000003_Node000005" class="edge">
<title>Node3&#45;&gt;Node5</title>
<g id="a_edge4_Node000003_Node000005"><a xlink:title=" ">
<path fill="none" stroke="#63b8ff" d="M169.38,-44.13C169.38,-35.9 169.38,-26.85 169.38,-20.3"/>
<polygon fill="#63b8ff" stroke="#63b8ff" points="165.88,-44.08 169.38,-54.08 172.88,-44.08 165.88,-44.08"/>
</a>
</g>
</g>
<!-- Node6 -->
<g id="Node000006" class="node">
<title>Node6</title>
<g id="a_Node000006"><a xlink:href="classgame_1_1_pause_game_page.html" target="_top" xlink:title=" ">
<polygon fill="white" stroke="#666666" points="366.62,-20 244.12,-20 244.12,0 366.62,0 366.62,-20"/>
<text xml:space="preserve" text-anchor="middle" x="305.38" y="-6.5" font-family="Helvetica,sans-Serif" font-size="10.00">game::PauseGamePage</text>
</a>
</g>
</g>
<!-- Node3&#45;&gt;Node6 -->
<g id="edge5_Node000003_Node000006" class="edge">
<title>Node3&#45;&gt;Node6</title>
<g id="a_edge5_Node000003_Node000006"><a xlink:title=" ">
<path fill="none" stroke="#63b8ff" d="M203.62,-51.4C227.92,-41.75 259.93,-29.05 281.5,-20.48"/>
<polygon fill="#63b8ff" stroke="#63b8ff" points="202.47,-48.09 194.47,-55.04 205.06,-54.6 202.47,-48.09"/>
</a>
</g>
</g>
</g>
</svg>
