<?xml version="1.0" encoding="UTF-8" standalone="no"?>
<!DOCTYPE svg PUBLIC "-//W3C//DTD SVG 1.1//EN"
 "http://www.w3.org/Graphics/SVG/1.1/DTD/svg11.dtd">
<!-- Generated by graphviz version 13.0.0 (20250608.1624)
 -->
<!-- Title: elemental/include/elemental.hpp Pages: 1 -->
<svg width="418pt" height="276pt"
 viewBox="0.00 0.00 418.00 276.00" xmlns="http://www.w3.org/2000/svg" xmlns:xlink="http://www.w3.org/1999/xlink">

<svg id="main" version="1.1" xmlns="http://www.w3.org/2000/svg" xmlns:xlink="http://www.w3.org/1999/xlink" xml:space="preserve">

<style type="text/css"><![CDATA[
.node, .edge {opacity: 0.7;}
.node.selected, .edge.selected {opacity: 1;}
.edge:hover path { stroke: red; }
.edge:hover polygon { stroke: red; fill: red; }
]]></style>
<script type="application/ecmascript" xlink:href="svg.min.js"/>
<svg id="graph" class="graph">
<g id="graph0" class="graph" transform="scale(1 1) rotate(0) translate(4 272)">
<title>elemental/include/elemental.hpp</title>
<!-- Node1 -->
<g id="Node000001" class="node">
<title>Node1</title>
<g id="a_Node000001"><a xlink:title=" ">
<polygon fill="#999999" stroke="#666666" points="321.62,-268 166.12,-268 166.12,-248 321.62,-248 321.62,-268"/>
<text xml:space="preserve" text-anchor="middle" x="243.88" y="-254.5" font-family="Helvetica,sans-Serif" font-size="10.00">elemental/include/elemental.hpp</text>
</a>
</g>
</g>
<!-- Node2 -->
<g id="Node000002" class="node">
<title>Node2</title>
<g id="a_Node000002"><a xlink:href="world__elemental_8hpp.html" target="_top" xlink:title=" ">
<polygon fill="white" stroke="#666666" points="215.88,-212 97.88,-212 97.88,-180 215.88,-180 215.88,-212"/>
<text xml:space="preserve" text-anchor="start" x="105.88" y="-198.5" font-family="Helvetica,sans-Serif" font-size="10.00">elemental/include/world</text>
<text xml:space="preserve" text-anchor="middle" x="156.88" y="-186.5" font-family="Helvetica,sans-Serif" font-size="10.00">_elemental.hpp</text>
</a>
</g>
</g>
<!-- Node1&#45;&gt;Node2 -->
<g id="edge1_Node000001_Node000002" class="edge">
<title>Node1&#45;&gt;Node2</title>
<g id="a_edge1_Node000001_Node000002"><a xlink:title=" ">
<path fill="none" stroke="#63b8ff" d="M221.11,-241.3C208.17,-232.38 192.03,-221.25 179.17,-212.37"/>
<polygon fill="#63b8ff" stroke="#63b8ff" points="218.82,-243.97 229.04,-246.77 222.79,-238.21 218.82,-243.97"/>
</a>
</g>
</g>
<!-- Node5 -->
<g id="Node000005" class="node">
<title>Node5</title>
<g id="a_Node000005"><a xlink:href="pausegamepage_8hpp.html" target="_top" xlink:title=" ">
<polygon fill="white" stroke="#666666" points="241.38,-32 132.38,-32 132.38,0 241.38,0 241.38,-32"/>
<text xml:space="preserve" text-anchor="start" x="140.38" y="-18.5" font-family="Helvetica,sans-Serif" font-size="10.00">game/include/pages</text>
<text xml:space="preserve" text-anchor="middle" x="186.88" y="-6.5" font-family="Helvetica,sans-Serif" font-size="10.00">/pausegamepage.hpp</text>
</a>
</g>
</g>
<!-- Node1&#45;&gt;Node5 -->
<g id="edge8_Node000001_Node000005" class="edge">
<title>Node1&#45;&gt;Node5</title>
<g id="a_edge8_Node000001_Node000005"><a xlink:title=" ">
<path fill="none" stroke="#63b8ff" d="M241.15,-236.81C236.16,-201.93 224.45,-128.32 206.88,-68 203.31,-55.76 198,-42.36 193.74,-32.37"/>
<polygon fill="#63b8ff" stroke="#63b8ff" points="237.62,-236.89 242.47,-246.31 244.56,-235.93 237.62,-236.89"/>
</a>
</g>
</g>
<!-- Node6 -->
<g id="Node000006" class="node">
<title>Node6</title>
<g id="a_Node000006"><a xlink:href="elemental_8cpp.html" target="_top" xlink:title=" ">
<polygon fill="white" stroke="#666666" points="410,-206 271.75,-206 271.75,-186 410,-186 410,-206"/>
<text xml:space="preserve" text-anchor="middle" x="340.88" y="-192.5" font-family="Helvetica,sans-Serif" font-size="10.00">elemental/src/elemental.cpp</text>
</a>
</g>
</g>
<!-- Node1&#45;&gt;Node6 -->
<g id="edge7_Node000001_Node000006" class="edge">
<title>Node1&#45;&gt;Node6</title>
<g id="a_edge7_Node000001_Node000006"><a xlink:title=" ">
<path fill="none" stroke="#63b8ff" d="M268.62,-241.69C286.68,-230.52 310.56,-215.75 325.83,-206.31"/>
<polygon fill="#63b8ff" stroke="#63b8ff" points="266.98,-238.59 260.32,-246.83 270.66,-244.54 266.98,-238.59"/>
</a>
</g>
</g>
<!-- Node3 -->
<g id="Node000003" class="node">
<title>Node3</title>
<g id="a_Node000003"><a xlink:href="biology_8hpp.html" target="_top" xlink:title=" ">
<polygon fill="white" stroke="#666666" points="177.62,-144 34.12,-144 34.12,-124 177.62,-124 177.62,-144"/>
<text xml:space="preserve" text-anchor="middle" x="105.88" y="-130.5" font-family="Helvetica,sans-Serif" font-size="10.00">elemental/include/biology.hpp</text>
</a>
</g>
</g>
<!-- Node2&#45;&gt;Node3 -->
<g id="edge2_Node000002_Node000003" class="edge">
<title>Node2&#45;&gt;Node3</title>
<g id="a_edge2_Node000002_Node000003"><a xlink:title=" ">
<path fill="none" stroke="#63b8ff" d="M136.46,-170.98C128.54,-161.66 119.93,-151.54 113.87,-144.41"/>
<polygon fill="#63b8ff" stroke="#63b8ff" points="133.62,-173.04 142.76,-178.4 138.95,-168.51 133.62,-173.04"/>
</a>
</g>
</g>
<!-- Node2&#45;&gt;Node5 -->
<g id="edge6_Node000002_Node000005" class="edge">
<title>Node2&#45;&gt;Node5</title>
<g id="a_edge6_Node000002_Node000005"><a xlink:title=" ">
<path fill="none" stroke="#63b8ff" d="M174.85,-170.46C179.74,-162.43 184.37,-153.2 186.88,-144 197.53,-104.86 192.87,-56.37 189.4,-32.2"/>
<polygon fill="#63b8ff" stroke="#63b8ff" points="172.05,-168.36 169.49,-178.64 177.9,-172.19 172.05,-168.36"/>
</a>
</g>
</g>
<!-- Node4 -->
<g id="Node000004" class="node">
<title>Node4</title>
<g id="a_Node000004"><a xlink:href="player_8hpp.html" target="_top" xlink:title=" ">
<polygon fill="white" stroke="#666666" points="139.75,-88 0,-88 0,-68 139.75,-68 139.75,-88"/>
<text xml:space="preserve" text-anchor="middle" x="69.88" y="-74.5" font-family="Helvetica,sans-Serif" font-size="10.00">elemental/include/player.hpp</text>
</a>
</g>
</g>
<!-- Node3&#45;&gt;Node4 -->
<g id="edge3_Node000003_Node000004" class="edge">
<title>Node3&#45;&gt;Node4</title>
<g id="a_edge3_Node000003_Node000004"><a xlink:title=" ">
<path fill="none" stroke="#63b8ff" d="M93.31,-114.15C87.48,-105.4 80.8,-95.39 76.07,-88.3"/>
<polygon fill="#63b8ff" stroke="#63b8ff" points="90.31,-115.96 98.76,-122.33 96.13,-112.07 90.31,-115.96"/>
</a>
</g>
</g>
<!-- Node3&#45;&gt;Node5 -->
<g id="edge5_Node000003_Node000005" class="edge">
<title>Node3&#45;&gt;Node5</title>
<g id="a_edge5_Node000003_Node000005"><a xlink:title=" ">
<path fill="none" stroke="#63b8ff" d="M124.41,-115.84C132.48,-107.83 141.7,-97.9 148.88,-88 161.84,-70.11 173.27,-47.26 180.13,-32.38"/>
<polygon fill="#63b8ff" stroke="#63b8ff" points="122.13,-113.17 117.35,-122.63 126.99,-118.22 122.13,-113.17"/>
</a>
</g>
</g>
<!-- Node4&#45;&gt;Node5 -->
<g id="edge4_Node000004_Node000005" class="edge">
<title>Node4&#45;&gt;Node5</title>
<g id="a_edge4_Node000004_Node000005"><a xlink:title=" ">
<path fill="none" stroke="#63b8ff" d="M98.21,-62.47C115.97,-53.36 138.83,-41.64 156.9,-32.37"/>
<polygon fill="#63b8ff" stroke="#63b8ff" points="96.8,-59.26 89.5,-66.93 100,-65.49 96.8,-59.26"/>
</a>
</g>
</g>
</g>
</svg>
</svg>

<style type='text/css'>
<![CDATA[
[data-mouse-over-selected='false'] { opacity: 0.7; }
[data-mouse-over-selected='true']  { opacity: 1.0; }
]]>
</style>
<script type="application/ecmascript"><![CDATA[
document.addEventListener('DOMContentLoaded', (event) => {
  highlightEdges();
  highlightAdjacentNodes();
});
]]></script>
</svg>
