<?xml version="1.0" encoding="UTF-8" standalone="no"?>
<!DOCTYPE svg PUBLIC "-//W3C//DTD SVG 1.1//EN"
 "http://www.w3.org/Graphics/SVG/1.1/DTD/svg11.dtd">
<!-- Generated by graphviz version 13.0.0 (20250608.1624)
 -->
<!-- Title: 类继承关系图 Pages: 1 -->
<svg width="472pt" height="28pt"
 viewBox="0.00 0.00 472.00 28.00" xmlns="http://www.w3.org/2000/svg" xmlns:xlink="http://www.w3.org/1999/xlink">
<g id="graph0" class="graph" transform="scale(1 1) rotate(0) translate(4 24)">
<title>类继承关系图</title>
<!-- Node0 -->
<g id="Node000000" class="node">
<title>Node0</title>
<g id="a_Node000000"><a xlink:href="classgame_1_1_elemental.html" target="_top" xlink:title=" ">
<polygon fill="white" stroke="#666666" points="89.5,-20 0,-20 0,0 89.5,0 89.5,-20"/>
<text xml:space="preserve" text-anchor="middle" x="44.75" y="-6.5" font-family="Helvetica,sans-Serif" font-size="10.00">game::Elemental</text>
</a>
</g>
</g>
<!-- Node1 -->
<g id="Node000001" class="node">
<title>Node1</title>
<g id="a_Node000001"><a xlink:href="classgame_1_1_world_elemental.html" target="_top" xlink:title=" ">
<polygon fill="white" stroke="#666666" points="239.75,-20 125.5,-20 125.5,0 239.75,0 239.75,-20"/>
<text xml:space="preserve" text-anchor="middle" x="182.62" y="-6.5" font-family="Helvetica,sans-Serif" font-size="10.00">game::WorldElemental</text>
</a>
</g>
</g>
<!-- Node0&#45;&gt;Node1 -->
<g id="edge1_Node000000_Node000001" class="edge">
<title>Node0&#45;&gt;Node1</title>
<g id="a_edge1_Node000000_Node000001"><a xlink:title=" ">
<path fill="none" stroke="#63b8ff" d="M101.27,-10C109.21,-10 117.38,-10 125.34,-10"/>
<polygon fill="#63b8ff" stroke="#63b8ff" points="101.38,-6.5 91.38,-10 101.38,-13.5 101.38,-6.5"/>
</a>
</g>
</g>
<!-- Node2 -->
<g id="Node000002" class="node">
<title>Node2</title>
<g id="a_Node000002"><a xlink:href="classgame_1_1_biology.html" target="_top" xlink:title=" ">
<polygon fill="white" stroke="#666666" points="354,-20 275.75,-20 275.75,0 354,0 354,-20"/>
<text xml:space="preserve" text-anchor="middle" x="314.88" y="-6.5" font-family="Helvetica,sans-Serif" font-size="10.00">game::Biology</text>
</a>
</g>
</g>
<!-- Node1&#45;&gt;Node2 -->
<g id="edge2_Node000001_Node000002" class="edge">
<title>Node1&#45;&gt;Node2</title>
<g id="a_edge2_Node000001_Node000002"><a xlink:title=" ">
<path fill="none" stroke="#63b8ff" d="M251.28,-10C259.57,-10 267.8,-10 275.44,-10"/>
<polygon fill="#63b8ff" stroke="#63b8ff" points="251.51,-6.5 241.51,-10 251.51,-13.5 251.51,-6.5"/>
</a>
</g>
</g>
<!-- Node3 -->
<g id="Node000003" class="node">
<title>Node3</title>
<g id="a_Node000003"><a xlink:href="classgame_1_1_player.html" target="_top" xlink:title=" ">
<polygon fill="white" stroke="#666666" points="463.75,-20 390,-20 390,0 463.75,0 463.75,-20"/>
<text xml:space="preserve" text-anchor="middle" x="426.88" y="-6.5" font-family="Helvetica,sans-Serif" font-size="10.00">game::Player</text>
</a>
</g>
</g>
<!-- Node2&#45;&gt;Node3 -->
<g id="edge3_Node000002_Node000003" class="edge">
<title>Node2&#45;&gt;Node3</title>
<g id="a_edge3_Node000002_Node000003"><a xlink:title=" ">
<path fill="none" stroke="#8b1a1a" d="M365.67,-10C373.81,-10 382.1,-10 389.82,-10"/>
<polygon fill="#8b1a1a" stroke="#8b1a1a" points="365.86,-6.5 355.86,-10 365.86,-13.5 365.86,-6.5"/>
</a>
</g>
</g>
</g>
</svg>
