<?xml version="1.0" encoding="UTF-8" standalone="no"?>
<!DOCTYPE svg PUBLIC "-//W3C//DTD SVG 1.1//EN"
 "http://www.w3.org/Graphics/SVG/1.1/DTD/svg11.dtd">
<!-- Generated by graphviz version 13.0.0 (20250608.1624)
 -->
<!-- Title: 类继承关系图 Pages: 1 -->
<svg width="504pt" height="104pt"
 viewBox="0.00 0.00 504.00 104.00" xmlns="http://www.w3.org/2000/svg" xmlns:xlink="http://www.w3.org/1999/xlink">
<g id="graph0" class="graph" transform="scale(1 1) rotate(0) translate(4 100)">
<title>类继承关系图</title>
<!-- Node0 -->
<g id="Node000000" class="node">
<title>Node0</title>
<g id="a_Node000000"><a xlink:href="classsfui_1_1_page.html" target="_top" xlink:title="前置声明窗口类">
<polygon fill="white" stroke="#666666" points="60.25,-58 0,-58 0,-38 60.25,-38 60.25,-58"/>
<text xml:space="preserve" text-anchor="middle" x="30.12" y="-44.5" font-family="Helvetica,sans-Serif" font-size="10.00">sfui::Page</text>
</a>
</g>
</g>
<!-- Node1 -->
<g id="Node000001" class="node">
<title>Node1</title>
<g id="a_Node000001"><a xlink:href="classsfui_1_1_control_page.html" target="_top" xlink:title="UI 控件页面，视图大小等于窗口大小，(0,0)为左上角">
<polygon fill="white" stroke="#666666" points="195.12,-77 103.38,-77 103.38,-57 195.12,-57 195.12,-77"/>
<text xml:space="preserve" text-anchor="middle" x="149.25" y="-63.5" font-family="Helvetica,sans-Serif" font-size="10.00">sfui::ControlPage</text>
</a>
</g>
</g>
<!-- Node0&#45;&gt;Node1 -->
<g id="edge5_Node000000_Node000001" class="edge">
<title>Node0&#45;&gt;Node1</title>
<g id="a_edge5_Node000000_Node000001"><a xlink:title=" ">
<path fill="none" stroke="#63b8ff" d="M71.73,-54.59C81.88,-56.23 92.83,-58.01 103.19,-59.69"/>
<polygon fill="#63b8ff" stroke="#63b8ff" points="72.61,-51.18 62.17,-53.04 71.49,-58.09 72.61,-51.18"/>
</a>
</g>
</g>
<!-- Node6 -->
<g id="Node000006" class="node">
<title>Node6</title>
<g id="a_Node000006"><a xlink:href="classsfui_1_1_interactive_page.html" target="_top" xlink:title="动态或实时更新的交互页面，视图中心可自定义">
<polygon fill="white" stroke="#666666" points="202.25,-39 96.25,-39 96.25,-19 202.25,-19 202.25,-39"/>
<text xml:space="preserve" text-anchor="middle" x="149.25" y="-25.5" font-family="Helvetica,sans-Serif" font-size="10.00">sfui::InteractivePage</text>
</a>
</g>
</g>
<!-- Node0&#45;&gt;Node6 -->
<g id="edge10_Node000000_Node000006" class="edge">
<title>Node0&#45;&gt;Node6</title>
<g id="a_edge10_Node000000_Node000006"><a xlink:title=" ">
<path fill="none" stroke="#63b8ff" d="M71.98,-41.37C79.7,-40.12 87.88,-38.79 95.91,-37.49"/>
<polygon fill="#63b8ff" stroke="#63b8ff" points="71.49,-37.91 62.17,-42.96 72.61,-44.82 71.49,-37.91"/>
</a>
</g>
</g>
<!-- Node2 -->
<g id="Node000002" class="node">
<title>Node2</title>
<g id="a_Node000002"><a xlink:href="classsfui_1_1_complex_page.html" target="_top" xlink:title="混合界面类，结合了交互页面和控件页面的功能">
<polygon fill="white" stroke="#666666" points="337.5,-58 238.25,-58 238.25,-38 337.5,-38 337.5,-58"/>
<text xml:space="preserve" text-anchor="middle" x="287.88" y="-44.5" font-family="Helvetica,sans-Serif" font-size="10.00">sfui::ComplexPage</text>
</a>
</g>
</g>
<!-- Node1&#45;&gt;Node2 -->
<g id="edge6_Node000001_Node000002" class="edge">
<title>Node1&#45;&gt;Node2</title>
<g id="a_edge6_Node000001_Node000002"><a xlink:title=" ">
<path fill="none" stroke="#63b8ff" d="M206.52,-59.18C216.98,-57.72 227.83,-56.21 238.04,-54.79"/>
<polygon fill="#63b8ff" stroke="#63b8ff" points="206.29,-55.67 196.86,-60.52 207.25,-62.61 206.29,-55.67"/>
</a>
</g>
</g>
<!-- Node3 -->
<g id="Node000003" class="node">
<title>Node3</title>
<g id="a_Node000003"><a xlink:href="classgame_1_1_game_page.html" target="_top" xlink:title=" ">
<polygon fill="white" stroke="#666666" points="482.12,-96 387.38,-96 387.38,-76 482.12,-76 482.12,-96"/>
<text xml:space="preserve" text-anchor="middle" x="434.75" y="-82.5" font-family="Helvetica,sans-Serif" font-size="10.00">game::GamePage</text>
</a>
</g>
</g>
<!-- Node2&#45;&gt;Node3 -->
<g id="edge7_Node000002_Node000003" class="edge">
<title>Node2&#45;&gt;Node3</title>
<g id="a_edge7_Node000002_Node000003"><a xlink:title=" ">
<path fill="none" stroke="#63b8ff" d="M339.88,-61.38C357.61,-66.03 377.22,-71.17 393.91,-75.55"/>
<polygon fill="#63b8ff" stroke="#63b8ff" points="340.87,-58.02 330.31,-58.87 339.1,-64.79 340.87,-58.02"/>
</a>
</g>
</g>
<!-- Node4 -->
<g id="Node000004" class="node">
<title>Node4</title>
<g id="a_Node000004"><a xlink:href="classgame_1_1_main_menu_page.html" target="_top" xlink:title=" ">
<polygon fill="white" stroke="#666666" points="491.5,-58 378,-58 378,-38 491.5,-38 491.5,-58"/>
<text xml:space="preserve" text-anchor="middle" x="434.75" y="-44.5" font-family="Helvetica,sans-Serif" font-size="10.00">game::MainMenuPage</text>
</a>
</g>
</g>
<!-- Node2&#45;&gt;Node4 -->
<g id="edge8_Node000002_Node000004" class="edge">
<title>Node2&#45;&gt;Node4</title>
<g id="a_edge8_Node000002_Node000004"><a xlink:title=" ">
<path fill="none" stroke="#63b8ff" d="M349.18,-48C358.56,-48 368.22,-48 377.51,-48"/>
<polygon fill="#63b8ff" stroke="#63b8ff" points="349.44,-44.5 339.44,-48 349.44,-51.5 349.44,-44.5"/>
</a>
</g>
</g>
<!-- Node5 -->
<g id="Node000005" class="node">
<title>Node5</title>
<g id="a_Node000005"><a xlink:href="classgame_1_1_pause_game_page.html" target="_top" xlink:title=" ">
<polygon fill="white" stroke="#666666" points="496,-20 373.5,-20 373.5,0 496,0 496,-20"/>
<text xml:space="preserve" text-anchor="middle" x="434.75" y="-6.5" font-family="Helvetica,sans-Serif" font-size="10.00">game::PauseGamePage</text>
</a>
</g>
</g>
<!-- Node2&#45;&gt;Node5 -->
<g id="edge9_Node000002_Node000005" class="edge">
<title>Node2&#45;&gt;Node5</title>
<g id="a_edge9_Node000002_Node000005"><a xlink:title=" ">
<path fill="none" stroke="#63b8ff" d="M339.88,-34.62C357.61,-29.97 377.22,-24.83 393.91,-20.45"/>
<polygon fill="#63b8ff" stroke="#63b8ff" points="339.1,-31.21 330.31,-37.13 340.87,-37.98 339.1,-31.21"/>
</a>
</g>
</g>
<!-- Node6&#45;&gt;Node2 -->
<g id="edge11_Node000006_Node000002" class="edge">
<title>Node6&#45;&gt;Node2</title>
<g id="a_edge11_Node000006_Node000002"><a xlink:title=" ">
<path fill="none" stroke="#63b8ff" d="M213.97,-37.86C222.03,-38.98 230.17,-40.11 237.95,-41.2"/>
<polygon fill="#63b8ff" stroke="#63b8ff" points="214.57,-34.41 204.18,-36.5 213.6,-41.34 214.57,-34.41"/>
</a>
</g>
</g>
</g>
</svg>
