<?xml version="1.0" encoding="UTF-8" standalone="no"?>
<!DOCTYPE svg PUBLIC "-//W3C//DTD SVG 1.1//EN"
 "http://www.w3.org/Graphics/SVG/1.1/DTD/svg11.dtd">
<!-- Generated by graphviz version 13.0.0 (20250608.1624)
 -->
<!-- Title: main Pages: 1 -->
<svg width="923pt" height="248pt"
 viewBox="0.00 0.00 923.00 248.00" xmlns="http://www.w3.org/2000/svg" xmlns:xlink="http://www.w3.org/1999/xlink">
<g id="graph0" class="graph" transform="scale(1 1) rotate(0) translate(4 244)">
<title>main</title>
<!-- Node1 -->
<g id="Node000001" class="node">
<title>Node1</title>
<g id="a_Node000001"><a xlink:title=" ">
<polygon fill="#999999" stroke="#666666" points="37,-133 0,-133 0,-113 37,-113 37,-133"/>
<text xml:space="preserve" text-anchor="middle" x="18.5" y="-119.5" font-family="Helvetica,sans-Serif" font-size="10.00">main</text>
</a>
</g>
</g>
<!-- Node2 -->
<g id="Node000002" class="node">
<title>Node2</title>
<g id="a_Node000002"><a xlink:href="classsfui_1_1_window.html#a31a5eca8633b7d660898e1935402cf8d" target="_top" xlink:title="向窗口添加页面。">
<polygon fill="white" stroke="#666666" points="198.5,-240 81.25,-240 81.25,-220 198.5,-220 198.5,-240"/>
<text xml:space="preserve" text-anchor="middle" x="139.88" y="-226.5" font-family="Helvetica,sans-Serif" font-size="10.00">sfui::Window::addPage</text>
</a>
</g>
</g>
<!-- Node1&#45;&gt;Node2 -->
<g id="edge1_Node000001_Node000002" class="edge">
<title>Node1&#45;&gt;Node2</title>
<g id="a_edge1_Node000001_Node000002"><a xlink:title=" ">
<path fill="none" stroke="#63b8ff" d="M22.95,-133.42C29.61,-151.89 46.01,-190.37 73,-211 74.56,-212.19 76.19,-213.31 77.88,-214.36"/>
<polygon fill="#63b8ff" stroke="#63b8ff" points="76.23,-217.45 86.72,-218.93 79.45,-211.23 76.23,-217.45"/>
</a>
</g>
</g>
<!-- Node3 -->
<g id="Node000003" class="node">
<title>Node3</title>
<g id="a_Node000003"><a xlink:href="classsfui_1_1_window.html#ad157b04a2de51a321bf376914f106427" target="_top" xlink:title="获取底层SFML窗口对象。">
<polygon fill="white" stroke="#666666" points="206.75,-202 73,-202 73,-170 206.75,-170 206.75,-202"/>
<text xml:space="preserve" text-anchor="start" x="81" y="-188.5" font-family="Helvetica,sans-Serif" font-size="10.00">sfui::Window::getSfRender</text>
<text xml:space="preserve" text-anchor="middle" x="139.88" y="-176.5" font-family="Helvetica,sans-Serif" font-size="10.00">Window</text>
</a>
</g>
</g>
<!-- Node1&#45;&gt;Node3 -->
<g id="edge2_Node000001_Node000003" class="edge">
<title>Node1&#45;&gt;Node3</title>
<g id="a_edge2_Node000001_Node000003"><a xlink:title=" ">
<path fill="none" stroke="#63b8ff" d="M32.09,-133.34C42.57,-141.6 58.12,-153.06 73,-161 75.5,-162.34 78.09,-163.63 80.73,-164.89"/>
<polygon fill="#63b8ff" stroke="#63b8ff" points="79.15,-168.02 89.71,-168.91 82.01,-161.63 79.15,-168.02"/>
</a>
</g>
</g>
<!-- Node4 -->
<g id="Node000004" class="node">
<title>Node4</title>
<g id="a_Node000004"><a xlink:href="classsfui_1_1_window.html#a36f4ef2a40d3b9f545f97dbfb29b2ae7" target="_top" xlink:title="初始化窗口参数。">
<polygon fill="white" stroke="#666666" points="185.75,-152 94,-152 94,-132 185.75,-132 185.75,-152"/>
<text xml:space="preserve" text-anchor="middle" x="139.88" y="-138.5" font-family="Helvetica,sans-Serif" font-size="10.00">sfui::Window::init</text>
</a>
</g>
</g>
<!-- Node1&#45;&gt;Node4 -->
<g id="edge3_Node000001_Node000004" class="edge">
<title>Node1&#45;&gt;Node4</title>
<g id="a_edge3_Node000001_Node000004"><a xlink:title=" ">
<path fill="none" stroke="#63b8ff" d="M37.37,-125.84C49.42,-127.76 66.04,-130.41 82.34,-133"/>
<polygon fill="#63b8ff" stroke="#63b8ff" points="81.6,-136.43 92.02,-134.54 82.7,-129.51 81.6,-136.43"/>
</a>
</g>
</g>
<!-- Node5 -->
<g id="Node000005" class="node">
<title>Node5</title>
<g id="a_Node000005"><a xlink:href="namespacesfui.html#a90be12c04a2fc9de082dba031c599f2c" target="_top" xlink:title="创建一个新的页面实例。">
<polygon fill="white" stroke="#666666" points="182,-114 97.75,-114 97.75,-94 182,-94 182,-114"/>
<text xml:space="preserve" text-anchor="middle" x="139.88" y="-100.5" font-family="Helvetica,sans-Serif" font-size="10.00">sfui::makePage</text>
</a>
</g>
</g>
<!-- Node1&#45;&gt;Node5 -->
<g id="edge4_Node000001_Node000005" class="edge">
<title>Node1&#45;&gt;Node5</title>
<g id="a_edge4_Node000001_Node000005"><a xlink:title=" ">
<path fill="none" stroke="#63b8ff" d="M37.37,-120.16C50.34,-118.09 68.59,-115.19 86.05,-112.41"/>
<polygon fill="#63b8ff" stroke="#63b8ff" points="86.53,-115.88 95.85,-110.85 85.43,-108.96 86.53,-115.88"/>
</a>
</g>
</g>
<!-- Node6 -->
<g id="Node000006" class="node">
<title>Node6</title>
<g id="a_Node000006"><a xlink:href="classsfui_1_1_window.html#a2d60139900440e63f10e535d5287af9b" target="_top" xlink:title="显示首页并进入主循环。">
<polygon fill="white" stroke="#666666" points="201.5,-76 78.25,-76 78.25,-56 201.5,-56 201.5,-76"/>
<text xml:space="preserve" text-anchor="middle" x="139.88" y="-62.5" font-family="Helvetica,sans-Serif" font-size="10.00">sfui::Window::startShow</text>
</a>
</g>
</g>
<!-- Node1&#45;&gt;Node6 -->
<g id="edge5_Node000001_Node000006" class="edge">
<title>Node1&#45;&gt;Node6</title>
<g id="a_edge5_Node000001_Node000006"><a xlink:title=" ">
<path fill="none" stroke="#63b8ff" d="M31.5,-112.67C41.88,-104.19 57.61,-92.42 73,-85 76.54,-83.29 80.26,-81.71 84.06,-80.25"/>
<polygon fill="#63b8ff" stroke="#63b8ff" points="85.17,-83.57 93.44,-76.95 82.85,-76.97 85.17,-83.57"/>
</a>
</g>
</g>
<!-- Node16 -->
<g id="Node000016" class="node">
<title>Node16</title>
<g id="a_Node000016"><a xlink:href="namespacesfui.html#a92f7a2203cd1f549830bf28cd2447d4b" target="_top" xlink:title="将std::string转换为Title（std::wstring）">
<polygon fill="white" stroke="#666666" points="181.25,-38 98.5,-38 98.5,-18 181.25,-18 181.25,-38"/>
<text xml:space="preserve" text-anchor="middle" x="139.88" y="-24.5" font-family="Helvetica,sans-Serif" font-size="10.00">sfui::TitleName</text>
</a>
</g>
</g>
<!-- Node1&#45;&gt;Node16 -->
<g id="edge15_Node000001_Node000016" class="edge">
<title>Node1&#45;&gt;Node16</title>
<g id="a_edge15_Node000001_Node000016"><a xlink:title=" ">
<path fill="none" stroke="#63b8ff" d="M23.95,-112.7C31.58,-96.3 48.69,-64.32 73,-47 77.43,-43.84 82.38,-41.21 87.52,-39.01"/>
<polygon fill="#63b8ff" stroke="#63b8ff" points="88.64,-42.33 96.82,-35.6 86.23,-35.75 88.64,-42.33"/>
</a>
</g>
</g>
<!-- Node7 -->
<g id="Node000007" class="node">
<title>Node7</title>
<g id="a_Node000007"><a xlink:href="classsfui_1_1_window.html#ac3654758cf94834f792bb540e3631f2c" target="_top" xlink:title="绘制当前帧到窗口。">
<polygon fill="white" stroke="#666666" points="380.62,-117 252.88,-117 252.88,-97 380.62,-97 380.62,-117"/>
<text xml:space="preserve" text-anchor="middle" x="316.75" y="-103.5" font-family="Helvetica,sans-Serif" font-size="10.00">sfui::Window::drawFrame</text>
</a>
</g>
</g>
<!-- Node6&#45;&gt;Node7 -->
<g id="edge6_Node000006_Node000007" class="edge">
<title>Node6&#45;&gt;Node7</title>
<g id="a_edge6_Node000006_Node000007"><a xlink:title=" ">
<path fill="none" stroke="#63b8ff" d="M185.46,-76.45C208.17,-81.78 236.01,-88.3 260.11,-93.96"/>
<polygon fill="#63b8ff" stroke="#63b8ff" points="259.24,-97.35 269.78,-96.22 260.84,-90.53 259.24,-97.35"/>
</a>
</g>
</g>
<!-- Node9 -->
<g id="Node000009" class="node">
<title>Node9</title>
<g id="a_Node000009"><a xlink:href="classsfui_1_1_window.html#a2ab4ee75de63cdb7df571d69bc2902a1" target="_top" xlink:title="处理窗口和页面事件，收到关闭事件时关闭窗口。">
<polygon fill="white" stroke="#666666" points="390.75,-76 242.75,-76 242.75,-56 390.75,-56 390.75,-76"/>
<text xml:space="preserve" text-anchor="middle" x="316.75" y="-62.5" font-family="Helvetica,sans-Serif" font-size="10.00">sfui::Window::procesMessage</text>
</a>
</g>
</g>
<!-- Node6&#45;&gt;Node9 -->
<g id="edge8_Node000006_Node000009" class="edge">
<title>Node6&#45;&gt;Node9</title>
<g id="a_edge8_Node000006_Node000009"><a xlink:title=" ">
<path fill="none" stroke="#63b8ff" d="M201.55,-66C211.15,-66 221.23,-66 231.26,-66"/>
<polygon fill="#63b8ff" stroke="#63b8ff" points="231.02,-69.5 241.02,-66 231.02,-62.5 231.02,-69.5"/>
</a>
</g>
</g>
<!-- Node15 -->
<g id="Node000015" class="node">
<title>Node15</title>
<g id="a_Node000015"><a xlink:href="classsfui_1_1_window.html#a21dadeb6d0bbbb394374db0ed2cd578b" target="_top" xlink:title="切换到指定页面。">
<polygon fill="white" stroke="#666666" points="383.62,-38 249.88,-38 249.88,-6 383.62,-6 383.62,-38"/>
<text xml:space="preserve" text-anchor="start" x="257.88" y="-24.5" font-family="Helvetica,sans-Serif" font-size="10.00">sfui::Window::requestPage</text>
<text xml:space="preserve" text-anchor="middle" x="316.75" y="-12.5" font-family="Helvetica,sans-Serif" font-size="10.00">Switch</text>
</a>
</g>
</g>
<!-- Node6&#45;&gt;Node15 -->
<g id="edge14_Node000006_Node000015" class="edge">
<title>Node6&#45;&gt;Node15</title>
<g id="a_edge14_Node000006_Node000015"><a xlink:title=" ">
<path fill="none" stroke="#63b8ff" d="M182.32,-55.57C199.37,-51.28 219.68,-46.17 239.25,-41.25"/>
<polygon fill="#63b8ff" stroke="#63b8ff" points="240.02,-44.66 248.87,-38.83 238.32,-37.87 240.02,-44.66"/>
</a>
</g>
</g>
<!-- Node8 -->
<g id="Node000008" class="node">
<title>Node8</title>
<g id="a_Node000008"><a xlink:href="classsfui_1_1_window.html#a51c77efef7c5084e0c04ffbf83905570" target="_top" xlink:title="更新当前页面视图。">
<polygon fill="white" stroke="#666666" points="558.25,-120 428.25,-120 428.25,-100 558.25,-100 558.25,-120"/>
<text xml:space="preserve" text-anchor="middle" x="493.25" y="-106.5" font-family="Helvetica,sans-Serif" font-size="10.00">sfui::Window::updateView</text>
</a>
</g>
</g>
<!-- Node7&#45;&gt;Node8 -->
<g id="edge7_Node000007_Node000008" class="edge">
<title>Node7&#45;&gt;Node8</title>
<g id="a_edge7_Node000007_Node000008"><a xlink:title=" ">
<path fill="none" stroke="#63b8ff" d="M380.75,-108.08C392.36,-108.28 404.6,-108.49 416.55,-108.7"/>
<polygon fill="#63b8ff" stroke="#63b8ff" points="416.3,-112.19 426.36,-108.87 416.43,-105.2 416.3,-112.19"/>
</a>
</g>
</g>
<!-- Node10 -->
<g id="Node000010" class="node">
<title>Node10</title>
<g id="a_Node000010"><a xlink:href="classsfui_1_1_window.html#adfd7ab642e978cb4bac3b6ccb2093712" target="_top" xlink:title="处理SFML事件输入。">
<polygon fill="white" stroke="#666666" points="559.75,-82 426.75,-82 426.75,-50 559.75,-50 559.75,-82"/>
<text xml:space="preserve" text-anchor="start" x="434.75" y="-68.5" font-family="Helvetica,sans-Serif" font-size="10.00">sfui::Window::handleEvent</text>
<text xml:space="preserve" text-anchor="middle" x="493.25" y="-56.5" font-family="Helvetica,sans-Serif" font-size="10.00">Input</text>
</a>
</g>
</g>
<!-- Node9&#45;&gt;Node10 -->
<g id="edge9_Node000009_Node000010" class="edge">
<title>Node9&#45;&gt;Node10</title>
<g id="a_edge9_Node000009_Node000010"><a xlink:title=" ">
<path fill="none" stroke="#63b8ff" d="M391.25,-66C399.07,-66 407.04,-66 414.91,-66"/>
<polygon fill="#63b8ff" stroke="#63b8ff" points="414.81,-69.5 424.81,-66 414.81,-62.5 414.81,-69.5"/>
</a>
</g>
</g>
<!-- Node14 -->
<g id="Node000014" class="node">
<title>Node14</title>
<g id="a_Node000014"><a xlink:href="classsfui_1_1_window.html#a68d87b1a8809900eda49a26c0a919f10" target="_top" xlink:title="处理实时输入。">
<polygon fill="white" stroke="#666666" points="557.12,-32 429.38,-32 429.38,0 557.12,0 557.12,-32"/>
<text xml:space="preserve" text-anchor="start" x="437.38" y="-18.5" font-family="Helvetica,sans-Serif" font-size="10.00">sfui::Window::handleReal</text>
<text xml:space="preserve" text-anchor="middle" x="493.25" y="-6.5" font-family="Helvetica,sans-Serif" font-size="10.00">TimeInput</text>
</a>
</g>
</g>
<!-- Node9&#45;&gt;Node14 -->
<g id="edge13_Node000009_Node000014" class="edge">
<title>Node9&#45;&gt;Node14</title>
<g id="a_edge13_Node000009_Node000014"><a xlink:title=" ">
<path fill="none" stroke="#63b8ff" d="M359.14,-55.55C369.49,-52.85 380.54,-49.89 390.75,-47 403.16,-43.49 416.37,-39.58 429.02,-35.76"/>
<polygon fill="#63b8ff" stroke="#63b8ff" points="429.96,-39.13 438.51,-32.87 427.92,-32.43 429.96,-39.13"/>
</a>
</g>
</g>
<!-- Node11 -->
<g id="Node000011" class="node">
<title>Node11</title>
<g id="a_Node000011"><a xlink:href="classsfui_1_1_window.html#ae92de433502a60e90de1494307e91291" target="_top" xlink:title="切换窗口/全屏模式。">
<polygon fill="white" stroke="#666666" points="746,-76 595.75,-76 595.75,-56 746,-56 746,-76"/>
<text xml:space="preserve" text-anchor="middle" x="670.88" y="-62.5" font-family="Helvetica,sans-Serif" font-size="10.00">sfui::Window::toggleFullscreen</text>
</a>
</g>
</g>
<!-- Node10&#45;&gt;Node11 -->
<g id="edge10_Node000010_Node000011" class="edge">
<title>Node10&#45;&gt;Node11</title>
<g id="a_edge10_Node000010_Node000011"><a xlink:title=" ">
<path fill="none" stroke="#63b8ff" d="M560.15,-66C567.95,-66 576.01,-66 584.04,-66"/>
<polygon fill="#63b8ff" stroke="#63b8ff" points="583.83,-69.5 593.83,-66 583.83,-62.5 583.83,-69.5"/>
</a>
</g>
</g>
<!-- Node12 -->
<g id="Node000012" class="node">
<title>Node12</title>
<g id="a_Node000012"><a xlink:href="classsfui_1_1_window.html#a2643f2d69c4b1e042e27cb4c0eccb30e" target="_top" xlink:title="切换到全屏模式。">
<polygon fill="white" stroke="#666666" points="914.62,-95 782.38,-95 782.38,-75 914.62,-75 914.62,-95"/>
<text xml:space="preserve" text-anchor="middle" x="848.5" y="-81.5" font-family="Helvetica,sans-Serif" font-size="10.00">sfui::Window::toFullscreen</text>
</a>
</g>
</g>
<!-- Node11&#45;&gt;Node12 -->
<g id="edge11_Node000011_Node000012" class="edge">
<title>Node11&#45;&gt;Node12</title>
<g id="a_edge11_Node000011_Node000012"><a xlink:title=" ">
<path fill="none" stroke="#63b8ff" d="M746.36,-74.06C754.43,-74.93 762.65,-75.82 770.75,-76.7"/>
<polygon fill="#63b8ff" stroke="#63b8ff" points="770.26,-80.16 780.57,-77.76 771.01,-73.2 770.26,-80.16"/>
</a>
</g>
</g>
<!-- Node13 -->
<g id="Node000013" class="node">
<title>Node13</title>
<g id="a_Node000013"><a xlink:href="classsfui_1_1_window.html#a981375b53a47466a633fe41b3ce66361" target="_top" xlink:title="切换到窗口模式。">
<polygon fill="white" stroke="#666666" points="915,-57 782,-57 782,-37 915,-37 915,-57"/>
<text xml:space="preserve" text-anchor="middle" x="848.5" y="-43.5" font-family="Helvetica,sans-Serif" font-size="10.00">sfui::Window::toWindowed</text>
</a>
</g>
</g>
<!-- Node11&#45;&gt;Node13 -->
<g id="edge12_Node000011_Node000013" class="edge">
<title>Node11&#45;&gt;Node13</title>
<g id="a_edge12_Node000011_Node000013"><a xlink:title=" ">
<path fill="none" stroke="#63b8ff" d="M746.36,-57.94C754.21,-57.09 762.2,-56.23 770.09,-55.37"/>
<polygon fill="#63b8ff" stroke="#63b8ff" points="770.46,-58.86 780.02,-54.3 769.7,-51.9 770.46,-58.86"/>
</a>
</g>
</g>
</g>
</svg>
