<?xml version="1.0" encoding="UTF-8" standalone="no"?>
<!DOCTYPE svg PUBLIC "-//W3C//DTD SVG 1.1//EN"
 "http://www.w3.org/Graphics/SVG/1.1/DTD/svg11.dtd">
<!-- Generated by graphviz version 13.0.0 (20250608.1624)
 -->
<!-- Title: sfui::TitleName Pages: 1 -->
<svg width="249pt" height="78pt"
 viewBox="0.00 0.00 249.00 78.00" xmlns="http://www.w3.org/2000/svg" xmlns:xlink="http://www.w3.org/1999/xlink">
<g id="graph0" class="graph" transform="scale(1 1) rotate(0) translate(4 74)">
<title>sfui::TitleName</title>
<!-- Node1 -->
<g id="Node000001" class="node">
<title>Node1</title>
<g id="a_Node000001"><a xlink:title="将std::string转换为Title（std::wstring）">
<polygon fill="#999999" stroke="#666666" points="241.25,-42 158.5,-42 158.5,-22 241.25,-22 241.25,-42"/>
<text xml:space="preserve" text-anchor="middle" x="199.88" y="-28.5" font-family="Helvetica,sans-Serif" font-size="10.00">sfui::TitleName</text>
</a>
</g>
</g>
<!-- Node2 -->
<g id="Node000002" class="node">
<title>Node2</title>
<g id="a_Node000002"><a xlink:href="classgame_1_1_pause_game_page.html#a8a95bf5893cfc470c077e362231ccd35" target="_top" xlink:title="初始化消息与事件绑定（纯虚函数，需子类实现）">
<polygon fill="white" stroke="#666666" points="122.5,-70 0,-70 0,-38 122.5,-38 122.5,-70"/>
<text xml:space="preserve" text-anchor="start" x="8" y="-56.5" font-family="Helvetica,sans-Serif" font-size="10.00">game::PauseGamePage</text>
<text xml:space="preserve" text-anchor="middle" x="61.25" y="-44.5" font-family="Helvetica,sans-Serif" font-size="10.00">::initMessageBinding</text>
</a>
</g>
</g>
<!-- Node1&#45;&gt;Node2 -->
<g id="edge1_Node000001_Node000002" class="edge">
<title>Node1&#45;&gt;Node2</title>
<g id="a_edge1_Node000001_Node000002"><a xlink:title=" ">
<path fill="none" stroke="#63b8ff" d="M147.01,-40.35C139.15,-41.62 130.98,-42.93 122.95,-44.23"/>
<polygon fill="#63b8ff" stroke="#63b8ff" points="147.44,-43.83 156.76,-38.78 146.33,-36.92 147.44,-43.83"/>
</a>
</g>
</g>
<!-- Node3 -->
<g id="Node000003" class="node">
<title>Node3</title>
<g id="a_Node000003"><a xlink:href="main_8cpp.html#a8216c1645620cdb2f629cde3ac02ffef" target="_top" xlink:title=" ">
<polygon fill="white" stroke="#666666" points="79.75,-20 42.75,-20 42.75,0 79.75,0 79.75,-20"/>
<text xml:space="preserve" text-anchor="middle" x="61.25" y="-6.5" font-family="Helvetica,sans-Serif" font-size="10.00">main</text>
</a>
</g>
</g>
<!-- Node1&#45;&gt;Node3 -->
<g id="edge2_Node000001_Node000003" class="edge">
<title>Node1&#45;&gt;Node3</title>
<g id="a_edge2_Node000001_Node000003"><a xlink:title=" ">
<path fill="none" stroke="#63b8ff" d="M146.97,-23.64C123.44,-19.85 97.14,-15.62 80.18,-12.89"/>
<polygon fill="#63b8ff" stroke="#63b8ff" points="146.33,-27.08 156.76,-25.22 147.44,-20.17 146.33,-27.08"/>
</a>
</g>
</g>
</g>
</svg>
