<?xml version="1.0" encoding="UTF-8" standalone="no"?>
<!DOCTYPE svg PUBLIC "-//W3C//DTD SVG 1.1//EN"
 "http://www.w3.org/Graphics/SVG/1.1/DTD/svg11.dtd">
<!-- Generated by graphviz version 13.0.0 (20250608.1624)
 -->
<!-- Title: game/include/pages/pausegamepage.hpp Pages: 1 -->
<svg width="935pt" height="488pt"
 viewBox="0.00 0.00 935.00 488.00" xmlns="http://www.w3.org/2000/svg" xmlns:xlink="http://www.w3.org/1999/xlink">
<g id="graph0" class="graph" transform="scale(1 1) rotate(0) translate(4 484)">
<title>game/include/pages/pausegamepage.hpp</title>
<!-- Node1 -->
<g id="Node000001" class="node">
<title>Node1</title>
<g id="a_Node000001"><a xlink:title=" ">
<polygon fill="#999999" stroke="#666666" points="827.5,-480 718.5,-480 718.5,-448 827.5,-448 827.5,-480"/>
<text xml:space="preserve" text-anchor="start" x="726.5" y="-466.5" font-family="Helvetica,sans-Serif" font-size="10.00">game/include/pages</text>
<text xml:space="preserve" text-anchor="middle" x="773" y="-454.5" font-family="Helvetica,sans-Serif" font-size="10.00">/pausegamepage.hpp</text>
</a>
</g>
</g>
<!-- Node2 -->
<g id="Node000002" class="node">
<title>Node2</title>
<g id="a_Node000002"><a xlink:href="_complex_page_8hpp.html" target="_top" xlink:title=" ">
<polygon fill="white" stroke="#666666" points="469.12,-412 372.88,-412 372.88,-392 469.12,-392 469.12,-412"/>
<text xml:space="preserve" text-anchor="middle" x="421" y="-398.5" font-family="Helvetica,sans-Serif" font-size="10.00">ComplexPage.hpp</text>
</a>
</g>
</g>
<!-- Node1&#45;&gt;Node2 -->
<g id="edge1_Node000001_Node000002" class="edge">
<title>Node1&#45;&gt;Node2</title>
<g id="a_edge1_Node000001_Node000002"><a xlink:title=" ">
<path fill="none" stroke="#63b8ff" d="M718,-453.62C653.48,-442.63 546.9,-424.46 480.5,-413.14"/>
<polygon fill="#63b8ff" stroke="#63b8ff" points="481.33,-409.73 470.88,-411.5 480.15,-416.63 481.33,-409.73"/>
</a>
</g>
</g>
<!-- Node25 -->
<g id="Node000025" class="node">
<title>Node25</title>
<g id="a_Node000025"><a xlink:href="elemental_8hpp.html" target="_top" xlink:title=" ">
<polygon fill="white" stroke="#666666" points="927.38,-244 850.62,-244 850.62,-224 927.38,-224 927.38,-244"/>
<text xml:space="preserve" text-anchor="middle" x="889" y="-230.5" font-family="Helvetica,sans-Serif" font-size="10.00">elemental.hpp</text>
</a>
</g>
</g>
<!-- Node1&#45;&gt;Node25 -->
<g id="edge35_Node000001_Node000025" class="edge">
<title>Node1&#45;&gt;Node25</title>
<g id="a_edge35_Node000001_Node000025"><a xlink:title=" ">
<path fill="none" stroke="#63b8ff" d="M794.21,-447.54C805.58,-438.32 819.04,-425.75 828,-412 861.35,-360.83 878.61,-289.4 885.43,-255.04"/>
<polygon fill="#63b8ff" stroke="#63b8ff" points="888.78,-256.12 887.2,-245.65 881.91,-254.82 888.78,-256.12"/>
</a>
</g>
</g>
<!-- Node26 -->
<g id="Node000026" class="node">
<title>Node26</title>
<g id="a_Node000026"><a xlink:href="biology_8hpp.html" target="_top" xlink:title=" ">
<polygon fill="white" stroke="#666666" points="806.38,-356 741.62,-356 741.62,-336 806.38,-336 806.38,-356"/>
<text xml:space="preserve" text-anchor="middle" x="774" y="-342.5" font-family="Helvetica,sans-Serif" font-size="10.00">biology.hpp</text>
</a>
</g>
</g>
<!-- Node1&#45;&gt;Node26 -->
<g id="edge36_Node000001_Node000026" class="edge">
<title>Node1&#45;&gt;Node26</title>
<g id="a_edge36_Node000001_Node000026"><a xlink:title=" ">
<path fill="none" stroke="#63b8ff" d="M789.47,-447.71C798.3,-438.36 808.3,-425.61 813,-412 815.9,-403.6 816.11,-400.33 813,-392 809.02,-381.33 801.24,-371.51 793.68,-363.79"/>
<polygon fill="#63b8ff" stroke="#63b8ff" points="796.51,-361.65 786.83,-357.32 791.7,-366.73 796.51,-361.65"/>
</a>
</g>
</g>
<!-- Node27 -->
<g id="Node000027" class="node">
<title>Node27</title>
<g id="a_Node000027"><a xlink:href="world__elemental_8hpp.html" target="_top" xlink:title=" ">
<polygon fill="white" stroke="#666666" points="820.62,-300 715.38,-300 715.38,-280 820.62,-280 820.62,-300"/>
<text xml:space="preserve" text-anchor="middle" x="768" y="-286.5" font-family="Helvetica,sans-Serif" font-size="10.00">world_elemental.hpp</text>
</a>
</g>
</g>
<!-- Node1&#45;&gt;Node27 -->
<g id="edge43_Node000001_Node000027" class="edge">
<title>Node1&#45;&gt;Node27</title>
<g id="a_edge43_Node000001_Node000027"><a xlink:title=" ">
<path fill="none" stroke="#63b8ff" d="M757.02,-447.6C748.45,-438.22 738.7,-425.47 734,-412 722.88,-380.1 722.04,-367.95 733,-336 736.47,-325.88 743.25,-316.29 749.92,-308.58"/>
<polygon fill="#63b8ff" stroke="#63b8ff" points="752.46,-310.99 756.75,-301.3 747.35,-306.2 752.46,-310.99"/>
</a>
</g>
</g>
<!-- Node30 -->
<g id="Node000030" class="node">
<title>Node30</title>
<g id="a_Node000030"><a xlink:href="player_8hpp.html" target="_top" xlink:title=" ">
<polygon fill="white" stroke="#666666" points="803.5,-412 742.5,-412 742.5,-392 803.5,-392 803.5,-412"/>
<text xml:space="preserve" text-anchor="middle" x="773" y="-398.5" font-family="Helvetica,sans-Serif" font-size="10.00">player.hpp</text>
</a>
</g>
</g>
<!-- Node1&#45;&gt;Node30 -->
<g id="edge44_Node000001_Node000030" class="edge">
<title>Node1&#45;&gt;Node30</title>
<g id="a_edge44_Node000001_Node000030"><a xlink:title=" ">
<path fill="none" stroke="#63b8ff" d="M773,-447.55C773,-440.34 773,-431.66 773,-423.88"/>
<polygon fill="#63b8ff" stroke="#63b8ff" points="776.5,-423.92 773,-413.92 769.5,-423.92 776.5,-423.92"/>
</a>
</g>
</g>
<!-- Node3 -->
<g id="Node000003" class="node">
<title>Node3</title>
<g id="a_Node000003"><a xlink:href="_interactive_page_8hpp.html" target="_top" xlink:title=" ">
<polygon fill="white" stroke="#666666" points="355.5,-356 252.5,-356 252.5,-336 355.5,-336 355.5,-356"/>
<text xml:space="preserve" text-anchor="middle" x="304" y="-342.5" font-family="Helvetica,sans-Serif" font-size="10.00">InteractivePage.hpp</text>
</a>
</g>
</g>
<!-- Node2&#45;&gt;Node3 -->
<g id="edge2_Node000002_Node000003" class="edge">
<title>Node2&#45;&gt;Node3</title>
<g id="a_edge2_Node000002_Node000003"><a xlink:title=" ">
<path fill="none" stroke="#63b8ff" d="M400.62,-391.59C382.44,-383.21 355.57,-370.8 334.78,-361.21"/>
<polygon fill="#63b8ff" stroke="#63b8ff" points="336.46,-358.13 325.91,-357.11 333.53,-364.48 336.46,-358.13"/>
</a>
</g>
</g>
<!-- Node24 -->
<g id="Node000024" class="node">
<title>Node24</title>
<g id="a_Node000024"><a xlink:href="_control_page_8hpp.html" target="_top" xlink:title=" ">
<polygon fill="white" stroke="#666666" points="465.38,-356 376.62,-356 376.62,-336 465.38,-336 465.38,-356"/>
<text xml:space="preserve" text-anchor="middle" x="421" y="-342.5" font-family="Helvetica,sans-Serif" font-size="10.00">ControlPage.hpp</text>
</a>
</g>
</g>
<!-- Node2&#45;&gt;Node24 -->
<g id="edge32_Node000002_Node000024" class="edge">
<title>Node2&#45;&gt;Node24</title>
<g id="a_edge32_Node000002_Node000024"><a xlink:title=" ">
<path fill="none" stroke="#63b8ff" d="M421,-391.59C421,-385.01 421,-375.96 421,-367.73"/>
<polygon fill="#63b8ff" stroke="#63b8ff" points="424.5,-367.81 421,-357.81 417.5,-367.81 424.5,-367.81"/>
</a>
</g>
</g>
<!-- Node4 -->
<g id="Node000004" class="node">
<title>Node4</title>
<g id="a_Node000004"><a xlink:href="_page_8hpp.html" target="_top" xlink:title=" ">
<polygon fill="white" stroke="#666666" points="389.62,-244 332.38,-244 332.38,-224 389.62,-224 389.62,-244"/>
<text xml:space="preserve" text-anchor="middle" x="361" y="-230.5" font-family="Helvetica,sans-Serif" font-size="10.00">Page.hpp</text>
</a>
</g>
</g>
<!-- Node3&#45;&gt;Node4 -->
<g id="edge3_Node000003_Node000004" class="edge">
<title>Node3&#45;&gt;Node4</title>
<g id="a_edge3_Node000003_Node000004"><a xlink:title=" ">
<path fill="none" stroke="#63b8ff" d="M304.22,-335.62C304.89,-322.46 307.44,-298.11 317,-280 322.62,-269.36 331.55,-259.54 339.9,-251.81"/>
<polygon fill="#63b8ff" stroke="#63b8ff" points="342.15,-254.49 347.41,-245.29 337.56,-249.21 342.15,-254.49"/>
</a>
</g>
</g>
<!-- Node21 -->
<g id="Node000021" class="node">
<title>Node21</title>
<g id="a_Node000021"><a xlink:href="_interactive_8hpp.html" target="_top" xlink:title=" ">
<polygon fill="white" stroke="#666666" points="270.25,-300 189.75,-300 189.75,-280 270.25,-280 270.25,-300"/>
<text xml:space="preserve" text-anchor="middle" x="230" y="-286.5" font-family="Helvetica,sans-Serif" font-size="10.00">Interactive.hpp</text>
</a>
</g>
</g>
<!-- Node3&#45;&gt;Node21 -->
<g id="edge28_Node000003_Node000021" class="edge">
<title>Node3&#45;&gt;Node21</title>
<g id="a_edge28_Node000003_Node000021"><a xlink:title=" ">
<path fill="none" stroke="#63b8ff" d="M291.11,-335.59C280.29,-327.7 264.59,-316.24 251.81,-306.92"/>
<polygon fill="#63b8ff" stroke="#63b8ff" points="254.11,-304.26 243.96,-301.19 249.98,-309.91 254.11,-304.26"/>
</a>
</g>
</g>
<!-- Node22 -->
<g id="Node000022" class="node">
<title>Node22</title>
<g id="a_Node000022"><a xlink:href="_window_8hpp.html" target="_top" xlink:title=" ">
<polygon fill="white" stroke="#666666" points="395.62,-300 326.38,-300 326.38,-280 395.62,-280 395.62,-300"/>
<text xml:space="preserve" text-anchor="middle" x="361" y="-286.5" font-family="Helvetica,sans-Serif" font-size="10.00">Window.hpp</text>
</a>
</g>
</g>
<!-- Node3&#45;&gt;Node22 -->
<g id="edge29_Node000003_Node000022" class="edge">
<title>Node3&#45;&gt;Node22</title>
<g id="a_edge29_Node000003_Node000022"><a xlink:title=" ">
<path fill="none" stroke="#63b8ff" d="M313.93,-335.59C321.94,-328.01 333.42,-317.13 343.03,-308.02"/>
<polygon fill="#63b8ff" stroke="#63b8ff" points="345.23,-310.76 350.09,-301.34 340.42,-305.68 345.23,-310.76"/>
</a>
</g>
</g>
<!-- Node5 -->
<g id="Node000005" class="node">
<title>Node5</title>
<g id="a_Node000005"><a xlink:title=" ">
<polygon fill="#e0e0e0" stroke="#999999" points="167.25,-188 68.75,-188 68.75,-168 167.25,-168 167.25,-188"/>
<text xml:space="preserve" text-anchor="middle" x="118" y="-174.5" font-family="Helvetica,sans-Serif" font-size="10.00">SFML/Window.hpp</text>
</a>
</g>
</g>
<!-- Node4&#45;&gt;Node5 -->
<g id="edge4_Node000004_Node000005" class="edge">
<title>Node4&#45;&gt;Node5</title>
<g id="a_edge4_Node000004_Node000005"><a xlink:title=" ">
<path fill="none" stroke="#63b8ff" d="M331.97,-226.07C328.94,-225.36 325.91,-224.66 323,-224 272.34,-212.44 214.52,-199.8 173.22,-190.86"/>
<polygon fill="#63b8ff" stroke="#63b8ff" points="174.03,-187.46 163.51,-188.77 172.55,-194.3 174.03,-187.46"/>
</a>
</g>
</g>
<!-- Node6 -->
<g id="Node000006" class="node">
<title>Node6</title>
<g id="a_Node000006"><a xlink:href="_active_key_binding_8hpp.html" target="_top" xlink:title=" ">
<polygon fill="white" stroke="#666666" points="297,-188 185,-188 185,-168 297,-168 297,-188"/>
<text xml:space="preserve" text-anchor="middle" x="241" y="-174.5" font-family="Helvetica,sans-Serif" font-size="10.00">ActiveKeyBinding.hpp</text>
</a>
</g>
</g>
<!-- Node4&#45;&gt;Node6 -->
<g id="edge5_Node000004_Node000006" class="edge">
<title>Node4&#45;&gt;Node6</title>
<g id="a_edge5_Node000004_Node000006"><a xlink:title=" ">
<path fill="none" stroke="#63b8ff" d="M340.1,-223.59C321.37,-215.17 293.64,-202.69 272.28,-193.07"/>
<polygon fill="#63b8ff" stroke="#63b8ff" points="274,-190.01 263.45,-189.1 271.13,-196.4 274,-190.01"/>
</a>
</g>
</g>
<!-- Node10 -->
<g id="Node000010" class="node">
<title>Node10</title>
<g id="a_Node000010"><a xlink:href="_mouse_8hpp.html" target="_top" xlink:title=" ">
<polygon fill="white" stroke="#666666" points="64,-76 0,-76 0,-56 64,-56 64,-76"/>
<text xml:space="preserve" text-anchor="middle" x="32" y="-62.5" font-family="Helvetica,sans-Serif" font-size="10.00">Mouse.hpp</text>
</a>
</g>
</g>
<!-- Node4&#45;&gt;Node10 -->
<g id="edge9_Node000004_Node000010" class="edge">
<title>Node4&#45;&gt;Node10</title>
<g id="a_edge9_Node000004_Node000010"><a xlink:title=" ">
<path fill="none" stroke="#63b8ff" d="M332.02,-225.83C328.98,-225.17 325.93,-224.55 323,-224 265.01,-213.19 103.57,-227.76 60,-188 31.95,-162.4 29.24,-114.76 30.28,-87.52"/>
<polygon fill="#63b8ff" stroke="#63b8ff" points="33.76,-87.99 30.88,-77.79 26.77,-87.56 33.76,-87.99"/>
</a>
</g>
</g>
<!-- Node11 -->
<g id="Node000011" class="node">
<title>Node11</title>
<g id="a_Node000011"><a xlink:href="textbox_8hpp.html" target="_top" xlink:title=" ">
<polygon fill="white" stroke="#666666" points="701.5,-132 634.5,-132 634.5,-112 701.5,-112 701.5,-132"/>
<text xml:space="preserve" text-anchor="middle" x="668" y="-118.5" font-family="Helvetica,sans-Serif" font-size="10.00">textbox.hpp</text>
</a>
</g>
</g>
<!-- Node4&#45;&gt;Node11 -->
<g id="edge11_Node000004_Node000011" class="edge">
<title>Node4&#45;&gt;Node11</title>
<g id="a_edge11_Node000004_Node000011"><a xlink:title=" ">
<path fill="none" stroke="#63b8ff" d="M389.8,-231.21C433.21,-227.64 517.23,-217.24 582,-188 608.48,-176.05 634.47,-154.68 650.83,-139.72"/>
<polygon fill="#63b8ff" stroke="#63b8ff" points="652.87,-142.61 657.76,-133.21 648.08,-137.5 652.87,-142.61"/>
</a>
</g>
</g>
<!-- Node13 -->
<g id="Node000013" class="node">
<title>Node13</title>
<g id="a_Node000013"><a xlink:href="_event_binding_8hpp.html" target="_top" xlink:title=" ">
<polygon fill="white" stroke="#666666" points="407.25,-188 314.75,-188 314.75,-168 407.25,-168 407.25,-188"/>
<text xml:space="preserve" text-anchor="middle" x="361" y="-174.5" font-family="Helvetica,sans-Serif" font-size="10.00">EventBinding.hpp</text>
</a>
</g>
</g>
<!-- Node4&#45;&gt;Node13 -->
<g id="edge14_Node000004_Node000013" class="edge">
<title>Node4&#45;&gt;Node13</title>
<g id="a_edge14_Node000004_Node000013"><a xlink:title=" ">
<path fill="none" stroke="#63b8ff" d="M361,-223.59C361,-217.01 361,-207.96 361,-199.73"/>
<polygon fill="#63b8ff" stroke="#63b8ff" points="364.5,-199.81 361,-189.81 357.5,-199.81 364.5,-199.81"/>
</a>
</g>
</g>
<!-- Node18 -->
<g id="Node000018" class="node">
<title>Node18</title>
<g id="a_Node000018"><a xlink:href="inputbox_8hpp.html" target="_top" xlink:title=" ">
<polygon fill="white" stroke="#666666" points="572.75,-188 501.25,-188 501.25,-168 572.75,-168 572.75,-188"/>
<text xml:space="preserve" text-anchor="middle" x="537" y="-174.5" font-family="Helvetica,sans-Serif" font-size="10.00">inputbox.hpp</text>
</a>
</g>
</g>
<!-- Node4&#45;&gt;Node18 -->
<g id="edge23_Node000004_Node000018" class="edge">
<title>Node4&#45;&gt;Node18</title>
<g id="a_edge23_Node000004_Node000018"><a xlink:title=" ">
<path fill="none" stroke="#63b8ff" d="M390.06,-224.08C418.71,-215.29 462.78,-201.77 495.18,-191.83"/>
<polygon fill="#63b8ff" stroke="#63b8ff" points="496.14,-195.2 504.67,-188.92 494.08,-188.51 496.14,-195.2"/>
</a>
</g>
</g>
<!-- Node7 -->
<g id="Node000007" class="node">
<title>Node7</title>
<g id="a_Node000007"><a xlink:title=" ">
<polygon fill="#e0e0e0" stroke="#999999" points="415.5,-20 312.5,-20 312.5,0 415.5,0 415.5,-20"/>
<text xml:space="preserve" text-anchor="middle" x="364" y="-6.5" font-family="Helvetica,sans-Serif" font-size="10.00">SFML/Graphics.hpp</text>
</a>
</g>
</g>
<!-- Node6&#45;&gt;Node7 -->
<g id="edge6_Node000006_Node000007" class="edge">
<title>Node6&#45;&gt;Node7</title>
<g id="a_edge6_Node000006_Node000007"><a xlink:title=" ">
<path fill="none" stroke="#63b8ff" d="M184.72,-169.51C140.34,-161.05 89.27,-144.07 111,-112 153.18,-49.74 240.56,-25.86 300.73,-16.7"/>
<polygon fill="#63b8ff" stroke="#63b8ff" points="301.09,-20.18 310.5,-15.32 300.11,-13.25 301.09,-20.18"/>
</a>
</g>
</g>
<!-- Node8 -->
<g id="Node000008" class="node">
<title>Node8</title>
<g id="a_Node000008"><a xlink:title=" ">
<polygon fill="#e0e0e0" stroke="#999999" points="278,-132 220,-132 220,-112 278,-112 278,-132"/>
<text xml:space="preserve" text-anchor="middle" x="249" y="-118.5" font-family="Helvetica,sans-Serif" font-size="10.00">functional</text>
</a>
</g>
</g>
<!-- Node6&#45;&gt;Node8 -->
<g id="edge7_Node000006_Node000008" class="edge">
<title>Node6&#45;&gt;Node8</title>
<g id="a_edge7_Node000006_Node000008"><a xlink:title=" ">
<path fill="none" stroke="#63b8ff" d="M242.39,-167.59C243.38,-160.93 244.74,-151.75 245.97,-143.44"/>
<polygon fill="#63b8ff" stroke="#63b8ff" points="249.4,-144.2 247.4,-133.8 242.47,-143.17 249.4,-144.2"/>
</a>
</g>
</g>
<!-- Node9 -->
<g id="Node000009" class="node">
<title>Node9</title>
<g id="a_Node000009"><a xlink:title=" ">
<polygon fill="#e0e0e0" stroke="#999999" points="202.38,-132 119.62,-132 119.62,-112 202.38,-112 202.38,-132"/>
<text xml:space="preserve" text-anchor="middle" x="161" y="-118.5" font-family="Helvetica,sans-Serif" font-size="10.00">unordered_map</text>
</a>
</g>
</g>
<!-- Node6&#45;&gt;Node9 -->
<g id="edge8_Node000006_Node000009" class="edge">
<title>Node6&#45;&gt;Node9</title>
<g id="a_edge8_Node000006_Node000009"><a xlink:title=" ">
<path fill="none" stroke="#63b8ff" d="M227.07,-167.59C215.32,-159.67 198.27,-148.16 184.43,-138.82"/>
<polygon fill="#63b8ff" stroke="#63b8ff" points="186.54,-136.02 176.3,-133.33 182.63,-141.82 186.54,-136.02"/>
</a>
</g>
</g>
<!-- Node10&#45;&gt;Node7 -->
<g id="edge10_Node000010_Node000007" class="edge">
<title>Node10&#45;&gt;Node7</title>
<g id="a_edge10_Node000010_Node000007"><a xlink:title=" ">
<path fill="none" stroke="#63b8ff" d="M64.14,-58.55C68.79,-57.67 73.51,-56.79 78,-56 154.57,-42.49 243.03,-28.88 301.05,-20.22"/>
<polygon fill="#63b8ff" stroke="#63b8ff" points="301.36,-23.71 310.74,-18.78 300.33,-16.79 301.36,-23.71"/>
</a>
</g>
</g>
<!-- Node11&#45;&gt;Node7 -->
<g id="edge13_Node000011_Node000007" class="edge">
<title>Node11&#45;&gt;Node7</title>
<g id="a_edge13_Node000011_Node000007"><a xlink:title=" ">
<path fill="none" stroke="#63b8ff" d="M666.83,-111.77C664.49,-97.4 657.82,-69.91 640,-56 607.74,-30.81 498.24,-19.28 427.25,-14.35"/>
<polygon fill="#63b8ff" stroke="#63b8ff" points="427.49,-10.85 417.28,-13.68 427.02,-17.84 427.49,-10.85"/>
</a>
</g>
</g>
<!-- Node12 -->
<g id="Node000012" class="node">
<title>Node12</title>
<g id="a_Node000012"><a xlink:title=" ">
<polygon fill="#e0e0e0" stroke="#999999" points="630.5,-76 569.5,-76 569.5,-56 630.5,-56 630.5,-76"/>
<text xml:space="preserve" text-anchor="middle" x="600" y="-62.5" font-family="Helvetica,sans-Serif" font-size="10.00">filesystem</text>
</a>
</g>
</g>
<!-- Node11&#45;&gt;Node12 -->
<g id="edge12_Node000011_Node000012" class="edge">
<title>Node11&#45;&gt;Node12</title>
<g id="a_edge12_Node000011_Node000012"><a xlink:title=" ">
<path fill="none" stroke="#63b8ff" d="M656.16,-111.59C646.31,-103.77 632.07,-92.46 620.39,-83.19"/>
<polygon fill="#63b8ff" stroke="#63b8ff" points="622.9,-80.72 612.89,-77.24 618.55,-86.2 622.9,-80.72"/>
</a>
</g>
</g>
<!-- Node13&#45;&gt;Node7 -->
<g id="edge15_Node000013_Node000007" class="edge">
<title>Node13&#45;&gt;Node7</title>
<g id="a_edge15_Node000013_Node000007"><a xlink:title=" ">
<path fill="none" stroke="#63b8ff" d="M361.17,-167.6C361.64,-141.46 362.98,-67.48 363.63,-31.36"/>
<polygon fill="#63b8ff" stroke="#63b8ff" points="367.12,-31.87 363.8,-21.81 360.12,-31.75 367.12,-31.87"/>
</a>
</g>
</g>
<!-- Node13&#45;&gt;Node8 -->
<g id="edge16_Node000013_Node000008" class="edge">
<title>Node13&#45;&gt;Node8</title>
<g id="a_edge16_Node000013_Node000008"><a xlink:title=" ">
<path fill="none" stroke="#63b8ff" d="M341.49,-167.59C324.25,-159.28 298.84,-147.03 279.01,-137.47"/>
<polygon fill="#63b8ff" stroke="#63b8ff" points="280.55,-134.33 270.02,-133.14 277.51,-140.63 280.55,-134.33"/>
</a>
</g>
</g>
<!-- Node13&#45;&gt;Node9 -->
<g id="edge17_Node000013_Node000009" class="edge">
<title>Node13&#45;&gt;Node9</title>
<g id="a_edge17_Node000013_Node000009"><a xlink:title=" ">
<path fill="none" stroke="#63b8ff" d="M326.16,-167.59C293.1,-158.67 243.2,-145.19 206.9,-135.39"/>
<polygon fill="#63b8ff" stroke="#63b8ff" points="208.14,-132.1 197.57,-132.87 206.31,-138.86 208.14,-132.1"/>
</a>
</g>
</g>
<!-- Node14 -->
<g id="Node000014" class="node">
<title>Node14</title>
<g id="a_Node000014"><a xlink:href="button_8hpp.html" target="_top" xlink:title=" ">
<polygon fill="white" stroke="#666666" points="453.88,-132 392.12,-132 392.12,-112 453.88,-112 453.88,-132"/>
<text xml:space="preserve" text-anchor="middle" x="423" y="-118.5" font-family="Helvetica,sans-Serif" font-size="10.00">button.hpp</text>
</a>
</g>
</g>
<!-- Node13&#45;&gt;Node14 -->
<g id="edge18_Node000013_Node000014" class="edge">
<title>Node13&#45;&gt;Node14</title>
<g id="a_edge18_Node000013_Node000014"><a xlink:title=" ">
<path fill="none" stroke="#63b8ff" d="M371.8,-167.59C380.6,-159.93 393.25,-148.91 403.77,-139.75"/>
<polygon fill="#63b8ff" stroke="#63b8ff" points="405.94,-142.5 411.18,-133.29 401.34,-137.22 405.94,-142.5"/>
</a>
</g>
</g>
<!-- Node17 -->
<g id="Node000017" class="node">
<title>Node17</title>
<g id="a_Node000017"><a xlink:title=" ">
<polygon fill="#e0e0e0" stroke="#999999" points="335.62,-132 296.38,-132 296.38,-112 335.62,-112 335.62,-132"/>
<text xml:space="preserve" text-anchor="middle" x="316" y="-118.5" font-family="Helvetica,sans-Serif" font-size="10.00">utility</text>
</a>
</g>
</g>
<!-- Node13&#45;&gt;Node17 -->
<g id="edge22_Node000013_Node000017" class="edge">
<title>Node13&#45;&gt;Node17</title>
<g id="a_edge22_Node000013_Node000017"><a xlink:title=" ">
<path fill="none" stroke="#63b8ff" d="M353.16,-167.59C347.03,-160.24 338.33,-149.8 330.89,-140.87"/>
<polygon fill="#63b8ff" stroke="#63b8ff" points="333.81,-138.9 324.72,-133.46 328.43,-143.38 333.81,-138.9"/>
</a>
</g>
</g>
<!-- Node15 -->
<g id="Node000015" class="node">
<title>Node15</title>
<g id="a_Node000015"><a xlink:href="_texture_item_8hpp.html" target="_top" xlink:title=" ">
<polygon fill="white" stroke="#666666" points="773.25,-76 686.75,-76 686.75,-56 773.25,-56 773.25,-76"/>
<text xml:space="preserve" text-anchor="middle" x="730" y="-62.5" font-family="Helvetica,sans-Serif" font-size="10.00">TextureItem.hpp</text>
</a>
</g>
</g>
<!-- Node14&#45;&gt;Node15 -->
<g id="edge19_Node000014_Node000015" class="edge">
<title>Node14&#45;&gt;Node15</title>
<g id="a_edge19_Node000014_Node000015"><a xlink:title=" ">
<path fill="none" stroke="#63b8ff" d="M454.13,-115.53C505.97,-106.41 610.65,-87.99 675.11,-76.65"/>
<polygon fill="#63b8ff" stroke="#63b8ff" points="675.53,-80.13 684.78,-74.95 674.32,-73.24 675.53,-80.13"/>
</a>
</g>
</g>
<!-- Node16 -->
<g id="Node000016" class="node">
<title>Node16</title>
<g id="a_Node000016"><a xlink:href="_area_8hpp.html" target="_top" xlink:title=" ">
<polygon fill="white" stroke="#666666" points="479.5,-76 424.5,-76 424.5,-56 479.5,-56 479.5,-76"/>
<text xml:space="preserve" text-anchor="middle" x="452" y="-62.5" font-family="Helvetica,sans-Serif" font-size="10.00">Area.hpp</text>
</a>
</g>
</g>
<!-- Node14&#45;&gt;Node16 -->
<g id="edge21_Node000014_Node000016" class="edge">
<title>Node14&#45;&gt;Node16</title>
<g id="a_edge21_Node000014_Node000016"><a xlink:title=" ">
<path fill="none" stroke="#63b8ff" d="M428.05,-111.59C431.79,-104.63 437.02,-94.89 441.64,-86.29"/>
<polygon fill="#63b8ff" stroke="#63b8ff" points="444.64,-88.1 446.29,-77.63 438.48,-84.79 444.64,-88.1"/>
</a>
</g>
</g>
<!-- Node15&#45;&gt;Node7 -->
<g id="edge20_Node000015_Node000007" class="edge">
<title>Node15&#45;&gt;Node7</title>
<g id="a_edge20_Node000015_Node000007"><a xlink:title=" ">
<path fill="none" stroke="#63b8ff" d="M686.44,-58.07C681.9,-57.36 677.36,-56.66 673,-56 587.98,-43.1 489.68,-28.91 427.21,-19.98"/>
<polygon fill="#63b8ff" stroke="#63b8ff" points="427.86,-16.54 417.47,-18.59 426.87,-23.47 427.86,-16.54"/>
</a>
</g>
</g>
<!-- Node18&#45;&gt;Node11 -->
<g id="edge24_Node000018_Node000011" class="edge">
<title>Node18&#45;&gt;Node11</title>
<g id="a_edge24_Node000018_Node000011"><a xlink:title=" ">
<path fill="none" stroke="#63b8ff" d="M559.82,-167.59C580.45,-159.09 611.08,-146.46 634.49,-136.81"/>
<polygon fill="#63b8ff" stroke="#63b8ff" points="635.69,-140.1 643.6,-133.06 633.02,-133.63 635.69,-140.1"/>
</a>
</g>
</g>
<!-- Node18&#45;&gt;Node16 -->
<g id="edge25_Node000018_Node000016" class="edge">
<title>Node18&#45;&gt;Node16</title>
<g id="a_edge25_Node000018_Node000016"><a xlink:title=" ">
<path fill="none" stroke="#63b8ff" d="M529.48,-167.75C522.14,-158.7 510.7,-144.48 501,-132 488.84,-116.35 475.3,-98.34 465.54,-85.25"/>
<polygon fill="#63b8ff" stroke="#63b8ff" points="468.58,-83.47 459.8,-77.54 462.96,-87.65 468.58,-83.47"/>
</a>
</g>
</g>
<!-- Node19 -->
<g id="Node000019" class="node">
<title>Node19</title>
<g id="a_Node000019"><a xlink:title=" ">
<polygon fill="#e0e0e0" stroke="#999999" points="563.75,-132 510.25,-132 510.25,-112 563.75,-112 563.75,-132"/>
<text xml:space="preserve" text-anchor="middle" x="537" y="-118.5" font-family="Helvetica,sans-Serif" font-size="10.00">iostream</text>
</a>
</g>
</g>
<!-- Node18&#45;&gt;Node19 -->
<g id="edge26_Node000018_Node000019" class="edge">
<title>Node18&#45;&gt;Node19</title>
<g id="a_edge26_Node000018_Node000019"><a xlink:title=" ">
<path fill="none" stroke="#63b8ff" d="M537,-167.59C537,-161.01 537,-151.96 537,-143.73"/>
<polygon fill="#63b8ff" stroke="#63b8ff" points="540.5,-143.81 537,-133.81 533.5,-143.81 540.5,-143.81"/>
</a>
</g>
</g>
<!-- Node20 -->
<g id="Node000020" class="node">
<title>Node20</title>
<g id="a_Node000020"><a xlink:title=" ">
<polygon fill="#e0e0e0" stroke="#999999" points="616.38,-132 581.62,-132 581.62,-112 616.38,-112 616.38,-132"/>
<text xml:space="preserve" text-anchor="middle" x="599" y="-118.5" font-family="Helvetica,sans-Serif" font-size="10.00">print</text>
</a>
</g>
</g>
<!-- Node18&#45;&gt;Node20 -->
<g id="edge27_Node000018_Node000020" class="edge">
<title>Node18&#45;&gt;Node20</title>
<g id="a_edge27_Node000018_Node000020"><a xlink:title=" ">
<path fill="none" stroke="#63b8ff" d="M547.8,-167.59C556.6,-159.93 569.25,-148.91 579.77,-139.75"/>
<polygon fill="#63b8ff" stroke="#63b8ff" points="581.94,-142.5 587.18,-133.29 577.34,-137.22 581.94,-142.5"/>
</a>
</g>
</g>
<!-- Node22&#45;&gt;Node4 -->
<g id="edge31_Node000022_Node000004" class="edge">
<title>Node22&#45;&gt;Node4</title>
<g id="a_edge31_Node000022_Node000004"><a xlink:title=" ">
<path fill="none" stroke="#63b8ff" d="M361,-279.59C361,-273.01 361,-263.96 361,-255.73"/>
<polygon fill="#63b8ff" stroke="#63b8ff" points="364.5,-255.81 361,-245.81 357.5,-255.81 364.5,-255.81"/>
</a>
</g>
</g>
<!-- Node23 -->
<g id="Node000023" class="node">
<title>Node23</title>
<g id="a_Node000023"><a xlink:title=" ">
<polygon fill="#e0e0e0" stroke="#999999" points="313.88,-244 186.12,-244 186.12,-224 313.88,-224 313.88,-244"/>
<text xml:space="preserve" text-anchor="middle" x="250" y="-230.5" font-family="Helvetica,sans-Serif" font-size="10.00">SFML/Window/Event.hpp</text>
</a>
</g>
</g>
<!-- Node22&#45;&gt;Node23 -->
<g id="edge30_Node000022_Node000023" class="edge">
<title>Node22&#45;&gt;Node23</title>
<g id="a_edge30_Node000022_Node000023"><a xlink:title=" ">
<path fill="none" stroke="#63b8ff" d="M341.67,-279.59C324.58,-271.28 299.4,-259.03 279.75,-249.47"/>
<polygon fill="#63b8ff" stroke="#63b8ff" points="281.37,-246.37 270.85,-245.14 278.31,-252.66 281.37,-246.37"/>
</a>
</g>
</g>
<!-- Node24&#45;&gt;Node4 -->
<g id="edge33_Node000024_Node000004" class="edge">
<title>Node24&#45;&gt;Node4</title>
<g id="a_edge33_Node000024_Node000004"><a xlink:title=" ">
<path fill="none" stroke="#63b8ff" d="M420.25,-335.61C418.86,-322.44 415.06,-298.08 405,-280 399.15,-269.48 390.19,-259.68 381.87,-251.93"/>
<polygon fill="#63b8ff" stroke="#63b8ff" points="384.25,-249.36 374.42,-245.39 379.63,-254.62 384.25,-249.36"/>
</a>
</g>
</g>
<!-- Node24&#45;&gt;Node22 -->
<g id="edge34_Node000024_Node000022" class="edge">
<title>Node24&#45;&gt;Node22</title>
<g id="a_edge34_Node000024_Node000022"><a xlink:title=" ">
<path fill="none" stroke="#63b8ff" d="M410.55,-335.59C402.03,-327.93 389.79,-316.91 379.61,-307.75"/>
<polygon fill="#63b8ff" stroke="#63b8ff" points="382.23,-305.4 372.46,-301.31 377.55,-310.6 382.23,-305.4"/>
</a>
</g>
</g>
<!-- Node26&#45;&gt;Node27 -->
<g id="edge37_Node000026_Node000027" class="edge">
<title>Node26&#45;&gt;Node27</title>
<g id="a_edge37_Node000026_Node000027"><a xlink:title=" ">
<path fill="none" stroke="#63b8ff" d="M772.95,-335.59C772.22,-329.01 771.22,-319.96 770.3,-311.73"/>
<polygon fill="#63b8ff" stroke="#63b8ff" points="773.78,-311.35 769.2,-301.8 766.83,-312.13 773.78,-311.35"/>
</a>
</g>
</g>
<!-- Node27&#45;&gt;Node25 -->
<g id="edge38_Node000027_Node000025" class="edge">
<title>Node27&#45;&gt;Node25</title>
<g id="a_edge38_Node000027_Node000025"><a xlink:title=" ">
<path fill="none" stroke="#63b8ff" d="M789.08,-279.59C807.96,-271.17 835.92,-258.69 857.46,-249.07"/>
<polygon fill="#63b8ff" stroke="#63b8ff" points="858.67,-252.37 866.38,-245.1 855.82,-245.98 858.67,-252.37"/>
</a>
</g>
</g>
<!-- Node28 -->
<g id="Node000028" class="node">
<title>Node28</title>
<g id="a_Node000028"><a xlink:href="_frame_animated_sprite_8hpp.html" target="_top" xlink:title=" ">
<polygon fill="white" stroke="#666666" points="832.62,-244 703.38,-244 703.38,-224 832.62,-224 832.62,-244"/>
<text xml:space="preserve" text-anchor="middle" x="768" y="-230.5" font-family="Helvetica,sans-Serif" font-size="10.00">FrameAnimatedSprite.hpp</text>
</a>
</g>
</g>
<!-- Node27&#45;&gt;Node28 -->
<g id="edge39_Node000027_Node000028" class="edge">
<title>Node27&#45;&gt;Node28</title>
<g id="a_edge39_Node000027_Node000028"><a xlink:title=" ">
<path fill="none" stroke="#63b8ff" d="M768,-279.59C768,-273.01 768,-263.96 768,-255.73"/>
<polygon fill="#63b8ff" stroke="#63b8ff" points="771.5,-255.81 768,-245.81 764.5,-255.81 771.5,-255.81"/>
</a>
</g>
</g>
<!-- Node29 -->
<g id="Node000029" class="node">
<title>Node29</title>
<g id="a_Node000029"><a xlink:href="_time_animated_sprite_8hpp.html" target="_top" xlink:title=" ">
<polygon fill="white" stroke="#666666" points="685.62,-244 562.38,-244 562.38,-224 685.62,-224 685.62,-244"/>
<text xml:space="preserve" text-anchor="middle" x="624" y="-230.5" font-family="Helvetica,sans-Serif" font-size="10.00">TimeAnimatedSprite.hpp</text>
</a>
</g>
</g>
<!-- Node27&#45;&gt;Node29 -->
<g id="edge41_Node000027_Node000029" class="edge">
<title>Node27&#45;&gt;Node29</title>
<g id="a_edge41_Node000027_Node000029"><a xlink:title=" ">
<path fill="none" stroke="#63b8ff" d="M742.92,-279.59C719.93,-270.97 685.65,-258.12 659.79,-248.42"/>
<polygon fill="#63b8ff" stroke="#63b8ff" points="661.29,-245.25 650.7,-245.01 658.83,-251.8 661.29,-245.25"/>
</a>
</g>
</g>
<!-- Node28&#45;&gt;Node15 -->
<g id="edge40_Node000028_Node000015" class="edge">
<title>Node28&#45;&gt;Node15</title>
<g id="a_edge40_Node000028_Node000015"><a xlink:title=" ">
<path fill="none" stroke="#63b8ff" d="M766.47,-223.51C763.09,-203.01 754.44,-153.1 744,-112 741.91,-103.78 739.22,-94.83 736.75,-87.1"/>
<polygon fill="#63b8ff" stroke="#63b8ff" points="740.1,-86.08 733.66,-77.66 733.45,-88.26 740.1,-86.08"/>
</a>
</g>
</g>
<!-- Node29&#45;&gt;Node15 -->
<g id="edge42_Node000029_Node000015" class="edge">
<title>Node29&#45;&gt;Node15</title>
<g id="a_edge42_Node000029_Node000015"><a xlink:title=" ">
<path fill="none" stroke="#63b8ff" d="M634.47,-223.76C652.65,-207.17 690.12,-170.43 711,-132 718.57,-118.07 723.44,-100.77 726.35,-87.52"/>
<polygon fill="#63b8ff" stroke="#63b8ff" points="729.77,-88.28 728.27,-77.79 722.9,-86.92 729.77,-88.28"/>
</a>
</g>
</g>
<!-- Node30&#45;&gt;Node26 -->
<g id="edge45_Node000030_Node000026" class="edge">
<title>Node30&#45;&gt;Node26</title>
<g id="a_edge45_Node000030_Node000026"><a xlink:title=" ">
<path fill="none" stroke="#63b8ff" d="M773.17,-391.59C773.3,-385.01 773.46,-375.96 773.62,-367.73"/>
<polygon fill="#63b8ff" stroke="#63b8ff" points="777.11,-367.87 773.8,-357.81 770.12,-367.75 777.11,-367.87"/>
</a>
</g>
</g>
</g>
</svg>
