<?xml version="1.0" encoding="UTF-8" standalone="no"?>
<!DOCTYPE svg PUBLIC "-//W3C//DTD SVG 1.1//EN"
 "http://www.w3.org/Graphics/SVG/1.1/DTD/svg11.dtd">
<!-- Generated by graphviz version 13.0.0 (20250608.1624)
 -->
<!-- Title: sfml_ui/src/customizable/components/textbox.cpp Pages: 1 -->
<svg width="190pt" height="152pt"
 viewBox="0.00 0.00 190.00 152.00" xmlns="http://www.w3.org/2000/svg" xmlns:xlink="http://www.w3.org/1999/xlink">
<g id="graph0" class="graph" transform="scale(1 1) rotate(0) translate(4 148)">
<title>sfml_ui/src/customizable/components/textbox.cpp</title>
<!-- Node1 -->
<g id="Node000001" class="node">
<title>Node1</title>
<g id="a_Node000001"><a xlink:title=" ">
<polygon fill="#999999" stroke="#666666" points="143.62,-144 17.38,-144 17.38,-112 143.62,-112 143.62,-144"/>
<text xml:space="preserve" text-anchor="start" x="25.38" y="-130.5" font-family="Helvetica,sans-Serif" font-size="10.00">sfml_ui/src/customizable</text>
<text xml:space="preserve" text-anchor="middle" x="80.5" y="-118.5" font-family="Helvetica,sans-Serif" font-size="10.00">/components/textbox.cpp</text>
</a>
</g>
</g>
<!-- Node2 -->
<g id="Node000002" class="node">
<title>Node2</title>
<g id="a_Node000002"><a xlink:href="textbox_8hpp.html" target="_top" xlink:title=" ">
<polygon fill="white" stroke="#666666" points="114,-76 47,-76 47,-56 114,-56 114,-76"/>
<text xml:space="preserve" text-anchor="middle" x="80.5" y="-62.5" font-family="Helvetica,sans-Serif" font-size="10.00">textbox.hpp</text>
</a>
</g>
</g>
<!-- Node1&#45;&gt;Node2 -->
<g id="edge1_Node000001_Node000002" class="edge">
<title>Node1&#45;&gt;Node2</title>
<g id="a_edge1_Node000001_Node000002"><a xlink:title=" ">
<path fill="none" stroke="#63b8ff" d="M80.5,-111.55C80.5,-104.34 80.5,-95.66 80.5,-87.88"/>
<polygon fill="#63b8ff" stroke="#63b8ff" points="84,-87.92 80.5,-77.92 77,-87.92 84,-87.92"/>
</a>
</g>
</g>
<!-- Node3 -->
<g id="Node000003" class="node">
<title>Node3</title>
<g id="a_Node000003"><a xlink:title=" ">
<polygon fill="#e0e0e0" stroke="#999999" points="61,-20 0,-20 0,0 61,0 61,-20"/>
<text xml:space="preserve" text-anchor="middle" x="30.5" y="-6.5" font-family="Helvetica,sans-Serif" font-size="10.00">filesystem</text>
</a>
</g>
</g>
<!-- Node2&#45;&gt;Node3 -->
<g id="edge2_Node000002_Node000003" class="edge">
<title>Node2&#45;&gt;Node3</title>
<g id="a_edge2_Node000002_Node000003"><a xlink:title=" ">
<path fill="none" stroke="#63b8ff" d="M71.79,-55.59C64.91,-48.16 55.11,-37.58 46.78,-28.58"/>
<polygon fill="#63b8ff" stroke="#63b8ff" points="49.5,-26.37 40.14,-21.41 44.36,-31.12 49.5,-26.37"/>
</a>
</g>
</g>
<!-- Node4 -->
<g id="Node000004" class="node">
<title>Node4</title>
<g id="a_Node000004"><a xlink:title=" ">
<polygon fill="#e0e0e0" stroke="#999999" points="182,-20 79,-20 79,0 182,0 182,-20"/>
<text xml:space="preserve" text-anchor="middle" x="130.5" y="-6.5" font-family="Helvetica,sans-Serif" font-size="10.00">SFML/Graphics.hpp</text>
</a>
</g>
</g>
<!-- Node2&#45;&gt;Node4 -->
<g id="edge3_Node000002_Node000004" class="edge">
<title>Node2&#45;&gt;Node4</title>
<g id="a_edge3_Node000002_Node000004"><a xlink:title=" ">
<path fill="none" stroke="#63b8ff" d="M89.21,-55.59C96.09,-48.16 105.89,-37.58 114.22,-28.58"/>
<polygon fill="#63b8ff" stroke="#63b8ff" points="116.64,-31.12 120.86,-21.41 111.5,-26.37 116.64,-31.12"/>
</a>
</g>
</g>
</g>
</svg>
