<?xml version="1.0" encoding="UTF-8" standalone="no"?>
<!DOCTYPE svg PUBLIC "-//W3C//DTD SVG 1.1//EN"
 "http://www.w3.org/Graphics/SVG/1.1/DTD/svg11.dtd">
<!-- Generated by graphviz version 13.0.0 (20250608.1624)
 -->
<!-- Title: elemental/include/world_elemental.hpp Pages: 1 -->
<svg width="373pt" height="208pt"
 viewBox="0.00 0.00 373.00 208.00" xmlns="http://www.w3.org/2000/svg" xmlns:xlink="http://www.w3.org/1999/xlink">
<g id="graph0" class="graph" transform="scale(1 1) rotate(0) translate(4 204)">
<title>elemental/include/world_elemental.hpp</title>
<!-- Node1 -->
<g id="Node000001" class="node">
<title>Node1</title>
<g id="a_Node000001"><a xlink:title=" ">
<polygon fill="#999999" stroke="#666666" points="218.38,-200 100.38,-200 100.38,-168 218.38,-168 218.38,-200"/>
<text xml:space="preserve" text-anchor="start" x="108.38" y="-186.5" font-family="Helvetica,sans-Serif" font-size="10.00">elemental/include/world</text>
<text xml:space="preserve" text-anchor="middle" x="159.38" y="-174.5" font-family="Helvetica,sans-Serif" font-size="10.00">_elemental.hpp</text>
</a>
</g>
</g>
<!-- Node2 -->
<g id="Node000002" class="node">
<title>Node2</title>
<g id="a_Node000002"><a xlink:href="elemental_8hpp.html" target="_top" xlink:title=" ">
<polygon fill="white" stroke="#666666" points="76.75,-132 0,-132 0,-112 76.75,-112 76.75,-132"/>
<text xml:space="preserve" text-anchor="middle" x="38.38" y="-118.5" font-family="Helvetica,sans-Serif" font-size="10.00">elemental.hpp</text>
</a>
</g>
</g>
<!-- Node1&#45;&gt;Node2 -->
<g id="edge1_Node000001_Node000002" class="edge">
<title>Node1&#45;&gt;Node2</title>
<g id="a_edge1_Node000001_Node000002"><a xlink:title=" ">
<path fill="none" stroke="#63b8ff" d="M128.21,-167.55C109.48,-158.26 85.8,-146.52 67.46,-137.42"/>
<polygon fill="#63b8ff" stroke="#63b8ff" points="69.22,-134.39 58.7,-133.08 66.11,-140.66 69.22,-134.39"/>
</a>
</g>
</g>
<!-- Node3 -->
<g id="Node000003" class="node">
<title>Node3</title>
<g id="a_Node000003"><a xlink:href="_frame_animated_sprite_8hpp.html" target="_top" xlink:title=" ">
<polygon fill="white" stroke="#666666" points="224,-132 94.75,-132 94.75,-112 224,-112 224,-132"/>
<text xml:space="preserve" text-anchor="middle" x="159.38" y="-118.5" font-family="Helvetica,sans-Serif" font-size="10.00">FrameAnimatedSprite.hpp</text>
</a>
</g>
</g>
<!-- Node1&#45;&gt;Node3 -->
<g id="edge2_Node000001_Node000003" class="edge">
<title>Node1&#45;&gt;Node3</title>
<g id="a_edge2_Node000001_Node000003"><a xlink:title=" ">
<path fill="none" stroke="#63b8ff" d="M159.38,-167.55C159.38,-160.34 159.38,-151.66 159.38,-143.88"/>
<polygon fill="#63b8ff" stroke="#63b8ff" points="162.88,-143.92 159.38,-133.92 155.88,-143.92 162.88,-143.92"/>
</a>
</g>
</g>
<!-- Node6 -->
<g id="Node000006" class="node">
<title>Node6</title>
<g id="a_Node000006"><a xlink:href="_time_animated_sprite_8hpp.html" target="_top" xlink:title=" ">
<polygon fill="white" stroke="#666666" points="365,-132 241.75,-132 241.75,-112 365,-112 365,-132"/>
<text xml:space="preserve" text-anchor="middle" x="303.38" y="-118.5" font-family="Helvetica,sans-Serif" font-size="10.00">TimeAnimatedSprite.hpp</text>
</a>
</g>
</g>
<!-- Node1&#45;&gt;Node6 -->
<g id="edge5_Node000001_Node000006" class="edge">
<title>Node1&#45;&gt;Node6</title>
<g id="a_edge5_Node000001_Node000006"><a xlink:title=" ">
<path fill="none" stroke="#63b8ff" d="M196.46,-167.55C219.27,-158.04 248.25,-145.97 270.29,-136.79"/>
<polygon fill="#63b8ff" stroke="#63b8ff" points="271.51,-140.07 279.4,-132.99 268.82,-133.61 271.51,-140.07"/>
</a>
</g>
</g>
<!-- Node4 -->
<g id="Node000004" class="node">
<title>Node4</title>
<g id="a_Node000004"><a xlink:href="_texture_item_8hpp.html" target="_top" xlink:title=" ">
<polygon fill="white" stroke="#666666" points="274.62,-76 188.12,-76 188.12,-56 274.62,-56 274.62,-76"/>
<text xml:space="preserve" text-anchor="middle" x="231.38" y="-62.5" font-family="Helvetica,sans-Serif" font-size="10.00">TextureItem.hpp</text>
</a>
</g>
</g>
<!-- Node3&#45;&gt;Node4 -->
<g id="edge3_Node000003_Node000004" class="edge">
<title>Node3&#45;&gt;Node4</title>
<g id="a_edge3_Node000003_Node000004"><a xlink:title=" ">
<path fill="none" stroke="#63b8ff" d="M171.92,-111.59C182.34,-103.77 197.42,-92.46 209.79,-83.19"/>
<polygon fill="#63b8ff" stroke="#63b8ff" points="211.87,-86.01 217.77,-77.21 207.67,-80.41 211.87,-86.01"/>
</a>
</g>
</g>
<!-- Node5 -->
<g id="Node000005" class="node">
<title>Node5</title>
<g id="a_Node000005"><a xlink:title=" ">
<polygon fill="#e0e0e0" stroke="#999999" points="282.88,-20 179.88,-20 179.88,0 282.88,0 282.88,-20"/>
<text xml:space="preserve" text-anchor="middle" x="231.38" y="-6.5" font-family="Helvetica,sans-Serif" font-size="10.00">SFML/Graphics.hpp</text>
</a>
</g>
</g>
<!-- Node4&#45;&gt;Node5 -->
<g id="edge4_Node000004_Node000005" class="edge">
<title>Node4&#45;&gt;Node5</title>
<g id="a_edge4_Node000004_Node000005"><a xlink:title=" ">
<path fill="none" stroke="#63b8ff" d="M231.38,-55.59C231.38,-49.01 231.38,-39.96 231.38,-31.73"/>
<polygon fill="#63b8ff" stroke="#63b8ff" points="234.88,-31.81 231.38,-21.81 227.88,-31.81 234.88,-31.81"/>
</a>
</g>
</g>
<!-- Node6&#45;&gt;Node4 -->
<g id="edge6_Node000006_Node000004" class="edge">
<title>Node6&#45;&gt;Node4</title>
<g id="a_edge6_Node000006_Node000004"><a xlink:title=" ">
<path fill="none" stroke="#63b8ff" d="M290.83,-111.59C280.41,-103.77 265.33,-92.46 252.96,-83.19"/>
<polygon fill="#63b8ff" stroke="#63b8ff" points="255.08,-80.41 244.98,-77.21 250.88,-86.01 255.08,-80.41"/>
</a>
</g>
</g>
</g>
</svg>
