<?xml version="1.0" encoding="UTF-8" standalone="no"?>
<!DOCTYPE svg PUBLIC "-//W3C//DTD SVG 1.1//EN"
 "http://www.w3.org/Graphics/SVG/1.1/DTD/svg11.dtd">
<!-- Generated by graphviz version 13.0.0 (20250608.1624)
 -->
<!-- Title: include/customizable/controls/Area.hpp Pages: 1 -->
<!--zoomable 516 -->

<svg id="main" version="1.1" xmlns="http://www.w3.org/2000/svg" xmlns:xlink="http://www.w3.org/1999/xlink" xml:space="preserve" onload="init(evt)">

<style type="text/css"><![CDATA[
.node, .edge {opacity: 0.7;}
.node.selected, .edge.selected {opacity: 1;}
.edge:hover path { stroke: red; }
.edge:hover polygon { stroke: red; fill: red; }
]]></style>

<defs>
  <circle id="rim" cx="0" cy="0" r="7"/>
  <circle id="rim2" cx="0" cy="0" r="3.5"/>
  <g id="zoomPlus">
    <use xlink:href="#rim" fill="#404040"><set attributeName="fill" to="#808080" begin="zoomplus.mouseover" end="zoomplus.mouseout"/></use>
    <path d="M-4,0h8M0,-4v8" fill="none" stroke="white" stroke-width="1.5" pointer-events="none"/>
  </g>
  <g id="zoomMin">
    <use xlink:href="#rim" fill="#404040"><set attributeName="fill" to="#808080" begin="zoomminus.mouseover" end="zoomminus.mouseout"/></use>
    <path d="M-4,0h8" fill="none" stroke="white" stroke-width="1.5" pointer-events="none"/>
  </g>
  <g id="arrowUp" transform="translate(30 24)">
    <use xlink:href="#rim"/>
    <path pointer-events="none" fill="none" stroke="white" stroke-width="1.5" d="M0,-3.0v7 M-2.5,-0.5L0,-3.0L2.5,-0.5"/>
  </g>
  <g id="arrowRight" transform="rotate(90) translate(36 -43)">
    <use xlink:href="#rim"/>
    <path pointer-events="none" fill="none" stroke="white" stroke-width="1.5" d="M0,-3.0v7 M-2.5,-0.5L0,-3.0L2.5,-0.5"/>
  </g>
  <g id="arrowDown" transform="rotate(180) translate(-30 -48)">
    <use xlink:href="#rim"/>
    <path pointer-events="none" fill="none" stroke="white" stroke-width="1.5" d="M0,-3.0v7 M-2.5,-0.5L0,-3.0L2.5,-0.5"/>
  </g>
  <g id="arrowLeft" transform="rotate(270) translate(-36 17)">
    <use xlink:href="#rim"/>
    <path pointer-events="none" fill="none" stroke="white" stroke-width="1.5" d="M0,-3.0v7 M-2.5,-0.5L0,-3.0L2.5,-0.5"/>
  </g>
  <g id="resetDef">
    <use xlink:href="#rim2" fill="#404040"><set attributeName="fill" to="#808080" begin="reset.mouseover" end="reset.mouseout"/></use>
  </g>
</defs>
<script type="application/ecmascript">
var viewWidth = 571;
var viewHeight = 516;
var sectionId = 'dynsection-0';
</script>
<script type="application/ecmascript" xlink:href="svg.min.js"/>
<svg id="graph" class="graph">
<g id="viewport">
<title>include/customizable/controls/Area.hpp</title>
<!-- Node1 -->
<g id="Node000001" class="node">
<title>Node1</title>
<g id="a_Node000001"><a xlink:title=" ">
<polygon fill="#999999" stroke="#666666" points="417.12,-508 309.62,-508 309.62,-476 417.12,-476 417.12,-508"/>
<text xml:space="preserve" text-anchor="start" x="317.62" y="-494.5" font-family="Helvetica,sans-Serif" font-size="10.00">include/customizable</text>
<text xml:space="preserve" text-anchor="middle" x="363.38" y="-482.5" font-family="Helvetica,sans-Serif" font-size="10.00">/controls/Area.hpp</text>
</a>
</g>
</g>
<!-- Node2 -->
<g id="Node000002" class="node">
<title>Node2</title>
<g id="a_Node000002"><a xlink:href="inputbox_8hpp.html" target="_top" xlink:title=" ">
<polygon fill="white" stroke="#666666" points="354.75,-372 224,-372 224,-340 354.75,-340 354.75,-372"/>
<text xml:space="preserve" text-anchor="start" x="232" y="-358.5" font-family="Helvetica,sans-Serif" font-size="10.00">include/customizable</text>
<text xml:space="preserve" text-anchor="middle" x="289.38" y="-346.5" font-family="Helvetica,sans-Serif" font-size="10.00">/components/inputbox.hpp</text>
</a>
</g>
</g>
<!-- Node1&#45;&gt;Node2 -->
<g id="edge1_Node000001_Node000002" class="edge">
<title>Node1&#45;&gt;Node2</title>
<g id="a_edge1_Node000001_Node000002"><a xlink:title=" ">
<path fill="none" stroke="#63b8ff" d="M349.32,-465.55C334.1,-437.98 310.31,-394.9 297.76,-372.19"/>
<polygon fill="#63b8ff" stroke="#63b8ff" points="346.26,-467.24 354.15,-474.3 352.38,-463.86 346.26,-467.24"/>
</a>
</g>
</g>
<!-- Node11 -->
<g id="Node000011" class="node">
<title>Node11</title>
<g id="a_Node000011"><a xlink:href="button_8hpp.html" target="_top" xlink:title=" ">
<polygon fill="white" stroke="#666666" points="486.12,-440 378.62,-440 378.62,-408 486.12,-408 486.12,-440"/>
<text xml:space="preserve" text-anchor="start" x="386.62" y="-426.5" font-family="Helvetica,sans-Serif" font-size="10.00">include/customizable</text>
<text xml:space="preserve" text-anchor="middle" x="432.38" y="-414.5" font-family="Helvetica,sans-Serif" font-size="10.00">/controls/button.hpp</text>
</a>
</g>
</g>
<!-- Node1&#45;&gt;Node11 -->
<g id="edge15_Node000001_Node000011" class="edge">
<title>Node1&#45;&gt;Node11</title>
<g id="a_edge15_Node000001_Node000011"><a xlink:title=" ">
<path fill="none" stroke="#63b8ff" d="M387.43,-467.99C397.05,-458.79 407.85,-448.46 416.46,-440.22"/>
<polygon fill="#63b8ff" stroke="#63b8ff" points="385.28,-465.2 380.47,-474.65 390.12,-470.26 385.28,-465.2"/>
</a>
</g>
</g>
<!-- Node3 -->
<g id="Node000003" class="node">
<title>Node3</title>
<g id="a_Node000003"><a xlink:href="_page_8hpp.html" target="_top" xlink:title=" ">
<polygon fill="white" stroke="#666666" points="334.25,-304 236.5,-304 236.5,-272 334.25,-272 334.25,-304"/>
<text xml:space="preserve" text-anchor="start" x="244.5" y="-290.5" font-family="Helvetica,sans-Serif" font-size="10.00">include/core/pages</text>
<text xml:space="preserve" text-anchor="middle" x="285.38" y="-278.5" font-family="Helvetica,sans-Serif" font-size="10.00">/Page.hpp</text>
</a>
</g>
</g>
<!-- Node2&#45;&gt;Node3 -->
<g id="edge2_Node000002_Node000003" class="edge">
<title>Node2&#45;&gt;Node3</title>
<g id="a_edge2_Node000002_Node000003"><a xlink:title=" ">
<path fill="none" stroke="#63b8ff" d="M287.76,-328.31C287.26,-320.12 286.73,-311.38 286.3,-304.22"/>
<polygon fill="#63b8ff" stroke="#63b8ff" points="284.26,-328.41 288.36,-338.18 291.24,-327.99 284.26,-328.41"/>
</a>
</g>
</g>
<!-- Node4 -->
<g id="Node000004" class="node">
<title>Node4</title>
<g id="a_Node000004"><a xlink:href="_control_page_8hpp.html" target="_top" xlink:title=" ">
<polygon fill="white" stroke="#666666" points="402.25,-168 304.5,-168 304.5,-136 402.25,-136 402.25,-168"/>
<text xml:space="preserve" text-anchor="start" x="312.5" y="-154.5" font-family="Helvetica,sans-Serif" font-size="10.00">include/core/pages</text>
<text xml:space="preserve" text-anchor="middle" x="353.38" y="-142.5" font-family="Helvetica,sans-Serif" font-size="10.00">/ControlPage.hpp</text>
</a>
</g>
</g>
<!-- Node3&#45;&gt;Node4 -->
<g id="edge3_Node000003_Node000004" class="edge">
<title>Node3&#45;&gt;Node4</title>
<g id="a_edge3_Node000003_Node000004"><a xlink:title=" ">
<path fill="none" stroke="#63b8ff" d="M321.23,-264.87C331.02,-257 340.53,-247.25 346.38,-236 357.51,-214.57 357.1,-185.78 355.46,-168.35"/>
<polygon fill="#63b8ff" stroke="#63b8ff" points="319.4,-261.87 313.48,-270.65 323.58,-267.48 319.4,-261.87"/>
</a>
</g>
</g>
<!-- Node7 -->
<g id="Node000007" class="node">
<title>Node7</title>
<g id="a_Node000007"><a xlink:href="_interactive_page_8hpp.html" target="_top" xlink:title=" ">
<polygon fill="white" stroke="#666666" points="526.38,-168 420.38,-168 420.38,-136 526.38,-136 526.38,-168"/>
<text xml:space="preserve" text-anchor="start" x="428.38" y="-154.5" font-family="Helvetica,sans-Serif" font-size="10.00">include/core/pages</text>
<text xml:space="preserve" text-anchor="middle" x="473.38" y="-142.5" font-family="Helvetica,sans-Serif" font-size="10.00">/InteractivePage.hpp</text>
</a>
</g>
</g>
<!-- Node3&#45;&gt;Node7 -->
<g id="edge6_Node000003_Node000007" class="edge">
<title>Node3&#45;&gt;Node7</title>
<g id="a_edge6_Node000003_Node000007"><a xlink:title=" ">
<path fill="none" stroke="#63b8ff" d="M319.97,-265.49C333.92,-256.6 350.07,-246.04 364.38,-236 396.5,-213.45 432.49,-185.49 454.02,-168.46"/>
<polygon fill="#63b8ff" stroke="#63b8ff" points="318.11,-262.52 311.53,-270.82 321.86,-268.43 318.11,-262.52"/>
</a>
</g>
</g>
<!-- Node8 -->
<g id="Node000008" class="node">
<title>Node8</title>
<g id="a_Node000008"><a xlink:href="_window_8hpp.html" target="_top" xlink:title=" ">
<polygon fill="white" stroke="#666666" points="337.62,-236 233.12,-236 233.12,-204 337.62,-204 337.62,-236"/>
<text xml:space="preserve" text-anchor="start" x="241.12" y="-222.5" font-family="Helvetica,sans-Serif" font-size="10.00">include/core/window</text>
<text xml:space="preserve" text-anchor="middle" x="285.38" y="-210.5" font-family="Helvetica,sans-Serif" font-size="10.00">/Window.hpp</text>
</a>
</g>
</g>
<!-- Node3&#45;&gt;Node8 -->
<g id="edge8_Node000003_Node000008" class="edge">
<title>Node3&#45;&gt;Node8</title>
<g id="a_edge8_Node000003_Node000008"><a xlink:title=" ">
<path fill="none" stroke="#63b8ff" d="M285.38,-260.31C285.38,-252.12 285.38,-243.38 285.38,-236.22"/>
<polygon fill="#63b8ff" stroke="#63b8ff" points="281.88,-260.18 285.38,-270.18 288.88,-260.18 281.88,-260.18"/>
</a>
</g>
</g>
<!-- Node9 -->
<g id="Node000009" class="node">
<title>Node9</title>
<g id="a_Node000009"><a xlink:href="_page_8cpp.html" target="_top" xlink:title="实现Page类及相关函数，负责界面生命周期、事件绑定、渲染等。">
<polygon fill="white" stroke="#666666" points="124.75,-162 0,-162 0,-142 124.75,-142 124.75,-162"/>
<text xml:space="preserve" text-anchor="middle" x="62.38" y="-148.5" font-family="Helvetica,sans-Serif" font-size="10.00">src/core/pages/Page.cpp</text>
</a>
</g>
</g>
<!-- Node3&#45;&gt;Node9 -->
<g id="edge13_Node000003_Node000009" class="edge">
<title>Node3&#45;&gt;Node9</title>
<g id="a_edge13_Node000003_Node000009"><a xlink:title=" ">
<path fill="none" stroke="#63b8ff" d="M250.19,-265.86C200.94,-236.26 113.5,-183.72 78,-162.39"/>
<polygon fill="#63b8ff" stroke="#63b8ff" points="248.12,-268.7 258.5,-270.85 251.73,-262.7 248.12,-268.7"/>
</a>
</g>
</g>
<!-- Node10 -->
<g id="Node000010" class="node">
<title>Node10</title>
<g id="a_Node000010"><a xlink:href="_window_8cpp.html" target="_top" xlink:title=" ">
<polygon fill="white" stroke="#666666" points="286.12,-162 142.62,-162 142.62,-142 286.12,-142 286.12,-162"/>
<text xml:space="preserve" text-anchor="middle" x="214.38" y="-148.5" font-family="Helvetica,sans-Serif" font-size="10.00">src/core/window/Window.cpp</text>
</a>
</g>
</g>
<!-- Node3&#45;&gt;Node10 -->
<g id="edge14_Node000003_Node000010" class="edge">
<title>Node3&#45;&gt;Node10</title>
<g id="a_edge14_Node000003_Node000010"><a xlink:title=" ">
<path fill="none" stroke="#63b8ff" d="M250.01,-264.93C240.15,-257.02 230.47,-247.24 224.38,-236 211.36,-212.02 212.07,-178.5 213.36,-162.38"/>
<polygon fill="#63b8ff" stroke="#63b8ff" points="247.7,-267.58 257.81,-270.75 251.89,-261.97 247.7,-267.58"/>
</a>
</g>
</g>
<!-- Node5 -->
<g id="Node000005" class="node">
<title>Node5</title>
<g id="a_Node000005"><a xlink:href="_complex_page_8hpp.html" target="_top" xlink:title=" ">
<polygon fill="white" stroke="#666666" points="523,-100 423.75,-100 423.75,-68 523,-68 523,-100"/>
<text xml:space="preserve" text-anchor="start" x="431.75" y="-86.5" font-family="Helvetica,sans-Serif" font-size="10.00">include/core/pages</text>
<text xml:space="preserve" text-anchor="middle" x="473.38" y="-74.5" font-family="Helvetica,sans-Serif" font-size="10.00">/ComplexPage.hpp</text>
</a>
</g>
</g>
<!-- Node4&#45;&gt;Node5 -->
<g id="edge4_Node000004_Node000005" class="edge">
<title>Node4&#45;&gt;Node5</title>
<g id="a_edge4_Node000004_Node000005"><a xlink:title=" ">
<path fill="none" stroke="#63b8ff" d="M391.43,-130.07C408.94,-120.44 429.35,-109.21 445.42,-100.38"/>
<polygon fill="#63b8ff" stroke="#63b8ff" points="389.91,-126.91 382.84,-134.8 393.28,-133.04 389.91,-126.91"/>
</a>
</g>
</g>
<!-- Node6 -->
<g id="Node000006" class="node">
<title>Node6</title>
<g id="a_Node000006"><a xlink:href="page__emplate_8hpp.html" target="_top" xlink:title=" ">
<polygon fill="white" stroke="#666666" points="562.62,-32 464.12,-32 464.12,0 562.62,0 562.62,-32"/>
<text xml:space="preserve" text-anchor="start" x="472.12" y="-18.5" font-family="Helvetica,sans-Serif" font-size="10.00">include/core/pages</text>
<text xml:space="preserve" text-anchor="middle" x="513.38" y="-6.5" font-family="Helvetica,sans-Serif" font-size="10.00">/page_emplate.hpp</text>
</a>
</g>
</g>
<!-- Node5&#45;&gt;Node6 -->
<g id="edge5_Node000005_Node000006" class="edge">
<title>Node5&#45;&gt;Node6</title>
<g id="a_edge5_Node000005_Node000006"><a xlink:title=" ">
<path fill="none" stroke="#63b8ff" d="M488.51,-58.02C493.77,-49.34 499.51,-39.88 504.15,-32.22"/>
<polygon fill="#63b8ff" stroke="#63b8ff" points="485.63,-56.03 483.44,-66.4 491.61,-59.66 485.63,-56.03"/>
</a>
</g>
</g>
<!-- Node7&#45;&gt;Node5 -->
<g id="edge7_Node000007_Node000005" class="edge">
<title>Node7&#45;&gt;Node5</title>
<g id="a_edge7_Node000007_Node000005"><a xlink:title=" ">
<path fill="none" stroke="#63b8ff" d="M473.38,-124.31C473.38,-116.12 473.38,-107.38 473.38,-100.22"/>
<polygon fill="#63b8ff" stroke="#63b8ff" points="469.88,-124.18 473.38,-134.18 476.88,-124.18 469.88,-124.18"/>
</a>
</g>
</g>
<!-- Node8&#45;&gt;Node4 -->
<g id="edge9_Node000008_Node000004" class="edge">
<title>Node8&#45;&gt;Node4</title>
<g id="a_edge9_Node000008_Node000004"><a xlink:title=" ">
<path fill="none" stroke="#63b8ff" d="M309.37,-195.71C318.77,-186.59 329.29,-176.37 337.69,-168.22"/>
<polygon fill="#63b8ff" stroke="#63b8ff" points="306.97,-193.16 302.23,-202.64 311.85,-198.18 306.97,-193.16"/>
</a>
</g>
</g>
<!-- Node8&#45;&gt;Node7 -->
<g id="edge10_Node000008_Node000007" class="edge">
<title>Node8&#45;&gt;Node7</title>
<g id="a_edge10_Node000008_Node000007"><a xlink:title=" ">
<path fill="none" stroke="#63b8ff" d="M340.01,-199.82C368.38,-189.86 402.58,-177.85 429.25,-168.49"/>
<polygon fill="#63b8ff" stroke="#63b8ff" points="339.16,-196.41 330.88,-203.02 341.48,-203.01 339.16,-196.41"/>
</a>
</g>
</g>
<!-- Node8&#45;&gt;Node9 -->
<g id="edge11_Node000008_Node000009" class="edge">
<title>Node8&#45;&gt;Node9</title>
<g id="a_edge11_Node000008_Node000009"><a xlink:title=" ">
<path fill="none" stroke="#63b8ff" d="M222.2,-200.3C180.48,-187.96 127.58,-172.3 94.34,-162.46"/>
<polygon fill="#63b8ff" stroke="#63b8ff" points="221.06,-203.61 231.64,-203.1 223.04,-196.9 221.06,-203.61"/>
</a>
</g>
</g>
<!-- Node8&#45;&gt;Node10 -->
<g id="edge12_Node000008_Node000010" class="edge">
<title>Node8&#45;&gt;Node10</title>
<g id="a_edge12_Node000008_Node000010"><a xlink:title=" ">
<path fill="none" stroke="#63b8ff" d="M260.68,-196.04C248.22,-184.46 233.79,-171.05 224.4,-162.32"/>
<polygon fill="#63b8ff" stroke="#63b8ff" points="258.09,-198.42 267.8,-202.66 262.86,-193.29 258.09,-198.42"/>
</a>
</g>
</g>
<!-- Node11&#45;&gt;Node6 -->
<g id="edge19_Node000011_Node000006" class="edge">
<title>Node11&#45;&gt;Node6</title>
<g id="a_edge19_Node000011_Node000006"><a xlink:title=" ">
<path fill="none" stroke="#63b8ff" d="M471.31,-401.63C507.01,-378.85 554.38,-339.18 554.38,-289 554.38,-289 554.38,-289 554.38,-151 554.38,-106.24 533.19,-56.6 521.28,-32.21"/>
<polygon fill="#63b8ff" stroke="#63b8ff" points="469.57,-398.59 462.89,-406.8 473.24,-404.55 469.57,-398.59"/>
</a>
</g>
</g>
<!-- Node12 -->
<g id="Node000012" class="node">
<title>Node12</title>
<g id="a_Node000012"><a xlink:href="_event_binding_8hpp.html" target="_top" xlink:title=" ">
<polygon fill="white" stroke="#666666" points="488,-372 376.75,-372 376.75,-340 488,-340 488,-372"/>
<text xml:space="preserve" text-anchor="start" x="384.75" y="-358.5" font-family="Helvetica,sans-Serif" font-size="10.00">include/core/message</text>
<text xml:space="preserve" text-anchor="middle" x="432.38" y="-346.5" font-family="Helvetica,sans-Serif" font-size="10.00">/EventBinding.hpp</text>
</a>
</g>
</g>
<!-- Node11&#45;&gt;Node12 -->
<g id="edge16_Node000011_Node000012" class="edge">
<title>Node11&#45;&gt;Node12</title>
<g id="a_edge16_Node000011_Node000012"><a xlink:title=" ">
<path fill="none" stroke="#63b8ff" d="M432.38,-396.31C432.38,-388.12 432.38,-379.38 432.38,-372.22"/>
<polygon fill="#63b8ff" stroke="#63b8ff" points="428.88,-396.18 432.38,-406.18 435.88,-396.18 428.88,-396.18"/>
</a>
</g>
</g>
<!-- Node12&#45;&gt;Node3 -->
<g id="edge17_Node000012_Node000003" class="edge">
<title>Node12&#45;&gt;Node3</title>
<g id="a_edge17_Node000012_Node000003"><a xlink:title=" ">
<path fill="none" stroke="#63b8ff" d="M387.59,-334.89C365.83,-325.12 340.09,-313.56 319.88,-304.49"/>
<polygon fill="#63b8ff" stroke="#63b8ff" points="385.97,-338 396.53,-338.91 388.84,-331.62 385.97,-338"/>
</a>
</g>
</g>
<!-- Node13 -->
<g id="Node000013" class="node">
<title>Node13</title>
<g id="a_Node000013"><a xlink:href="_event_binding_8cpp.html" target="_top" xlink:title="实现EvectBingding类，负责事件与行为的绑定与触发。">
<polygon fill="white" stroke="#666666" points="526.12,-298 352.62,-298 352.62,-278 526.12,-278 526.12,-298"/>
<text xml:space="preserve" text-anchor="middle" x="439.38" y="-284.5" font-family="Helvetica,sans-Serif" font-size="10.00">src/core/message/EventBinding.cpp</text>
</a>
</g>
</g>
<!-- Node12&#45;&gt;Node13 -->
<g id="edge18_Node000012_Node000013" class="edge">
<title>Node12&#45;&gt;Node13</title>
<g id="a_edge18_Node000012_Node000013"><a xlink:title=" ">
<path fill="none" stroke="#63b8ff" d="M435.21,-328.31C436.33,-317.67 437.56,-306.13 438.39,-298.32"/>
<polygon fill="#63b8ff" stroke="#63b8ff" points="431.73,-327.87 434.16,-338.19 438.69,-328.61 431.73,-327.87"/>
</a>
</g>
</g>
</g>
</svg>

<g id="navigator" transform="translate(0 0)" fill="#404254">
  <rect fill="#f2f5e9" fill-opacity="0.5" stroke="#606060" stroke-width=".5" x="0" y="0" width="60" height="60"/>
  <use id="zoomplus" xlink:href="#zoomPlus" x="17" y="9" onmousedown="handleZoom(evt,'in')"/>
  <use id="zoomminus" xlink:href="#zoomMin" x="42" y="9" onmousedown="handleZoom(evt,'out')"/>
  <use id="reset" xlink:href="#resetDef" x="30" y="36" onmousedown="handleReset()"/>
   <use id="arrowup" xlink:href="#arrowUp" x="0" y="0" onmousedown="handlePan(0,-1)"/>
  <use id="arrowright" xlink:href="#arrowRight" x="0" y="0" onmousedown="handlePan(1,0)"/>
  <use id="arrowdown" xlink:href="#arrowDown" x="0" y="0" onmousedown="handlePan(0,1)"/>
  <use id="arrowleft" xlink:href="#arrowLeft" x="0" y="0" onmousedown="handlePan(-1,0)"/>
</g>
<svg viewBox="0 0 15 15" width="100%" height="30px" preserveAspectRatio="xMaxYMin meet">
 <g id="arrow_out" transform="scale(0.3 0.3)">
  <a xlink:href="_area_8hpp__dep__incl_org.svg" target="_base">
   <rect id="button" ry="5" rx="5" y="6" x="6" height="38" width="38"
        fill="#f2f5e9" fill-opacity="0.5" stroke="#606060" stroke-width="1.0"/>
   <path id="arrow"
     d="M 11.500037,31.436501 C 11.940474,20.09759 22.043105,11.32322 32.158766,21.979434 L 37.068811,17.246167 C 37.068811,17.246167 37.088388,32 37.088388,32 L 22.160133,31.978069 C 22.160133,31.978069 26.997745,27.140456 26.997745,27.140456 C 18.528582,18.264221 13.291696,25.230495 11.500037,31.436501 z"
     style="fill:#404040;"/>
  </a>
 </g>
</svg>

<style type='text/css'>
<![CDATA[
[data-mouse-over-selected='false'] { opacity: 0.7; }
[data-mouse-over-selected='true']  { opacity: 1.0; }
]]>
</style>
<script type="application/ecmascript"><![CDATA[
document.addEventListener('DOMContentLoaded', (event) => {
  highlightEdges();
  highlightAdjacentNodes();
});
]]></script>
</svg>
