<?xml version="1.0" encoding="UTF-8" standalone="no"?>
<!DOCTYPE svg PUBLIC "-//W3C//DTD SVG 1.1//EN"
 "http://www.w3.org/Graphics/SVG/1.1/DTD/svg11.dtd">
<!-- Generated by graphviz version 13.0.0 (20250608.1624)
 -->
<!-- Title: include/core/pages/ControlPage.hpp Pages: 1 -->
<svg width="107pt" height="176pt"
 viewBox="0.00 0.00 107.00 176.00" xmlns="http://www.w3.org/2000/svg" xmlns:xlink="http://www.w3.org/1999/xlink">
<g id="graph0" class="graph" transform="scale(1 1) rotate(0) translate(4 172)">
<title>include/core/pages/ControlPage.hpp</title>
<!-- Node1 -->
<g id="Node000001" class="node">
<title>Node1</title>
<g id="a_Node000001"><a xlink:title=" ">
<polygon fill="#999999" stroke="#666666" points="98.5,-168 0.75,-168 0.75,-136 98.5,-136 98.5,-168"/>
<text xml:space="preserve" text-anchor="start" x="8.75" y="-154.5" font-family="Helvetica,sans-Serif" font-size="10.00">include/core/pages</text>
<text xml:space="preserve" text-anchor="middle" x="49.62" y="-142.5" font-family="Helvetica,sans-Serif" font-size="10.00">/ControlPage.hpp</text>
</a>
</g>
</g>
<!-- Node2 -->
<g id="Node000002" class="node">
<title>Node2</title>
<g id="a_Node000002"><a xlink:href="_complex_page_8hpp.html" target="_top" xlink:title=" ">
<polygon fill="white" stroke="#666666" points="99.25,-100 0,-100 0,-68 99.25,-68 99.25,-100"/>
<text xml:space="preserve" text-anchor="start" x="8" y="-86.5" font-family="Helvetica,sans-Serif" font-size="10.00">include/core/pages</text>
<text xml:space="preserve" text-anchor="middle" x="49.62" y="-74.5" font-family="Helvetica,sans-Serif" font-size="10.00">/ComplexPage.hpp</text>
</a>
</g>
</g>
<!-- Node1&#45;&gt;Node2 -->
<g id="edge1_Node000001_Node000002" class="edge">
<title>Node1&#45;&gt;Node2</title>
<g id="a_edge1_Node000001_Node000002"><a xlink:title=" ">
<path fill="none" stroke="#63b8ff" d="M49.62,-124.31C49.62,-116.12 49.62,-107.38 49.62,-100.22"/>
<polygon fill="#63b8ff" stroke="#63b8ff" points="46.13,-124.18 49.63,-134.18 53.13,-124.18 46.13,-124.18"/>
</a>
</g>
</g>
<!-- Node3 -->
<g id="Node000003" class="node">
<title>Node3</title>
<g id="a_Node000003"><a xlink:href="page__emplate_8hpp.html" target="_top" xlink:title=" ">
<polygon fill="white" stroke="#666666" points="98.88,-32 0.37,-32 0.37,0 98.88,0 98.88,-32"/>
<text xml:space="preserve" text-anchor="start" x="8.38" y="-18.5" font-family="Helvetica,sans-Serif" font-size="10.00">include/core/pages</text>
<text xml:space="preserve" text-anchor="middle" x="49.62" y="-6.5" font-family="Helvetica,sans-Serif" font-size="10.00">/page_emplate.hpp</text>
</a>
</g>
</g>
<!-- Node2&#45;&gt;Node3 -->
<g id="edge2_Node000002_Node000003" class="edge">
<title>Node2&#45;&gt;Node3</title>
<g id="a_edge2_Node000002_Node000003"><a xlink:title=" ">
<path fill="none" stroke="#63b8ff" d="M49.62,-56.31C49.62,-48.12 49.62,-39.38 49.62,-32.22"/>
<polygon fill="#63b8ff" stroke="#63b8ff" points="46.13,-56.18 49.63,-66.18 53.13,-56.18 46.13,-56.18"/>
</a>
</g>
</g>
</g>
</svg>
