<?xml version="1.0" encoding="UTF-8" standalone="no"?>
<!DOCTYPE svg PUBLIC "-//W3C//DTD SVG 1.1//EN"
 "http://www.w3.org/Graphics/SVG/1.1/DTD/svg11.dtd">
<!-- Generated by graphviz version 13.0.0 (20250608.1624)
 -->
<!-- Title: include/core/message/EventBinding.hpp Pages: 1 -->
<svg width="320pt" height="208pt"
 viewBox="0.00 0.00 320.00 208.00" xmlns="http://www.w3.org/2000/svg" xmlns:xlink="http://www.w3.org/1999/xlink">
<g id="graph0" class="graph" transform="scale(1 1) rotate(0) translate(4 204)">
<title>include/core/message/EventBinding.hpp</title>
<!-- Node1 -->
<g id="Node000001" class="node">
<title>Node1</title>
<g id="a_Node000001"><a xlink:title=" ">
<polygon fill="#999999" stroke="#666666" points="189.23,-200 77.98,-200 77.98,-168 189.23,-168 189.23,-200"/>
<text xml:space="preserve" text-anchor="start" x="85.98" y="-186.5" font-family="Helvetica,sans-Serif" font-size="10.00">include/core/message</text>
<text xml:space="preserve" text-anchor="middle" x="133.61" y="-174.5" font-family="Helvetica,sans-Serif" font-size="10.00">/EventBinding.hpp</text>
</a>
</g>
</g>
<!-- Node2 -->
<g id="Node000002" class="node">
<title>Node2</title>
<g id="a_Node000002"><a xlink:title=" ">
<polygon fill="#e0e0e0" stroke="#999999" points="113.11,-20 10.11,-20 10.11,0 113.11,0 113.11,-20"/>
<text xml:space="preserve" text-anchor="middle" x="61.61" y="-6.5" font-family="Helvetica,sans-Serif" font-size="10.00">SFML/Graphics.hpp</text>
</a>
</g>
</g>
<!-- Node1&#45;&gt;Node2 -->
<g id="edge1_Node000001_Node000002" class="edge">
<title>Node1&#45;&gt;Node2</title>
<g id="a_edge1_Node000001_Node000002"><a xlink:title=" ">
<path fill="none" stroke="#63b8ff" d="M77.78,-174.91C51.87,-168.05 23.37,-155.38 7.61,-132 -15.3,-98.02 19.82,-52.75 43.3,-28.35"/>
<polygon fill="#63b8ff" stroke="#63b8ff" points="45.62,-30.97 50.22,-21.43 40.67,-26.02 45.62,-30.97"/>
</a>
</g>
</g>
<!-- Node3 -->
<g id="Node000003" class="node">
<title>Node3</title>
<g id="a_Node000003"><a xlink:title=" ">
<polygon fill="#e0e0e0" stroke="#999999" points="74.61,-132 16.61,-132 16.61,-112 74.61,-112 74.61,-132"/>
<text xml:space="preserve" text-anchor="middle" x="45.61" y="-118.5" font-family="Helvetica,sans-Serif" font-size="10.00">functional</text>
</a>
</g>
</g>
<!-- Node1&#45;&gt;Node3 -->
<g id="edge2_Node000001_Node000003" class="edge">
<title>Node1&#45;&gt;Node3</title>
<g id="a_edge2_Node000001_Node000003"><a xlink:title=" ">
<path fill="none" stroke="#63b8ff" d="M110.94,-167.55C97.96,-158.69 81.7,-147.61 68.65,-138.71"/>
<polygon fill="#63b8ff" stroke="#63b8ff" points="70.89,-136 60.66,-133.26 66.95,-141.79 70.89,-136"/>
</a>
</g>
</g>
<!-- Node4 -->
<g id="Node000004" class="node">
<title>Node4</title>
<g id="a_Node000004"><a xlink:title=" ">
<polygon fill="#e0e0e0" stroke="#999999" points="174.98,-132 92.23,-132 92.23,-112 174.98,-112 174.98,-132"/>
<text xml:space="preserve" text-anchor="middle" x="133.61" y="-118.5" font-family="Helvetica,sans-Serif" font-size="10.00">unordered_map</text>
</a>
</g>
</g>
<!-- Node1&#45;&gt;Node4 -->
<g id="edge3_Node000001_Node000004" class="edge">
<title>Node1&#45;&gt;Node4</title>
<g id="a_edge3_Node000001_Node000004"><a xlink:title=" ">
<path fill="none" stroke="#63b8ff" d="M133.61,-167.55C133.61,-160.34 133.61,-151.66 133.61,-143.88"/>
<polygon fill="#63b8ff" stroke="#63b8ff" points="137.11,-143.92 133.61,-133.92 130.11,-143.92 137.11,-143.92"/>
</a>
</g>
</g>
<!-- Node5 -->
<g id="Node000005" class="node">
<title>Node5</title>
<g id="a_Node000005"><a xlink:href="button_8hpp.html" target="_top" xlink:title=" ">
<polygon fill="white" stroke="#666666" points="254.48,-132 192.73,-132 192.73,-112 254.48,-112 254.48,-132"/>
<text xml:space="preserve" text-anchor="middle" x="223.61" y="-118.5" font-family="Helvetica,sans-Serif" font-size="10.00">button.hpp</text>
</a>
</g>
</g>
<!-- Node1&#45;&gt;Node5 -->
<g id="edge4_Node000001_Node000005" class="edge">
<title>Node1&#45;&gt;Node5</title>
<g id="a_edge4_Node000001_Node000005"><a xlink:title=" ">
<path fill="none" stroke="#63b8ff" d="M156.78,-167.55C170.06,-158.69 186.69,-147.61 200.04,-138.71"/>
<polygon fill="#63b8ff" stroke="#63b8ff" points="201.86,-141.71 208.24,-133.25 197.97,-135.88 201.86,-141.71"/>
</a>
</g>
</g>
<!-- Node8 -->
<g id="Node000008" class="node">
<title>Node8</title>
<g id="a_Node000008"><a xlink:title=" ">
<polygon fill="#e0e0e0" stroke="#999999" points="312.23,-132 272.98,-132 272.98,-112 312.23,-112 312.23,-132"/>
<text xml:space="preserve" text-anchor="middle" x="292.61" y="-118.5" font-family="Helvetica,sans-Serif" font-size="10.00">utility</text>
</a>
</g>
</g>
<!-- Node1&#45;&gt;Node8 -->
<g id="edge8_Node000001_Node000008" class="edge">
<title>Node1&#45;&gt;Node8</title>
<g id="a_edge8_Node000001_Node000008"><a xlink:title=" ">
<path fill="none" stroke="#63b8ff" d="M174.55,-167.55C201.84,-157.25 237.13,-143.94 261.99,-134.55"/>
<polygon fill="#63b8ff" stroke="#63b8ff" points="263.08,-137.88 271.2,-131.08 260.6,-131.34 263.08,-137.88"/>
</a>
</g>
</g>
<!-- Node6 -->
<g id="Node000006" class="node">
<title>Node6</title>
<g id="a_Node000006"><a xlink:href="_texture_item_8hpp.html" target="_top" xlink:title=" ">
<polygon fill="white" stroke="#666666" points="141.86,-76 55.36,-76 55.36,-56 141.86,-56 141.86,-76"/>
<text xml:space="preserve" text-anchor="middle" x="98.61" y="-62.5" font-family="Helvetica,sans-Serif" font-size="10.00">TextureItem.hpp</text>
</a>
</g>
</g>
<!-- Node5&#45;&gt;Node6 -->
<g id="edge5_Node000005_Node000006" class="edge">
<title>Node5&#45;&gt;Node6</title>
<g id="a_edge5_Node000005_Node000006"><a xlink:title=" ">
<path fill="none" stroke="#63b8ff" d="M201.83,-111.59C182.24,-103.13 153.18,-90.58 130.88,-80.94"/>
<polygon fill="#63b8ff" stroke="#63b8ff" points="132.51,-77.83 121.94,-77.08 129.73,-84.26 132.51,-77.83"/>
</a>
</g>
</g>
<!-- Node7 -->
<g id="Node000007" class="node">
<title>Node7</title>
<g id="a_Node000007"><a xlink:href="_area_8hpp.html" target="_top" xlink:title=" ">
<polygon fill="white" stroke="#666666" points="251.11,-76 196.11,-76 196.11,-56 251.11,-56 251.11,-76"/>
<text xml:space="preserve" text-anchor="middle" x="223.61" y="-62.5" font-family="Helvetica,sans-Serif" font-size="10.00">Area.hpp</text>
</a>
</g>
</g>
<!-- Node5&#45;&gt;Node7 -->
<g id="edge7_Node000005_Node000007" class="edge">
<title>Node5&#45;&gt;Node7</title>
<g id="a_edge7_Node000005_Node000007"><a xlink:title=" ">
<path fill="none" stroke="#63b8ff" d="M223.61,-111.59C223.61,-105.01 223.61,-95.96 223.61,-87.73"/>
<polygon fill="#63b8ff" stroke="#63b8ff" points="227.11,-87.81 223.61,-77.81 220.11,-87.81 227.11,-87.81"/>
</a>
</g>
</g>
<!-- Node6&#45;&gt;Node2 -->
<g id="edge6_Node000006_Node000002" class="edge">
<title>Node6&#45;&gt;Node2</title>
<g id="a_edge6_Node000006_Node000002"><a xlink:title=" ">
<path fill="none" stroke="#63b8ff" d="M92.16,-55.59C87.28,-48.47 80.42,-38.45 74.43,-29.72"/>
<polygon fill="#63b8ff" stroke="#63b8ff" points="77.37,-27.82 68.83,-21.55 71.6,-31.77 77.37,-27.82"/>
</a>
</g>
</g>
</g>
</svg>
