<?xml version="1.0" encoding="UTF-8" standalone="no"?>
<!DOCTYPE svg PUBLIC "-//W3C//DTD SVG 1.1//EN"
 "http://www.w3.org/Graphics/SVG/1.1/DTD/svg11.dtd">
<!-- Generated by graphviz version 13.0.0 (20250608.1624)
 -->
<!-- Title: include/customizable/controls/Interactive.hpp Pages: 1 -->
<svg width="129pt" height="244pt"
 viewBox="0.00 0.00 129.00 244.00" xmlns="http://www.w3.org/2000/svg" xmlns:xlink="http://www.w3.org/1999/xlink">
<g id="graph0" class="graph" transform="scale(1 1) rotate(0) translate(4 240)">
<title>include/customizable/controls/Interactive.hpp</title>
<!-- Node1 -->
<g id="Node000001" class="node">
<title>Node1</title>
<g id="a_Node000001"><a xlink:title=" ">
<polygon fill="#999999" stroke="#666666" points="121,-236 0,-236 0,-204 121,-204 121,-236"/>
<text xml:space="preserve" text-anchor="start" x="8" y="-222.5" font-family="Helvetica,sans-Serif" font-size="10.00">include/customizable</text>
<text xml:space="preserve" text-anchor="middle" x="60.5" y="-210.5" font-family="Helvetica,sans-Serif" font-size="10.00">/controls/Interactive.hpp</text>
</a>
</g>
</g>
<!-- Node2 -->
<g id="Node000002" class="node">
<title>Node2</title>
<g id="a_Node000002"><a xlink:href="_interactive_page_8hpp.html" target="_top" xlink:title=" ">
<polygon fill="white" stroke="#666666" points="113.5,-168 7.5,-168 7.5,-136 113.5,-136 113.5,-168"/>
<text xml:space="preserve" text-anchor="start" x="15.5" y="-154.5" font-family="Helvetica,sans-Serif" font-size="10.00">include/core/pages</text>
<text xml:space="preserve" text-anchor="middle" x="60.5" y="-142.5" font-family="Helvetica,sans-Serif" font-size="10.00">/InteractivePage.hpp</text>
</a>
</g>
</g>
<!-- Node1&#45;&gt;Node2 -->
<g id="edge1_Node000001_Node000002" class="edge">
<title>Node1&#45;&gt;Node2</title>
<g id="a_edge1_Node000001_Node000002"><a xlink:title=" ">
<path fill="none" stroke="#63b8ff" d="M60.5,-192.31C60.5,-184.12 60.5,-175.38 60.5,-168.22"/>
<polygon fill="#63b8ff" stroke="#63b8ff" points="57,-192.18 60.5,-202.18 64,-192.18 57,-192.18"/>
</a>
</g>
</g>
<!-- Node3 -->
<g id="Node000003" class="node">
<title>Node3</title>
<g id="a_Node000003"><a xlink:href="_complex_page_8hpp.html" target="_top" xlink:title=" ">
<polygon fill="white" stroke="#666666" points="110.12,-100 10.88,-100 10.88,-68 110.12,-68 110.12,-100"/>
<text xml:space="preserve" text-anchor="start" x="18.88" y="-86.5" font-family="Helvetica,sans-Serif" font-size="10.00">include/core/pages</text>
<text xml:space="preserve" text-anchor="middle" x="60.5" y="-74.5" font-family="Helvetica,sans-Serif" font-size="10.00">/ComplexPage.hpp</text>
</a>
</g>
</g>
<!-- Node2&#45;&gt;Node3 -->
<g id="edge2_Node000002_Node000003" class="edge">
<title>Node2&#45;&gt;Node3</title>
<g id="a_edge2_Node000002_Node000003"><a xlink:title=" ">
<path fill="none" stroke="#63b8ff" d="M60.5,-124.31C60.5,-116.12 60.5,-107.38 60.5,-100.22"/>
<polygon fill="#63b8ff" stroke="#63b8ff" points="57,-124.18 60.5,-134.18 64,-124.18 57,-124.18"/>
</a>
</g>
</g>
<!-- Node4 -->
<g id="Node000004" class="node">
<title>Node4</title>
<g id="a_Node000004"><a xlink:href="page__emplate_8hpp.html" target="_top" xlink:title=" ">
<polygon fill="white" stroke="#666666" points="109.75,-32 11.25,-32 11.25,0 109.75,0 109.75,-32"/>
<text xml:space="preserve" text-anchor="start" x="19.25" y="-18.5" font-family="Helvetica,sans-Serif" font-size="10.00">include/core/pages</text>
<text xml:space="preserve" text-anchor="middle" x="60.5" y="-6.5" font-family="Helvetica,sans-Serif" font-size="10.00">/page_emplate.hpp</text>
</a>
</g>
</g>
<!-- Node3&#45;&gt;Node4 -->
<g id="edge3_Node000003_Node000004" class="edge">
<title>Node3&#45;&gt;Node4</title>
<g id="a_edge3_Node000003_Node000004"><a xlink:title=" ">
<path fill="none" stroke="#63b8ff" d="M60.5,-56.31C60.5,-48.12 60.5,-39.38 60.5,-32.22"/>
<polygon fill="#63b8ff" stroke="#63b8ff" points="57,-56.18 60.5,-66.18 64,-56.18 57,-56.18"/>
</a>
</g>
</g>
</g>
</svg>
