<?xml version="1.0" encoding="UTF-8" standalone="no"?>
<!DOCTYPE svg PUBLIC "-//W3C//DTD SVG 1.1//EN"
 "http://www.w3.org/Graphics/SVG/1.1/DTD/svg11.dtd">
<!-- Generated by graphviz version 13.0.0 (20250608.1624)
 -->
<!-- Title: src/core/pages/Page.cpp Pages: 1 -->
<!--zoomable 364 -->

<svg id="main" version="1.1" xmlns="http://www.w3.org/2000/svg" xmlns:xlink="http://www.w3.org/1999/xlink" xml:space="preserve" onload="init(evt)">

<style type="text/css"><![CDATA[
.node, .edge {opacity: 0.7;}
.node.selected, .edge.selected {opacity: 1;}
.edge:hover path { stroke: red; }
.edge:hover polygon { stroke: red; fill: red; }
]]></style>

<defs>
  <circle id="rim" cx="0" cy="0" r="7"/>
  <circle id="rim2" cx="0" cy="0" r="3.5"/>
  <g id="zoomPlus">
    <use xlink:href="#rim" fill="#404040"><set attributeName="fill" to="#808080" begin="zoomplus.mouseover" end="zoomplus.mouseout"/></use>
    <path d="M-4,0h8M0,-4v8" fill="none" stroke="white" stroke-width="1.5" pointer-events="none"/>
  </g>
  <g id="zoomMin">
    <use xlink:href="#rim" fill="#404040"><set attributeName="fill" to="#808080" begin="zoomminus.mouseover" end="zoomminus.mouseout"/></use>
    <path d="M-4,0h8" fill="none" stroke="white" stroke-width="1.5" pointer-events="none"/>
  </g>
  <g id="arrowUp" transform="translate(30 24)">
    <use xlink:href="#rim"/>
    <path pointer-events="none" fill="none" stroke="white" stroke-width="1.5" d="M0,-3.0v7 M-2.5,-0.5L0,-3.0L2.5,-0.5"/>
  </g>
  <g id="arrowRight" transform="rotate(90) translate(36 -43)">
    <use xlink:href="#rim"/>
    <path pointer-events="none" fill="none" stroke="white" stroke-width="1.5" d="M0,-3.0v7 M-2.5,-0.5L0,-3.0L2.5,-0.5"/>
  </g>
  <g id="arrowDown" transform="rotate(180) translate(-30 -48)">
    <use xlink:href="#rim"/>
    <path pointer-events="none" fill="none" stroke="white" stroke-width="1.5" d="M0,-3.0v7 M-2.5,-0.5L0,-3.0L2.5,-0.5"/>
  </g>
  <g id="arrowLeft" transform="rotate(270) translate(-36 17)">
    <use xlink:href="#rim"/>
    <path pointer-events="none" fill="none" stroke="white" stroke-width="1.5" d="M0,-3.0v7 M-2.5,-0.5L0,-3.0L2.5,-0.5"/>
  </g>
  <g id="resetDef">
    <use xlink:href="#rim2" fill="#404040"><set attributeName="fill" to="#808080" begin="reset.mouseover" end="reset.mouseout"/></use>
  </g>
</defs>
<script type="application/ecmascript">
var viewWidth = 794;
var viewHeight = 364;
var sectionId = 'dynsection-0';
</script>
<script type="application/ecmascript" xlink:href="svg.min.js"/>
<svg id="graph" class="graph">
<g id="viewport">
<title>src/core/pages/Page.cpp</title>
<!-- Node1 -->
<g id="Node000001" class="node">
<title>Node1</title>
<g id="a_Node000001"><a xlink:title="实现Page类及相关函数，负责界面生命周期、事件绑定、渲染等。">
<polygon fill="#999999" stroke="#666666" points="528.62,-356 403.88,-356 403.88,-336 528.62,-336 528.62,-356"/>
<text xml:space="preserve" text-anchor="middle" x="466.25" y="-342.5" font-family="Helvetica,sans-Serif" font-size="10.00">src/core/pages/Page.cpp</text>
</a>
</g>
</g>
<!-- Node2 -->
<g id="Node000002" class="node">
<title>Node2</title>
<g id="a_Node000002"><a xlink:href="_page_8hpp.html" target="_top" xlink:title=" ">
<polygon fill="white" stroke="#666666" points="347.88,-244 290.62,-244 290.62,-224 347.88,-224 347.88,-244"/>
<text xml:space="preserve" text-anchor="middle" x="319.25" y="-230.5" font-family="Helvetica,sans-Serif" font-size="10.00">Page.hpp</text>
</a>
</g>
</g>
<!-- Node1&#45;&gt;Node2 -->
<g id="edge1_Node000001_Node000002" class="edge">
<title>Node1&#45;&gt;Node2</title>
<g id="a_edge1_Node000001_Node000002"><a xlink:title=" ">
<path fill="none" stroke="#63b8ff" d="M403.93,-335.51C380.56,-329.06 355.51,-318.21 338.25,-300 326.87,-287.99 322.26,-269.53 320.41,-255.35"/>
<polygon fill="#63b8ff" stroke="#63b8ff" points="323.93,-255.41 319.54,-245.77 316.96,-256.04 323.93,-255.41"/>
</a>
</g>
</g>
<!-- Node19 -->
<g id="Node000019" class="node">
<title>Node19</title>
<g id="a_Node000019"><a xlink:href="_window_8hpp.html" target="_top" xlink:title=" ">
<polygon fill="white" stroke="#666666" points="416.88,-300 347.62,-300 347.62,-280 416.88,-280 416.88,-300"/>
<text xml:space="preserve" text-anchor="middle" x="382.25" y="-286.5" font-family="Helvetica,sans-Serif" font-size="10.00">Window.hpp</text>
</a>
</g>
</g>
<!-- Node1&#45;&gt;Node19 -->
<g id="edge26_Node000001_Node000019" class="edge">
<title>Node1&#45;&gt;Node19</title>
<g id="a_edge26_Node000001_Node000019"><a xlink:title=" ">
<path fill="none" stroke="#63b8ff" d="M451.62,-335.59C439.17,-327.59 421.03,-315.93 406.43,-306.54"/>
<polygon fill="#63b8ff" stroke="#63b8ff" points="408.57,-303.76 398.27,-301.3 404.79,-309.65 408.57,-303.76"/>
</a>
</g>
</g>
<!-- Node21 -->
<g id="Node000021" class="node">
<title>Node21</title>
<g id="a_Node000021"><a xlink:title=" ">
<polygon fill="#e0e0e0" stroke="#999999" points="497.5,-300 435,-300 435,-280 497.5,-280 497.5,-300"/>
<text xml:space="preserve" text-anchor="middle" x="466.25" y="-286.5" font-family="Helvetica,sans-Serif" font-size="10.00">windows.h</text>
</a>
</g>
</g>
<!-- Node1&#45;&gt;Node21 -->
<g id="edge29_Node000001_Node000021" class="edge">
<title>Node1&#45;&gt;Node21</title>
<g id="a_edge29_Node000001_Node000021"><a xlink:title=" ">
<path fill="none" stroke="#63b8ff" d="M466.25,-335.59C466.25,-329.01 466.25,-319.96 466.25,-311.73"/>
<polygon fill="#63b8ff" stroke="#63b8ff" points="469.75,-311.81 466.25,-301.81 462.75,-311.81 469.75,-311.81"/>
</a>
</g>
</g>
<!-- Node22 -->
<g id="Node000022" class="node">
<title>Node22</title>
<g id="a_Node000022"><a xlink:title=" ">
<polygon fill="#e0e0e0" stroke="#999999" points="613.12,-300 515.38,-300 515.38,-280 613.12,-280 613.12,-300"/>
<text xml:space="preserve" text-anchor="middle" x="564.25" y="-286.5" font-family="Helvetica,sans-Serif" font-size="10.00">SFML/System.hpp</text>
</a>
</g>
</g>
<!-- Node1&#45;&gt;Node22 -->
<g id="edge30_Node000001_Node000022" class="edge">
<title>Node1&#45;&gt;Node22</title>
<g id="a_edge30_Node000001_Node000022"><a xlink:title=" ">
<path fill="none" stroke="#63b8ff" d="M483.32,-335.59C498.13,-327.44 519.82,-315.48 537.02,-306"/>
<polygon fill="#63b8ff" stroke="#63b8ff" points="538.65,-309.1 545.72,-301.21 535.27,-302.97 538.65,-309.1"/>
</a>
</g>
</g>
<!-- Node23 -->
<g id="Node000023" class="node">
<title>Node23</title>
<g id="a_Node000023"><a xlink:title=" ">
<polygon fill="#e0e0e0" stroke="#999999" points="673,-300 631.5,-300 631.5,-280 673,-280 673,-300"/>
<text xml:space="preserve" text-anchor="middle" x="652.25" y="-286.5" font-family="Helvetica,sans-Serif" font-size="10.00">locale</text>
</a>
</g>
</g>
<!-- Node1&#45;&gt;Node23 -->
<g id="edge31_Node000001_Node000023" class="edge">
<title>Node1&#45;&gt;Node23</title>
<g id="a_edge31_Node000001_Node000023"><a xlink:title=" ">
<path fill="none" stroke="#63b8ff" d="M499.45,-335.53C528.83,-327.13 573.14,-314.4 620.49,-300.5"/>
<polygon fill="#63b8ff" stroke="#63b8ff" points="621.22,-303.93 629.83,-297.75 619.24,-297.21 621.22,-303.93"/>
</a>
</g>
</g>
<!-- Node3 -->
<g id="Node000003" class="node">
<title>Node3</title>
<g id="a_Node000003"><a xlink:title=" ">
<polygon fill="#e0e0e0" stroke="#999999" points="98.5,-188 0,-188 0,-168 98.5,-168 98.5,-188"/>
<text xml:space="preserve" text-anchor="middle" x="49.25" y="-174.5" font-family="Helvetica,sans-Serif" font-size="10.00">SFML/Window.hpp</text>
</a>
</g>
</g>
<!-- Node2&#45;&gt;Node3 -->
<g id="edge2_Node000002_Node000003" class="edge">
<title>Node2&#45;&gt;Node3</title>
<g id="a_edge2_Node000002_Node000003"><a xlink:title=" ">
<path fill="none" stroke="#63b8ff" d="M290.36,-227.22C246.96,-218.54 164.03,-201.96 107.69,-190.69"/>
<polygon fill="#63b8ff" stroke="#63b8ff" points="108.42,-187.26 97.93,-188.74 107.05,-194.13 108.42,-187.26"/>
</a>
</g>
</g>
<!-- Node4 -->
<g id="Node000004" class="node">
<title>Node4</title>
<g id="a_Node000004"><a xlink:href="_active_key_binding_8hpp.html" target="_top" xlink:title=" ">
<polygon fill="white" stroke="#666666" points="306.25,-188 194.25,-188 194.25,-168 306.25,-168 306.25,-188"/>
<text xml:space="preserve" text-anchor="middle" x="250.25" y="-174.5" font-family="Helvetica,sans-Serif" font-size="10.00">ActiveKeyBinding.hpp</text>
</a>
</g>
</g>
<!-- Node2&#45;&gt;Node4 -->
<g id="edge3_Node000002_Node000004" class="edge">
<title>Node2&#45;&gt;Node4</title>
<g id="a_edge3_Node000002_Node000004"><a xlink:title=" ">
<path fill="none" stroke="#63b8ff" d="M307.23,-223.59C297.24,-215.77 282.79,-204.46 270.94,-195.19"/>
<polygon fill="#63b8ff" stroke="#63b8ff" points="273.36,-192.64 263.32,-189.23 269.04,-198.15 273.36,-192.64"/>
</a>
</g>
</g>
<!-- Node8 -->
<g id="Node000008" class="node">
<title>Node8</title>
<g id="a_Node000008"><a xlink:href="_mouse_8hpp.html" target="_top" xlink:title=" ">
<polygon fill="white" stroke="#666666" points="136.25,-76 72.25,-76 72.25,-56 136.25,-56 136.25,-76"/>
<text xml:space="preserve" text-anchor="middle" x="104.25" y="-62.5" font-family="Helvetica,sans-Serif" font-size="10.00">Mouse.hpp</text>
</a>
</g>
</g>
<!-- Node2&#45;&gt;Node8 -->
<g id="edge7_Node000002_Node000008" class="edge">
<title>Node2&#45;&gt;Node8</title>
<g id="a_edge7_Node000002_Node000008"><a xlink:title=" ">
<path fill="none" stroke="#63b8ff" d="M290.29,-228.87C261.27,-223.53 216.55,-211.91 185.25,-188 149.73,-160.86 124.63,-113.48 112.51,-86.77"/>
<polygon fill="#63b8ff" stroke="#63b8ff" points="115.8,-85.56 108.59,-77.79 109.38,-88.36 115.8,-85.56"/>
</a>
</g>
</g>
<!-- Node9 -->
<g id="Node000009" class="node">
<title>Node9</title>
<g id="a_Node000009"><a xlink:href="textbox_8hpp.html" target="_top" xlink:title=" ">
<polygon fill="white" stroke="#666666" points="661.75,-132 594.75,-132 594.75,-112 661.75,-112 661.75,-132"/>
<text xml:space="preserve" text-anchor="middle" x="628.25" y="-118.5" font-family="Helvetica,sans-Serif" font-size="10.00">textbox.hpp</text>
</a>
</g>
</g>
<!-- Node2&#45;&gt;Node9 -->
<g id="edge9_Node000002_Node000009" class="edge">
<title>Node2&#45;&gt;Node9</title>
<g id="a_edge9_Node000002_Node000009"><a xlink:title=" ">
<path fill="none" stroke="#63b8ff" d="M345.86,-223.53C400.96,-203.91 527.67,-158.81 590.91,-136.29"/>
<polygon fill="#63b8ff" stroke="#63b8ff" points="591.92,-139.65 600.17,-133 589.57,-133.05 591.92,-139.65"/>
</a>
</g>
</g>
<!-- Node11 -->
<g id="Node000011" class="node">
<title>Node11</title>
<g id="a_Node000011"><a xlink:href="_event_binding_8hpp.html" target="_top" xlink:title=" ">
<polygon fill="white" stroke="#666666" points="425.5,-188 333,-188 333,-168 425.5,-168 425.5,-188"/>
<text xml:space="preserve" text-anchor="middle" x="379.25" y="-174.5" font-family="Helvetica,sans-Serif" font-size="10.00">EventBinding.hpp</text>
</a>
</g>
</g>
<!-- Node2&#45;&gt;Node11 -->
<g id="edge12_Node000002_Node000011" class="edge">
<title>Node2&#45;&gt;Node11</title>
<g id="a_edge12_Node000002_Node000011"><a xlink:title=" ">
<path fill="none" stroke="#63b8ff" d="M329.7,-223.59C338.22,-215.93 350.46,-204.91 360.64,-195.75"/>
<polygon fill="#63b8ff" stroke="#63b8ff" points="362.7,-198.6 367.79,-189.31 358.02,-193.4 362.7,-198.6"/>
</a>
</g>
</g>
<!-- Node16 -->
<g id="Node000016" class="node">
<title>Node16</title>
<g id="a_Node000016"><a xlink:href="inputbox_8hpp.html" target="_top" xlink:title=" ">
<polygon fill="white" stroke="#666666" points="664,-188 592.5,-188 592.5,-168 664,-168 664,-188"/>
<text xml:space="preserve" text-anchor="middle" x="628.25" y="-174.5" font-family="Helvetica,sans-Serif" font-size="10.00">inputbox.hpp</text>
</a>
</g>
</g>
<!-- Node2&#45;&gt;Node16 -->
<g id="edge21_Node000002_Node000016" class="edge">
<title>Node2&#45;&gt;Node16</title>
<g id="a_edge21_Node000002_Node000016"><a xlink:title=" ">
<path fill="none" stroke="#63b8ff" d="M348.25,-225.92C351.28,-225.24 354.33,-224.59 357.25,-224 435.22,-208.31 526.61,-193.97 580.84,-185.87"/>
<polygon fill="#63b8ff" stroke="#63b8ff" points="581.29,-189.35 590.66,-184.42 580.26,-182.42 581.29,-189.35"/>
</a>
</g>
</g>
<!-- Node5 -->
<g id="Node000005" class="node">
<title>Node5</title>
<g id="a_Node000005"><a xlink:title=" ">
<polygon fill="#e0e0e0" stroke="#999999" points="463.75,-20 360.75,-20 360.75,0 463.75,0 463.75,-20"/>
<text xml:space="preserve" text-anchor="middle" x="412.25" y="-6.5" font-family="Helvetica,sans-Serif" font-size="10.00">SFML/Graphics.hpp</text>
</a>
</g>
</g>
<!-- Node4&#45;&gt;Node5 -->
<g id="edge4_Node000004_Node000005" class="edge">
<title>Node4&#45;&gt;Node5</title>
<g id="a_edge4_Node000004_Node000005"><a xlink:title=" ">
<path fill="none" stroke="#63b8ff" d="M227.11,-167.53C202.28,-155.92 168.29,-134.94 183.25,-112 219.69,-56.1 294.83,-30.92 349.11,-19.72"/>
<polygon fill="#63b8ff" stroke="#63b8ff" points="349.72,-23.17 358.87,-17.82 348.39,-16.29 349.72,-23.17"/>
</a>
</g>
</g>
<!-- Node6 -->
<g id="Node000006" class="node">
<title>Node6</title>
<g id="a_Node000006"><a xlink:title=" ">
<polygon fill="#e0e0e0" stroke="#999999" points="350.25,-132 292.25,-132 292.25,-112 350.25,-112 350.25,-132"/>
<text xml:space="preserve" text-anchor="middle" x="321.25" y="-118.5" font-family="Helvetica,sans-Serif" font-size="10.00">functional</text>
</a>
</g>
</g>
<!-- Node4&#45;&gt;Node6 -->
<g id="edge5_Node000004_Node000006" class="edge">
<title>Node4&#45;&gt;Node6</title>
<g id="a_edge5_Node000004_Node000006"><a xlink:title=" ">
<path fill="none" stroke="#63b8ff" d="M262.62,-167.59C272.9,-159.77 287.77,-148.46 299.96,-139.19"/>
<polygon fill="#63b8ff" stroke="#63b8ff" points="301.98,-142.05 307.82,-133.21 297.74,-136.48 301.98,-142.05"/>
</a>
</g>
</g>
<!-- Node7 -->
<g id="Node000007" class="node">
<title>Node7</title>
<g id="a_Node000007"><a xlink:title=" ">
<polygon fill="#e0e0e0" stroke="#999999" points="274.62,-132 191.88,-132 191.88,-112 274.62,-112 274.62,-132"/>
<text xml:space="preserve" text-anchor="middle" x="233.25" y="-118.5" font-family="Helvetica,sans-Serif" font-size="10.00">unordered_map</text>
</a>
</g>
</g>
<!-- Node4&#45;&gt;Node7 -->
<g id="edge6_Node000004_Node000007" class="edge">
<title>Node4&#45;&gt;Node7</title>
<g id="a_edge6_Node000004_Node000007"><a xlink:title=" ">
<path fill="none" stroke="#63b8ff" d="M247.29,-167.59C245.17,-160.86 242.23,-151.53 239.59,-143.15"/>
<polygon fill="#63b8ff" stroke="#63b8ff" points="242.97,-142.23 236.63,-133.74 236.3,-144.33 242.97,-142.23"/>
</a>
</g>
</g>
<!-- Node8&#45;&gt;Node5 -->
<g id="edge8_Node000008_Node000005" class="edge">
<title>Node8&#45;&gt;Node5</title>
<g id="a_edge8_Node000008_Node000005"><a xlink:title=" ">
<path fill="none" stroke="#63b8ff" d="M136.4,-58.61C141.05,-57.72 145.77,-56.82 150.25,-56 218.13,-43.53 296.09,-30.28 349.21,-21.41"/>
<polygon fill="#63b8ff" stroke="#63b8ff" points="349.71,-24.87 358.99,-19.78 348.55,-17.97 349.71,-24.87"/>
</a>
</g>
</g>
<!-- Node9&#45;&gt;Node5 -->
<g id="edge11_Node000009_Node000005" class="edge">
<title>Node9&#45;&gt;Node5</title>
<g id="a_edge11_Node000009_Node000005"><a xlink:title=" ">
<path fill="none" stroke="#63b8ff" d="M628.31,-111.52C627.86,-97.33 624.83,-70.67 609.25,-56 590.06,-37.92 525.5,-25.56 475.46,-18.44"/>
<polygon fill="#63b8ff" stroke="#63b8ff" points="475.94,-14.97 465.56,-17.07 474.99,-21.9 475.94,-14.97"/>
</a>
</g>
</g>
<!-- Node10 -->
<g id="Node000010" class="node">
<title>Node10</title>
<g id="a_Node000010"><a xlink:title=" ">
<polygon fill="#e0e0e0" stroke="#999999" points="717.75,-76 656.75,-76 656.75,-56 717.75,-56 717.75,-76"/>
<text xml:space="preserve" text-anchor="middle" x="687.25" y="-62.5" font-family="Helvetica,sans-Serif" font-size="10.00">filesystem</text>
</a>
</g>
</g>
<!-- Node9&#45;&gt;Node10 -->
<g id="edge10_Node000009_Node000010" class="edge">
<title>Node9&#45;&gt;Node10</title>
<g id="a_edge10_Node000009_Node000010"><a xlink:title=" ">
<path fill="none" stroke="#63b8ff" d="M638.53,-111.59C646.82,-104.01 658.7,-93.13 668.65,-84.02"/>
<polygon fill="#63b8ff" stroke="#63b8ff" points="670.96,-86.65 675.97,-77.32 666.23,-81.49 670.96,-86.65"/>
</a>
</g>
</g>
<!-- Node11&#45;&gt;Node5 -->
<g id="edge13_Node000011_Node000005" class="edge">
<title>Node11&#45;&gt;Node5</title>
<g id="a_edge13_Node000011_Node000005"><a xlink:title=" ">
<path fill="none" stroke="#63b8ff" d="M390.69,-167.65C399.84,-159.38 411.98,-146.4 417.25,-132 429.54,-98.39 423.28,-55.97 417.7,-31.32"/>
<polygon fill="#63b8ff" stroke="#63b8ff" points="421.18,-30.82 415.38,-21.95 414.38,-32.5 421.18,-30.82"/>
</a>
</g>
</g>
<!-- Node11&#45;&gt;Node6 -->
<g id="edge14_Node000011_Node000006" class="edge">
<title>Node11&#45;&gt;Node6</title>
<g id="a_edge14_Node000011_Node000006"><a xlink:title=" ">
<path fill="none" stroke="#63b8ff" d="M369.15,-167.59C361,-160.01 349.32,-149.13 339.53,-140.02"/>
<polygon fill="#63b8ff" stroke="#63b8ff" points="342.05,-137.58 332.34,-133.33 337.28,-142.71 342.05,-137.58"/>
</a>
</g>
</g>
<!-- Node11&#45;&gt;Node7 -->
<g id="edge15_Node000011_Node000007" class="edge">
<title>Node11&#45;&gt;Node7</title>
<g id="a_edge15_Node000011_Node000007"><a xlink:title=" ">
<path fill="none" stroke="#63b8ff" d="M353.82,-167.59C330.51,-158.97 295.75,-146.12 269.53,-136.42"/>
<polygon fill="#63b8ff" stroke="#63b8ff" points="270.89,-133.19 260.3,-133 268.46,-139.76 270.89,-133.19"/>
</a>
</g>
</g>
<!-- Node12 -->
<g id="Node000012" class="node">
<title>Node12</title>
<g id="a_Node000012"><a xlink:href="button_8hpp.html" target="_top" xlink:title=" ">
<polygon fill="white" stroke="#666666" points="526.12,-132 464.38,-132 464.38,-112 526.12,-112 526.12,-132"/>
<text xml:space="preserve" text-anchor="middle" x="495.25" y="-118.5" font-family="Helvetica,sans-Serif" font-size="10.00">button.hpp</text>
</a>
</g>
</g>
<!-- Node11&#45;&gt;Node12 -->
<g id="edge16_Node000011_Node000012" class="edge">
<title>Node11&#45;&gt;Node12</title>
<g id="a_edge16_Node000011_Node000012"><a xlink:title=" ">
<path fill="none" stroke="#63b8ff" d="M399.46,-167.59C417.48,-159.21 444.12,-146.8 464.73,-137.21"/>
<polygon fill="#63b8ff" stroke="#63b8ff" points="465.93,-140.51 473.51,-133.12 462.97,-134.17 465.93,-140.51"/>
</a>
</g>
</g>
<!-- Node15 -->
<g id="Node000015" class="node">
<title>Node15</title>
<g id="a_Node000015"><a xlink:title=" ">
<polygon fill="#e0e0e0" stroke="#999999" points="407.88,-132 368.62,-132 368.62,-112 407.88,-112 407.88,-132"/>
<text xml:space="preserve" text-anchor="middle" x="388.25" y="-118.5" font-family="Helvetica,sans-Serif" font-size="10.00">utility</text>
</a>
</g>
</g>
<!-- Node11&#45;&gt;Node15 -->
<g id="edge20_Node000011_Node000015" class="edge">
<title>Node11&#45;&gt;Node15</title>
<g id="a_edge20_Node000011_Node000015"><a xlink:title=" ">
<path fill="none" stroke="#63b8ff" d="M380.82,-167.59C381.93,-160.93 383.46,-151.75 384.84,-143.44"/>
<polygon fill="#63b8ff" stroke="#63b8ff" points="388.26,-144.23 386.45,-133.79 381.36,-143.08 388.26,-144.23"/>
</a>
</g>
</g>
<!-- Node13 -->
<g id="Node000013" class="node">
<title>Node13</title>
<g id="a_Node000013"><a xlink:href="_texture_item_8hpp.html" target="_top" xlink:title=" ">
<polygon fill="white" stroke="#666666" points="526.5,-76 440,-76 440,-56 526.5,-56 526.5,-76"/>
<text xml:space="preserve" text-anchor="middle" x="483.25" y="-62.5" font-family="Helvetica,sans-Serif" font-size="10.00">TextureItem.hpp</text>
</a>
</g>
</g>
<!-- Node12&#45;&gt;Node13 -->
<g id="edge17_Node000012_Node000013" class="edge">
<title>Node12&#45;&gt;Node13</title>
<g id="a_edge17_Node000012_Node000013"><a xlink:title=" ">
<path fill="none" stroke="#63b8ff" d="M493.16,-111.59C491.68,-104.93 489.64,-95.75 487.79,-87.44"/>
<polygon fill="#63b8ff" stroke="#63b8ff" points="491.23,-86.78 485.64,-77.78 484.4,-88.3 491.23,-86.78"/>
</a>
</g>
</g>
<!-- Node14 -->
<g id="Node000014" class="node">
<title>Node14</title>
<g id="a_Node000014"><a xlink:href="_area_8hpp.html" target="_top" xlink:title=" ">
<polygon fill="white" stroke="#666666" points="599.75,-76 544.75,-76 544.75,-56 599.75,-56 599.75,-76"/>
<text xml:space="preserve" text-anchor="middle" x="572.25" y="-62.5" font-family="Helvetica,sans-Serif" font-size="10.00">Area.hpp</text>
</a>
</g>
</g>
<!-- Node12&#45;&gt;Node14 -->
<g id="edge19_Node000012_Node000014" class="edge">
<title>Node12&#45;&gt;Node14</title>
<g id="a_edge19_Node000012_Node000014"><a xlink:title=" ">
<path fill="none" stroke="#63b8ff" d="M508.66,-111.59C519.86,-103.74 536.06,-92.38 549.31,-83.09"/>
<polygon fill="#63b8ff" stroke="#63b8ff" points="551.32,-85.96 557.49,-77.35 547.3,-80.22 551.32,-85.96"/>
</a>
</g>
</g>
<!-- Node13&#45;&gt;Node5 -->
<g id="edge18_Node000013_Node000005" class="edge">
<title>Node13&#45;&gt;Node5</title>
<g id="a_edge18_Node000013_Node000005"><a xlink:title=" ">
<path fill="none" stroke="#63b8ff" d="M470.88,-55.59C460.6,-47.77 445.73,-36.46 433.54,-27.19"/>
<polygon fill="#63b8ff" stroke="#63b8ff" points="435.76,-24.48 425.68,-21.21 431.52,-30.05 435.76,-24.48"/>
</a>
</g>
</g>
<!-- Node16&#45;&gt;Node9 -->
<g id="edge22_Node000016_Node000009" class="edge">
<title>Node16&#45;&gt;Node9</title>
<g id="a_edge22_Node000016_Node000009"><a xlink:title=" ">
<path fill="none" stroke="#63b8ff" d="M628.25,-167.59C628.25,-161.01 628.25,-151.96 628.25,-143.73"/>
<polygon fill="#63b8ff" stroke="#63b8ff" points="631.75,-143.81 628.25,-133.81 624.75,-143.81 631.75,-143.81"/>
</a>
</g>
</g>
<!-- Node16&#45;&gt;Node14 -->
<g id="edge23_Node000016_Node000014" class="edge">
<title>Node16&#45;&gt;Node14</title>
<g id="a_edge23_Node000016_Node000014"><a xlink:title=" ">
<path fill="none" stroke="#63b8ff" d="M616.43,-167.55C606.82,-159.21 593.67,-146.21 586.25,-132 579.04,-118.2 575.54,-100.9 573.84,-87.61"/>
<polygon fill="#63b8ff" stroke="#63b8ff" points="577.35,-87.46 572.86,-77.86 570.38,-88.16 577.35,-87.46"/>
</a>
</g>
</g>
<!-- Node17 -->
<g id="Node000017" class="node">
<title>Node17</title>
<g id="a_Node000017"><a xlink:title=" ">
<polygon fill="#e0e0e0" stroke="#999999" points="733,-132 679.5,-132 679.5,-112 733,-112 733,-132"/>
<text xml:space="preserve" text-anchor="middle" x="706.25" y="-118.5" font-family="Helvetica,sans-Serif" font-size="10.00">iostream</text>
</a>
</g>
</g>
<!-- Node16&#45;&gt;Node17 -->
<g id="edge24_Node000016_Node000017" class="edge">
<title>Node16&#45;&gt;Node17</title>
<g id="a_edge24_Node000016_Node000017"><a xlink:title=" ">
<path fill="none" stroke="#63b8ff" d="M641.84,-167.59C653.29,-159.67 669.91,-148.16 683.41,-138.82"/>
<polygon fill="#63b8ff" stroke="#63b8ff" points="685.08,-141.91 691.31,-133.34 681.1,-136.16 685.08,-141.91"/>
</a>
</g>
</g>
<!-- Node18 -->
<g id="Node000018" class="node">
<title>Node18</title>
<g id="a_Node000018"><a xlink:title=" ">
<polygon fill="#e0e0e0" stroke="#999999" points="785.62,-132 750.88,-132 750.88,-112 785.62,-112 785.62,-132"/>
<text xml:space="preserve" text-anchor="middle" x="768.25" y="-118.5" font-family="Helvetica,sans-Serif" font-size="10.00">print</text>
</a>
</g>
</g>
<!-- Node16&#45;&gt;Node18 -->
<g id="edge25_Node000016_Node000018" class="edge">
<title>Node16&#45;&gt;Node18</title>
<g id="a_edge25_Node000016_Node000018"><a xlink:title=" ">
<path fill="none" stroke="#63b8ff" d="M652.64,-167.59C677.07,-158.17 714.63,-143.68 740.26,-133.8"/>
<polygon fill="#63b8ff" stroke="#63b8ff" points="741.29,-137.15 749.36,-130.28 738.77,-130.62 741.29,-137.15"/>
</a>
</g>
</g>
<!-- Node19&#45;&gt;Node2 -->
<g id="edge28_Node000019_Node000002" class="edge">
<title>Node19&#45;&gt;Node2</title>
<g id="a_edge28_Node000019_Node000002"><a xlink:title=" ">
<path fill="none" stroke="#63b8ff" d="M371.28,-279.59C362.33,-271.93 349.48,-260.91 338.79,-251.75"/>
<polygon fill="#63b8ff" stroke="#63b8ff" points="341.12,-249.13 331.25,-245.28 336.56,-254.45 341.12,-249.13"/>
</a>
</g>
</g>
<!-- Node20 -->
<g id="Node000020" class="node">
<title>Node20</title>
<g id="a_Node000020"><a xlink:title=" ">
<polygon fill="#e0e0e0" stroke="#999999" points="494.12,-244 366.38,-244 366.38,-224 494.12,-224 494.12,-244"/>
<text xml:space="preserve" text-anchor="middle" x="430.25" y="-230.5" font-family="Helvetica,sans-Serif" font-size="10.00">SFML/Window/Event.hpp</text>
</a>
</g>
</g>
<!-- Node19&#45;&gt;Node20 -->
<g id="edge27_Node000019_Node000020" class="edge">
<title>Node19&#45;&gt;Node20</title>
<g id="a_edge27_Node000019_Node000020"><a xlink:title=" ">
<path fill="none" stroke="#63b8ff" d="M390.61,-279.59C397.15,-272.24 406.43,-261.8 414.37,-252.87"/>
<polygon fill="#63b8ff" stroke="#63b8ff" points="416.95,-255.23 420.98,-245.43 411.72,-250.58 416.95,-255.23"/>
</a>
</g>
</g>
</g>
</svg>

<g id="navigator" transform="translate(0 0)" fill="#404254">
  <rect fill="#f2f5e9" fill-opacity="0.5" stroke="#606060" stroke-width=".5" x="0" y="0" width="60" height="60"/>
  <use id="zoomplus" xlink:href="#zoomPlus" x="17" y="9" onmousedown="handleZoom(evt,'in')"/>
  <use id="zoomminus" xlink:href="#zoomMin" x="42" y="9" onmousedown="handleZoom(evt,'out')"/>
  <use id="reset" xlink:href="#resetDef" x="30" y="36" onmousedown="handleReset()"/>
   <use id="arrowup" xlink:href="#arrowUp" x="0" y="0" onmousedown="handlePan(0,-1)"/>
  <use id="arrowright" xlink:href="#arrowRight" x="0" y="0" onmousedown="handlePan(1,0)"/>
  <use id="arrowdown" xlink:href="#arrowDown" x="0" y="0" onmousedown="handlePan(0,1)"/>
  <use id="arrowleft" xlink:href="#arrowLeft" x="0" y="0" onmousedown="handlePan(-1,0)"/>
</g>
<svg viewBox="0 0 15 15" width="100%" height="30px" preserveAspectRatio="xMaxYMin meet">
 <g id="arrow_out" transform="scale(0.3 0.3)">
  <a xlink:href="_page_8cpp__incl_org.svg" target="_base">
   <rect id="button" ry="5" rx="5" y="6" x="6" height="38" width="38"
        fill="#f2f5e9" fill-opacity="0.5" stroke="#606060" stroke-width="1.0"/>
   <path id="arrow"
     d="M 11.500037,31.436501 C 11.940474,20.09759 22.043105,11.32322 32.158766,21.979434 L 37.068811,17.246167 C 37.068811,17.246167 37.088388,32 37.088388,32 L 22.160133,31.978069 C 22.160133,31.978069 26.997745,27.140456 26.997745,27.140456 C 18.528582,18.264221 13.291696,25.230495 11.500037,31.436501 z"
     style="fill:#404040;"/>
  </a>
 </g>
</svg>

<style type='text/css'>
<![CDATA[
[data-mouse-over-selected='false'] { opacity: 0.7; }
[data-mouse-over-selected='true']  { opacity: 1.0; }
]]>
</style>
<script type="application/ecmascript"><![CDATA[
document.addEventListener('DOMContentLoaded', (event) => {
  highlightEdges();
  highlightAdjacentNodes();
});
]]></script>
</svg>
