<?xml version="1.0" encoding="UTF-8" standalone="no"?>
<!DOCTYPE svg PUBLIC "-//W3C//DTD SVG 1.1//EN"
 "http://www.w3.org/Graphics/SVG/1.1/DTD/svg11.dtd">
<!-- Generated by graphviz version 13.0.0 (20250608.1624)
 -->
<!-- Title: include/core/pages/Page.hpp Pages: 1 -->
<svg width="534pt" height="312pt"
 viewBox="0.00 0.00 534.00 312.00" xmlns="http://www.w3.org/2000/svg" xmlns:xlink="http://www.w3.org/1999/xlink">
<g id="graph0" class="graph" transform="scale(1 1) rotate(0) translate(4 308)">
<title>include/core/pages/Page.hpp</title>
<!-- Node1 -->
<g id="Node000001" class="node">
<title>Node1</title>
<g id="a_Node000001"><a xlink:title=" ">
<polygon fill="#999999" stroke="#666666" points="283.75,-304 186,-304 186,-272 283.75,-272 283.75,-304"/>
<text xml:space="preserve" text-anchor="start" x="194" y="-290.5" font-family="Helvetica,sans-Serif" font-size="10.00">include/core/pages</text>
<text xml:space="preserve" text-anchor="middle" x="234.88" y="-278.5" font-family="Helvetica,sans-Serif" font-size="10.00">/Page.hpp</text>
</a>
</g>
</g>
<!-- Node2 -->
<g id="Node000002" class="node">
<title>Node2</title>
<g id="a_Node000002"><a xlink:href="_control_page_8hpp.html" target="_top" xlink:title=" ">
<polygon fill="white" stroke="#666666" points="97.75,-168 0,-168 0,-136 97.75,-136 97.75,-168"/>
<text xml:space="preserve" text-anchor="start" x="8" y="-154.5" font-family="Helvetica,sans-Serif" font-size="10.00">include/core/pages</text>
<text xml:space="preserve" text-anchor="middle" x="48.88" y="-142.5" font-family="Helvetica,sans-Serif" font-size="10.00">/ControlPage.hpp</text>
</a>
</g>
</g>
<!-- Node1&#45;&gt;Node2 -->
<g id="edge1_Node000001_Node000002" class="edge">
<title>Node1&#45;&gt;Node2</title>
<g id="a_edge1_Node000001_Node000002"><a xlink:title=" ">
<path fill="none" stroke="#63b8ff" d="M203.06,-265.02C190.22,-256.08 175.3,-245.61 161.88,-236 129.42,-212.75 92.18,-185.23 69.59,-168.45"/>
<polygon fill="#63b8ff" stroke="#63b8ff" points="200.96,-267.82 211.17,-270.65 204.95,-262.07 200.96,-267.82"/>
</a>
</g>
</g>
<!-- Node5 -->
<g id="Node000005" class="node">
<title>Node5</title>
<g id="a_Node000005"><a xlink:href="_interactive_page_8hpp.html" target="_top" xlink:title=" ">
<polygon fill="white" stroke="#666666" points="221.88,-168 115.88,-168 115.88,-136 221.88,-136 221.88,-168"/>
<text xml:space="preserve" text-anchor="start" x="123.88" y="-154.5" font-family="Helvetica,sans-Serif" font-size="10.00">include/core/pages</text>
<text xml:space="preserve" text-anchor="middle" x="168.88" y="-142.5" font-family="Helvetica,sans-Serif" font-size="10.00">/InteractivePage.hpp</text>
</a>
</g>
</g>
<!-- Node1&#45;&gt;Node5 -->
<g id="edge4_Node000001_Node000005" class="edge">
<title>Node1&#45;&gt;Node5</title>
<g id="a_edge4_Node000001_Node000005"><a xlink:title=" ">
<path fill="none" stroke="#63b8ff" d="M198.85,-264.95C189.06,-257.09 179.59,-247.32 173.88,-236 163.01,-214.48 164.2,-185.71 166.33,-168.32"/>
<polygon fill="#63b8ff" stroke="#63b8ff" points="196.51,-267.57 206.62,-270.73 200.69,-261.96 196.51,-267.57"/>
</a>
</g>
</g>
<!-- Node6 -->
<g id="Node000006" class="node">
<title>Node6</title>
<g id="a_Node000006"><a xlink:href="_window_8hpp.html" target="_top" xlink:title=" ">
<polygon fill="white" stroke="#666666" points="287.12,-236 182.62,-236 182.62,-204 287.12,-204 287.12,-236"/>
<text xml:space="preserve" text-anchor="start" x="190.62" y="-222.5" font-family="Helvetica,sans-Serif" font-size="10.00">include/core/window</text>
<text xml:space="preserve" text-anchor="middle" x="234.88" y="-210.5" font-family="Helvetica,sans-Serif" font-size="10.00">/Window.hpp</text>
</a>
</g>
</g>
<!-- Node1&#45;&gt;Node6 -->
<g id="edge6_Node000001_Node000006" class="edge">
<title>Node1&#45;&gt;Node6</title>
<g id="a_edge6_Node000001_Node000006"><a xlink:title=" ">
<path fill="none" stroke="#63b8ff" d="M234.88,-260.31C234.88,-252.12 234.88,-243.38 234.88,-236.22"/>
<polygon fill="#63b8ff" stroke="#63b8ff" points="231.38,-260.18 234.88,-270.18 238.38,-260.18 231.38,-260.18"/>
</a>
</g>
</g>
<!-- Node7 -->
<g id="Node000007" class="node">
<title>Node7</title>
<g id="a_Node000007"><a xlink:href="_page_8cpp.html" target="_top" xlink:title="实现Page类及相关函数，负责界面生命周期、事件绑定、渲染等。">
<polygon fill="white" stroke="#666666" points="364.25,-162 239.5,-162 239.5,-142 364.25,-142 364.25,-162"/>
<text xml:space="preserve" text-anchor="middle" x="301.88" y="-148.5" font-family="Helvetica,sans-Serif" font-size="10.00">src/core/pages/Page.cpp</text>
</a>
</g>
</g>
<!-- Node1&#45;&gt;Node7 -->
<g id="edge11_Node000001_Node000007" class="edge">
<title>Node1&#45;&gt;Node7</title>
<g id="a_edge11_Node000001_Node000007"><a xlink:title=" ">
<path fill="none" stroke="#63b8ff" d="M270.82,-264.91C280.61,-257.04 290.09,-247.29 295.88,-236 308.26,-211.82 305.69,-178.39 303.45,-162.34"/>
<polygon fill="#63b8ff" stroke="#63b8ff" points="268.98,-261.91 263.05,-270.69 273.16,-267.53 268.98,-261.91"/>
</a>
</g>
</g>
<!-- Node8 -->
<g id="Node000008" class="node">
<title>Node8</title>
<g id="a_Node000008"><a xlink:href="_window_8cpp.html" target="_top" xlink:title=" ">
<polygon fill="white" stroke="#666666" points="525.62,-162 382.12,-162 382.12,-142 525.62,-142 525.62,-162"/>
<text xml:space="preserve" text-anchor="middle" x="453.88" y="-148.5" font-family="Helvetica,sans-Serif" font-size="10.00">src/core/window/Window.cpp</text>
</a>
</g>
</g>
<!-- Node1&#45;&gt;Node8 -->
<g id="edge12_Node000001_Node000008" class="edge">
<title>Node1&#45;&gt;Node8</title>
<g id="a_edge12_Node000001_Node000008"><a xlink:title=" ">
<path fill="none" stroke="#63b8ff" d="M269.73,-265.67C318.16,-236.04 403.74,-183.68 438.53,-162.39"/>
<polygon fill="#63b8ff" stroke="#63b8ff" points="267.99,-262.63 261.29,-270.84 271.64,-268.6 267.99,-262.63"/>
</a>
</g>
</g>
<!-- Node3 -->
<g id="Node000003" class="node">
<title>Node3</title>
<g id="a_Node000003"><a xlink:href="_complex_page_8hpp.html" target="_top" xlink:title=" ">
<polygon fill="white" stroke="#666666" points="158.5,-100 59.25,-100 59.25,-68 158.5,-68 158.5,-100"/>
<text xml:space="preserve" text-anchor="start" x="67.25" y="-86.5" font-family="Helvetica,sans-Serif" font-size="10.00">include/core/pages</text>
<text xml:space="preserve" text-anchor="middle" x="108.88" y="-74.5" font-family="Helvetica,sans-Serif" font-size="10.00">/ComplexPage.hpp</text>
</a>
</g>
</g>
<!-- Node2&#45;&gt;Node3 -->
<g id="edge2_Node000002_Node000003" class="edge">
<title>Node2&#45;&gt;Node3</title>
<g id="a_edge2_Node000002_Node000003"><a xlink:title=" ">
<path fill="none" stroke="#63b8ff" d="M70.3,-127.43C78.53,-118.38 87.7,-108.29 95.03,-100.22"/>
<polygon fill="#63b8ff" stroke="#63b8ff" points="67.95,-124.82 63.81,-134.57 73.13,-129.53 67.95,-124.82"/>
</a>
</g>
</g>
<!-- Node4 -->
<g id="Node000004" class="node">
<title>Node4</title>
<g id="a_Node000004"><a xlink:href="page__emplate_8hpp.html" target="_top" xlink:title=" ">
<polygon fill="white" stroke="#666666" points="158.12,-32 59.62,-32 59.62,0 158.12,0 158.12,-32"/>
<text xml:space="preserve" text-anchor="start" x="67.62" y="-18.5" font-family="Helvetica,sans-Serif" font-size="10.00">include/core/pages</text>
<text xml:space="preserve" text-anchor="middle" x="108.88" y="-6.5" font-family="Helvetica,sans-Serif" font-size="10.00">/page_emplate.hpp</text>
</a>
</g>
</g>
<!-- Node3&#45;&gt;Node4 -->
<g id="edge3_Node000003_Node000004" class="edge">
<title>Node3&#45;&gt;Node4</title>
<g id="a_edge3_Node000003_Node000004"><a xlink:title=" ">
<path fill="none" stroke="#63b8ff" d="M108.88,-56.31C108.88,-48.12 108.88,-39.38 108.88,-32.22"/>
<polygon fill="#63b8ff" stroke="#63b8ff" points="105.38,-56.18 108.88,-66.18 112.38,-56.18 105.38,-56.18"/>
</a>
</g>
</g>
<!-- Node5&#45;&gt;Node3 -->
<g id="edge5_Node000005_Node000003" class="edge">
<title>Node5&#45;&gt;Node3</title>
<g id="a_edge5_Node000005_Node000003"><a xlink:title=" ">
<path fill="none" stroke="#63b8ff" d="M147.45,-127.43C139.22,-118.38 130.05,-108.29 122.72,-100.22"/>
<polygon fill="#63b8ff" stroke="#63b8ff" points="144.62,-129.53 153.94,-134.57 149.8,-124.82 144.62,-129.53"/>
</a>
</g>
</g>
<!-- Node6&#45;&gt;Node2 -->
<g id="edge7_Node000006_Node000002" class="edge">
<title>Node6&#45;&gt;Node2</title>
<g id="a_edge7_Node000006_Node000002"><a xlink:title=" ">
<path fill="none" stroke="#63b8ff" d="M180.45,-199.69C152.46,-189.76 118.8,-177.81 92.53,-168.49"/>
<polygon fill="#63b8ff" stroke="#63b8ff" points="179.25,-202.97 189.84,-203.02 181.59,-196.38 179.25,-202.97"/>
</a>
</g>
</g>
<!-- Node6&#45;&gt;Node5 -->
<g id="edge8_Node000006_Node000005" class="edge">
<title>Node6&#45;&gt;Node5</title>
<g id="a_edge8_Node000006_Node000005"><a xlink:title=" ">
<path fill="none" stroke="#63b8ff" d="M211.58,-195.71C202.46,-186.59 192.25,-176.37 184.1,-168.22"/>
<polygon fill="#63b8ff" stroke="#63b8ff" points="208.95,-198.03 218.5,-202.62 213.9,-193.08 208.95,-198.03"/>
</a>
</g>
</g>
<!-- Node6&#45;&gt;Node7 -->
<g id="edge9_Node000006_Node000007" class="edge">
<title>Node6&#45;&gt;Node7</title>
<g id="a_edge9_Node000006_Node000007"><a xlink:title=" ">
<path fill="none" stroke="#63b8ff" d="M258.52,-195.71C270.2,-184.2 283.64,-170.97 292.42,-162.32"/>
<polygon fill="#63b8ff" stroke="#63b8ff" points="256.16,-193.12 251.49,-202.63 261.07,-198.11 256.16,-193.12"/>
</a>
</g>
</g>
<!-- Node6&#45;&gt;Node8 -->
<g id="edge10_Node000006_Node000008" class="edge">
<title>Node6&#45;&gt;Node8</title>
<g id="a_edge10_Node000006_Node000008"><a xlink:title=" ">
<path fill="none" stroke="#63b8ff" d="M297.18,-200.22C338.11,-187.89 389.91,-172.28 422.48,-162.46"/>
<polygon fill="#63b8ff" stroke="#63b8ff" points="296.23,-196.85 287.67,-203.09 298.25,-203.55 296.23,-196.85"/>
</a>
</g>
</g>
</g>
</svg>
