<?xml version="1.0" encoding="UTF-8" standalone="no"?>
<!DOCTYPE svg PUBLIC "-//W3C//DTD SVG 1.1//EN"
 "http://www.w3.org/Graphics/SVG/1.1/DTD/svg11.dtd">
<!-- Generated by graphviz version 13.0.0 (20250608.1624)
 -->
<!-- Title: include/customizable/components/TextureItem.hpp Pages: 1 -->
<!--zoomable 516 -->

<svg id="main" version="1.1" xmlns="http://www.w3.org/2000/svg" xmlns:xlink="http://www.w3.org/1999/xlink" xml:space="preserve" onload="init(evt)">

<style type="text/css"><![CDATA[
.node, .edge {opacity: 0.7;}
.node.selected, .edge.selected {opacity: 1;}
.edge:hover path { stroke: red; }
.edge:hover polygon { stroke: red; fill: red; }
]]></style>

<defs>
  <circle id="rim" cx="0" cy="0" r="7"/>
  <circle id="rim2" cx="0" cy="0" r="3.5"/>
  <g id="zoomPlus">
    <use xlink:href="#rim" fill="#404040"><set attributeName="fill" to="#808080" begin="zoomplus.mouseover" end="zoomplus.mouseout"/></use>
    <path d="M-4,0h8M0,-4v8" fill="none" stroke="white" stroke-width="1.5" pointer-events="none"/>
  </g>
  <g id="zoomMin">
    <use xlink:href="#rim" fill="#404040"><set attributeName="fill" to="#808080" begin="zoomminus.mouseover" end="zoomminus.mouseout"/></use>
    <path d="M-4,0h8" fill="none" stroke="white" stroke-width="1.5" pointer-events="none"/>
  </g>
  <g id="arrowUp" transform="translate(30 24)">
    <use xlink:href="#rim"/>
    <path pointer-events="none" fill="none" stroke="white" stroke-width="1.5" d="M0,-3.0v7 M-2.5,-0.5L0,-3.0L2.5,-0.5"/>
  </g>
  <g id="arrowRight" transform="rotate(90) translate(36 -43)">
    <use xlink:href="#rim"/>
    <path pointer-events="none" fill="none" stroke="white" stroke-width="1.5" d="M0,-3.0v7 M-2.5,-0.5L0,-3.0L2.5,-0.5"/>
  </g>
  <g id="arrowDown" transform="rotate(180) translate(-30 -48)">
    <use xlink:href="#rim"/>
    <path pointer-events="none" fill="none" stroke="white" stroke-width="1.5" d="M0,-3.0v7 M-2.5,-0.5L0,-3.0L2.5,-0.5"/>
  </g>
  <g id="arrowLeft" transform="rotate(270) translate(-36 17)">
    <use xlink:href="#rim"/>
    <path pointer-events="none" fill="none" stroke="white" stroke-width="1.5" d="M0,-3.0v7 M-2.5,-0.5L0,-3.0L2.5,-0.5"/>
  </g>
  <g id="resetDef">
    <use xlink:href="#rim2" fill="#404040"><set attributeName="fill" to="#808080" begin="reset.mouseover" end="reset.mouseout"/></use>
  </g>
</defs>
<script type="application/ecmascript">
var viewWidth = 726;
var viewHeight = 516;
var sectionId = 'dynsection-1';
</script>
<script type="application/ecmascript" xlink:href="svg.min.js"/>
<svg id="graph" class="graph">
<g id="viewport">
<title>include/customizable/components/TextureItem.hpp</title>
<!-- Node1 -->
<g id="Node000001" class="node">
<title>Node1</title>
<g id="a_Node000001"><a xlink:title=" ">
<polygon fill="#999999" stroke="#666666" points="452.12,-508 306.38,-508 306.38,-476 452.12,-476 452.12,-508"/>
<text xml:space="preserve" text-anchor="start" x="314.38" y="-494.5" font-family="Helvetica,sans-Serif" font-size="10.00">include/customizable</text>
<text xml:space="preserve" text-anchor="middle" x="379.25" y="-482.5" font-family="Helvetica,sans-Serif" font-size="10.00">/components/TextureItem.hpp</text>
</a>
</g>
</g>
<!-- Node2 -->
<g id="Node000002" class="node">
<title>Node2</title>
<g id="a_Node000002"><a xlink:href="_frame_animated_sprite_8hpp.html" target="_top" xlink:title=" ">
<polygon fill="white" stroke="#666666" points="188.5,-440 0,-440 0,-408 188.5,-408 188.5,-440"/>
<text xml:space="preserve" text-anchor="start" x="8" y="-426.5" font-family="Helvetica,sans-Serif" font-size="10.00">include/customizable</text>
<text xml:space="preserve" text-anchor="middle" x="94.25" y="-414.5" font-family="Helvetica,sans-Serif" font-size="10.00">/components/FrameAnimatedSprite.hpp</text>
</a>
</g>
</g>
<!-- Node1&#45;&gt;Node2 -->
<g id="edge1_Node000001_Node000002" class="edge">
<title>Node1&#45;&gt;Node2</title>
<g id="a_edge1_Node000001_Node000002"><a xlink:title=" ">
<path fill="none" stroke="#63b8ff" d="M301.22,-472.93C257.32,-462.76 203.08,-450.2 161.14,-440.49"/>
<polygon fill="#63b8ff" stroke="#63b8ff" points="300.42,-476.34 310.96,-475.18 302,-469.52 300.42,-476.34"/>
</a>
</g>
</g>
<!-- Node3 -->
<g id="Node000003" class="node">
<title>Node3</title>
<g id="a_Node000003"><a xlink:href="_time_animated_sprite_8hpp.html" target="_top" xlink:title=" ">
<polygon fill="white" stroke="#666666" points="389.5,-440 207,-440 207,-408 389.5,-408 389.5,-440"/>
<text xml:space="preserve" text-anchor="start" x="215" y="-426.5" font-family="Helvetica,sans-Serif" font-size="10.00">include/customizable</text>
<text xml:space="preserve" text-anchor="middle" x="298.25" y="-414.5" font-family="Helvetica,sans-Serif" font-size="10.00">/components/TimeAnimatedSprite.hpp</text>
</a>
</g>
</g>
<!-- Node1&#45;&gt;Node3 -->
<g id="edge2_Node000001_Node000003" class="edge">
<title>Node1&#45;&gt;Node3</title>
<g id="a_edge2_Node000001_Node000003"><a xlink:title=" ">
<path fill="none" stroke="#63b8ff" d="M351.76,-468.6C340.39,-459.34 327.5,-448.83 317.22,-440.45"/>
<polygon fill="#63b8ff" stroke="#63b8ff" points="349.33,-471.13 359.29,-474.74 353.75,-465.71 349.33,-471.13"/>
</a>
</g>
</g>
<!-- Node5 -->
<g id="Node000005" class="node">
<title>Node5</title>
<g id="a_Node000005"><a xlink:href="button_8hpp.html" target="_top" xlink:title=" ">
<polygon fill="white" stroke="#666666" points="515,-440 407.5,-440 407.5,-408 515,-408 515,-440"/>
<text xml:space="preserve" text-anchor="start" x="415.5" y="-426.5" font-family="Helvetica,sans-Serif" font-size="10.00">include/customizable</text>
<text xml:space="preserve" text-anchor="middle" x="461.25" y="-414.5" font-family="Helvetica,sans-Serif" font-size="10.00">/controls/button.hpp</text>
</a>
</g>
</g>
<!-- Node1&#45;&gt;Node5 -->
<g id="edge4_Node000001_Node000005" class="edge">
<title>Node1&#45;&gt;Node5</title>
<g id="a_edge4_Node000001_Node000005"><a xlink:title=" ">
<path fill="none" stroke="#63b8ff" d="M407.08,-468.6C418.59,-459.34 431.64,-448.83 442.05,-440.45"/>
<polygon fill="#63b8ff" stroke="#63b8ff" points="405.04,-465.75 399.45,-474.74 409.43,-471.2 405.04,-465.75"/>
</a>
</g>
</g>
<!-- Node16 -->
<g id="Node000016" class="node">
<title>Node16</title>
<g id="a_Node000016"><a xlink:href="_texture_item_8cpp.html" target="_top" xlink:title=" ">
<polygon fill="white" stroke="#666666" points="679.5,-440 533,-440 533,-408 679.5,-408 679.5,-440"/>
<text xml:space="preserve" text-anchor="start" x="541" y="-426.5" font-family="Helvetica,sans-Serif" font-size="10.00">src/customizable/components</text>
<text xml:space="preserve" text-anchor="middle" x="606.25" y="-414.5" font-family="Helvetica,sans-Serif" font-size="10.00">/TextureItem.cpp</text>
</a>
</g>
</g>
<!-- Node1&#45;&gt;Node16 -->
<g id="edge21_Node000001_Node000016" class="edge">
<title>Node1&#45;&gt;Node16</title>
<g id="a_edge21_Node000001_Node000016"><a xlink:title=" ">
<path fill="none" stroke="#63b8ff" d="M443.42,-472.34C478.01,-462.28 520.2,-450.02 552.97,-440.49"/>
<polygon fill="#63b8ff" stroke="#63b8ff" points="442.55,-468.95 433.92,-475.1 444.5,-475.67 442.55,-468.95"/>
</a>
</g>
</g>
<!-- Node4 -->
<g id="Node000004" class="node">
<title>Node4</title>
<g id="a_Node000004"><a xlink:href="_time_animated_sprite_8cpp.html" target="_top" xlink:title=" ">
<polygon fill="white" stroke="#666666" points="371.5,-372 225,-372 225,-340 371.5,-340 371.5,-372"/>
<text xml:space="preserve" text-anchor="start" x="233" y="-358.5" font-family="Helvetica,sans-Serif" font-size="10.00">src/customizable/components</text>
<text xml:space="preserve" text-anchor="middle" x="298.25" y="-346.5" font-family="Helvetica,sans-Serif" font-size="10.00">/TimeAnimatedSprite.cpp</text>
</a>
</g>
</g>
<!-- Node3&#45;&gt;Node4 -->
<g id="edge3_Node000003_Node000004" class="edge">
<title>Node3&#45;&gt;Node4</title>
<g id="a_edge3_Node000003_Node000004"><a xlink:title=" ">
<path fill="none" stroke="#63b8ff" d="M298.25,-396.31C298.25,-388.12 298.25,-379.38 298.25,-372.22"/>
<polygon fill="#63b8ff" stroke="#63b8ff" points="294.75,-396.18 298.25,-406.18 301.75,-396.18 294.75,-396.18"/>
</a>
</g>
</g>
<!-- Node6 -->
<g id="Node000006" class="node">
<title>Node6</title>
<g id="a_Node000006"><a xlink:href="_event_binding_8hpp.html" target="_top" xlink:title=" ">
<polygon fill="white" stroke="#666666" points="508.88,-372 397.62,-372 397.62,-340 508.88,-340 508.88,-372"/>
<text xml:space="preserve" text-anchor="start" x="405.62" y="-358.5" font-family="Helvetica,sans-Serif" font-size="10.00">include/core/message</text>
<text xml:space="preserve" text-anchor="middle" x="453.25" y="-346.5" font-family="Helvetica,sans-Serif" font-size="10.00">/EventBinding.hpp</text>
</a>
</g>
</g>
<!-- Node5&#45;&gt;Node6 -->
<g id="edge5_Node000005_Node000006" class="edge">
<title>Node5&#45;&gt;Node6</title>
<g id="a_edge5_Node000005_Node000006"><a xlink:title=" ">
<path fill="none" stroke="#63b8ff" d="M458.02,-396.31C457.02,-388.12 455.96,-379.38 455.1,-372.22"/>
<polygon fill="#63b8ff" stroke="#63b8ff" points="454.53,-396.68 459.21,-406.19 461.48,-395.84 454.53,-396.68"/>
</a>
</g>
</g>
<!-- Node10 -->
<g id="Node000010" class="node">
<title>Node10</title>
<g id="a_Node000010"><a xlink:href="page__emplate_8hpp.html" target="_top" xlink:title=" ">
<polygon fill="white" stroke="#666666" points="717.5,-32 619,-32 619,0 717.5,0 717.5,-32"/>
<text xml:space="preserve" text-anchor="start" x="627" y="-18.5" font-family="Helvetica,sans-Serif" font-size="10.00">include/core/pages</text>
<text xml:space="preserve" text-anchor="middle" x="668.25" y="-6.5" font-family="Helvetica,sans-Serif" font-size="10.00">/page_emplate.hpp</text>
</a>
</g>
</g>
<!-- Node5&#45;&gt;Node10 -->
<g id="edge20_Node000005_Node000010" class="edge">
<title>Node5&#45;&gt;Node10</title>
<g id="a_edge20_Node000005_Node000010"><a xlink:title=" ">
<path fill="none" stroke="#63b8ff" d="M520.45,-403.96C593.81,-378.53 709.25,-331.74 709.25,-289 709.25,-289 709.25,-289 709.25,-151 709.25,-106.24 688.07,-56.6 676.16,-32.21"/>
<polygon fill="#63b8ff" stroke="#63b8ff" points="519.71,-400.51 511.38,-407.06 521.98,-407.13 519.71,-400.51"/>
</a>
</g>
</g>
<!-- Node7 -->
<g id="Node000007" class="node">
<title>Node7</title>
<g id="a_Node000007"><a xlink:href="_page_8hpp.html" target="_top" xlink:title=" ">
<polygon fill="white" stroke="#666666" points="502.12,-304 404.38,-304 404.38,-272 502.12,-272 502.12,-304"/>
<text xml:space="preserve" text-anchor="start" x="412.38" y="-290.5" font-family="Helvetica,sans-Serif" font-size="10.00">include/core/pages</text>
<text xml:space="preserve" text-anchor="middle" x="453.25" y="-278.5" font-family="Helvetica,sans-Serif" font-size="10.00">/Page.hpp</text>
</a>
</g>
</g>
<!-- Node6&#45;&gt;Node7 -->
<g id="edge6_Node000006_Node000007" class="edge">
<title>Node6&#45;&gt;Node7</title>
<g id="a_edge6_Node000006_Node000007"><a xlink:title=" ">
<path fill="none" stroke="#63b8ff" d="M453.25,-328.31C453.25,-320.12 453.25,-311.38 453.25,-304.22"/>
<polygon fill="#63b8ff" stroke="#63b8ff" points="449.75,-328.18 453.25,-338.18 456.75,-328.18 449.75,-328.18"/>
</a>
</g>
</g>
<!-- Node15 -->
<g id="Node000015" class="node">
<title>Node15</title>
<g id="a_Node000015"><a xlink:href="_event_binding_8cpp.html" target="_top" xlink:title="实现EvectBingding类，负责事件与行为的绑定与触发。">
<polygon fill="white" stroke="#666666" points="386,-298 212.5,-298 212.5,-278 386,-278 386,-298"/>
<text xml:space="preserve" text-anchor="middle" x="299.25" y="-284.5" font-family="Helvetica,sans-Serif" font-size="10.00">src/core/message/EventBinding.cpp</text>
</a>
</g>
</g>
<!-- Node6&#45;&gt;Node15 -->
<g id="edge19_Node000006_Node000015" class="edge">
<title>Node6&#45;&gt;Node15</title>
<g id="a_edge19_Node000006_Node000015"><a xlink:title=" ">
<path fill="none" stroke="#63b8ff" d="M406.65,-335.03C378.34,-322.9 343.5,-307.96 321.32,-298.46"/>
<polygon fill="#63b8ff" stroke="#63b8ff" points="405.18,-338.21 415.75,-338.93 407.94,-331.77 405.18,-338.21"/>
</a>
</g>
</g>
<!-- Node8 -->
<g id="Node000008" class="node">
<title>Node8</title>
<g id="a_Node000008"><a xlink:href="_control_page_8hpp.html" target="_top" xlink:title=" ">
<polygon fill="white" stroke="#666666" points="253.12,-168 155.38,-168 155.38,-136 253.12,-136 253.12,-168"/>
<text xml:space="preserve" text-anchor="start" x="163.38" y="-154.5" font-family="Helvetica,sans-Serif" font-size="10.00">include/core/pages</text>
<text xml:space="preserve" text-anchor="middle" x="204.25" y="-142.5" font-family="Helvetica,sans-Serif" font-size="10.00">/ControlPage.hpp</text>
</a>
</g>
</g>
<!-- Node7&#45;&gt;Node8 -->
<g id="edge7_Node000007_Node000008" class="edge">
<title>Node7&#45;&gt;Node8</title>
<g id="a_edge7_Node000007_Node000008"><a xlink:title=" ">
<path fill="none" stroke="#63b8ff" d="M402.32,-267.32C380.92,-258.5 356.01,-247.51 334.25,-236 294.48,-214.97 250.93,-185.79 225.68,-168.22"/>
<polygon fill="#63b8ff" stroke="#63b8ff" points="400.84,-270.5 411.42,-271.02 403.48,-264.01 400.84,-270.5"/>
</a>
</g>
</g>
<!-- Node11 -->
<g id="Node000011" class="node">
<title>Node11</title>
<g id="a_Node000011"><a xlink:href="_interactive_page_8hpp.html" target="_top" xlink:title=" ">
<polygon fill="white" stroke="#666666" points="681.25,-168 575.25,-168 575.25,-136 681.25,-136 681.25,-168"/>
<text xml:space="preserve" text-anchor="start" x="583.25" y="-154.5" font-family="Helvetica,sans-Serif" font-size="10.00">include/core/pages</text>
<text xml:space="preserve" text-anchor="middle" x="628.25" y="-142.5" font-family="Helvetica,sans-Serif" font-size="10.00">/InteractivePage.hpp</text>
</a>
</g>
</g>
<!-- Node7&#45;&gt;Node11 -->
<g id="edge10_Node000007_Node000011" class="edge">
<title>Node7&#45;&gt;Node11</title>
<g id="a_edge10_Node000007_Node000011"><a xlink:title=" ">
<path fill="none" stroke="#63b8ff" d="M482.25,-264.79C517.83,-237.55 577.21,-192.08 608.14,-168.4"/>
<polygon fill="#63b8ff" stroke="#63b8ff" points="480.34,-261.85 474.53,-270.71 484.59,-267.41 480.34,-261.85"/>
</a>
</g>
</g>
<!-- Node12 -->
<g id="Node000012" class="node">
<title>Node12</title>
<g id="a_Node000012"><a xlink:href="_window_8hpp.html" target="_top" xlink:title=" ">
<polygon fill="white" stroke="#666666" points="465.5,-236 361,-236 361,-204 465.5,-204 465.5,-236"/>
<text xml:space="preserve" text-anchor="start" x="369" y="-222.5" font-family="Helvetica,sans-Serif" font-size="10.00">include/core/window</text>
<text xml:space="preserve" text-anchor="middle" x="413.25" y="-210.5" font-family="Helvetica,sans-Serif" font-size="10.00">/Window.hpp</text>
</a>
</g>
</g>
<!-- Node7&#45;&gt;Node12 -->
<g id="edge12_Node000007_Node000012" class="edge">
<title>Node7&#45;&gt;Node12</title>
<g id="a_edge12_Node000007_Node000012"><a xlink:title=" ">
<path fill="none" stroke="#63b8ff" d="M438.11,-262.02C432.85,-253.34 427.11,-243.88 422.48,-236.22"/>
<polygon fill="#63b8ff" stroke="#63b8ff" points="435.01,-263.66 443.19,-270.4 441,-260.03 435.01,-263.66"/>
</a>
</g>
</g>
<!-- Node13 -->
<g id="Node000013" class="node">
<title>Node13</title>
<g id="a_Node000013"><a xlink:href="_page_8cpp.html" target="_top" xlink:title="实现Page类及相关函数，负责界面生命周期、事件绑定、渲染等。">
<polygon fill="white" stroke="#666666" points="395.62,-162 270.88,-162 270.88,-142 395.62,-142 395.62,-162"/>
<text xml:space="preserve" text-anchor="middle" x="333.25" y="-148.5" font-family="Helvetica,sans-Serif" font-size="10.00">src/core/pages/Page.cpp</text>
</a>
</g>
</g>
<!-- Node7&#45;&gt;Node13 -->
<g id="edge17_Node000007_Node000013" class="edge">
<title>Node7&#45;&gt;Node13</title>
<g id="a_edge17_Node000007_Node000013"><a xlink:title=" ">
<path fill="none" stroke="#63b8ff" d="M393.93,-267.68C378.37,-260.03 362.98,-249.7 352.25,-236 334.94,-213.88 332.86,-178.88 332.94,-162.3"/>
<polygon fill="#63b8ff" stroke="#63b8ff" points="392.19,-270.73 402.74,-271.7 395.1,-264.36 392.19,-270.73"/>
</a>
</g>
</g>
<!-- Node14 -->
<g id="Node000014" class="node">
<title>Node14</title>
<g id="a_Node000014"><a xlink:href="_window_8cpp.html" target="_top" xlink:title=" ">
<polygon fill="white" stroke="#666666" points="557,-162 413.5,-162 413.5,-142 557,-142 557,-162"/>
<text xml:space="preserve" text-anchor="middle" x="485.25" y="-148.5" font-family="Helvetica,sans-Serif" font-size="10.00">src/core/window/Window.cpp</text>
</a>
</g>
</g>
<!-- Node7&#45;&gt;Node14 -->
<g id="edge18_Node000007_Node000014" class="edge">
<title>Node7&#45;&gt;Node14</title>
<g id="a_edge18_Node000007_Node000014"><a xlink:title=" ">
<path fill="none" stroke="#63b8ff" d="M465.36,-261.26C468.69,-253.31 472,-244.43 474.25,-236 481.23,-209.88 483.87,-177.9 484.8,-162.36"/>
<polygon fill="#63b8ff" stroke="#63b8ff" points="462.19,-259.79 461.36,-270.35 468.6,-262.61 462.19,-259.79"/>
</a>
</g>
</g>
<!-- Node9 -->
<g id="Node000009" class="node">
<title>Node9</title>
<g id="a_Node000009"><a xlink:href="_complex_page_8hpp.html" target="_top" xlink:title=" ">
<polygon fill="white" stroke="#666666" points="677.88,-100 578.62,-100 578.62,-68 677.88,-68 677.88,-100"/>
<text xml:space="preserve" text-anchor="start" x="586.62" y="-86.5" font-family="Helvetica,sans-Serif" font-size="10.00">include/core/pages</text>
<text xml:space="preserve" text-anchor="middle" x="628.25" y="-74.5" font-family="Helvetica,sans-Serif" font-size="10.00">/ComplexPage.hpp</text>
</a>
</g>
</g>
<!-- Node8&#45;&gt;Node9 -->
<g id="edge8_Node000008_Node000009" class="edge">
<title>Node8&#45;&gt;Node9</title>
<g id="a_edge8_Node000008_Node000009"><a xlink:title=" ">
<path fill="none" stroke="#63b8ff" d="M264.52,-135.68C382.27,-112.83 509.6,-97.58 578.22,-90.13"/>
<polygon fill="#63b8ff" stroke="#63b8ff" points="264.14,-132.19 255.01,-137.55 265.5,-139.06 264.14,-132.19"/>
</a>
</g>
</g>
<!-- Node9&#45;&gt;Node10 -->
<g id="edge9_Node000009_Node000010" class="edge">
<title>Node9&#45;&gt;Node10</title>
<g id="a_edge9_Node000009_Node000010"><a xlink:title=" ">
<path fill="none" stroke="#63b8ff" d="M643.39,-58.02C648.65,-49.34 654.39,-39.88 659.02,-32.22"/>
<polygon fill="#63b8ff" stroke="#63b8ff" points="640.5,-56.03 638.31,-66.4 646.49,-59.66 640.5,-56.03"/>
</a>
</g>
</g>
<!-- Node11&#45;&gt;Node9 -->
<g id="edge11_Node000011_Node000009" class="edge">
<title>Node11&#45;&gt;Node9</title>
<g id="a_edge11_Node000011_Node000009"><a xlink:title=" ">
<path fill="none" stroke="#63b8ff" d="M628.25,-124.31C628.25,-116.12 628.25,-107.38 628.25,-100.22"/>
<polygon fill="#63b8ff" stroke="#63b8ff" points="624.75,-124.18 628.25,-134.18 631.75,-124.18 624.75,-124.18"/>
</a>
</g>
</g>
<!-- Node12&#45;&gt;Node8 -->
<g id="edge13_Node000012_Node000008" class="edge">
<title>Node12&#45;&gt;Node8</title>
<g id="a_edge13_Node000012_Node000008"><a xlink:title=" ">
<path fill="none" stroke="#63b8ff" d="M353.34,-200.08C321.65,-190.07 283.21,-177.94 253.31,-168.49"/>
<polygon fill="#63b8ff" stroke="#63b8ff" points="352.22,-203.4 362.81,-203.07 354.32,-196.72 352.22,-203.4"/>
</a>
</g>
</g>
<!-- Node12&#45;&gt;Node11 -->
<g id="edge14_Node000012_Node000011" class="edge">
<title>Node12&#45;&gt;Node11</title>
<g id="a_edge14_Node000012_Node000011"><a xlink:title=" ">
<path fill="none" stroke="#63b8ff" d="M474.45,-200.21C507.14,-190.18 546.89,-177.98 577.79,-168.49"/>
<polygon fill="#63b8ff" stroke="#63b8ff" points="473.64,-196.8 465.1,-203.08 475.69,-203.49 473.64,-196.8"/>
</a>
</g>
</g>
<!-- Node12&#45;&gt;Node13 -->
<g id="edge15_Node000012_Node000013" class="edge">
<title>Node12&#45;&gt;Node13</title>
<g id="a_edge15_Node000012_Node000013"><a xlink:title=" ">
<path fill="none" stroke="#63b8ff" d="M385.83,-196.38C371.7,-184.72 355.23,-171.13 344.54,-162.32"/>
<polygon fill="#63b8ff" stroke="#63b8ff" points="383.59,-199.07 393.53,-202.73 388.04,-193.67 383.59,-199.07"/>
</a>
</g>
</g>
<!-- Node12&#45;&gt;Node14 -->
<g id="edge16_Node000012_Node000014" class="edge">
<title>Node12&#45;&gt;Node14</title>
<g id="a_edge16_Node000012_Node000014"><a xlink:title=" ">
<path fill="none" stroke="#63b8ff" d="M438.29,-196.04C450.93,-184.46 465.56,-171.05 475.09,-162.32"/>
<polygon fill="#63b8ff" stroke="#63b8ff" points="436.07,-193.33 431.06,-202.67 440.8,-198.49 436.07,-193.33"/>
</a>
</g>
</g>
</g>
</svg>

<g id="navigator" transform="translate(0 0)" fill="#404254">
  <rect fill="#f2f5e9" fill-opacity="0.5" stroke="#606060" stroke-width=".5" x="0" y="0" width="60" height="60"/>
  <use id="zoomplus" xlink:href="#zoomPlus" x="17" y="9" onmousedown="handleZoom(evt,'in')"/>
  <use id="zoomminus" xlink:href="#zoomMin" x="42" y="9" onmousedown="handleZoom(evt,'out')"/>
  <use id="reset" xlink:href="#resetDef" x="30" y="36" onmousedown="handleReset()"/>
   <use id="arrowup" xlink:href="#arrowUp" x="0" y="0" onmousedown="handlePan(0,-1)"/>
  <use id="arrowright" xlink:href="#arrowRight" x="0" y="0" onmousedown="handlePan(1,0)"/>
  <use id="arrowdown" xlink:href="#arrowDown" x="0" y="0" onmousedown="handlePan(0,1)"/>
  <use id="arrowleft" xlink:href="#arrowLeft" x="0" y="0" onmousedown="handlePan(-1,0)"/>
</g>
<svg viewBox="0 0 15 15" width="100%" height="30px" preserveAspectRatio="xMaxYMin meet">
 <g id="arrow_out" transform="scale(0.3 0.3)">
  <a xlink:href="_texture_item_8hpp__dep__incl_org.svg" target="_base">
   <rect id="button" ry="5" rx="5" y="6" x="6" height="38" width="38"
        fill="#f2f5e9" fill-opacity="0.5" stroke="#606060" stroke-width="1.0"/>
   <path id="arrow"
     d="M 11.500037,31.436501 C 11.940474,20.09759 22.043105,11.32322 32.158766,21.979434 L 37.068811,17.246167 C 37.068811,17.246167 37.088388,32 37.088388,32 L 22.160133,31.978069 C 22.160133,31.978069 26.997745,27.140456 26.997745,27.140456 C 18.528582,18.264221 13.291696,25.230495 11.500037,31.436501 z"
     style="fill:#404040;"/>
  </a>
 </g>
</svg>

<style type='text/css'>
<![CDATA[
[data-mouse-over-selected='false'] { opacity: 0.7; }
[data-mouse-over-selected='true']  { opacity: 1.0; }
]]>
</style>
<script type="application/ecmascript"><![CDATA[
document.addEventListener('DOMContentLoaded', (event) => {
  highlightEdges();
  highlightAdjacentNodes();
});
]]></script>
</svg>
