<?xml version="1.0" encoding="UTF-8" standalone="no"?>
<!DOCTYPE svg PUBLIC "-//W3C//DTD SVG 1.1//EN"
 "http://www.w3.org/Graphics/SVG/1.1/DTD/svg11.dtd">
<!-- Generated by graphviz version 13.0.0 (20250608.1624)
 -->
<!-- Title: include/customizable/components/TimeAnimatedSprite.hpp Pages: 1 -->
<svg width="191pt" height="152pt"
 viewBox="0.00 0.00 191.00 152.00" xmlns="http://www.w3.org/2000/svg" xmlns:xlink="http://www.w3.org/1999/xlink">
<g id="graph0" class="graph" transform="scale(1 1) rotate(0) translate(4 148)">
<title>include/customizable/components/TimeAnimatedSprite.hpp</title>
<!-- Node1 -->
<g id="Node000001" class="node">
<title>Node1</title>
<g id="a_Node000001"><a xlink:title=" ">
<polygon fill="#999999" stroke="#666666" points="182.5,-144 0,-144 0,-112 182.5,-112 182.5,-144"/>
<text xml:space="preserve" text-anchor="start" x="8" y="-130.5" font-family="Helvetica,sans-Serif" font-size="10.00">include/customizable</text>
<text xml:space="preserve" text-anchor="middle" x="91.25" y="-118.5" font-family="Helvetica,sans-Serif" font-size="10.00">/components/TimeAnimatedSprite.hpp</text>
</a>
</g>
</g>
<!-- Node2 -->
<g id="Node000002" class="node">
<title>Node2</title>
<g id="a_Node000002"><a xlink:href="_texture_item_8hpp.html" target="_top" xlink:title=" ">
<polygon fill="white" stroke="#666666" points="134.5,-76 48,-76 48,-56 134.5,-56 134.5,-76"/>
<text xml:space="preserve" text-anchor="middle" x="91.25" y="-62.5" font-family="Helvetica,sans-Serif" font-size="10.00">TextureItem.hpp</text>
</a>
</g>
</g>
<!-- Node1&#45;&gt;Node2 -->
<g id="edge1_Node000001_Node000002" class="edge">
<title>Node1&#45;&gt;Node2</title>
<g id="a_edge1_Node000001_Node000002"><a xlink:title=" ">
<path fill="none" stroke="#63b8ff" d="M91.25,-111.55C91.25,-104.34 91.25,-95.66 91.25,-87.88"/>
<polygon fill="#63b8ff" stroke="#63b8ff" points="94.75,-87.92 91.25,-77.92 87.75,-87.92 94.75,-87.92"/>
</a>
</g>
</g>
<!-- Node3 -->
<g id="Node000003" class="node">
<title>Node3</title>
<g id="a_Node000003"><a xlink:title=" ">
<polygon fill="#e0e0e0" stroke="#999999" points="142.75,-20 39.75,-20 39.75,0 142.75,0 142.75,-20"/>
<text xml:space="preserve" text-anchor="middle" x="91.25" y="-6.5" font-family="Helvetica,sans-Serif" font-size="10.00">SFML/Graphics.hpp</text>
</a>
</g>
</g>
<!-- Node2&#45;&gt;Node3 -->
<g id="edge2_Node000002_Node000003" class="edge">
<title>Node2&#45;&gt;Node3</title>
<g id="a_edge2_Node000002_Node000003"><a xlink:title=" ">
<path fill="none" stroke="#63b8ff" d="M91.25,-55.59C91.25,-49.01 91.25,-39.96 91.25,-31.73"/>
<polygon fill="#63b8ff" stroke="#63b8ff" points="94.75,-31.81 91.25,-21.81 87.75,-31.81 94.75,-31.81"/>
</a>
</g>
</g>
</g>
</svg>
