<?xml version="1.0" encoding="UTF-8" standalone="no"?>
<!DOCTYPE svg PUBLIC "-//W3C//DTD SVG 1.1//EN"
 "http://www.w3.org/Graphics/SVG/1.1/DTD/svg11.dtd">
<!-- Generated by graphviz version 13.0.0 (20250608.1624)
 -->
<!-- Title: include/customizable/controls/button.hpp Pages: 1 -->
<svg width="562pt" height="448pt"
 viewBox="0.00 0.00 562.00 448.00" xmlns="http://www.w3.org/2000/svg" xmlns:xlink="http://www.w3.org/1999/xlink">
<g id="graph0" class="graph" transform="scale(1 1) rotate(0) translate(4 444)">
<title>include/customizable/controls/button.hpp</title>
<!-- Node1 -->
<g id="Node000001" class="node">
<title>Node1</title>
<g id="a_Node000001"><a xlink:title=" ">
<polygon fill="#999999" stroke="#666666" points="117.75,-440 10.25,-440 10.25,-408 117.75,-408 117.75,-440"/>
<text xml:space="preserve" text-anchor="start" x="18.25" y="-426.5" font-family="Helvetica,sans-Serif" font-size="10.00">include/customizable</text>
<text xml:space="preserve" text-anchor="middle" x="64" y="-414.5" font-family="Helvetica,sans-Serif" font-size="10.00">/controls/button.hpp</text>
</a>
</g>
</g>
<!-- Node2 -->
<g id="Node000002" class="node">
<title>Node2</title>
<g id="a_Node000002"><a xlink:href="_event_binding_8hpp.html" target="_top" xlink:title=" ">
<polygon fill="white" stroke="#666666" points="174.62,-372 63.38,-372 63.38,-340 174.62,-340 174.62,-372"/>
<text xml:space="preserve" text-anchor="start" x="71.38" y="-358.5" font-family="Helvetica,sans-Serif" font-size="10.00">include/core/message</text>
<text xml:space="preserve" text-anchor="middle" x="119" y="-346.5" font-family="Helvetica,sans-Serif" font-size="10.00">/EventBinding.hpp</text>
</a>
</g>
</g>
<!-- Node1&#45;&gt;Node2 -->
<g id="edge1_Node000001_Node000002" class="edge">
<title>Node1&#45;&gt;Node2</title>
<g id="a_edge1_Node000001_Node000002"><a xlink:title=" ">
<path fill="none" stroke="#63b8ff" d="M84.11,-398.87C91.53,-389.96 99.73,-380.12 106.31,-372.22"/>
<polygon fill="#63b8ff" stroke="#63b8ff" points="81.44,-396.61 77.73,-406.53 86.82,-401.09 81.44,-396.61"/>
</a>
</g>
</g>
<!-- Node6 -->
<g id="Node000006" class="node">
<title>Node6</title>
<g id="a_Node000006"><a xlink:href="page__emplate_8hpp.html" target="_top" xlink:title=" ">
<polygon fill="white" stroke="#666666" points="170.25,-32 71.75,-32 71.75,0 170.25,0 170.25,-32"/>
<text xml:space="preserve" text-anchor="start" x="79.75" y="-18.5" font-family="Helvetica,sans-Serif" font-size="10.00">include/core/pages</text>
<text xml:space="preserve" text-anchor="middle" x="121" y="-6.5" font-family="Helvetica,sans-Serif" font-size="10.00">/page_emplate.hpp</text>
</a>
</g>
</g>
<!-- Node1&#45;&gt;Node6 -->
<g id="edge16_Node000001_Node000006" class="edge">
<title>Node1&#45;&gt;Node6</title>
<g id="a_edge16_Node000001_Node000006"><a xlink:title=" ">
<path fill="none" stroke="#63b8ff" d="M44.23,-398.67C25.43,-373.01 0,-330.61 0,-289 0,-289 0,-289 0,-151 0,-96.3 56.22,-53.91 92.02,-32.47"/>
<polygon fill="#63b8ff" stroke="#63b8ff" points="41.3,-400.59 50.13,-406.44 46.88,-396.36 41.3,-400.59"/>
</a>
</g>
</g>
<!-- Node3 -->
<g id="Node000003" class="node">
<title>Node3</title>
<g id="a_Node000003"><a xlink:href="_page_8hpp.html" target="_top" xlink:title=" ">
<polygon fill="white" stroke="#666666" points="328.88,-304 231.12,-304 231.12,-272 328.88,-272 328.88,-304"/>
<text xml:space="preserve" text-anchor="start" x="239.12" y="-290.5" font-family="Helvetica,sans-Serif" font-size="10.00">include/core/pages</text>
<text xml:space="preserve" text-anchor="middle" x="280" y="-278.5" font-family="Helvetica,sans-Serif" font-size="10.00">/Page.hpp</text>
</a>
</g>
</g>
<!-- Node2&#45;&gt;Node3 -->
<g id="edge2_Node000002_Node000003" class="edge">
<title>Node2&#45;&gt;Node3</title>
<g id="a_edge2_Node000002_Node000003"><a xlink:title=" ">
<path fill="none" stroke="#63b8ff" d="M167.08,-335.29C191.11,-325.44 219.78,-313.69 242.21,-304.49"/>
<polygon fill="#63b8ff" stroke="#63b8ff" points="166.07,-331.92 158.15,-338.95 168.73,-338.4 166.07,-331.92"/>
</a>
</g>
</g>
<!-- Node11 -->
<g id="Node000011" class="node">
<title>Node11</title>
<g id="a_Node000011"><a xlink:href="_event_binding_8cpp.html" target="_top" xlink:title="实现EvectBingding类，负责事件与行为的绑定与触发。">
<polygon fill="white" stroke="#666666" points="205.75,-298 32.25,-298 32.25,-278 205.75,-278 205.75,-298"/>
<text xml:space="preserve" text-anchor="middle" x="119" y="-284.5" font-family="Helvetica,sans-Serif" font-size="10.00">src/core/message/EventBinding.cpp</text>
</a>
</g>
</g>
<!-- Node2&#45;&gt;Node11 -->
<g id="edge15_Node000002_Node000011" class="edge">
<title>Node2&#45;&gt;Node11</title>
<g id="a_edge15_Node000002_Node000011"><a xlink:title=" ">
<path fill="none" stroke="#63b8ff" d="M119,-328.31C119,-317.67 119,-306.13 119,-298.32"/>
<polygon fill="#63b8ff" stroke="#63b8ff" points="115.5,-328.18 119,-338.18 122.5,-328.18 115.5,-328.18"/>
</a>
</g>
</g>
<!-- Node4 -->
<g id="Node000004" class="node">
<title>Node4</title>
<g id="a_Node000004"><a xlink:href="_control_page_8hpp.html" target="_top" xlink:title=" ">
<polygon fill="white" stroke="#666666" points="411.88,-168 314.12,-168 314.12,-136 411.88,-136 411.88,-168"/>
<text xml:space="preserve" text-anchor="start" x="322.12" y="-154.5" font-family="Helvetica,sans-Serif" font-size="10.00">include/core/pages</text>
<text xml:space="preserve" text-anchor="middle" x="363" y="-142.5" font-family="Helvetica,sans-Serif" font-size="10.00">/ControlPage.hpp</text>
</a>
</g>
</g>
<!-- Node3&#45;&gt;Node4 -->
<g id="edge3_Node000003_Node000004" class="edge">
<title>Node3&#45;&gt;Node4</title>
<g id="a_edge3_Node000003_Node000004"><a xlink:title=" ">
<path fill="none" stroke="#63b8ff" d="M316.05,-265.05C326.46,-257.1 336.92,-247.25 344,-236 357.22,-214.98 361.27,-185.8 362.5,-168.23"/>
<polygon fill="#63b8ff" stroke="#63b8ff" points="314.3,-262 308.22,-270.67 318.38,-267.69 314.3,-262"/>
</a>
</g>
</g>
<!-- Node7 -->
<g id="Node000007" class="node">
<title>Node7</title>
<g id="a_Node000007"><a xlink:href="_interactive_page_8hpp.html" target="_top" xlink:title=" ">
<polygon fill="white" stroke="#666666" points="296,-168 190,-168 190,-136 296,-136 296,-168"/>
<text xml:space="preserve" text-anchor="start" x="198" y="-154.5" font-family="Helvetica,sans-Serif" font-size="10.00">include/core/pages</text>
<text xml:space="preserve" text-anchor="middle" x="243" y="-142.5" font-family="Helvetica,sans-Serif" font-size="10.00">/InteractivePage.hpp</text>
</a>
</g>
</g>
<!-- Node3&#45;&gt;Node7 -->
<g id="edge6_Node000003_Node000007" class="edge">
<title>Node3&#45;&gt;Node7</title>
<g id="a_edge6_Node000003_Node000007"><a xlink:title=" ">
<path fill="none" stroke="#63b8ff" d="M245.02,-264.59C235.8,-256.76 227.02,-247.11 222,-236 211.83,-213.52 223.68,-185.29 233.27,-168.23"/>
<polygon fill="#63b8ff" stroke="#63b8ff" points="242.67,-267.19 252.71,-270.59 246.98,-261.68 242.67,-267.19"/>
</a>
</g>
</g>
<!-- Node8 -->
<g id="Node000008" class="node">
<title>Node8</title>
<g id="a_Node000008"><a xlink:href="_window_8hpp.html" target="_top" xlink:title=" ">
<polygon fill="white" stroke="#666666" points="335.25,-236 230.75,-236 230.75,-204 335.25,-204 335.25,-236"/>
<text xml:space="preserve" text-anchor="start" x="238.75" y="-222.5" font-family="Helvetica,sans-Serif" font-size="10.00">include/core/window</text>
<text xml:space="preserve" text-anchor="middle" x="283" y="-210.5" font-family="Helvetica,sans-Serif" font-size="10.00">/Window.hpp</text>
</a>
</g>
</g>
<!-- Node3&#45;&gt;Node8 -->
<g id="edge8_Node000003_Node000008" class="edge">
<title>Node3&#45;&gt;Node8</title>
<g id="a_edge8_Node000003_Node000008"><a xlink:title=" ">
<path fill="none" stroke="#63b8ff" d="M281.21,-260.31C281.59,-252.12 281.98,-243.38 282.31,-236.22"/>
<polygon fill="#63b8ff" stroke="#63b8ff" points="277.72,-260.03 280.76,-270.18 284.72,-260.35 277.72,-260.03"/>
</a>
</g>
</g>
<!-- Node9 -->
<g id="Node000009" class="node">
<title>Node9</title>
<g id="a_Node000009"><a xlink:href="_page_8cpp.html" target="_top" xlink:title="实现Page类及相关函数，负责界面生命周期、事件绑定、渲染等。">
<polygon fill="white" stroke="#666666" points="554.38,-162 429.62,-162 429.62,-142 554.38,-142 554.38,-162"/>
<text xml:space="preserve" text-anchor="middle" x="492" y="-148.5" font-family="Helvetica,sans-Serif" font-size="10.00">src/core/pages/Page.cpp</text>
</a>
</g>
</g>
<!-- Node3&#45;&gt;Node9 -->
<g id="edge13_Node000003_Node000009" class="edge">
<title>Node3&#45;&gt;Node9</title>
<g id="a_edge13_Node000003_Node000009"><a xlink:title=" ">
<path fill="none" stroke="#63b8ff" d="M315.32,-265.87C330.39,-256.78 348.12,-245.97 364,-236 405.73,-209.81 454.39,-177.86 477.88,-162.35"/>
<polygon fill="#63b8ff" stroke="#63b8ff" points="313.91,-262.63 307.15,-270.79 317.52,-268.63 313.91,-262.63"/>
</a>
</g>
</g>
<!-- Node10 -->
<g id="Node000010" class="node">
<title>Node10</title>
<g id="a_Node000010"><a xlink:href="_window_8cpp.html" target="_top" xlink:title=" ">
<polygon fill="white" stroke="#666666" points="171.75,-162 28.25,-162 28.25,-142 171.75,-142 171.75,-162"/>
<text xml:space="preserve" text-anchor="middle" x="100" y="-148.5" font-family="Helvetica,sans-Serif" font-size="10.00">src/core/window/Window.cpp</text>
</a>
</g>
</g>
<!-- Node3&#45;&gt;Node10 -->
<g id="edge14_Node000003_Node000010" class="edge">
<title>Node3&#45;&gt;Node10</title>
<g id="a_edge14_Node000003_Node000010"><a xlink:title=" ">
<path fill="none" stroke="#63b8ff" d="M250.32,-264.9C210.24,-235.07 140.59,-183.22 112.39,-162.22"/>
<polygon fill="#63b8ff" stroke="#63b8ff" points="248.03,-267.56 258.14,-270.72 252.21,-261.95 248.03,-267.56"/>
</a>
</g>
</g>
<!-- Node5 -->
<g id="Node000005" class="node">
<title>Node5</title>
<g id="a_Node000005"><a xlink:href="_complex_page_8hpp.html" target="_top" xlink:title=" ">
<polygon fill="white" stroke="#666666" points="292.62,-100 193.38,-100 193.38,-68 292.62,-68 292.62,-100"/>
<text xml:space="preserve" text-anchor="start" x="201.38" y="-86.5" font-family="Helvetica,sans-Serif" font-size="10.00">include/core/pages</text>
<text xml:space="preserve" text-anchor="middle" x="243" y="-74.5" font-family="Helvetica,sans-Serif" font-size="10.00">/ComplexPage.hpp</text>
</a>
</g>
</g>
<!-- Node4&#45;&gt;Node5 -->
<g id="edge4_Node000004_Node000005" class="edge">
<title>Node4&#45;&gt;Node5</title>
<g id="a_edge4_Node000004_Node000005"><a xlink:title=" ">
<path fill="none" stroke="#63b8ff" d="M324.94,-130.07C307.43,-120.44 287.03,-109.21 270.96,-100.38"/>
<polygon fill="#63b8ff" stroke="#63b8ff" points="323.09,-133.04 333.54,-134.8 326.46,-126.91 323.09,-133.04"/>
</a>
</g>
</g>
<!-- Node5&#45;&gt;Node6 -->
<g id="edge5_Node000005_Node000006" class="edge">
<title>Node5&#45;&gt;Node6</title>
<g id="a_edge5_Node000005_Node000006"><a xlink:title=" ">
<path fill="none" stroke="#63b8ff" d="M204.31,-62.07C186.5,-52.44 165.76,-41.21 149.42,-32.38"/>
<polygon fill="#63b8ff" stroke="#63b8ff" points="202.6,-65.13 213.07,-66.81 205.94,-58.97 202.6,-65.13"/>
</a>
</g>
</g>
<!-- Node7&#45;&gt;Node5 -->
<g id="edge7_Node000007_Node000005" class="edge">
<title>Node7&#45;&gt;Node5</title>
<g id="a_edge7_Node000007_Node000005"><a xlink:title=" ">
<path fill="none" stroke="#63b8ff" d="M243,-124.31C243,-116.12 243,-107.38 243,-100.22"/>
<polygon fill="#63b8ff" stroke="#63b8ff" points="239.5,-124.18 243,-134.18 246.5,-124.18 239.5,-124.18"/>
</a>
</g>
</g>
<!-- Node8&#45;&gt;Node4 -->
<g id="edge9_Node000008_Node000004" class="edge">
<title>Node8&#45;&gt;Node4</title>
<g id="a_edge9_Node000008_Node000004"><a xlink:title=" ">
<path fill="none" stroke="#63b8ff" d="M310.15,-196.6C321.38,-187.34 334.11,-176.83 344.27,-168.45"/>
<polygon fill="#63b8ff" stroke="#63b8ff" points="308.21,-193.67 302.72,-202.73 312.66,-199.07 308.21,-193.67"/>
</a>
</g>
</g>
<!-- Node8&#45;&gt;Node7 -->
<g id="edge10_Node000008_Node000007" class="edge">
<title>Node8&#45;&gt;Node7</title>
<g id="a_edge10_Node000008_Node000007"><a xlink:title=" ">
<path fill="none" stroke="#63b8ff" d="M267.86,-194.02C262.6,-185.34 256.86,-175.88 252.23,-168.22"/>
<polygon fill="#63b8ff" stroke="#63b8ff" points="264.76,-195.66 272.94,-202.4 270.75,-192.03 264.76,-195.66"/>
</a>
</g>
</g>
<!-- Node8&#45;&gt;Node9 -->
<g id="edge11_Node000008_Node000009" class="edge">
<title>Node8&#45;&gt;Node9</title>
<g id="a_edge11_Node000008_Node000009"><a xlink:title=" ">
<path fill="none" stroke="#63b8ff" d="M342.96,-200.07C381.94,-187.76 431.09,-172.23 462.04,-162.46"/>
<polygon fill="#63b8ff" stroke="#63b8ff" points="341.93,-196.72 333.44,-203.07 344.03,-203.4 341.93,-196.72"/>
</a>
</g>
</g>
<!-- Node8&#45;&gt;Node10 -->
<g id="edge12_Node000008_Node000010" class="edge">
<title>Node8&#45;&gt;Node10</title>
<g id="a_edge12_Node000008_Node000010"><a xlink:title=" ">
<path fill="none" stroke="#63b8ff" d="M229.4,-199.67C195.45,-187.42 153.04,-172.13 126.23,-162.46"/>
<polygon fill="#63b8ff" stroke="#63b8ff" points="228.08,-202.91 238.67,-203.01 230.45,-196.33 228.08,-202.91"/>
</a>
</g>
</g>
</g>
</svg>
