<?xml version="1.0" encoding="UTF-8" standalone="no"?>
<!DOCTYPE svg PUBLIC "-//W3C//DTD SVG 1.1//EN"
 "http://www.w3.org/Graphics/SVG/1.1/DTD/svg11.dtd">
<!-- Generated by graphviz version 13.0.0 (20250608.1624)
 -->
<!-- Title: sfui::Window::procesMessage Pages: 1 -->
<svg width="680pt" height="103pt"
 viewBox="0.00 0.00 680.00 103.00" xmlns="http://www.w3.org/2000/svg" xmlns:xlink="http://www.w3.org/1999/xlink">
<g id="graph0" class="graph" transform="scale(1 1) rotate(0) translate(4 99)">
<title>sfui::Window::procesMessage</title>
<!-- Node1 -->
<g id="Node000001" class="node">
<title>Node1</title>
<g id="a_Node000001"><a xlink:title="处理窗口和页面事件，收到关闭事件时关闭窗口。">
<polygon fill="#999999" stroke="#666666" points="148,-51 0,-51 0,-31 148,-31 148,-51"/>
<text xml:space="preserve" text-anchor="middle" x="74" y="-37.5" font-family="Helvetica,sans-Serif" font-size="10.00">sfui::Window::procesMessage</text>
</a>
</g>
</g>
<!-- Node2 -->
<g id="Node000002" class="node">
<title>Node2</title>
<g id="a_Node000002"><a xlink:href="classsfui_1_1_window.html#adfd7ab642e978cb4bac3b6ccb2093712" target="_top" xlink:title="处理SFML事件输入。">
<polygon fill="white" stroke="#666666" points="317,-82 184,-82 184,-50 317,-50 317,-82"/>
<text xml:space="preserve" text-anchor="start" x="192" y="-68.5" font-family="Helvetica,sans-Serif" font-size="10.00">sfui::Window::handleEvent</text>
<text xml:space="preserve" text-anchor="middle" x="250.5" y="-56.5" font-family="Helvetica,sans-Serif" font-size="10.00">Input</text>
</a>
</g>
</g>
<!-- Node1&#45;&gt;Node2 -->
<g id="edge1_Node000001_Node000002" class="edge">
<title>Node1&#45;&gt;Node2</title>
<g id="a_edge1_Node000001_Node000002"><a xlink:title=" ">
<path fill="none" stroke="#63b8ff" d="M148.25,-51.49C156.23,-52.64 164.38,-53.81 172.41,-54.96"/>
<polygon fill="#63b8ff" stroke="#63b8ff" points="171.77,-58.4 182.16,-56.35 172.76,-51.47 171.77,-58.4"/>
</a>
</g>
</g>
<!-- Node6 -->
<g id="Node000006" class="node">
<title>Node6</title>
<g id="a_Node000006"><a xlink:href="classsfui_1_1_window.html#a68d87b1a8809900eda49a26c0a919f10" target="_top" xlink:title="处理实时输入。">
<polygon fill="white" stroke="#666666" points="314.38,-32 186.62,-32 186.62,0 314.38,0 314.38,-32"/>
<text xml:space="preserve" text-anchor="start" x="194.62" y="-18.5" font-family="Helvetica,sans-Serif" font-size="10.00">sfui::Window::handleReal</text>
<text xml:space="preserve" text-anchor="middle" x="250.5" y="-6.5" font-family="Helvetica,sans-Serif" font-size="10.00">TimeInput</text>
</a>
</g>
</g>
<!-- Node1&#45;&gt;Node6 -->
<g id="edge5_Node000001_Node000006" class="edge">
<title>Node1&#45;&gt;Node6</title>
<g id="a_edge5_Node000001_Node000006"><a xlink:title=" ">
<path fill="none" stroke="#63b8ff" d="M148.25,-30.51C157.1,-29.24 166.15,-27.94 175.02,-26.67"/>
<polygon fill="#63b8ff" stroke="#63b8ff" points="175.23,-30.18 184.63,-25.29 174.24,-23.25 175.23,-30.18"/>
</a>
</g>
</g>
<!-- Node3 -->
<g id="Node000003" class="node">
<title>Node3</title>
<g id="a_Node000003"><a xlink:href="classsfui_1_1_window.html#ae92de433502a60e90de1494307e91291" target="_top" xlink:title="切换窗口/全屏模式。">
<polygon fill="white" stroke="#666666" points="503.25,-76 353,-76 353,-56 503.25,-56 503.25,-76"/>
<text xml:space="preserve" text-anchor="middle" x="428.12" y="-62.5" font-family="Helvetica,sans-Serif" font-size="10.00">sfui::Window::toggleFullscreen</text>
</a>
</g>
</g>
<!-- Node2&#45;&gt;Node3 -->
<g id="edge2_Node000002_Node000003" class="edge">
<title>Node2&#45;&gt;Node3</title>
<g id="a_edge2_Node000002_Node000003"><a xlink:title=" ">
<path fill="none" stroke="#63b8ff" d="M317.4,-66C325.2,-66 333.26,-66 341.29,-66"/>
<polygon fill="#63b8ff" stroke="#63b8ff" points="341.08,-69.5 351.08,-66 341.08,-62.5 341.08,-69.5"/>
</a>
</g>
</g>
<!-- Node4 -->
<g id="Node000004" class="node">
<title>Node4</title>
<g id="a_Node000004"><a xlink:href="classsfui_1_1_window.html#a2643f2d69c4b1e042e27cb4c0eccb30e" target="_top" xlink:title="切换到全屏模式。">
<polygon fill="white" stroke="#666666" points="671.88,-95 539.62,-95 539.62,-75 671.88,-75 671.88,-95"/>
<text xml:space="preserve" text-anchor="middle" x="605.75" y="-81.5" font-family="Helvetica,sans-Serif" font-size="10.00">sfui::Window::toFullscreen</text>
</a>
</g>
</g>
<!-- Node3&#45;&gt;Node4 -->
<g id="edge3_Node000003_Node000004" class="edge">
<title>Node3&#45;&gt;Node4</title>
<g id="a_edge3_Node000003_Node000004"><a xlink:title=" ">
<path fill="none" stroke="#63b8ff" d="M503.61,-74.06C511.68,-74.93 519.9,-75.82 528,-76.7"/>
<polygon fill="#63b8ff" stroke="#63b8ff" points="527.51,-80.16 537.82,-77.76 528.26,-73.2 527.51,-80.16"/>
</a>
</g>
</g>
<!-- Node5 -->
<g id="Node000005" class="node">
<title>Node5</title>
<g id="a_Node000005"><a xlink:href="classsfui_1_1_window.html#a981375b53a47466a633fe41b3ce66361" target="_top" xlink:title="切换到窗口模式。">
<polygon fill="white" stroke="#666666" points="672.25,-57 539.25,-57 539.25,-37 672.25,-37 672.25,-57"/>
<text xml:space="preserve" text-anchor="middle" x="605.75" y="-43.5" font-family="Helvetica,sans-Serif" font-size="10.00">sfui::Window::toWindowed</text>
</a>
</g>
</g>
<!-- Node3&#45;&gt;Node5 -->
<g id="edge4_Node000003_Node000005" class="edge">
<title>Node3&#45;&gt;Node5</title>
<g id="a_edge4_Node000003_Node000005"><a xlink:title=" ">
<path fill="none" stroke="#63b8ff" d="M503.61,-57.94C511.46,-57.09 519.45,-56.23 527.34,-55.37"/>
<polygon fill="#63b8ff" stroke="#63b8ff" points="527.71,-58.86 537.27,-54.3 526.95,-51.9 527.71,-58.86"/>
</a>
</g>
</g>
</g>
</svg>
