<?xml version="1.0" encoding="UTF-8" standalone="no"?>
<!DOCTYPE svg PUBLIC "-//W3C//DTD SVG 1.1//EN"
 "http://www.w3.org/Graphics/SVG/1.1/DTD/svg11.dtd">
<!-- Generated by graphviz version 13.0.0 (20250608.1624)
 -->
<!-- Title: sfui::Window::startShow Pages: 1 -->
<!--zoomable 128 -->

<svg id="main" version="1.1" xmlns="http://www.w3.org/2000/svg" xmlns:xlink="http://www.w3.org/1999/xlink" xml:space="preserve" onload="init(evt)">

<style type="text/css"><![CDATA[
.node, .edge {opacity: 0.7;}
.node.selected, .edge.selected {opacity: 1;}
.edge:hover path { stroke: red; }
.edge:hover polygon { stroke: red; fill: red; }
]]></style>

<defs>
  <circle id="rim" cx="0" cy="0" r="7"/>
  <circle id="rim2" cx="0" cy="0" r="3.5"/>
  <g id="zoomPlus">
    <use xlink:href="#rim" fill="#404040"><set attributeName="fill" to="#808080" begin="zoomplus.mouseover" end="zoomplus.mouseout"/></use>
    <path d="M-4,0h8M0,-4v8" fill="none" stroke="white" stroke-width="1.5" pointer-events="none"/>
  </g>
  <g id="zoomMin">
    <use xlink:href="#rim" fill="#404040"><set attributeName="fill" to="#808080" begin="zoomminus.mouseover" end="zoomminus.mouseout"/></use>
    <path d="M-4,0h8" fill="none" stroke="white" stroke-width="1.5" pointer-events="none"/>
  </g>
  <g id="arrowUp" transform="translate(30 24)">
    <use xlink:href="#rim"/>
    <path pointer-events="none" fill="none" stroke="white" stroke-width="1.5" d="M0,-3.0v7 M-2.5,-0.5L0,-3.0L2.5,-0.5"/>
  </g>
  <g id="arrowRight" transform="rotate(90) translate(36 -43)">
    <use xlink:href="#rim"/>
    <path pointer-events="none" fill="none" stroke="white" stroke-width="1.5" d="M0,-3.0v7 M-2.5,-0.5L0,-3.0L2.5,-0.5"/>
  </g>
  <g id="arrowDown" transform="rotate(180) translate(-30 -48)">
    <use xlink:href="#rim"/>
    <path pointer-events="none" fill="none" stroke="white" stroke-width="1.5" d="M0,-3.0v7 M-2.5,-0.5L0,-3.0L2.5,-0.5"/>
  </g>
  <g id="arrowLeft" transform="rotate(270) translate(-36 17)">
    <use xlink:href="#rim"/>
    <path pointer-events="none" fill="none" stroke="white" stroke-width="1.5" d="M0,-3.0v7 M-2.5,-0.5L0,-3.0L2.5,-0.5"/>
  </g>
  <g id="resetDef">
    <use xlink:href="#rim2" fill="#404040"><set attributeName="fill" to="#808080" begin="reset.mouseover" end="reset.mouseout"/></use>
  </g>
</defs>
<script type="application/ecmascript">
var viewWidth = 840;
var viewHeight = 128;
var sectionId = 'dynsection-8';
</script>
<script type="application/ecmascript" xlink:href="svg.min.js"/>
<svg id="graph" class="graph">
<g id="viewport">
<title>sfui::Window::startShow</title>
<!-- Node1 -->
<g id="Node000001" class="node">
<title>Node1</title>
<g id="a_Node000001"><a xlink:title="显示首页并进入主循环。">
<polygon fill="#999999" stroke="#666666" points="123.25,-76 0,-76 0,-56 123.25,-56 123.25,-76"/>
<text xml:space="preserve" text-anchor="middle" x="61.62" y="-62.5" font-family="Helvetica,sans-Serif" font-size="10.00">sfui::Window::startShow</text>
</a>
</g>
</g>
<!-- Node2 -->
<g id="Node000002" class="node">
<title>Node2</title>
<g id="a_Node000002"><a xlink:href="classsfui_1_1_window.html#ac3654758cf94834f792bb540e3631f2c" target="_top" xlink:title="绘制当前帧到窗口。">
<polygon fill="white" stroke="#666666" points="297.12,-117 169.38,-117 169.38,-97 297.12,-97 297.12,-117"/>
<text xml:space="preserve" text-anchor="middle" x="233.25" y="-103.5" font-family="Helvetica,sans-Serif" font-size="10.00">sfui::Window::drawFrame</text>
</a>
</g>
</g>
<!-- Node1&#45;&gt;Node2 -->
<g id="edge1_Node000001_Node000002" class="edge">
<title>Node1&#45;&gt;Node2</title>
<g id="a_edge1_Node000001_Node000002"><a xlink:title=" ">
<path fill="none" stroke="#63b8ff" d="M105.87,-76.45C127.8,-81.75 154.66,-88.25 177.97,-93.88"/>
<polygon fill="#63b8ff" stroke="#63b8ff" points="177.07,-97.26 187.62,-96.21 178.72,-90.46 177.07,-97.26"/>
</a>
</g>
</g>
<!-- Node4 -->
<g id="Node000004" class="node">
<title>Node4</title>
<g id="a_Node000004"><a xlink:href="classsfui_1_1_window.html#a2ab4ee75de63cdb7df571d69bc2902a1" target="_top" xlink:title="处理窗口和页面事件，收到关闭事件时关闭窗口。">
<polygon fill="white" stroke="#666666" points="307.25,-76 159.25,-76 159.25,-56 307.25,-56 307.25,-76"/>
<text xml:space="preserve" text-anchor="middle" x="233.25" y="-62.5" font-family="Helvetica,sans-Serif" font-size="10.00">sfui::Window::procesMessage</text>
</a>
</g>
</g>
<!-- Node1&#45;&gt;Node4 -->
<g id="edge3_Node000001_Node000004" class="edge">
<title>Node1&#45;&gt;Node4</title>
<g id="a_edge3_Node000001_Node000004"><a xlink:title=" ">
<path fill="none" stroke="#63b8ff" d="M123.38,-66C131.2,-66 139.32,-66 147.43,-66"/>
<polygon fill="#63b8ff" stroke="#63b8ff" points="147.36,-69.5 157.36,-66 147.36,-62.5 147.36,-69.5"/>
</a>
</g>
</g>
<!-- Node10 -->
<g id="Node000010" class="node">
<title>Node10</title>
<g id="a_Node000010"><a xlink:href="classsfui_1_1_window.html#a21dadeb6d0bbbb394374db0ed2cd578b" target="_top" xlink:title="切换到指定页面。">
<polygon fill="white" stroke="#666666" points="300.12,-38 166.38,-38 166.38,-6 300.12,-6 300.12,-38"/>
<text xml:space="preserve" text-anchor="start" x="174.38" y="-24.5" font-family="Helvetica,sans-Serif" font-size="10.00">sfui::Window::requestPage</text>
<text xml:space="preserve" text-anchor="middle" x="233.25" y="-12.5" font-family="Helvetica,sans-Serif" font-size="10.00">Switch</text>
</a>
</g>
</g>
<!-- Node1&#45;&gt;Node10 -->
<g id="edge9_Node000001_Node000010" class="edge">
<title>Node1&#45;&gt;Node10</title>
<g id="a_edge9_Node000001_Node000010"><a xlink:title=" ">
<path fill="none" stroke="#63b8ff" d="M102.82,-55.57C119.28,-51.3 138.88,-46.22 157.78,-41.32"/>
<polygon fill="#63b8ff" stroke="#63b8ff" points="158.53,-44.74 167.33,-38.84 156.78,-37.96 158.53,-44.74"/>
</a>
</g>
</g>
<!-- Node3 -->
<g id="Node000003" class="node">
<title>Node3</title>
<g id="a_Node000003"><a xlink:href="classsfui_1_1_window.html#a51c77efef7c5084e0c04ffbf83905570" target="_top" xlink:title="更新当前页面视图。">
<polygon fill="white" stroke="#666666" points="474.75,-120 344.75,-120 344.75,-100 474.75,-100 474.75,-120"/>
<text xml:space="preserve" text-anchor="middle" x="409.75" y="-106.5" font-family="Helvetica,sans-Serif" font-size="10.00">sfui::Window::updateView</text>
</a>
</g>
</g>
<!-- Node2&#45;&gt;Node3 -->
<g id="edge2_Node000002_Node000003" class="edge">
<title>Node2&#45;&gt;Node3</title>
<g id="a_edge2_Node000002_Node000003"><a xlink:title=" ">
<path fill="none" stroke="#63b8ff" d="M297.25,-108.08C308.86,-108.28 321.1,-108.49 333.05,-108.7"/>
<polygon fill="#63b8ff" stroke="#63b8ff" points="332.8,-112.19 342.86,-108.87 332.93,-105.2 332.8,-112.19"/>
</a>
</g>
</g>
<!-- Node5 -->
<g id="Node000005" class="node">
<title>Node5</title>
<g id="a_Node000005"><a xlink:href="classsfui_1_1_window.html#adfd7ab642e978cb4bac3b6ccb2093712" target="_top" xlink:title="处理SFML事件输入。">
<polygon fill="white" stroke="#666666" points="476.25,-82 343.25,-82 343.25,-50 476.25,-50 476.25,-82"/>
<text xml:space="preserve" text-anchor="start" x="351.25" y="-68.5" font-family="Helvetica,sans-Serif" font-size="10.00">sfui::Window::handleEvent</text>
<text xml:space="preserve" text-anchor="middle" x="409.75" y="-56.5" font-family="Helvetica,sans-Serif" font-size="10.00">Input</text>
</a>
</g>
</g>
<!-- Node4&#45;&gt;Node5 -->
<g id="edge4_Node000004_Node000005" class="edge">
<title>Node4&#45;&gt;Node5</title>
<g id="a_edge4_Node000004_Node000005"><a xlink:title=" ">
<path fill="none" stroke="#63b8ff" d="M307.75,-66C315.57,-66 323.54,-66 331.41,-66"/>
<polygon fill="#63b8ff" stroke="#63b8ff" points="331.31,-69.5 341.31,-66 331.31,-62.5 331.31,-69.5"/>
</a>
</g>
</g>
<!-- Node9 -->
<g id="Node000009" class="node">
<title>Node9</title>
<g id="a_Node000009"><a xlink:href="classsfui_1_1_window.html#a68d87b1a8809900eda49a26c0a919f10" target="_top" xlink:title="处理实时输入。">
<polygon fill="white" stroke="#666666" points="473.62,-32 345.88,-32 345.88,0 473.62,0 473.62,-32"/>
<text xml:space="preserve" text-anchor="start" x="353.88" y="-18.5" font-family="Helvetica,sans-Serif" font-size="10.00">sfui::Window::handleReal</text>
<text xml:space="preserve" text-anchor="middle" x="409.75" y="-6.5" font-family="Helvetica,sans-Serif" font-size="10.00">TimeInput</text>
</a>
</g>
</g>
<!-- Node4&#45;&gt;Node9 -->
<g id="edge8_Node000004_Node000009" class="edge">
<title>Node4&#45;&gt;Node9</title>
<g id="a_edge8_Node000004_Node000009"><a xlink:title=" ">
<path fill="none" stroke="#63b8ff" d="M275.64,-55.55C285.99,-52.85 297.04,-49.89 307.25,-47 319.66,-43.49 332.87,-39.58 345.52,-35.76"/>
<polygon fill="#63b8ff" stroke="#63b8ff" points="346.46,-39.13 355.01,-32.87 344.42,-32.43 346.46,-39.13"/>
</a>
</g>
</g>
<!-- Node6 -->
<g id="Node000006" class="node">
<title>Node6</title>
<g id="a_Node000006"><a xlink:href="classsfui_1_1_window.html#ae92de433502a60e90de1494307e91291" target="_top" xlink:title="切换窗口/全屏模式。">
<polygon fill="white" stroke="#666666" points="662.5,-76 512.25,-76 512.25,-56 662.5,-56 662.5,-76"/>
<text xml:space="preserve" text-anchor="middle" x="587.38" y="-62.5" font-family="Helvetica,sans-Serif" font-size="10.00">sfui::Window::toggleFullscreen</text>
</a>
</g>
</g>
<!-- Node5&#45;&gt;Node6 -->
<g id="edge5_Node000005_Node000006" class="edge">
<title>Node5&#45;&gt;Node6</title>
<g id="a_edge5_Node000005_Node000006"><a xlink:title=" ">
<path fill="none" stroke="#63b8ff" d="M476.65,-66C484.45,-66 492.51,-66 500.54,-66"/>
<polygon fill="#63b8ff" stroke="#63b8ff" points="500.33,-69.5 510.33,-66 500.33,-62.5 500.33,-69.5"/>
</a>
</g>
</g>
<!-- Node7 -->
<g id="Node000007" class="node">
<title>Node7</title>
<g id="a_Node000007"><a xlink:href="classsfui_1_1_window.html#a2643f2d69c4b1e042e27cb4c0eccb30e" target="_top" xlink:title="切换到全屏模式。">
<polygon fill="white" stroke="#666666" points="831.12,-95 698.88,-95 698.88,-75 831.12,-75 831.12,-95"/>
<text xml:space="preserve" text-anchor="middle" x="765" y="-81.5" font-family="Helvetica,sans-Serif" font-size="10.00">sfui::Window::toFullscreen</text>
</a>
</g>
</g>
<!-- Node6&#45;&gt;Node7 -->
<g id="edge6_Node000006_Node000007" class="edge">
<title>Node6&#45;&gt;Node7</title>
<g id="a_edge6_Node000006_Node000007"><a xlink:title=" ">
<path fill="none" stroke="#63b8ff" d="M662.86,-74.06C670.93,-74.93 679.15,-75.82 687.25,-76.7"/>
<polygon fill="#63b8ff" stroke="#63b8ff" points="686.76,-80.16 697.07,-77.76 687.51,-73.2 686.76,-80.16"/>
</a>
</g>
</g>
<!-- Node8 -->
<g id="Node000008" class="node">
<title>Node8</title>
<g id="a_Node000008"><a xlink:href="classsfui_1_1_window.html#a981375b53a47466a633fe41b3ce66361" target="_top" xlink:title="切换到窗口模式。">
<polygon fill="white" stroke="#666666" points="831.5,-57 698.5,-57 698.5,-37 831.5,-37 831.5,-57"/>
<text xml:space="preserve" text-anchor="middle" x="765" y="-43.5" font-family="Helvetica,sans-Serif" font-size="10.00">sfui::Window::toWindowed</text>
</a>
</g>
</g>
<!-- Node6&#45;&gt;Node8 -->
<g id="edge7_Node000006_Node000008" class="edge">
<title>Node6&#45;&gt;Node8</title>
<g id="a_edge7_Node000006_Node000008"><a xlink:title=" ">
<path fill="none" stroke="#63b8ff" d="M662.86,-57.94C670.71,-57.09 678.7,-56.23 686.59,-55.37"/>
<polygon fill="#63b8ff" stroke="#63b8ff" points="686.96,-58.86 696.52,-54.3 686.2,-51.9 686.96,-58.86"/>
</a>
</g>
</g>
</g>
</svg>

<g id="navigator" transform="translate(0 0)" fill="#404254">
  <rect fill="#f2f5e9" fill-opacity="0.5" stroke="#606060" stroke-width=".5" x="0" y="0" width="60" height="60"/>
  <use id="zoomplus" xlink:href="#zoomPlus" x="17" y="9" onmousedown="handleZoom(evt,'in')"/>
  <use id="zoomminus" xlink:href="#zoomMin" x="42" y="9" onmousedown="handleZoom(evt,'out')"/>
  <use id="reset" xlink:href="#resetDef" x="30" y="36" onmousedown="handleReset()"/>
   <use id="arrowup" xlink:href="#arrowUp" x="0" y="0" onmousedown="handlePan(0,-1)"/>
  <use id="arrowright" xlink:href="#arrowRight" x="0" y="0" onmousedown="handlePan(1,0)"/>
  <use id="arrowdown" xlink:href="#arrowDown" x="0" y="0" onmousedown="handlePan(0,1)"/>
  <use id="arrowleft" xlink:href="#arrowLeft" x="0" y="0" onmousedown="handlePan(-1,0)"/>
</g>
<svg viewBox="0 0 15 15" width="100%" height="30px" preserveAspectRatio="xMaxYMin meet">
 <g id="arrow_out" transform="scale(0.3 0.3)">
  <a xlink:href="classsfui_1_1_window_a2d60139900440e63f10e535d5287af9b_cgraph_org.svg" target="_base">
   <rect id="button" ry="5" rx="5" y="6" x="6" height="38" width="38"
        fill="#f2f5e9" fill-opacity="0.5" stroke="#606060" stroke-width="1.0"/>
   <path id="arrow"
     d="M 11.500037,31.436501 C 11.940474,20.09759 22.043105,11.32322 32.158766,21.979434 L 37.068811,17.246167 C 37.068811,17.246167 37.088388,32 37.088388,32 L 22.160133,31.978069 C 22.160133,31.978069 26.997745,27.140456 26.997745,27.140456 C 18.528582,18.264221 13.291696,25.230495 11.500037,31.436501 z"
     style="fill:#404040;"/>
  </a>
 </g>
</svg>

<style type='text/css'>
<![CDATA[
[data-mouse-over-selected='false'] { opacity: 0.7; }
[data-mouse-over-selected='true']  { opacity: 1.0; }
]]>
</style>
<script type="application/ecmascript"><![CDATA[
document.addEventListener('DOMContentLoaded', (event) => {
  highlightEdges();
  highlightAdjacentNodes();
});
]]></script>
</svg>
