<?xml version="1.0" encoding="UTF-8" standalone="no"?>
<!DOCTYPE svg PUBLIC "-//W3C//DTD SVG 1.1//EN"
 "http://www.w3.org/Graphics/SVG/1.1/DTD/svg11.dtd">
<!-- Generated by graphviz version 13.0.0 (20250608.1624)
 -->
<!-- Title: sfui::Window::updateView Pages: 1 -->
<svg width="461pt" height="28pt"
 viewBox="0.00 0.00 461.00 28.00" xmlns="http://www.w3.org/2000/svg" xmlns:xlink="http://www.w3.org/1999/xlink">
<g id="graph0" class="graph" transform="scale(1 1) rotate(0) translate(4 24)">
<title>sfui::Window::updateView</title>
<!-- Node1 -->
<g id="Node000001" class="node">
<title>Node1</title>
<g id="a_Node000001"><a xlink:title="更新当前页面视图。">
<polygon fill="#999999" stroke="#666666" points="453,-20 323,-20 323,0 453,0 453,-20"/>
<text xml:space="preserve" text-anchor="middle" x="388" y="-6.5" font-family="Helvetica,sans-Serif" font-size="10.00">sfui::Window::updateView</text>
</a>
</g>
</g>
<!-- Node2 -->
<g id="Node000002" class="node">
<title>Node2</title>
<g id="a_Node000002"><a xlink:href="classsfui_1_1_window.html#ac3654758cf94834f792bb540e3631f2c" target="_top" xlink:title="绘制当前帧到窗口。">
<polygon fill="white" stroke="#666666" points="287,-20 159.25,-20 159.25,0 287,0 287,-20"/>
<text xml:space="preserve" text-anchor="middle" x="223.12" y="-6.5" font-family="Helvetica,sans-Serif" font-size="10.00">sfui::Window::drawFrame</text>
</a>
</g>
</g>
<!-- Node1&#45;&gt;Node2 -->
<g id="edge1_Node000001_Node000002" class="edge">
<title>Node1&#45;&gt;Node2</title>
<g id="a_edge1_Node000001_Node000002"><a xlink:title=" ">
<path fill="none" stroke="#63b8ff" d="M311.13,-10C303.22,-10 295.24,-10 287.5,-10"/>
<polygon fill="#63b8ff" stroke="#63b8ff" points="311.11,-13.5 321.11,-10 311.11,-6.5 311.11,-13.5"/>
</a>
</g>
</g>
<!-- Node3 -->
<g id="Node000003" class="node">
<title>Node3</title>
<g id="a_Node000003"><a xlink:href="classsfui_1_1_window.html#a2d60139900440e63f10e535d5287af9b" target="_top" xlink:title="显示首页并进入主循环。">
<polygon fill="white" stroke="#666666" points="123.25,-20 0,-20 0,0 123.25,0 123.25,-20"/>
<text xml:space="preserve" text-anchor="middle" x="61.62" y="-6.5" font-family="Helvetica,sans-Serif" font-size="10.00">sfui::Window::startShow</text>
</a>
</g>
</g>
<!-- Node2&#45;&gt;Node3 -->
<g id="edge2_Node000002_Node000003" class="edge">
<title>Node2&#45;&gt;Node3</title>
<g id="a_edge2_Node000002_Node000003"><a xlink:title=" ">
<path fill="none" stroke="#63b8ff" d="M147.76,-10C139.68,-10 131.53,-10 123.64,-10"/>
<polygon fill="#63b8ff" stroke="#63b8ff" points="147.57,-13.5 157.57,-10 147.57,-6.5 147.57,-13.5"/>
</a>
</g>
</g>
</g>
</svg>
