<?xml version="1.0" encoding="UTF-8" standalone="no"?>
<!DOCTYPE svg PUBLIC "-//W3C//DTD SVG 1.1//EN"
 "http://www.w3.org/Graphics/SVG/1.1/DTD/svg11.dtd">
<!-- Generated by graphviz version 13.0.0 (20250608.1624)
 -->
<!-- Title: sfui::ComplexPage::drawForWindow Pages: 1 -->
<svg width="415pt" height="40pt"
 viewBox="0.00 0.00 415.00 40.00" xmlns="http://www.w3.org/2000/svg" xmlns:xlink="http://www.w3.org/1999/xlink">
<g id="graph0" class="graph" transform="scale(1 1) rotate(0) translate(4 36)">
<title>sfui::ComplexPage::drawForWindow</title>
<!-- Node1 -->
<g id="Node000001" class="node">
<title>Node1</title>
<g id="a_Node000001"><a xlink:title="以窗口为依据绘制对象">
<polygon fill="#999999" stroke="#666666" points="105.25,-32 0,-32 0,0 105.25,0 105.25,-32"/>
<text xml:space="preserve" text-anchor="start" x="8" y="-18.5" font-family="Helvetica,sans-Serif" font-size="10.00">sfui::ComplexPage::</text>
<text xml:space="preserve" text-anchor="middle" x="52.62" y="-6.5" font-family="Helvetica,sans-Serif" font-size="10.00">drawForWindow</text>
</a>
</g>
</g>
<!-- Node2 -->
<g id="Node000002" class="node">
<title>Node2</title>
<g id="a_Node000002"><a xlink:href="classsfui_1_1_control_page.html#a971fb2bb6afcf431eea85c35f97bf7c5" target="_top" xlink:title="绘制按钮">
<polygon fill="white" stroke="#666666" points="260,-26 141.25,-26 141.25,-6 260,-6 260,-26"/>
<text xml:space="preserve" text-anchor="middle" x="200.62" y="-12.5" font-family="Helvetica,sans-Serif" font-size="10.00">sfui::ControlPage::draw</text>
</a>
</g>
</g>
<!-- Node1&#45;&gt;Node2 -->
<g id="edge1_Node000001_Node000002" class="edge">
<title>Node1&#45;&gt;Node2</title>
<g id="a_edge1_Node000001_Node000002"><a xlink:title=" ">
<path fill="none" stroke="#63b8ff" d="M105.51,-16C113.31,-16 121.46,-16 129.56,-16"/>
<polygon fill="#63b8ff" stroke="#63b8ff" points="129.43,-19.5 139.43,-16 129.43,-12.5 129.43,-19.5"/>
</a>
</g>
</g>
<!-- Node3 -->
<g id="Node000003" class="node">
<title>Node3</title>
<g id="a_Node000003"><a xlink:href="classsfui_1_1_button.html#a9bda2b07213ffd9a40fb2e231f084952" target="_top" xlink:title="获取按钮的Sprite">
<polygon fill="white" stroke="#666666" points="407.25,-26 296,-26 296,-6 407.25,-6 407.25,-26"/>
<text xml:space="preserve" text-anchor="middle" x="351.62" y="-12.5" font-family="Helvetica,sans-Serif" font-size="10.00">sfui::Button::getSprite</text>
</a>
</g>
</g>
<!-- Node2&#45;&gt;Node3 -->
<g id="edge2_Node000002_Node000003" class="edge">
<title>Node2&#45;&gt;Node3</title>
<g id="a_edge2_Node000002_Node000003"><a xlink:title=" ">
<path fill="none" stroke="#63b8ff" d="M260.09,-16C268.07,-16 276.3,-16 284.41,-16"/>
<polygon fill="#63b8ff" stroke="#63b8ff" points="284.22,-19.5 294.22,-16 284.22,-12.5 284.22,-19.5"/>
</a>
</g>
</g>
</g>
</svg>
