<?xml version="1.0" encoding="UTF-8" standalone="no"?>
<!DOCTYPE svg PUBLIC "-//W3C//DTD SVG 1.1//EN"
 "http://www.w3.org/Graphics/SVG/1.1/DTD/svg11.dtd">
<!-- Generated by graphviz version 13.0.0 (20250608.1624)
 -->
<!-- Title: sfui::ComplexPage::ComplexPage Pages: 1 -->
<svg width="380pt" height="90pt"
 viewBox="0.00 0.00 380.00 90.00" xmlns="http://www.w3.org/2000/svg" xmlns:xlink="http://www.w3.org/1999/xlink">
<g id="graph0" class="graph" transform="scale(1 1) rotate(0) translate(4 86)">
<title>sfui::ComplexPage::ComplexPage</title>
<!-- Node1 -->
<g id="Node000001" class="node">
<title>Node1</title>
<g id="a_Node000001"><a xlink:title=" ">
<polygon fill="#999999" stroke="#666666" points="105.25,-57 0,-57 0,-25 105.25,-25 105.25,-57"/>
<text xml:space="preserve" text-anchor="start" x="8" y="-43.5" font-family="Helvetica,sans-Serif" font-size="10.00">sfui::ComplexPage::</text>
<text xml:space="preserve" text-anchor="middle" x="52.62" y="-31.5" font-family="Helvetica,sans-Serif" font-size="10.00">ComplexPage</text>
</a>
</g>
</g>
<!-- Node2 -->
<g id="Node000002" class="node">
<title>Node2</title>
<g id="a_Node000002"><a xlink:href="classsfui_1_1_control_page.html#afc330f12e794ff22b74203c5743bcc9f" target="_top" xlink:title=" ">
<polygon fill="white" stroke="#666666" points="243.12,-82 145.38,-82 145.38,-50 243.12,-50 243.12,-82"/>
<text xml:space="preserve" text-anchor="start" x="153.38" y="-68.5" font-family="Helvetica,sans-Serif" font-size="10.00">sfui::ControlPage::</text>
<text xml:space="preserve" text-anchor="middle" x="194.25" y="-56.5" font-family="Helvetica,sans-Serif" font-size="10.00">ControlPage</text>
</a>
</g>
</g>
<!-- Node1&#45;&gt;Node2 -->
<g id="edge1_Node000001_Node000002" class="edge">
<title>Node1&#45;&gt;Node2</title>
<g id="a_edge1_Node000001_Node000002"><a xlink:title=" ">
<path fill="none" stroke="#63b8ff" d="M105.62,-50.31C114.77,-51.95 124.35,-53.66 133.69,-55.34"/>
<polygon fill="#63b8ff" stroke="#63b8ff" points="132.96,-58.76 143.42,-57.08 134.2,-51.87 132.96,-58.76"/>
</a>
</g>
</g>
<!-- Node4 -->
<g id="Node000004" class="node">
<title>Node4</title>
<g id="a_Node000004"><a xlink:href="classsfui_1_1_interactive_page.html#ac553cc6c1df69243d54a316f67aa5f45" target="_top" xlink:title=" ">
<polygon fill="white" stroke="#666666" points="247.25,-32 141.25,-32 141.25,0 247.25,0 247.25,-32"/>
<text xml:space="preserve" text-anchor="start" x="149.25" y="-18.5" font-family="Helvetica,sans-Serif" font-size="10.00">sfui::InteractivePage</text>
<text xml:space="preserve" text-anchor="middle" x="194.25" y="-6.5" font-family="Helvetica,sans-Serif" font-size="10.00">::InteractivePage</text>
</a>
</g>
</g>
<!-- Node1&#45;&gt;Node4 -->
<g id="edge3_Node000001_Node000004" class="edge">
<title>Node1&#45;&gt;Node4</title>
<g id="a_edge3_Node000001_Node000004"><a xlink:title=" ">
<path fill="none" stroke="#63b8ff" d="M105.62,-31.69C113.61,-30.26 121.94,-28.77 130.15,-27.3"/>
<polygon fill="#63b8ff" stroke="#63b8ff" points="130.5,-30.79 139.73,-25.58 129.27,-23.9 130.5,-30.79"/>
</a>
</g>
</g>
<!-- Node3 -->
<g id="Node000003" class="node">
<title>Node3</title>
<g id="a_Node000003"><a xlink:href="classsfui_1_1_page.html#a1d645637dcd8fea7241f485ef4fe1b93" target="_top" xlink:title=" ">
<polygon fill="white" stroke="#666666" points="372,-51 283.25,-51 283.25,-31 372,-31 372,-51"/>
<text xml:space="preserve" text-anchor="middle" x="327.62" y="-37.5" font-family="Helvetica,sans-Serif" font-size="10.00">sfui::Page::Page</text>
</a>
</g>
</g>
<!-- Node2&#45;&gt;Node3 -->
<g id="edge2_Node000002_Node000003" class="edge">
<title>Node2&#45;&gt;Node3</title>
<g id="a_edge2_Node000002_Node000003"><a xlink:title=" ">
<path fill="none" stroke="#63b8ff" d="M243.42,-56.83C252.59,-55.09 262.24,-53.25 271.6,-51.47"/>
<polygon fill="#63b8ff" stroke="#63b8ff" points="272.15,-54.93 281.32,-49.62 270.85,-48.05 272.15,-54.93"/>
</a>
</g>
</g>
<!-- Node4&#45;&gt;Node3 -->
<g id="edge4_Node000004_Node000003" class="edge">
<title>Node4&#45;&gt;Node3</title>
<g id="a_edge4_Node000004_Node000003"><a xlink:title=" ">
<path fill="none" stroke="#63b8ff" d="M247.55,-25.95C255.53,-27.47 263.78,-29.04 271.81,-30.57"/>
<polygon fill="#63b8ff" stroke="#63b8ff" points="270.99,-33.98 281.47,-32.41 272.3,-27.1 270.99,-33.98"/>
</a>
</g>
</g>
</g>
</svg>
