<?xml version="1.0" encoding="UTF-8" standalone="no"?>
<!DOCTYPE svg PUBLIC "-//W3C//DTD SVG 1.1//EN"
 "http://www.w3.org/Graphics/SVG/1.1/DTD/svg11.dtd">
<!-- Generated by graphviz version 13.0.0 (20250608.1624)
 -->
<!-- Title: sfui::Window::handleRealTimeInput Pages: 1 -->
<svg width="479pt" height="40pt"
 viewBox="0.00 0.00 479.00 40.00" xmlns="http://www.w3.org/2000/svg" xmlns:xlink="http://www.w3.org/1999/xlink">
<g id="graph0" class="graph" transform="scale(1 1) rotate(0) translate(4 36)">
<title>sfui::Window::handleRealTimeInput</title>
<!-- Node1 -->
<g id="Node000001" class="node">
<title>Node1</title>
<g id="a_Node000001"><a xlink:title="处理实时输入。">
<polygon fill="#999999" stroke="#666666" points="471,-32 343.25,-32 343.25,0 471,0 471,-32"/>
<text xml:space="preserve" text-anchor="start" x="351.25" y="-18.5" font-family="Helvetica,sans-Serif" font-size="10.00">sfui::Window::handleReal</text>
<text xml:space="preserve" text-anchor="middle" x="407.12" y="-6.5" font-family="Helvetica,sans-Serif" font-size="10.00">TimeInput</text>
</a>
</g>
</g>
<!-- Node2 -->
<g id="Node000002" class="node">
<title>Node2</title>
<g id="a_Node000002"><a xlink:href="classsfui_1_1_window.html#a2ab4ee75de63cdb7df571d69bc2902a1" target="_top" xlink:title="处理窗口和页面事件，收到关闭事件时关闭窗口。">
<polygon fill="white" stroke="#666666" points="307.25,-26 159.25,-26 159.25,-6 307.25,-6 307.25,-26"/>
<text xml:space="preserve" text-anchor="middle" x="233.25" y="-12.5" font-family="Helvetica,sans-Serif" font-size="10.00">sfui::Window::procesMessage</text>
</a>
</g>
</g>
<!-- Node1&#45;&gt;Node2 -->
<g id="edge1_Node000001_Node000002" class="edge">
<title>Node1&#45;&gt;Node2</title>
<g id="a_edge1_Node000001_Node000002"><a xlink:title=" ">
<path fill="none" stroke="#63b8ff" d="M331.63,-16C323.71,-16 315.66,-16 307.75,-16"/>
<polygon fill="#63b8ff" stroke="#63b8ff" points="331.59,-19.5 341.59,-16 331.59,-12.5 331.59,-19.5"/>
</a>
</g>
</g>
<!-- Node3 -->
<g id="Node000003" class="node">
<title>Node3</title>
<g id="a_Node000003"><a xlink:href="classsfui_1_1_window.html#a2d60139900440e63f10e535d5287af9b" target="_top" xlink:title="显示首页并进入主循环。">
<polygon fill="white" stroke="#666666" points="123.25,-26 0,-26 0,-6 123.25,-6 123.25,-26"/>
<text xml:space="preserve" text-anchor="middle" x="61.62" y="-12.5" font-family="Helvetica,sans-Serif" font-size="10.00">sfui::Window::startShow</text>
</a>
</g>
</g>
<!-- Node2&#45;&gt;Node3 -->
<g id="edge2_Node000002_Node000003" class="edge">
<title>Node2&#45;&gt;Node3</title>
<g id="a_edge2_Node000002_Node000003"><a xlink:title=" ">
<path fill="none" stroke="#63b8ff" d="M147.5,-16C139.47,-16 131.43,-16 123.68,-16"/>
<polygon fill="#63b8ff" stroke="#63b8ff" points="147.32,-19.5 157.32,-16 147.32,-12.5 147.32,-19.5"/>
</a>
</g>
</g>
</g>
</svg>
