<?xml version="1.0" encoding="UTF-8" standalone="no"?>
<!DOCTYPE svg PUBLIC "-//W3C//DTD SVG 1.1//EN"
 "http://www.w3.org/Graphics/SVG/1.1/DTD/svg11.dtd">
<!-- Generated by graphviz version 13.0.0 (20250608.1624)
 -->
<!-- Title: sfui::Page Pages: 1 -->
<svg width="425pt" height="102pt"
 viewBox="0.00 0.00 425.00 102.00" xmlns="http://www.w3.org/2000/svg" xmlns:xlink="http://www.w3.org/1999/xlink">

<svg id="main" version="1.1" xmlns="http://www.w3.org/2000/svg" xmlns:xlink="http://www.w3.org/1999/xlink" xml:space="preserve">

<style type="text/css"><![CDATA[
.node, .edge {opacity: 0.7;}
.node.selected, .edge.selected {opacity: 1;}
.edge:hover path { stroke: red; }
.edge:hover polygon { stroke: red; fill: red; }
]]></style>
<script type="application/ecmascript" xlink:href="svg.min.js"/>
<svg id="graph" class="graph">
<g id="graph0" class="graph" transform="scale(1 1) rotate(0) translate(4 98)">
<title>sfui::Page</title>
<!-- Node1 -->
<g id="Node000001" class="node">
<title>Node1</title>
<g id="a_Node000001"><a xlink:title="前置声明窗口类">
<polygon fill="#999999" stroke="#666666" points="208.62,-20 148.38,-20 148.38,0 208.62,0 208.62,-20"/>
<text xml:space="preserve" text-anchor="middle" x="178.5" y="-6.5" font-family="Helvetica,sans-Serif" font-size="10.00">sfui::Page</text>
</a>
</g>
</g>
<!-- Node2 -->
<g id="Node000002" class="node">
<title>Node2</title>
<g id="a_Node000002"><a xlink:href="classsfui_1_1_window.html" target="_top" xlink:title="窗口类，负责窗口创建、页面管理、事件循环、全屏切换等。">
<polygon fill="white" stroke="#666666" points="73,-94 0,-94 0,-74 73,-74 73,-94"/>
<text xml:space="preserve" text-anchor="middle" x="36.5" y="-80.5" font-family="Helvetica,sans-Serif" font-size="10.00">sfui::Window</text>
</a>
</g>
</g>
<!-- Node2&#45;&gt;Node1 -->
<g id="edge1_Node000001_Node000002" class="edge">
<title>Node2&#45;&gt;Node1</title>
<g id="a_edge1_Node000001_Node000002"><a xlink:title=" ">
<path fill="none" stroke="#9a32cd" stroke-dasharray="5,2" d="M51.4,-65.12C60,-55.83 71.51,-45 83.75,-38 103.65,-26.63 128.68,-19.76 148.01,-15.8"/>
<polygon fill="#9a32cd" stroke="#9a32cd" points="48.84,-62.73 44.86,-72.55 54.09,-67.36 48.84,-62.73"/>
</a>
</g>
<text xml:space="preserve" text-anchor="start" x="86.75" y="-43.5" font-family="Helvetica,sans-Serif" font-size="10.00" fill="grey">mp_window</text>
</g>
<!-- Node3 -->
<g id="Node000003" class="node">
<title>Node3</title>
<g id="a_Node000003"><a xlink:href="classsfui_1_1_mouse.html" target="_top" xlink:title="实时鼠标操作类">
<polygon fill="white" stroke="#666666" points="158,-94 91,-94 91,-74 158,-74 158,-94"/>
<text xml:space="preserve" text-anchor="middle" x="124.5" y="-80.5" font-family="Helvetica,sans-Serif" font-size="10.00">sfui::Mouse</text>
</a>
</g>
</g>
<!-- Node3&#45;&gt;Node1 -->
<g id="edge2_Node000001_Node000003" class="edge">
<title>Node3&#45;&gt;Node1</title>
<g id="a_edge2_Node000001_Node000003"><a xlink:title=" ">
<path fill="none" stroke="#9a32cd" stroke-dasharray="5,2" d="M138.24,-64.68C148.9,-50.47 163.23,-31.36 171.61,-20.19"/>
<polygon fill="#9a32cd" stroke="#9a32cd" points="135.67,-62.28 132.47,-72.38 141.27,-66.48 135.67,-62.28"/>
</a>
</g>
<text xml:space="preserve" text-anchor="start" x="160.92" y="-43.5" font-family="Helvetica,sans-Serif" font-size="10.00" fill="grey">m_mouse</text>
</g>
<!-- Node4 -->
<g id="Node000004" class="node">
<title>Node4</title>
<g id="a_Node000004"><a xlink:href="classsfui_1_1_active_key_binding.html" target="_top" xlink:title="按键状态与行为的映射类">
<polygon fill="white" stroke="#666666" points="291,-94 176,-94 176,-74 291,-74 291,-94"/>
<text xml:space="preserve" text-anchor="middle" x="233.5" y="-80.5" font-family="Helvetica,sans-Serif" font-size="10.00">sfui::ActiveKeyBinding</text>
</a>
</g>
</g>
<!-- Node4&#45;&gt;Node1 -->
<g id="edge3_Node000001_Node000004" class="edge">
<title>Node4&#45;&gt;Node1</title>
<g id="a_edge3_Node000001_Node000004"><a xlink:title=" ">
<path fill="none" stroke="#9a32cd" stroke-dasharray="5,2" d="M225.59,-63.47C221.72,-55.16 216.58,-45.65 210.5,-38 205.26,-31.4 198.19,-25.23 192.04,-20.47"/>
<polygon fill="#9a32cd" stroke="#9a32cd" points="222.26,-64.58 229.45,-72.37 228.68,-61.8 222.26,-64.58"/>
</a>
</g>
<text xml:space="preserve" text-anchor="start" x="224.63" y="-43.5" font-family="Helvetica,sans-Serif" font-size="10.00" fill="grey">m_activeKeyBinding</text>
</g>
<!-- Node5 -->
<g id="Node000005" class="node">
<title>Node5</title>
<g id="a_Node000005"><a xlink:href="classsfui_1_1_evect_bingding.html" target="_top" xlink:title="按键和鼠标事件与行为的映射类">
<polygon fill="white" stroke="#666666" points="409.88,-94 309.12,-94 309.12,-74 409.88,-74 409.88,-94"/>
<text xml:space="preserve" text-anchor="middle" x="359.5" y="-80.5" font-family="Helvetica,sans-Serif" font-size="10.00">sfui::EvectBingding</text>
</a>
</g>
</g>
<!-- Node5&#45;&gt;Node1 -->
<g id="edge4_Node000001_Node000005" class="edge">
<title>Node5&#45;&gt;Node1</title>
<g id="a_edge4_Node000001_Node000005"><a xlink:title=" ">
<path fill="none" stroke="#9a32cd" stroke-dasharray="5,2" d="M347.84,-64.4C341.01,-55.04 331.55,-44.36 320.5,-38 285.81,-18.03 239.23,-12.47 209.03,-11.11"/>
<polygon fill="#9a32cd" stroke="#9a32cd" points="344.83,-66.2 353.33,-72.52 350.63,-62.28 344.83,-66.2"/>
</a>
</g>
<text xml:space="preserve" text-anchor="start" x="344.15" y="-43.5" font-family="Helvetica,sans-Serif" font-size="10.00" fill="grey">m_eventBinding</text>
</g>
</g>
</svg>
</svg>

<style type='text/css'>
<![CDATA[
[data-mouse-over-selected='false'] { opacity: 0.7; }
[data-mouse-over-selected='true']  { opacity: 1.0; }
]]>
</style>
<script type="application/ecmascript"><![CDATA[
document.addEventListener('DOMContentLoaded', (event) => {
  highlightEdges();
  highlightAdjacentNodes();
});
]]></script>
</svg>
