<?xml version="1.0" encoding="UTF-8" standalone="no"?>
<!DOCTYPE svg PUBLIC "-//W3C//DTD SVG 1.1//EN"
 "http://www.w3.org/Graphics/SVG/1.1/DTD/svg11.dtd">
<!-- Generated by graphviz version 13.0.0 (20250608.1624)
 -->
<!-- Title: sfui::PageName Pages: 1 -->
<svg width="226pt" height="208pt"
 viewBox="0.00 0.00 226.00 208.00" xmlns="http://www.w3.org/2000/svg" xmlns:xlink="http://www.w3.org/1999/xlink">
<g id="graph0" class="graph" transform="scale(1 1) rotate(0) translate(4 204)">
<title>sfui::PageName</title>
<!-- Node1 -->
<g id="Node000001" class="node">
<title>Node1</title>
<g id="a_Node000001"><a xlink:title="页面模板类，便于新建页面时继承和实现">
<polygon fill="#999999" stroke="#666666" points="91.25,-20 4.75,-20 4.75,0 91.25,0 91.25,-20"/>
<text xml:space="preserve" text-anchor="middle" x="48" y="-6.5" font-family="Helvetica,sans-Serif" font-size="10.00">sfui::PageName</text>
</a>
</g>
</g>
<!-- Node2 -->
<g id="Node000002" class="node">
<title>Node2</title>
<g id="a_Node000002"><a xlink:title=" ">
<polygon fill="white" stroke="#666666" points="64,-126 0,-126 0,-106 64,-106 64,-126"/>
<text xml:space="preserve" text-anchor="middle" x="32" y="-112.5" font-family="Helvetica,sans-Serif" font-size="10.00">PageClass</text>
</a>
</g>
</g>
<!-- Node2&#45;&gt;Node1 -->
<g id="edge1_Node000001_Node000002" class="edge">
<title>Node2&#45;&gt;Node1</title>
<g id="a_edge1_Node000001_Node000002"><a xlink:title=" ">
<path fill="none" stroke="#63b8ff" d="M35.15,-94.51C38.61,-72.04 44,-36.99 46.56,-20.36"/>
<polygon fill="#63b8ff" stroke="#63b8ff" points="31.71,-93.86 33.65,-104.27 38.63,-94.92 31.71,-93.86"/>
</a>
</g>
</g>
<!-- Node3 -->
<g id="Node000003" class="node">
<title>Node3</title>
<g id="a_Node000003"><a xlink:href="classsfui_1_1_button.html" target="_top" xlink:title="按钮类，封装贴图和区域">
<polygon fill="white" stroke="#666666" points="148.12,-126 81.88,-126 81.88,-106 148.12,-106 148.12,-126"/>
<text xml:space="preserve" text-anchor="middle" x="115" y="-112.5" font-family="Helvetica,sans-Serif" font-size="10.00">sfui::Button</text>
</a>
</g>
</g>
<!-- Node3&#45;&gt;Node1 -->
<g id="edge2_Node000001_Node000003" class="edge">
<title>Node3&#45;&gt;Node1</title>
<g id="a_edge2_Node000001_Node000003"><a xlink:title=" ">
<path fill="none" stroke="#9a32cd" stroke-dasharray="5,2" d="M102.99,-96.36C88.6,-74.01 65.04,-37.45 54.03,-20.36"/>
<polygon fill="#9a32cd" stroke="#9a32cd" points="99.88,-97.99 108.23,-104.5 105.76,-94.2 99.88,-97.99"/>
</a>
</g>
<text xml:space="preserve" text-anchor="start" x="100.03" y="-75.5" font-family="Helvetica,sans-Serif" font-size="10.00" fill="grey">beginGameButton</text>
<text xml:space="preserve" text-anchor="start" x="100.03" y="-59.5" font-family="Helvetica,sans-Serif" font-size="10.00" fill="grey">exitButton</text>
<text xml:space="preserve" text-anchor="start" x="100.03" y="-43.5" font-family="Helvetica,sans-Serif" font-size="10.00" fill="grey">setupButton</text>
</g>
<!-- Node4 -->
<g id="Node000004" class="node">
<title>Node4</title>
<g id="a_Node000004"><a xlink:href="classsfui_1_1_area.html" target="_top" xlink:title="区域类，表示一个矩形区域，支持判定点是否在区域内">
<polygon fill="white" stroke="#666666" points="98,-200 40,-200 40,-180 98,-180 98,-200"/>
<text xml:space="preserve" text-anchor="middle" x="69" y="-186.5" font-family="Helvetica,sans-Serif" font-size="10.00">sfui::Area</text>
</a>
</g>
</g>
<!-- Node4&#45;&gt;Node3 -->
<g id="edge3_Node000003_Node000004" class="edge">
<title>Node4&#45;&gt;Node3</title>
<g id="a_edge3_Node000003_Node000004"><a xlink:title=" ">
<path fill="none" stroke="#9a32cd" stroke-dasharray="5,2" d="M80.96,-170.27C90.02,-156.1 102.06,-137.25 109.13,-126.19"/>
<polygon fill="#9a32cd" stroke="#9a32cd" points="78.26,-168 75.83,-178.31 84.16,-171.77 78.26,-168"/>
</a>
</g>
<text xml:space="preserve" text-anchor="start" x="100.47" y="-149.5" font-family="Helvetica,sans-Serif" font-size="10.00" fill="grey">m_area</text>
</g>
<!-- Node5 -->
<g id="Node000005" class="node">
<title>Node5</title>
<g id="a_Node000005"><a xlink:href="classsfui_1_1_texture_item.html" target="_top" xlink:title="贴图项，封装SFML贴图，支持加载、缩放、位置设置等">
<polygon fill="white" stroke="#666666" points="205.75,-200 116.25,-200 116.25,-180 205.75,-180 205.75,-200"/>
<text xml:space="preserve" text-anchor="middle" x="161" y="-186.5" font-family="Helvetica,sans-Serif" font-size="10.00">sfui::TextureItem</text>
</a>
</g>
</g>
<!-- Node5&#45;&gt;Node3 -->
<g id="edge4_Node000003_Node000005" class="edge">
<title>Node5&#45;&gt;Node3</title>
<g id="a_edge4_Node000003_Node000005"><a xlink:title=" ">
<path fill="none" stroke="#9a32cd" stroke-dasharray="5,2" d="M152.76,-169.26C149.03,-161.16 144.27,-151.85 139,-144 134.81,-137.75 129.27,-131.43 124.57,-126.47"/>
<polygon fill="#9a32cd" stroke="#9a32cd" points="149.48,-170.49 156.7,-178.25 155.9,-167.69 149.48,-170.49"/>
</a>
</g>
<text xml:space="preserve" text-anchor="start" x="152.22" y="-149.5" font-family="Helvetica,sans-Serif" font-size="10.00" fill="grey">m_textureItem</text>
</g>
</g>
</svg>
