<?xml version="1.0" encoding="UTF-8" standalone="no"?>
<!DOCTYPE svg PUBLIC "-//W3C//DTD SVG 1.1//EN"
 "http://www.w3.org/Graphics/SVG/1.1/DTD/svg11.dtd">
<!-- Generated by graphviz version 13.0.0 (20250608.1624)
 -->
<!-- Title: include/customizable/components/inputbox.hpp Pages: 1 -->
<svg width="318pt" height="152pt"
 viewBox="0.00 0.00 318.00 152.00" xmlns="http://www.w3.org/2000/svg" xmlns:xlink="http://www.w3.org/1999/xlink">
<g id="graph0" class="graph" transform="scale(1 1) rotate(0) translate(4 148)">
<title>include/customizable/components/inputbox.hpp</title>
<!-- Node1 -->
<g id="Node000001" class="node">
<title>Node1</title>
<g id="a_Node000001"><a xlink:title=" ">
<polygon fill="#999999" stroke="#666666" points="259.88,-144 129.12,-144 129.12,-112 259.88,-112 259.88,-144"/>
<text xml:space="preserve" text-anchor="start" x="137.12" y="-130.5" font-family="Helvetica,sans-Serif" font-size="10.00">include/customizable</text>
<text xml:space="preserve" text-anchor="middle" x="194.5" y="-118.5" font-family="Helvetica,sans-Serif" font-size="10.00">/components/inputbox.hpp</text>
</a>
</g>
</g>
<!-- Node2 -->
<g id="Node000002" class="node">
<title>Node2</title>
<g id="a_Node000002"><a xlink:href="textbox_8hpp.html" target="_top" xlink:title=" ">
<polygon fill="white" stroke="#666666" points="114,-76 47,-76 47,-56 114,-56 114,-76"/>
<text xml:space="preserve" text-anchor="middle" x="80.5" y="-62.5" font-family="Helvetica,sans-Serif" font-size="10.00">textbox.hpp</text>
</a>
</g>
</g>
<!-- Node1&#45;&gt;Node2 -->
<g id="edge1_Node000001_Node000002" class="edge">
<title>Node1&#45;&gt;Node2</title>
<g id="a_edge1_Node000001_Node000002"><a xlink:title=" ">
<path fill="none" stroke="#63b8ff" d="M165.14,-111.55C147.66,-102.35 125.6,-90.74 108.38,-81.68"/>
<polygon fill="#63b8ff" stroke="#63b8ff" points="110.19,-78.67 99.71,-77.11 106.93,-84.87 110.19,-78.67"/>
</a>
</g>
</g>
<!-- Node5 -->
<g id="Node000005" class="node">
<title>Node5</title>
<g id="a_Node000005"><a xlink:href="_area_8hpp.html" target="_top" xlink:title=" ">
<polygon fill="white" stroke="#666666" points="185.25,-76 131.75,-76 131.75,-56 185.25,-56 185.25,-76"/>
<text xml:space="preserve" text-anchor="middle" x="158.5" y="-62.5" font-family="Helvetica,sans-Serif" font-size="10.00">area.hpp</text>
</a>
</g>
</g>
<!-- Node1&#45;&gt;Node5 -->
<g id="edge4_Node000001_Node000005" class="edge">
<title>Node1&#45;&gt;Node5</title>
<g id="a_edge4_Node000001_Node000005"><a xlink:title=" ">
<path fill="none" stroke="#63b8ff" d="M185.23,-111.55C180.59,-103.82 174.94,-94.4 170.03,-86.21"/>
<polygon fill="#63b8ff" stroke="#63b8ff" points="173.07,-84.48 164.92,-77.71 167.07,-88.08 173.07,-84.48"/>
</a>
</g>
</g>
<!-- Node6 -->
<g id="Node000006" class="node">
<title>Node6</title>
<g id="a_Node000006"><a xlink:title=" ">
<polygon fill="#e0e0e0" stroke="#999999" points="257.25,-76 203.75,-76 203.75,-56 257.25,-56 257.25,-76"/>
<text xml:space="preserve" text-anchor="middle" x="230.5" y="-62.5" font-family="Helvetica,sans-Serif" font-size="10.00">iostream</text>
</a>
</g>
</g>
<!-- Node1&#45;&gt;Node6 -->
<g id="edge5_Node000001_Node000006" class="edge">
<title>Node1&#45;&gt;Node6</title>
<g id="a_edge5_Node000001_Node000006"><a xlink:title=" ">
<path fill="none" stroke="#63b8ff" d="M203.77,-111.55C208.41,-103.82 214.06,-94.4 218.97,-86.21"/>
<polygon fill="#63b8ff" stroke="#63b8ff" points="221.93,-88.08 224.08,-77.71 215.93,-84.48 221.93,-88.08"/>
</a>
</g>
</g>
<!-- Node7 -->
<g id="Node000007" class="node">
<title>Node7</title>
<g id="a_Node000007"><a xlink:title=" ">
<polygon fill="#e0e0e0" stroke="#999999" points="309.88,-76 275.12,-76 275.12,-56 309.88,-56 309.88,-76"/>
<text xml:space="preserve" text-anchor="middle" x="292.5" y="-62.5" font-family="Helvetica,sans-Serif" font-size="10.00">print</text>
</a>
</g>
</g>
<!-- Node1&#45;&gt;Node7 -->
<g id="edge6_Node000001_Node000007" class="edge">
<title>Node1&#45;&gt;Node7</title>
<g id="a_edge6_Node000001_Node000007"><a xlink:title=" ">
<path fill="none" stroke="#63b8ff" d="M219.74,-111.55C234.48,-102.52 253.02,-91.17 267.69,-82.19"/>
<polygon fill="#63b8ff" stroke="#63b8ff" points="269.14,-85.4 275.84,-77.2 265.49,-79.43 269.14,-85.4"/>
</a>
</g>
</g>
<!-- Node3 -->
<g id="Node000003" class="node">
<title>Node3</title>
<g id="a_Node000003"><a xlink:title=" ">
<polygon fill="#e0e0e0" stroke="#999999" points="61,-20 0,-20 0,0 61,0 61,-20"/>
<text xml:space="preserve" text-anchor="middle" x="30.5" y="-6.5" font-family="Helvetica,sans-Serif" font-size="10.00">filesystem</text>
</a>
</g>
</g>
<!-- Node2&#45;&gt;Node3 -->
<g id="edge2_Node000002_Node000003" class="edge">
<title>Node2&#45;&gt;Node3</title>
<g id="a_edge2_Node000002_Node000003"><a xlink:title=" ">
<path fill="none" stroke="#63b8ff" d="M71.79,-55.59C64.91,-48.16 55.11,-37.58 46.78,-28.58"/>
<polygon fill="#63b8ff" stroke="#63b8ff" points="49.5,-26.37 40.14,-21.41 44.36,-31.12 49.5,-26.37"/>
</a>
</g>
</g>
<!-- Node4 -->
<g id="Node000004" class="node">
<title>Node4</title>
<g id="a_Node000004"><a xlink:title=" ">
<polygon fill="#e0e0e0" stroke="#999999" points="182,-20 79,-20 79,0 182,0 182,-20"/>
<text xml:space="preserve" text-anchor="middle" x="130.5" y="-6.5" font-family="Helvetica,sans-Serif" font-size="10.00">SFML/Graphics.hpp</text>
</a>
</g>
</g>
<!-- Node2&#45;&gt;Node4 -->
<g id="edge3_Node000002_Node000004" class="edge">
<title>Node2&#45;&gt;Node4</title>
<g id="a_edge3_Node000002_Node000004"><a xlink:title=" ">
<path fill="none" stroke="#63b8ff" d="M89.21,-55.59C96.09,-48.16 105.89,-37.58 114.22,-28.58"/>
<polygon fill="#63b8ff" stroke="#63b8ff" points="116.64,-31.12 120.86,-21.41 111.5,-26.37 116.64,-31.12"/>
</a>
</g>
</g>
</g>
</svg>
