<?xml version="1.0" encoding="UTF-8" standalone="no"?>
<!DOCTYPE svg PUBLIC "-//W3C//DTD SVG 1.1//EN"
 "http://www.w3.org/Graphics/SVG/1.1/DTD/svg11.dtd">
<!-- Generated by graphviz version 13.0.0 (20250608.1624)
 -->
<!-- Title: src/test/main.cpp Pages: 1 -->
<svg width="192pt" height="89pt"
 viewBox="0.00 0.00 192.00 89.00" xmlns="http://www.w3.org/2000/svg" xmlns:xlink="http://www.w3.org/1999/xlink">
<g id="graph0" class="graph" transform="scale(1 1) rotate(0) translate(4 84.5)">
<title>src/test/main.cpp</title>
<!-- Node1 -->
<g id="Node000001" class="node">
<title>Node1</title>
<g id="a_Node000001"><a xlink:title=" ">
<polygon fill="#999999" stroke="#666666" points="130.88,-80.5 30.12,-80.5 30.12,-58.25 130.88,-58.25 130.88,-80.5"/>
<text xml:space="preserve" text-anchor="middle" x="80.5" y="-67" font-family="Microsoft YaHei" font-size="10.00">src/test/main.cpp</text>
</a>
</g>
</g>
<!-- Node2 -->
<g id="Node000002" class="node">
<title>Node2</title>
<g id="a_Node000002"><a xlink:title=" ">
<polygon fill="#e0e0e0" stroke="#999999" points="61,-22.25 0,-22.25 0,0 61,0 61,-22.25"/>
<text xml:space="preserve" text-anchor="middle" x="30.5" y="-8.75" font-family="Microsoft YaHei" font-size="10.00">main.hpp</text>
</a>
</g>
</g>
<!-- Node1&#45;&gt;Node2 -->
<g id="edge1_Node000001_Node000002" class="edge">
<title>Node1&#45;&gt;Node2</title>
<g id="a_edge1_Node000001_Node000002"><a xlink:title=" ">
<path fill="none" stroke="#63b8ff" d="M71.1,-57.79C64.46,-50.33 55.39,-40.12 47.5,-31.25"/>
<polygon fill="#63b8ff" stroke="#63b8ff" points="50.13,-28.94 40.87,-23.79 44.9,-33.59 50.13,-28.94"/>
</a>
</g>
</g>
<!-- Node3 -->
<g id="Node000003" class="node">
<title>Node3</title>
<g id="a_Node000003"><a xlink:title=" ">
<polygon fill="#e0e0e0" stroke="#999999" points="183.75,-22.25 79.25,-22.25 79.25,0 183.75,0 183.75,-22.25"/>
<text xml:space="preserve" text-anchor="middle" x="131.5" y="-8.75" font-family="Microsoft YaHei" font-size="10.00">ComplexPage.hpp</text>
</a>
</g>
</g>
<!-- Node1&#45;&gt;Node3 -->
<g id="edge2_Node000001_Node000003" class="edge">
<title>Node1&#45;&gt;Node3</title>
<g id="a_edge2_Node000001_Node000003"><a xlink:title=" ">
<path fill="none" stroke="#63b8ff" d="M90.09,-57.79C96.93,-50.25 106.31,-39.91 114.41,-30.97"/>
<polygon fill="#63b8ff" stroke="#63b8ff" points="116.81,-33.54 120.93,-23.78 111.62,-28.84 116.81,-33.54"/>
</a>
</g>
</g>
</g>
</svg>
