<?xml version="1.0" encoding="UTF-8" standalone="no"?>
<!DOCTYPE svg PUBLIC "-//W3C//DTD SVG 1.1//EN"
 "http://www.w3.org/Graphics/SVG/1.1/DTD/svg11.dtd">
<!-- Generated by graphviz version 13.0.0 (20250608.1624)
 -->
<!-- Title: include/core/pages/page_emplate.hpp Pages: 1 -->
<svg width="782pt" height="488pt"
 viewBox="0.00 0.00 782.00 488.00" xmlns="http://www.w3.org/2000/svg" xmlns:xlink="http://www.w3.org/1999/xlink">
<g id="graph0" class="graph" transform="scale(1 1) rotate(0) translate(4 484)">
<title>include/core/pages/page_emplate.hpp</title>
<!-- Node1 -->
<g id="Node000001" class="node">
<title>Node1</title>
<g id="a_Node000001"><a xlink:title=" ">
<polygon fill="#999999" stroke="#666666" points="506.5,-480 408,-480 408,-448 506.5,-448 506.5,-480"/>
<text xml:space="preserve" text-anchor="start" x="416" y="-466.5" font-family="Helvetica,sans-Serif" font-size="10.00">include/core/pages</text>
<text xml:space="preserve" text-anchor="middle" x="457.25" y="-454.5" font-family="Helvetica,sans-Serif" font-size="10.00">/page_emplate.hpp</text>
</a>
</g>
</g>
<!-- Node2 -->
<g id="Node000002" class="node">
<title>Node2</title>
<g id="a_Node000002"><a xlink:href="_complex_page_8hpp.html" target="_top" xlink:title=" ">
<polygon fill="white" stroke="#666666" points="467.38,-412 371.12,-412 371.12,-392 467.38,-392 467.38,-412"/>
<text xml:space="preserve" text-anchor="middle" x="419.25" y="-398.5" font-family="Helvetica,sans-Serif" font-size="10.00">ComplexPage.hpp</text>
</a>
</g>
</g>
<!-- Node1&#45;&gt;Node2 -->
<g id="edge1_Node000001_Node000002" class="edge">
<title>Node1&#45;&gt;Node2</title>
<g id="a_edge1_Node000001_Node000002"><a xlink:title=" ">
<path fill="none" stroke="#63b8ff" d="M447.46,-447.55C442.52,-439.74 436.47,-430.19 431.24,-421.94"/>
<polygon fill="#63b8ff" stroke="#63b8ff" points="434.33,-420.26 426.02,-413.69 428.41,-424.01 434.33,-420.26"/>
</a>
</g>
</g>
<!-- Node14 -->
<g id="Node000014" class="node">
<title>Node14</title>
<g id="a_Node000014"><a xlink:href="button_8hpp.html" target="_top" xlink:title=" ">
<polygon fill="white" stroke="#666666" points="526.12,-132 464.38,-132 464.38,-112 526.12,-112 526.12,-132"/>
<text xml:space="preserve" text-anchor="middle" x="495.25" y="-118.5" font-family="Helvetica,sans-Serif" font-size="10.00">button.hpp</text>
</a>
</g>
</g>
<!-- Node1&#45;&gt;Node14 -->
<g id="edge35_Node000001_Node000014" class="edge">
<title>Node1&#45;&gt;Node14</title>
<g id="a_edge35_Node000001_Node000014"><a xlink:title=" ">
<path fill="none" stroke="#63b8ff" d="M465.68,-447.76C476.88,-426.07 495.25,-384.72 495.25,-347 495.25,-347 495.25,-347 495.25,-233 495.25,-201.87 495.25,-165.78 495.25,-143.68"/>
<polygon fill="#63b8ff" stroke="#63b8ff" points="498.75,-143.93 495.25,-133.93 491.75,-143.93 498.75,-143.93"/>
</a>
</g>
</g>
<!-- Node3 -->
<g id="Node000003" class="node">
<title>Node3</title>
<g id="a_Node000003"><a xlink:href="_interactive_page_8hpp.html" target="_top" xlink:title=" ">
<polygon fill="white" stroke="#666666" points="358.75,-356 255.75,-356 255.75,-336 358.75,-336 358.75,-356"/>
<text xml:space="preserve" text-anchor="middle" x="307.25" y="-342.5" font-family="Helvetica,sans-Serif" font-size="10.00">InteractivePage.hpp</text>
</a>
</g>
</g>
<!-- Node2&#45;&gt;Node3 -->
<g id="edge2_Node000002_Node000003" class="edge">
<title>Node2&#45;&gt;Node3</title>
<g id="a_edge2_Node000002_Node000003"><a xlink:title=" ">
<path fill="none" stroke="#63b8ff" d="M399.74,-391.59C382.5,-383.28 357.09,-371.03 337.26,-361.47"/>
<polygon fill="#63b8ff" stroke="#63b8ff" points="338.8,-358.33 328.27,-357.14 335.76,-364.63 338.8,-358.33"/>
</a>
</g>
</g>
<!-- Node24 -->
<g id="Node000024" class="node">
<title>Node24</title>
<g id="a_Node000024"><a xlink:href="_control_page_8hpp.html" target="_top" xlink:title=" ">
<polygon fill="white" stroke="#666666" points="465.62,-356 376.88,-356 376.88,-336 465.62,-336 465.62,-356"/>
<text xml:space="preserve" text-anchor="middle" x="421.25" y="-342.5" font-family="Helvetica,sans-Serif" font-size="10.00">ControlPage.hpp</text>
</a>
</g>
</g>
<!-- Node2&#45;&gt;Node24 -->
<g id="edge32_Node000002_Node000024" class="edge">
<title>Node2&#45;&gt;Node24</title>
<g id="a_edge32_Node000002_Node000024"><a xlink:title=" ">
<path fill="none" stroke="#63b8ff" d="M419.6,-391.59C419.84,-385.01 420.18,-375.96 420.48,-367.73"/>
<polygon fill="#63b8ff" stroke="#63b8ff" points="423.98,-367.93 420.85,-357.81 416.98,-367.67 423.98,-367.93"/>
</a>
</g>
</g>
<!-- Node4 -->
<g id="Node000004" class="node">
<title>Node4</title>
<g id="a_Node000004"><a xlink:href="_page_8hpp.html" target="_top" xlink:title=" ">
<polygon fill="white" stroke="#666666" points="402.88,-244 345.62,-244 345.62,-224 402.88,-224 402.88,-244"/>
<text xml:space="preserve" text-anchor="middle" x="374.25" y="-230.5" font-family="Helvetica,sans-Serif" font-size="10.00">Page.hpp</text>
</a>
</g>
</g>
<!-- Node3&#45;&gt;Node4 -->
<g id="edge3_Node000003_Node000004" class="edge">
<title>Node3&#45;&gt;Node4</title>
<g id="a_edge3_Node000003_Node000004"><a xlink:title=" ">
<path fill="none" stroke="#63b8ff" d="M308.42,-335.54C310.39,-322.29 315.29,-297.83 326.25,-280 332.98,-269.05 343.06,-259.04 352.25,-251.25"/>
<polygon fill="#63b8ff" stroke="#63b8ff" points="354.19,-254.18 359.81,-245.19 349.82,-248.71 354.19,-254.18"/>
</a>
</g>
</g>
<!-- Node21 -->
<g id="Node000021" class="node">
<title>Node21</title>
<g id="a_Node000021"><a xlink:href="_interactive_8hpp.html" target="_top" xlink:title=" ">
<polygon fill="white" stroke="#666666" points="279.5,-300 199,-300 199,-280 279.5,-280 279.5,-300"/>
<text xml:space="preserve" text-anchor="middle" x="239.25" y="-286.5" font-family="Helvetica,sans-Serif" font-size="10.00">Interactive.hpp</text>
</a>
</g>
</g>
<!-- Node3&#45;&gt;Node21 -->
<g id="edge28_Node000003_Node000021" class="edge">
<title>Node3&#45;&gt;Node21</title>
<g id="a_edge28_Node000003_Node000021"><a xlink:title=" ">
<path fill="none" stroke="#63b8ff" d="M295.41,-335.59C285.56,-327.77 271.32,-316.46 259.64,-307.19"/>
<polygon fill="#63b8ff" stroke="#63b8ff" points="262.15,-304.72 252.14,-301.24 257.8,-310.2 262.15,-304.72"/>
</a>
</g>
</g>
<!-- Node22 -->
<g id="Node000022" class="node">
<title>Node22</title>
<g id="a_Node000022"><a xlink:href="_window_8hpp.html" target="_top" xlink:title=" ">
<polygon fill="white" stroke="#666666" points="404.88,-300 335.62,-300 335.62,-280 404.88,-280 404.88,-300"/>
<text xml:space="preserve" text-anchor="middle" x="370.25" y="-286.5" font-family="Helvetica,sans-Serif" font-size="10.00">Window.hpp</text>
</a>
</g>
</g>
<!-- Node3&#45;&gt;Node22 -->
<g id="edge29_Node000003_Node000022" class="edge">
<title>Node3&#45;&gt;Node22</title>
<g id="a_edge29_Node000003_Node000022"><a xlink:title=" ">
<path fill="none" stroke="#63b8ff" d="M318.22,-335.59C327.17,-327.93 340.02,-316.91 350.71,-307.75"/>
<polygon fill="#63b8ff" stroke="#63b8ff" points="352.94,-310.45 358.25,-301.28 348.38,-305.13 352.94,-310.45"/>
</a>
</g>
</g>
<!-- Node5 -->
<g id="Node000005" class="node">
<title>Node5</title>
<g id="a_Node000005"><a xlink:title=" ">
<polygon fill="#e0e0e0" stroke="#999999" points="98.5,-188 0,-188 0,-168 98.5,-168 98.5,-188"/>
<text xml:space="preserve" text-anchor="middle" x="49.25" y="-174.5" font-family="Helvetica,sans-Serif" font-size="10.00">SFML/Window.hpp</text>
</a>
</g>
</g>
<!-- Node4&#45;&gt;Node5 -->
<g id="edge4_Node000004_Node000005" class="edge">
<title>Node4&#45;&gt;Node5</title>
<g id="a_edge4_Node000004_Node000005"><a xlink:title=" ">
<path fill="none" stroke="#63b8ff" d="M345.25,-225.89C342.22,-225.22 339.18,-224.58 336.25,-224 294.09,-215.71 180.92,-198.52 109.93,-187.95"/>
<polygon fill="#63b8ff" stroke="#63b8ff" points="110.82,-184.55 100.42,-186.54 109.79,-191.47 110.82,-184.55"/>
</a>
</g>
</g>
<!-- Node6 -->
<g id="Node000006" class="node">
<title>Node6</title>
<g id="a_Node000006"><a xlink:href="_active_key_binding_8hpp.html" target="_top" xlink:title=" ">
<polygon fill="white" stroke="#666666" points="298.25,-188 186.25,-188 186.25,-168 298.25,-168 298.25,-188"/>
<text xml:space="preserve" text-anchor="middle" x="242.25" y="-174.5" font-family="Helvetica,sans-Serif" font-size="10.00">ActiveKeyBinding.hpp</text>
</a>
</g>
</g>
<!-- Node4&#45;&gt;Node6 -->
<g id="edge5_Node000004_Node000006" class="edge">
<title>Node4&#45;&gt;Node6</title>
<g id="a_edge5_Node000004_Node000006"><a xlink:title=" ">
<path fill="none" stroke="#63b8ff" d="M351.26,-223.59C330.47,-215.09 299.6,-202.46 276.01,-192.81"/>
<polygon fill="#63b8ff" stroke="#63b8ff" points="277.4,-189.6 266.82,-189.05 274.75,-196.08 277.4,-189.6"/>
</a>
</g>
</g>
<!-- Node10 -->
<g id="Node000010" class="node">
<title>Node10</title>
<g id="a_Node000010"><a xlink:href="_mouse_8hpp.html" target="_top" xlink:title=" ">
<polygon fill="white" stroke="#666666" points="136.25,-76 72.25,-76 72.25,-56 136.25,-56 136.25,-76"/>
<text xml:space="preserve" text-anchor="middle" x="104.25" y="-62.5" font-family="Helvetica,sans-Serif" font-size="10.00">Mouse.hpp</text>
</a>
</g>
</g>
<!-- Node4&#45;&gt;Node10 -->
<g id="edge9_Node000004_Node000010" class="edge">
<title>Node4&#45;&gt;Node10</title>
<g id="a_edge9_Node000004_Node000010"><a xlink:title=" ">
<path fill="none" stroke="#63b8ff" d="M345.21,-226.09C342.19,-225.38 339.16,-224.67 336.25,-224 265.66,-207.65 236,-230.41 177.25,-188 141.9,-162.48 120.45,-114.09 110.64,-86.87"/>
<polygon fill="#63b8ff" stroke="#63b8ff" points="114.07,-86.09 107.53,-77.76 107.45,-88.35 114.07,-86.09"/>
</a>
</g>
</g>
<!-- Node11 -->
<g id="Node000011" class="node">
<title>Node11</title>
<g id="a_Node000011"><a xlink:href="textbox_8hpp.html" target="_top" xlink:title=" ">
<polygon fill="white" stroke="#666666" points="773.75,-132 706.75,-132 706.75,-112 773.75,-112 773.75,-132"/>
<text xml:space="preserve" text-anchor="middle" x="740.25" y="-118.5" font-family="Helvetica,sans-Serif" font-size="10.00">textbox.hpp</text>
</a>
</g>
</g>
<!-- Node4&#45;&gt;Node11 -->
<g id="edge11_Node000004_Node000011" class="edge">
<title>Node4&#45;&gt;Node11</title>
<g id="a_edge11_Node000004_Node000011"><a xlink:title=" ">
<path fill="none" stroke="#63b8ff" d="M403.33,-232.89C455.65,-231.72 568.21,-224.71 654.25,-188 680.97,-176.6 706.91,-155.12 723.19,-139.98"/>
<polygon fill="#63b8ff" stroke="#63b8ff" points="725.29,-142.82 730.09,-133.37 720.45,-137.76 725.29,-142.82"/>
</a>
</g>
</g>
<!-- Node13 -->
<g id="Node000013" class="node">
<title>Node13</title>
<g id="a_Node000013"><a xlink:href="_event_binding_8hpp.html" target="_top" xlink:title=" ">
<polygon fill="white" stroke="#666666" points="425.5,-188 333,-188 333,-168 425.5,-168 425.5,-188"/>
<text xml:space="preserve" text-anchor="middle" x="379.25" y="-174.5" font-family="Helvetica,sans-Serif" font-size="10.00">EventBinding.hpp</text>
</a>
</g>
</g>
<!-- Node4&#45;&gt;Node13 -->
<g id="edge14_Node000004_Node000013" class="edge">
<title>Node4&#45;&gt;Node13</title>
<g id="a_edge14_Node000004_Node000013"><a xlink:title=" ">
<path fill="none" stroke="#63b8ff" d="M375.12,-223.59C375.73,-217.01 376.57,-207.96 377.33,-199.73"/>
<polygon fill="#63b8ff" stroke="#63b8ff" points="380.81,-200.09 378.25,-189.81 373.84,-199.44 380.81,-200.09"/>
</a>
</g>
</g>
<!-- Node18 -->
<g id="Node000018" class="node">
<title>Node18</title>
<g id="a_Node000018"><a xlink:href="inputbox_8hpp.html" target="_top" xlink:title=" ">
<polygon fill="white" stroke="#666666" points="645,-188 573.5,-188 573.5,-168 645,-168 645,-188"/>
<text xml:space="preserve" text-anchor="middle" x="609.25" y="-174.5" font-family="Helvetica,sans-Serif" font-size="10.00">inputbox.hpp</text>
</a>
</g>
</g>
<!-- Node4&#45;&gt;Node18 -->
<g id="edge23_Node000004_Node000018" class="edge">
<title>Node4&#45;&gt;Node18</title>
<g id="a_edge23_Node000004_Node000018"><a xlink:title=" ">
<path fill="none" stroke="#63b8ff" d="M403.07,-226.38C442.78,-217.25 514.81,-200.7 562.34,-189.78"/>
<polygon fill="#63b8ff" stroke="#63b8ff" points="562.83,-193.26 571.8,-187.61 561.27,-186.44 562.83,-193.26"/>
</a>
</g>
</g>
<!-- Node7 -->
<g id="Node000007" class="node">
<title>Node7</title>
<g id="a_Node000007"><a xlink:title=" ">
<polygon fill="#e0e0e0" stroke="#999999" points="481.75,-20 378.75,-20 378.75,0 481.75,0 481.75,-20"/>
<text xml:space="preserve" text-anchor="middle" x="430.25" y="-6.5" font-family="Helvetica,sans-Serif" font-size="10.00">SFML/Graphics.hpp</text>
</a>
</g>
</g>
<!-- Node6&#45;&gt;Node7 -->
<g id="edge6_Node000006_Node000007" class="edge">
<title>Node6&#45;&gt;Node7</title>
<g id="a_edge6_Node000006_Node000007"><a xlink:title=" ">
<path fill="none" stroke="#63b8ff" d="M222.64,-167.63C200.29,-155.62 168.64,-133.76 183.25,-112 224.07,-51.21 308.65,-26.98 367.38,-17.34"/>
<polygon fill="#63b8ff" stroke="#63b8ff" points="367.55,-20.86 376.9,-15.88 366.49,-13.94 367.55,-20.86"/>
</a>
</g>
</g>
<!-- Node8 -->
<g id="Node000008" class="node">
<title>Node8</title>
<g id="a_Node000008"><a xlink:title=" ">
<polygon fill="#e0e0e0" stroke="#999999" points="350.25,-132 292.25,-132 292.25,-112 350.25,-112 350.25,-132"/>
<text xml:space="preserve" text-anchor="middle" x="321.25" y="-118.5" font-family="Helvetica,sans-Serif" font-size="10.00">functional</text>
</a>
</g>
</g>
<!-- Node6&#45;&gt;Node8 -->
<g id="edge7_Node000006_Node000008" class="edge">
<title>Node6&#45;&gt;Node8</title>
<g id="a_edge7_Node000006_Node000008"><a xlink:title=" ">
<path fill="none" stroke="#63b8ff" d="M256.01,-167.59C267.61,-159.67 284.45,-148.16 298.11,-138.82"/>
<polygon fill="#63b8ff" stroke="#63b8ff" points="299.85,-141.87 306.13,-133.33 295.9,-136.09 299.85,-141.87"/>
</a>
</g>
</g>
<!-- Node9 -->
<g id="Node000009" class="node">
<title>Node9</title>
<g id="a_Node000009"><a xlink:title=" ">
<polygon fill="#e0e0e0" stroke="#999999" points="274.62,-132 191.88,-132 191.88,-112 274.62,-112 274.62,-132"/>
<text xml:space="preserve" text-anchor="middle" x="233.25" y="-118.5" font-family="Helvetica,sans-Serif" font-size="10.00">unordered_map</text>
</a>
</g>
</g>
<!-- Node6&#45;&gt;Node9 -->
<g id="edge8_Node000006_Node000009" class="edge">
<title>Node6&#45;&gt;Node9</title>
<g id="a_edge8_Node000006_Node000009"><a xlink:title=" ">
<path fill="none" stroke="#63b8ff" d="M240.68,-167.59C239.57,-160.93 238.04,-151.75 236.66,-143.44"/>
<polygon fill="#63b8ff" stroke="#63b8ff" points="240.14,-143.08 235.05,-133.79 233.24,-144.23 240.14,-143.08"/>
</a>
</g>
</g>
<!-- Node10&#45;&gt;Node7 -->
<g id="edge10_Node000010_Node000007" class="edge">
<title>Node10&#45;&gt;Node7</title>
<g id="a_edge10_Node000010_Node000007"><a xlink:title=" ">
<path fill="none" stroke="#63b8ff" d="M136.39,-58.57C141.04,-57.68 145.76,-56.8 150.25,-56 224.51,-42.77 310.16,-29.26 366.98,-20.54"/>
<polygon fill="#63b8ff" stroke="#63b8ff" points="367.45,-24.01 376.8,-19.04 366.39,-17.09 367.45,-24.01"/>
</a>
</g>
</g>
<!-- Node11&#45;&gt;Node7 -->
<g id="edge13_Node000011_Node000007" class="edge">
<title>Node11&#45;&gt;Node7</title>
<g id="a_edge13_Node000011_Node000007"><a xlink:title=" ">
<path fill="none" stroke="#63b8ff" d="M727,-111.61C706.54,-97.54 665.6,-71.02 627.25,-56 583.99,-39.06 532.77,-27.6 493.4,-20.49"/>
<polygon fill="#63b8ff" stroke="#63b8ff" points="494.05,-17.05 483.6,-18.77 492.85,-23.95 494.05,-17.05"/>
</a>
</g>
</g>
<!-- Node12 -->
<g id="Node000012" class="node">
<title>Node12</title>
<g id="a_Node000012"><a xlink:title=" ">
<polygon fill="#e0e0e0" stroke="#999999" points="770.75,-76 709.75,-76 709.75,-56 770.75,-56 770.75,-76"/>
<text xml:space="preserve" text-anchor="middle" x="740.25" y="-62.5" font-family="Helvetica,sans-Serif" font-size="10.00">filesystem</text>
</a>
</g>
</g>
<!-- Node11&#45;&gt;Node12 -->
<g id="edge12_Node000011_Node000012" class="edge">
<title>Node11&#45;&gt;Node12</title>
<g id="a_edge12_Node000011_Node000012"><a xlink:title=" ">
<path fill="none" stroke="#63b8ff" d="M740.25,-111.59C740.25,-105.01 740.25,-95.96 740.25,-87.73"/>
<polygon fill="#63b8ff" stroke="#63b8ff" points="743.75,-87.81 740.25,-77.81 736.75,-87.81 743.75,-87.81"/>
</a>
</g>
</g>
<!-- Node13&#45;&gt;Node7 -->
<g id="edge15_Node000013_Node000007" class="edge">
<title>Node13&#45;&gt;Node7</title>
<g id="a_edge15_Node000013_Node000007"><a xlink:title=" ">
<path fill="none" stroke="#63b8ff" d="M389.94,-167.83C398.89,-159.48 411.14,-146.29 417.25,-132 431.4,-98.92 432.48,-56.3 431.61,-31.47"/>
<polygon fill="#63b8ff" stroke="#63b8ff" points="435.12,-31.58 431.12,-21.77 428.13,-31.94 435.12,-31.58"/>
</a>
</g>
</g>
<!-- Node13&#45;&gt;Node8 -->
<g id="edge16_Node000013_Node000008" class="edge">
<title>Node13&#45;&gt;Node8</title>
<g id="a_edge16_Node000013_Node000008"><a xlink:title=" ">
<path fill="none" stroke="#63b8ff" d="M369.15,-167.59C361,-160.01 349.32,-149.13 339.53,-140.02"/>
<polygon fill="#63b8ff" stroke="#63b8ff" points="342.05,-137.58 332.34,-133.33 337.28,-142.71 342.05,-137.58"/>
</a>
</g>
</g>
<!-- Node13&#45;&gt;Node9 -->
<g id="edge17_Node000013_Node000009" class="edge">
<title>Node13&#45;&gt;Node9</title>
<g id="a_edge17_Node000013_Node000009"><a xlink:title=" ">
<path fill="none" stroke="#63b8ff" d="M353.82,-167.59C330.51,-158.97 295.75,-146.12 269.53,-136.42"/>
<polygon fill="#63b8ff" stroke="#63b8ff" points="270.89,-133.19 260.3,-133 268.46,-139.76 270.89,-133.19"/>
</a>
</g>
</g>
<!-- Node13&#45;&gt;Node14 -->
<g id="edge18_Node000013_Node000014" class="edge">
<title>Node13&#45;&gt;Node14</title>
<g id="a_edge18_Node000013_Node000014"><a xlink:title=" ">
<path fill="none" stroke="#63b8ff" d="M399.46,-167.59C417.48,-159.21 444.12,-146.8 464.73,-137.21"/>
<polygon fill="#63b8ff" stroke="#63b8ff" points="465.93,-140.51 473.51,-133.12 462.97,-134.17 465.93,-140.51"/>
</a>
</g>
</g>
<!-- Node17 -->
<g id="Node000017" class="node">
<title>Node17</title>
<g id="a_Node000017"><a xlink:title=" ">
<polygon fill="#e0e0e0" stroke="#999999" points="407.88,-132 368.62,-132 368.62,-112 407.88,-112 407.88,-132"/>
<text xml:space="preserve" text-anchor="middle" x="388.25" y="-118.5" font-family="Helvetica,sans-Serif" font-size="10.00">utility</text>
</a>
</g>
</g>
<!-- Node13&#45;&gt;Node17 -->
<g id="edge22_Node000013_Node000017" class="edge">
<title>Node13&#45;&gt;Node17</title>
<g id="a_edge22_Node000013_Node000017"><a xlink:title=" ">
<path fill="none" stroke="#63b8ff" d="M380.82,-167.59C381.93,-160.93 383.46,-151.75 384.84,-143.44"/>
<polygon fill="#63b8ff" stroke="#63b8ff" points="388.26,-144.23 386.45,-133.79 381.36,-143.08 388.26,-144.23"/>
</a>
</g>
</g>
<!-- Node15 -->
<g id="Node000015" class="node">
<title>Node15</title>
<g id="a_Node000015"><a xlink:href="_texture_item_8hpp.html" target="_top" xlink:title=" ">
<polygon fill="white" stroke="#666666" points="544.5,-76 458,-76 458,-56 544.5,-56 544.5,-76"/>
<text xml:space="preserve" text-anchor="middle" x="501.25" y="-62.5" font-family="Helvetica,sans-Serif" font-size="10.00">TextureItem.hpp</text>
</a>
</g>
</g>
<!-- Node14&#45;&gt;Node15 -->
<g id="edge19_Node000014_Node000015" class="edge">
<title>Node14&#45;&gt;Node15</title>
<g id="a_edge19_Node000014_Node000015"><a xlink:title=" ">
<path fill="none" stroke="#63b8ff" d="M496.3,-111.59C497.03,-105.01 498.03,-95.96 498.95,-87.73"/>
<polygon fill="#63b8ff" stroke="#63b8ff" points="502.42,-88.13 500.05,-77.8 495.47,-87.35 502.42,-88.13"/>
</a>
</g>
</g>
<!-- Node16 -->
<g id="Node000016" class="node">
<title>Node16</title>
<g id="a_Node000016"><a xlink:href="_area_8hpp.html" target="_top" xlink:title=" ">
<polygon fill="white" stroke="#666666" points="617.75,-76 562.75,-76 562.75,-56 617.75,-56 617.75,-76"/>
<text xml:space="preserve" text-anchor="middle" x="590.25" y="-62.5" font-family="Helvetica,sans-Serif" font-size="10.00">Area.hpp</text>
</a>
</g>
</g>
<!-- Node14&#45;&gt;Node16 -->
<g id="edge21_Node000014_Node000016" class="edge">
<title>Node14&#45;&gt;Node16</title>
<g id="a_edge21_Node000014_Node000016"><a xlink:title=" ">
<path fill="none" stroke="#63b8ff" d="M511.8,-111.59C526.15,-103.44 547.18,-91.48 563.85,-82"/>
<polygon fill="#63b8ff" stroke="#63b8ff" points="565.29,-85.21 572.26,-77.23 561.83,-79.13 565.29,-85.21"/>
</a>
</g>
</g>
<!-- Node15&#45;&gt;Node7 -->
<g id="edge20_Node000015_Node000007" class="edge">
<title>Node15&#45;&gt;Node7</title>
<g id="a_edge20_Node000015_Node000007"><a xlink:title=" ">
<path fill="none" stroke="#63b8ff" d="M488.88,-55.59C478.6,-47.77 463.73,-36.46 451.54,-27.19"/>
<polygon fill="#63b8ff" stroke="#63b8ff" points="453.76,-24.48 443.68,-21.21 449.52,-30.05 453.76,-24.48"/>
</a>
</g>
</g>
<!-- Node18&#45;&gt;Node11 -->
<g id="edge24_Node000018_Node000011" class="edge">
<title>Node18&#45;&gt;Node11</title>
<g id="a_edge24_Node000018_Node000011"><a xlink:title=" ">
<path fill="none" stroke="#63b8ff" d="M632.07,-167.59C652.7,-159.09 683.33,-146.46 706.74,-136.81"/>
<polygon fill="#63b8ff" stroke="#63b8ff" points="707.94,-140.1 715.85,-133.06 705.27,-133.63 707.94,-140.1"/>
</a>
</g>
</g>
<!-- Node18&#45;&gt;Node16 -->
<g id="edge25_Node000018_Node000016" class="edge">
<title>Node18&#45;&gt;Node16</title>
<g id="a_edge25_Node000018_Node000016"><a xlink:title=" ">
<path fill="none" stroke="#63b8ff" d="M598.4,-167.53C589.72,-159.18 578.22,-146.16 573.25,-132 567.99,-117.02 573.13,-99.59 579.1,-86.55"/>
<polygon fill="#63b8ff" stroke="#63b8ff" points="582.17,-88.24 583.62,-77.75 575.94,-85.04 582.17,-88.24"/>
</a>
</g>
</g>
<!-- Node19 -->
<g id="Node000019" class="node">
<title>Node19</title>
<g id="a_Node000019"><a xlink:title=" ">
<polygon fill="#e0e0e0" stroke="#999999" points="636,-132 582.5,-132 582.5,-112 636,-112 636,-132"/>
<text xml:space="preserve" text-anchor="middle" x="609.25" y="-118.5" font-family="Helvetica,sans-Serif" font-size="10.00">iostream</text>
</a>
</g>
</g>
<!-- Node18&#45;&gt;Node19 -->
<g id="edge26_Node000018_Node000019" class="edge">
<title>Node18&#45;&gt;Node19</title>
<g id="a_edge26_Node000018_Node000019"><a xlink:title=" ">
<path fill="none" stroke="#63b8ff" d="M609.25,-167.59C609.25,-161.01 609.25,-151.96 609.25,-143.73"/>
<polygon fill="#63b8ff" stroke="#63b8ff" points="612.75,-143.81 609.25,-133.81 605.75,-143.81 612.75,-143.81"/>
</a>
</g>
</g>
<!-- Node20 -->
<g id="Node000020" class="node">
<title>Node20</title>
<g id="a_Node000020"><a xlink:title=" ">
<polygon fill="#e0e0e0" stroke="#999999" points="688.62,-132 653.88,-132 653.88,-112 688.62,-112 688.62,-132"/>
<text xml:space="preserve" text-anchor="middle" x="671.25" y="-118.5" font-family="Helvetica,sans-Serif" font-size="10.00">print</text>
</a>
</g>
</g>
<!-- Node18&#45;&gt;Node20 -->
<g id="edge27_Node000018_Node000020" class="edge">
<title>Node18&#45;&gt;Node20</title>
<g id="a_edge27_Node000018_Node000020"><a xlink:title=" ">
<path fill="none" stroke="#63b8ff" d="M620.05,-167.59C628.85,-159.93 641.5,-148.91 652.02,-139.75"/>
<polygon fill="#63b8ff" stroke="#63b8ff" points="654.19,-142.5 659.43,-133.29 649.59,-137.22 654.19,-142.5"/>
</a>
</g>
</g>
<!-- Node22&#45;&gt;Node4 -->
<g id="edge31_Node000022_Node000004" class="edge">
<title>Node22&#45;&gt;Node4</title>
<g id="a_edge31_Node000022_Node000004"><a xlink:title=" ">
<path fill="none" stroke="#63b8ff" d="M370.95,-279.59C371.43,-273.01 372.1,-263.96 372.71,-255.73"/>
<polygon fill="#63b8ff" stroke="#63b8ff" points="376.2,-256.04 373.45,-245.81 369.22,-255.52 376.2,-256.04"/>
</a>
</g>
</g>
<!-- Node23 -->
<g id="Node000023" class="node">
<title>Node23</title>
<g id="a_Node000023"><a xlink:title=" ">
<polygon fill="#e0e0e0" stroke="#999999" points="327.12,-244 199.38,-244 199.38,-224 327.12,-224 327.12,-244"/>
<text xml:space="preserve" text-anchor="middle" x="263.25" y="-230.5" font-family="Helvetica,sans-Serif" font-size="10.00">SFML/Window/Event.hpp</text>
</a>
</g>
</g>
<!-- Node22&#45;&gt;Node23 -->
<g id="edge30_Node000022_Node000023" class="edge">
<title>Node22&#45;&gt;Node23</title>
<g id="a_edge30_Node000022_Node000023"><a xlink:title=" ">
<path fill="none" stroke="#63b8ff" d="M351.61,-279.59C335.22,-271.32 311.09,-259.14 292.19,-249.6"/>
<polygon fill="#63b8ff" stroke="#63b8ff" points="293.89,-246.54 283.38,-245.16 290.74,-252.79 293.89,-246.54"/>
</a>
</g>
</g>
<!-- Node24&#45;&gt;Node4 -->
<g id="edge33_Node000024_Node000004" class="edge">
<title>Node24&#45;&gt;Node4</title>
<g id="a_edge33_Node000024_Node000004"><a xlink:title=" ">
<path fill="none" stroke="#63b8ff" d="M421.98,-335.72C422.62,-322.68 422.43,-298.47 414.25,-280 409.59,-269.47 401.53,-259.67 393.86,-251.92"/>
<polygon fill="#63b8ff" stroke="#63b8ff" points="396.65,-249.74 386.98,-245.42 391.85,-254.83 396.65,-249.74"/>
</a>
</g>
</g>
<!-- Node24&#45;&gt;Node22 -->
<g id="edge34_Node000024_Node000022" class="edge">
<title>Node24&#45;&gt;Node22</title>
<g id="a_edge34_Node000024_Node000022"><a xlink:title=" ">
<path fill="none" stroke="#63b8ff" d="M412.37,-335.59C405.35,-328.16 395.35,-317.58 386.86,-308.58"/>
<polygon fill="#63b8ff" stroke="#63b8ff" points="389.48,-306.27 380.07,-301.4 384.39,-311.07 389.48,-306.27"/>
</a>
</g>
</g>
</g>
</svg>
